<?xml version="1.0" encoding="UTF-8"?>
<!DOCTYPE svg PUBLIC "-//W3C//DTD SVG 1.1//EN" "http://www.w3.org/Graphics/SVG/1.1/DTD/svg11.dtd">
<!-- Creator: CorelDRAW 2020 (64-Bit) -->
<svg xmlns="http://www.w3.org/2000/svg" xml:space="preserve" width="0.422406in" height="0.422417in" version="1.1" style="shape-rendering:geometricPrecision; text-rendering:geometricPrecision; image-rendering:optimizeQuality; fill-rule:evenodd; clip-rule:evenodd"
viewBox="0 0 14.33 14.33"
 xmlns:xlink="http://www.w3.org/1999/xlink"
 xmlns:xodm="http://www.corel.com/coreldraw/odm/2003">
 <defs>
  <style type="text/css">
   <![CDATA[
    .str2 {stroke:#595456;stroke-width:0.35;stroke-miterlimit:2.61313}
    .str0 {stroke:#595456;stroke-width:0.47;stroke-miterlimit:2.61313}
    .str1 {stroke:#595456;stroke-width:0.24;stroke-miterlimit:2.61313}
    .fil2 {fill:none}
    .fil4 {fill:#753A87;fill-rule:nonzero}
    .fil3 {fill:#9A59B6;fill-rule:nonzero}
    .fil0 {fill:#F0C30F;fill-rule:nonzero}
    .fil1 {fill:#F29A11;fill-rule:nonzero}
   ]]>
  </style>
 </defs>
 <g id="__x0023_Layer_x0020_1">
  <metadata id="CorelCorpID_0Corel-Layer"/>
  <path class="fil0 str0" d="M14.09 7.16c0,3.83 -3.1,6.93 -6.93,6.93 -3.82,0 -6.93,-3.1 -6.93,-6.93 0,-3.83 3.1,-6.93 6.93,-6.93 3.83,0 6.93,3.1 6.93,6.93z"/>
  <path class="fil1" d="M13.86 7.14l-3.1 -3.06c-0.06,-0.11 -0.34,-0.2 -0.76,-0.27l0.24 0.25c-0.01,0.03 -0.03,0.04 -0.07,0.08l-0.6 -0.59c-0.15,-0.15 -0.34,-0.29 -0.6,-0.39 -2.17,-1.12 -2.88,-0.35 -3.65,-0.06 -1.24,0.47 -1.53,1.29 0.09,2.9l-0.23 0.41 -0.29 0.35 -0.38 -0.37c-0.06,-0.07 -0.14,-0.12 -0.25,-0.14 0.09,0.12 0.01,0.29 0.03,0.43 0.01,0.07 0.05,0.13 0.11,0.16l0.23 0.23c-0.01,0.02 -0.03,0.04 -0.04,0.05 -0,0 -0,0.01 -0.01,0.01 -0.44,0.07 -0.7,0.18 -0.7,0.3 -0,0.04 0.03,0.09 0.09,0.13l0.15 0.15c-0.02,0.03 -0.04,0.05 -0.06,0.08 -0.35,0.06 -0.56,0.15 -0.56,0.25 -0,0.04 0.03,0.08 0.08,0.11l0.16 0.17c-0.05,0.11 -0.09,0.22 -0.12,0.33 -0.22,0.03 -0.36,0.08 -0.36,0.15 -0,0.03 0.02,0.06 0.07,0.09l0.24 0.25c0.02,0.19 0.09,0.36 0.2,0.52 -0.02,0 -0.03,0 -0.05,0 -0.32,0.01 -0.61,-0.01 -0.81,-0.04l4.24 4.18c3.75,-0.01 6.67,-2.92 6.72,-6.66z"/>
  <rect class="fil2 str1" x="2.39" y="2.39" width="9.55" height="9.55"/>
  <path class="fil3 str2" d="M11.77 7.16c0,2.55 -2.06,4.61 -4.61,4.61 -2.54,0 -4.61,-2.06 -4.61,-4.61 0,-2.54 2.06,-4.61 4.61,-4.61 2.55,0 4.61,2.06 4.61,4.61z"/>
  <path class="fil4" d="M11.77 7.16c0,2.55 -2.06,4.61 -4.61,4.61 -0.93,0 -1.8,-0.28 -2.52,-0.75 -0.28,-0.18 0.98,-0.57 0.83,-0.86 -0.37,-0.71 1.52,-1.71 1.48,-2.7 -0.1,-2.13 0.51,-2.15 0.6,-2.18 0.94,-0.36 0.8,-0.92 1.76,-0.68 0.75,0.19 0.41,-1.21 0.93,-0.78 0.36,0.29 0.64,0.6 0.81,0.88 0.45,0.71 0.71,1.56 0.71,2.47z"/>
  <path class="fil0" d="M7.22 4.62c0.45,-0 0.82,-0.37 0.81,-0.83 0,-0.45 -0.37,-0.82 -0.82,-0.81 -0.45,0 -0.82,0.37 -0.82,0.82 0,0.45 0.37,0.82 0.82,0.82z"/>
  <path class="fil0" d="M7.4 4.74c-0.07,-0 -0.15,-0 -0.22,-0l-0.01 0c-0.07,-0 -0.15,0 -0.22,0l0 0.01c-0.2,0.01 -0.4,0.05 -0.61,0.09l-0.1 -0.05 -0.34 -0.21 -1.27 -0.77c-0.21,-0.12 -0.46,-0.08 -0.57,0.09 -0.11,0.18 -0.03,0.42 0.18,0.55l1.27 0.77 0.34 0.21 0.5 0.3 0.03 0.45 -0.03 1.56 -1.57 2.38c-0.19,0.36 -0.16,0.67 0.05,0.79 0.17,0.1 0.45,0.1 0.75,-0.26 0.52,-0.63 1.27,-1.89 1.49,-2.19l0.12 -0 0.12 0c0.22,0.3 0.97,1.56 1.49,2.19 0.29,0.36 0.58,0.36 0.75,0.26 0.21,-0.12 0.24,-0.43 0.05,-0.79l-1.57 -2.38 -0.03 -1.56 0.03 -0.45 0.5 -0.3 0.34 -0.21 1.27 -0.77c0.2,-0.13 0.28,-0.37 0.18,-0.55 -0.11,-0.18 -0.36,-0.22 -0.57,-0.09l-1.27 0.77 -0.34 0.21 -0.1 0.05c-0.21,-0.05 -0.41,-0.08 -0.61,-0.09l0 -0.01z"/>
 </g>
</svg>
