<?xml version="1.0" encoding="utf-8"?>
<!-- Generator: Adobe Illustrator 16.0.0, SVG Export Plug-In . SVG Version: 6.00 Build 0)  -->
<!DOCTYPE svg PUBLIC "-//W3C//DTD SVG 1.1//EN" "http://www.w3.org/Graphics/SVG/1.1/DTD/svg11.dtd">
<svg version="1.1" id="Layer_1" xmlns="http://www.w3.org/2000/svg" xmlns:xlink="http://www.w3.org/1999/xlink" x="0px" y="0px"
	 width="512px" height="512px" viewBox="0 0 512 512" enable-background="new 0 0 512 512" xml:space="preserve">
<g id="headhunter_1_">
	<polygon fill="#5D9CEC" points="183.332,314.848 165.66,318.004 142.331,293.676 121.995,302.332 35.659,336.004 22.995,417.678 
		179.996,417.678 190.66,374.677 	"/>
	<polygon fill="#F5F7FA" points="212.332,344.348 215.66,293.676 190.66,309.676 184.332,406.349 233.66,411.349 	"/>
	<path fill="#F5F7FA" d="M197.996,293.676c-6.664-5.656-51-33.328-51-33.328l-7.665,21.672l28.001,31.328
		C167.332,313.348,204.66,299.332,197.996,293.676z"/>
	<polygon fill="#EAC6BB" points="273.996,95.003 208.996,118.003 106.823,137.003 124.995,223.004 198.793,286.848 224.996,286.848 
		301.997,225.004 320.997,137.003 	"/>
	<polygon fill="#FFCE54" points="315.997,86.003 285.996,37.002 223.996,14.002 150.996,27.002 110.995,80.002 106.823,129.003 
		124.386,133.737 198.793,119.894 273.996,95.003 320.997,117.003 	"/>
	<path fill="#4FC2E9" d="M449.998,339.676c0,64.985-52.688,117.674-117.673,117.674S214.66,404.661,214.66,339.676
		c0-64.984,52.68-117.672,117.665-117.672S449.998,274.691,449.998,339.676z"/>
	<g>
		<path d="M498.217,493.787c-0.406-0.391-0.844-0.75-1.281-1.062L428.311,424.1c42.719-50.282,40.344-125.783-7.125-173.283
			c-25-24.984-57.75-37.484-90.517-37.484c-4.578,0-9.141,0.266-13.703,0.734c7.531-17.094,12.094-35.594,12.094-54.485
			c0,0,12.594-53.609-17.484-104.047l-0.141-2c-0.109,0-0.469,0.031-1,0.109c-6.391-10.313-14.578-20.469-25.079-29.969
			c-11.578-10.484-40.133-23.672-74.57-23.672c-23.586,0-49.922,6.188-75.454,23.672C85.8,57.596,90.8,143.159,90.8,143.159
			s3.461,0.875,9.711,1.688c-0.453,4.797-0.703,9.703-0.703,14.734c0,32.235,13.32,63.376,31.953,88.313l-0.219,30.438
			c-0.07,0.172-0.141,0.328-0.227,0.5c-2.312,4.516-11.375,14.078-46.211,27.359c-9.812,3.719-17.273,9.422-39.336,15.344
			l-1.516,0.438c-20.078,6.625-33.587,25.25-33.587,46.282v58.407H235.27c1.57,1.766,3.203,3.5,4.891,5.188
			c24.992,25,57.743,37.484,90.509,37.484c29.392,0,58.767-10.062,82.548-30.172l69.812,69.812l0.094-0.094
			c4.172,4.156,10.922,4.156,15.094,0C502.373,504.725,502.373,497.959,498.217,493.787z M300.981,81.909
			c2.938,7.188,5.203,14.75,6.766,22.688c-0.406-0.484-0.812-0.938-1.203-1.406c-3.828-4.328-8.078-7.938-12.672-10.812
			C296.091,87.815,298.56,84.409,300.981,81.909z M115.433,100.175c3.75-19.453,12.344-45.469,31.954-58.892
			c19.32-13.25,40.648-19.953,63.398-19.953c16.562,0,30.18,3.625,38.68,6.672c10.82,3.859,18.234,8.469,21.57,11.484
			c7.695,6.969,14.273,14.641,19.743,22.954c-5.97,4.672-12.173,11.766-17.017,22.547c-2.805-0.422-5.688-0.641-8.625-0.641
			c-13.906,0-28.781,4.625-45.477,14.172c-38.219,21.828-73.539,26.422-96.438,26.422c-3.984,0-7.617-0.141-10.836-0.344
			C112.815,117.659,113.698,109.175,115.433,100.175z M121.144,159.581c0-4.531,0.227-8.969,0.664-13.312
			c0.469,0,0.938,0.016,1.414,0.016c26.017,0,65.009-5.234,107.017-29.25c14.141-8.062,25.578-11.359,34.898-11.359
			c22.391,0,32.532,18.984,38.61,36.172c1.094,3.062,2.312,5.609,3.625,7.75c0.234,3.281,0.359,6.594,0.359,9.984
			c0,19.704-6.25,40.704-17.641,60.329c-18.243,6.094-35.399,16.375-49.931,30.906c-9.156,9.156-16.625,19.359-22.422,30.219
			c-1.172,0.156-2.273,0.234-3.297,0.234c-12.414,0-35.742-11.359-57.641-36.328C134.144,219.129,121.144,188.003,121.144,159.581z
			 M200.816,325.332l-2.602-13.016l9.906-8c-2.078,6.891-3.562,13.922-4.445,21.016H200.816z M173.801,405.333H32.003v-37.078
			c0-11.719,7.469-22.079,18.617-25.907l0.883-0.266c16.922-4.562,26.648-9.219,33.758-12.625c2.898-1.391,5.18-2.484,7.445-3.328
			c22.922-8.75,36.602-16.531,45.016-23.156l30.032,33.969l11.734-9.5l2.172,10.906L173.801,405.333z M170.215,307.52
			l-18.836-21.297l1.469-3.25l0.031-4.5l0.047-6.906c10.672,9.969,21.969,17.953,32.906,23.328L170.215,307.52z M214.441,405.333
			h-19.164l6.883-58.673h0.625c0.844,20.345,6.516,40.532,17.008,58.673H214.441z M330.669,448.006
			c-28.484,0-55.282-11.094-75.423-31.25c-20.148-20.142-31.242-46.938-31.242-75.424c0-28.484,11.094-55.266,31.242-75.422
			c20.141-20.156,46.938-31.25,75.423-31.25c28.485,0,55.282,11.094,75.423,31.25c20.156,20.156,31.25,46.938,31.25,75.422
			c0,28.485-11.094,55.282-31.25,75.424C385.951,436.912,359.154,448.006,330.669,448.006z"/>
		<path d="M330.669,256.004c-47.126,0-85.337,38.203-85.337,85.328c0,5.891,4.781,10.673,10.672,10.673s10.664-4.782,10.664-10.673
			c0-35.297,28.704-64,64.001-64c5.891,0,10.672-4.766,10.672-10.672C341.341,260.785,336.56,256.004,330.669,256.004z"/>
	</g>
</g>
</svg>
