<?xml version="1.0" encoding="UTF-8"?>
<!DOCTYPE svg PUBLIC "-//W3C//DTD SVG 1.1//EN" "http://www.w3.org/Graphics/SVG/1.1/DTD/svg11.dtd">
<!-- Creator: CorelDRAW 2020 (64-Bit) -->
<svg xmlns="http://www.w3.org/2000/svg" xml:space="preserve" width="0.408516in" height="0.408528in" version="1.1" style="shape-rendering:geometricPrecision; text-rendering:geometricPrecision; image-rendering:optimizeQuality; fill-rule:evenodd; clip-rule:evenodd"
viewBox="0 0 11.58 11.58"
 xmlns:xlink="http://www.w3.org/1999/xlink"
 xmlns:xodm="http://www.corel.com/coreldraw/odm/2003">
 <defs>
  <style type="text/css">
   <![CDATA[
    .fil2 {fill:#2B414F;fill-rule:nonzero}
    .fil6 {fill:#BC3D24;fill-rule:nonzero}
    .fil5 {fill:#BCC3C6;fill-rule:nonzero}
    .fil1 {fill:#D1933D;fill-rule:nonzero}
    .fil3 {fill:#DF5B49;fill-rule:nonzero}
    .fil4 {fill:#EBEDEF;fill-rule:nonzero}
    .fil0 {fill:#EFC849;fill-rule:nonzero}
   ]]>
  </style>
 </defs>
 <g id="__x0023_Layer_x0020_1">
  <metadata id="CorelCorpID_0Corel-Layer"/>
  <g id="_1494471832752">
   <g>
    <g>
     <path class="fil0" d="M11.58 5.79c0,3.2 -2.59,5.79 -5.79,5.79 -3.2,0 -5.79,-2.59 -5.79,-5.79 0,-3.2 2.59,-5.79 5.79,-5.79 3.2,0 5.79,2.59 5.79,5.79z"/>
    </g>
    <g>
     <path class="fil1" d="M11.58 5.79c0,-0.26 -0.02,-0.52 -0.05,-0.77l-2.15 -2.15 -0.46 0.27 -0.14 0.08 -0.46 0.26 -0.08 0.25 -0.27 -0.27c-0.53,-0.56 -1.28,-0.91 -2.12,-0.91 -1.61,0 -2.91,1.3 -2.91,2.92 0,0.83 0.35,1.58 0.91,2.12 0.04,0.04 0.07,0.08 0.11,0.11 0.04,0.04 0.07,0.08 0.11,0.11 0.03,0.03 0.07,0.07 0.1,0.1l-0.31 0.53c-0.1,0.18 -0.05,0.41 0.12,0.52l2.57 2.57c2.84,-0.37 5.03,-2.8 5.03,-5.74z"/>
    </g>
   </g>
   <g>
    <path class="fil2" d="M7.83 8.44l-1.64 -2.84c-0.07,-0.13 -0.21,-0.2 -0.35,-0.19 -0.14,-0 -0.27,0.07 -0.34,0.19l-1.64 2.84c-0.11,0.19 -0.04,0.42 0.14,0.53 0.06,0.03 0.13,0.05 0.19,0.05 0.13,0 0.26,-0.07 0.34,-0.19l1.31 -2.27 1.31 2.27c0.07,0.13 0.2,0.19 0.34,0.19 0.07,0 0.13,-0.02 0.19,-0.05 0.19,-0.11 0.25,-0.35 0.14,-0.53z"/>
   </g>
   <g>
    <g>
     <path class="fil3" d="M8.76 5.47c0,1.61 -1.31,2.91 -2.92,2.91 -1.61,0 -2.91,-1.31 -2.91,-2.91 0,-1.61 1.31,-2.92 2.91,-2.92 1.61,0 2.92,1.3 2.92,2.92z"/>
    </g>
    <g>
     <path class="fil4" d="M8.18 5.47c0,1.29 -1.05,2.33 -2.33,2.33 -1.29,0 -2.33,-1.04 -2.33,-2.33 0,-1.29 1.04,-2.33 2.33,-2.33 1.29,0 2.33,1.04 2.33,2.33z"/>
    </g>
    <g>
     <path class="fil3" d="M7.6 5.47c0,0.97 -0.78,1.75 -1.75,1.75 -0.97,0 -1.75,-0.78 -1.75,-1.75 0,-0.97 0.78,-1.75 1.75,-1.75 0.97,0 1.75,0.78 1.75,1.75z"/>
    </g>
    <g>
     <path class="fil4" d="M7.02 5.47c0,0.64 -0.52,1.17 -1.17,1.17 -0.64,0 -1.17,-0.52 -1.17,-1.17 0,-0.65 0.52,-1.17 1.17,-1.17 0.64,0 1.17,0.52 1.17,1.17z"/>
    </g>
    <g>
     <path class="fil3" d="M6.43 5.47c0,0.32 -0.26,0.58 -0.58,0.58 -0.32,0 -0.58,-0.26 -0.58,-0.58 0,-0.32 0.26,-0.58 0.58,-0.58 0.32,0 0.58,0.26 0.58,0.58z"/>
    </g>
   </g>
   <g>
    <g>
     <g>
      <path class="fil5" d="M7.6 5.47c0,0.97 -0.78,1.75 -1.75,1.75l0 0.58c1.29,0 2.33,-1.04 2.33,-2.33 0,-1.29 -1.05,-2.33 -2.33,-2.33l0 0.58c0.97,0 1.75,0.78 1.75,1.75z"/>
     </g>
     <g>
      <path class="fil5" d="M6.43 5.47c0,0.32 -0.26,0.58 -0.58,0.58l0 0.58c0.64,0 1.17,-0.52 1.17,-1.17 0,-0.65 -0.52,-1.17 -1.17,-1.17l0 0.58c0.32,0 0.58,0.26 0.58,0.58z"/>
     </g>
    </g>
    <g>
     <g>
      <g>
       <path class="fil6" d="M5.85 2.55l0 0.58c1.29,0 2.33,1.04 2.33,2.33 0,1.29 -1.05,2.33 -2.33,2.33l0 0.58c1.61,0 2.92,-1.31 2.92,-2.91 0,-1.61 -1.31,-2.92 -2.92,-2.92z"/>
      </g>
      <g>
       <path class="fil6" d="M7.6 5.47c0,-0.97 -0.78,-1.75 -1.75,-1.75l0 0.58c0.64,0 1.17,0.52 1.17,1.17 0,0.64 -0.52,1.17 -1.17,1.17l0 0.58c0.97,0 1.75,-0.78 1.75,-1.75z"/>
      </g>
      <g>
       <path class="fil6" d="M6.43 5.47c0,-0.32 -0.26,-0.58 -0.58,-0.58l0 1.17c0.32,0 0.58,-0.26 0.58,-0.58z"/>
      </g>
     </g>
    </g>
   </g>
   <g>
    <g>
     <polygon class="fil4" points="9.38,2.87 8.92,3.13 8.78,3.22 8.32,3.48 8.1,4.19 8.82,4.35 9.28,4.09 9.42,4 9.88,3.74 9.16,3.58 "/>
    </g>
    <g>
     <g>
      <path class="fil2" d="M9.39 3.73l-3.41 1.97c-0.12,0.07 -0.27,0.03 -0.34,-0.09 -0.07,-0.12 -0.03,-0.27 0.09,-0.34l3.42 -1.97c0.12,-0.07 0.27,-0.03 0.34,0.09 0.07,0.12 0.03,0.27 -0.09,0.34z"/>
     </g>
    </g>
   </g>
  </g>
 </g>
</svg>
