<?xml version="1.0" encoding="UTF-8"?>
<!DOCTYPE svg PUBLIC "-//W3C//DTD SVG 1.1//EN" "http://www.w3.org/Graphics/SVG/1.1/DTD/svg11.dtd">
<!-- Creator: CorelDRAW 2020 (64-Bit) -->
<svg xmlns="http://www.w3.org/2000/svg" xml:space="preserve" width="0.4085in" height="0.408488in" version="1.1" style="shape-rendering:geometricPrecision; text-rendering:geometricPrecision; image-rendering:optimizeQuality; fill-rule:evenodd; clip-rule:evenodd"
viewBox="0 0 17.9 17.9"
 xmlns:xlink="http://www.w3.org/1999/xlink"
 xmlns:xodm="http://www.corel.com/coreldraw/odm/2003">
 <defs>
  <style type="text/css">
   <![CDATA[
    .fil0 {fill:#5CA64F;fill-rule:nonzero}
    .fil1 {fill:#408C4C;fill-rule:nonzero}
    .fil9 {fill:#334D5B;fill-rule:nonzero}
    .fil4 {fill:#575B6E;fill-rule:nonzero}
    .fil10 {fill:#BCC3C6;fill-rule:nonzero}
    .fil5 {fill:#C6CACF;fill-rule:nonzero}
    .fil12 {fill:#D1933D;fill-rule:nonzero}
    .fil8 {fill:#DF5B49;fill-rule:nonzero}
    .fil3 {fill:#E67264;fill-rule:nonzero}
    .fil7 {fill:#E8A142;fill-rule:nonzero}
    .fil2 {fill:#EBEFEF;fill-rule:nonzero}
    .fil6 {fill:#EFC849;fill-rule:nonzero}
    .fil11 {fill:#FFA067;fill-rule:nonzero}
   ]]>
  </style>
 </defs>
 <g id="__x0023_Layer_x0020_1">
  <metadata id="CorelCorpID_0Corel-Layer"/>
  <g id="_1494217215760">
   <g>
    <path class="fil0" d="M17.9 8.95c0,4.94 -4.01,8.95 -8.95,8.95 -4.94,0 -8.95,-4.01 -8.95,-8.95 0,-4.94 4.01,-8.95 8.95,-8.95 4.94,0 8.95,4.01 8.95,8.95z"/>
    <path class="fil1" d="M17.9 8.95c0,-0.21 -0.01,-0.41 -0.02,-0.62l-2.77 -2.76c-0.05,-0.01 -0.05,-0.06 -0.12,-0.1l-0.44 -0.24c-0.19,-0.1 -0.43,-0.03 -0.53,0.16l-0.15 0.28 -0.03 0.06 -0.1 0.18 -0.99 -1c-0.08,0.04 -0.04,-0.07 -0.13,-0.07l-0.64 0 -0.21 -0.21 -0.1 0 -0.4 -0.4 -1.3 0 -0.29 -0.28c-0.06,-0.14 -0.45,-0.26 -1.01,-0.28 0,0 -0,0 -0.01,0 -0.01,0 -0.03,0 -0.04,0 -0.01,0 -0.03,0 -0.05,0 -0,0 -0,0 -0,0 -0.56,0.01 -0.95,0.14 -1.01,0.28 -0.03,0.07 -0.16,0.18 -0.23,0.28l-1.36 0 0 0.4 -0.51 0 0 0.21 -0.85 0c-0.09,0 -0.16,0.07 -0.16,0.16l0 9.07c0,0.09 0.05,0.04 0.05,0.12l3.68 3.68c0.25,0.02 0.51,0.03 0.76,0.03 4.94,0 8.95,-4.01 8.95,-8.95z"/>
   </g>
   <path class="fil2" d="M12.63 4.84l-8.01 0c-0.09,0 -0.16,0.07 -0.16,0.16l0 9.07c0,0.09 0.07,0.16 0.16,0.16l8.01 0c0.09,0 0.16,-0.07 0.16,-0.16l0 -9.07c0,-0.09 -0.07,-0.16 -0.16,-0.16z"/>
   <g>
    <g>
     <polygon class="fil3" points="6.31,8.08 4.97,8.08 4.97,6.73 6.31,6.73 "/>
     <path class="fil4" d="M6.53 6.66c-0.01,-0.05 -0.04,-0.1 -0.09,-0.13 -0.03,-0.03 -0.08,-0.04 -0.12,-0.04 -0.07,0 -0.13,0.03 -0.17,0.09l-0.52 0.74 -0.08 -0.19c-0.03,-0.07 -0.11,-0.12 -0.19,-0.12 -0.03,0 -0.06,0.01 -0.08,0.02 -0.05,0.02 -0.09,0.06 -0.11,0.12 -0.02,0.05 -0.02,0.11 0,0.16l0.23 0.52c0.03,0.07 0.1,0.12 0.17,0.12 0.01,0 0.01,0 0.02,0 0.07,0 0.13,-0.03 0.17,-0.09l0.73 -1.04c0.03,-0.05 0.04,-0.1 0.03,-0.16z"/>
     <polygon class="fil5" points="6.88,8.08 12.28,8.08 12.28,7.22 6.88,7.22 "/>
    </g>
    <g>
     <polygon class="fil3" points="6.31,10.47 4.97,10.47 4.97,9.12 6.31,9.12 "/>
     <path class="fil4" d="M6.53 9.05c-0.01,-0.05 -0.04,-0.1 -0.09,-0.13 -0.03,-0.03 -0.08,-0.04 -0.12,-0.04 -0.07,0 -0.13,0.03 -0.17,0.09l-0.52 0.74 -0.08 -0.19c-0.03,-0.07 -0.11,-0.12 -0.19,-0.12 -0.03,0 -0.06,0.01 -0.08,0.02 -0.05,0.02 -0.09,0.06 -0.11,0.12 -0.02,0.05 -0.02,0.11 0,0.16l0.23 0.52c0.03,0.07 0.1,0.12 0.17,0.12 0.01,0 0.01,0 0.02,0 0.07,0 0.13,-0.03 0.17,-0.09l0.73 -1.04c0.03,-0.05 0.04,-0.1 0.03,-0.16z"/>
     <polygon class="fil5" points="6.88,10.47 12.28,10.47 12.28,9.6 6.88,9.6 "/>
    </g>
    <g>
     <polygon class="fil3" points="6.31,12.85 4.97,12.85 4.97,11.51 6.31,11.51 "/>
     <polygon class="fil5" points="6.88,12.85 12.28,12.85 12.28,11.99 6.88,11.99 "/>
    </g>
   </g>
   <g>
    <path class="fil6" d="M8.62 4.17c-0.12,0 -0.22,-0.08 -0.22,-0.18 0,-0.1 0.1,-0.18 0.22,-0.18l0 -0.14c-0.01,0 -0.03,0 -0.05,0 -0,0 -0,0 -0,0 -0.56,0.01 -0.95,0.14 -1.01,0.28 -0.03,0.07 -0.16,0.18 -0.23,0.28l-1.36 0 0 0.4 -0.51 0 0 0.21 0 0.32 0 0.5 3.15 0 0 -1.49z"/>
   </g>
   <g>
    <path class="fil7" d="M11.27 4.62l0 -0.4 -1.36 0c-0.07,-0.1 -0.2,-0.21 -0.23,-0.28 -0.06,-0.14 -0.45,-0.26 -1.01,-0.28 0,0 -0,0 -0.01,0 -0.01,0 -0.03,0 -0.04,0l0 0.14c0.12,0 0.22,0.08 0.22,0.18 0,0.1 -0.1,0.18 -0.22,0.18l0 1.49 3.15 0 0 -0.5 0 -0.32 0 -0.21 -0.51 0z"/>
   </g>
   <g>
    <g>
     <path class="fil8" d="M15.15 6c0.1,-0.19 0.03,-0.43 -0.16,-0.54l-0.44 -0.24c-0.19,-0.1 -0.43,-0.03 -0.53,0.16l-0.15 0.28 1.13 0.61 0.15 -0.27z"/>
    </g>
    <g>
     <polygon class="fil9" points="10.84,12.62 11.31,12.14 10.98,11.97 "/>
    </g>
    <g>
     <polygon class="fil10" points="14.97,6.34 15,6.28 13.87,5.66 13.84,5.73 13.51,6.33 14.64,6.95 "/>
    </g>
    <g>
     <polygon class="fil11" points="11.73,11.07 11.79,10.12 11.35,10.32 10.98,11.97 11.31,12.14 12.47,10.95 12.4,10.55 "/>
    </g>
    <g>
     <polygon class="fil12" points="14.41,6.82 12.38,10.56 12.4,10.55 12.47,10.95 12.48,10.93 12.83,10.3 14.64,6.95 "/>
    </g>
    <g>
     <polygon class="fil6" points="13.51,6.33 11.69,9.68 11.35,10.32 11.79,10.12 13.76,6.47 "/>
    </g>
    <g>
     <polygon class="fil7" points="13.76,6.47 11.79,10.12 11.79,10.12 11.73,11.07 12.38,10.56 14.41,6.82 "/>
    </g>
   </g>
  </g>
 </g>
</svg>
