<?xml version="1.0" encoding="UTF-8"?>
<!DOCTYPE svg PUBLIC "-//W3C//DTD SVG 1.1//EN" "http://www.w3.org/Graphics/SVG/1.1/DTD/svg11.dtd">
<!-- Creator: CorelDRAW 2020 (64-Bit) -->
<svg xmlns="http://www.w3.org/2000/svg" xml:space="preserve" width="0.408476in" height="0.408516in" version="1.1" style="shape-rendering:geometricPrecision; text-rendering:geometricPrecision; image-rendering:optimizeQuality; fill-rule:evenodd; clip-rule:evenodd"
viewBox="0 0 10.03 10.03"
 xmlns:xlink="http://www.w3.org/1999/xlink"
 xmlns:xodm="http://www.corel.com/coreldraw/odm/2003">
 <defs>
  <style type="text/css">
   <![CDATA[
    .fil1 {fill:#373E6B;fill-rule:nonzero}
    .fil2 {fill:#3FBCBC;fill-rule:nonzero}
    .fil4 {fill:#41B6F0;fill-rule:nonzero}
    .fil0 {fill:#434B73;fill-rule:nonzero}
    .fil3 {fill:#E67264;fill-rule:nonzero}
   ]]>
  </style>
 </defs>
 <g id="__x0023_Layer_x0020_1">
  <metadata id="CorelCorpID_0Corel-Layer"/>
  <g id="_1494252251680">
   <g>
    <path class="fil0" d="M10.03 5.02c0,2.77 -2.25,5.02 -5.02,5.02 -2.77,0 -5.02,-2.25 -5.02,-5.02 0,-2.77 2.25,-5.02 5.02,-5.02 2.77,0 5.02,2.25 5.02,5.02z"/>
    <path class="fil1" d="M9.81 6.48l-3.03 -3.03c-0.02,-0.03 -0.05,-0.05 -0.09,-0.08l-0.25 -0.25c-0.03,-0.05 -0.09,-0.08 -0.16,-0.09l0 -0c-0.01,-0 -0.02,-0 -0.03,-0 -0,0 -0,0 -0,0 -0,0 -0,-0 -0.01,-0 -0.01,0 -0.02,0 -0.03,0l0 0c-0.1,0.01 -0.18,0.07 -0.18,0.14 0,0.03 0.01,0.06 0.04,0.08 -0.05,0.01 -0.09,0.03 -0.13,0.04 -0.12,0.05 -0.2,0.11 -0.26,0.2l-0.44 -0.44 0.02 0.02c-0.02,-0.03 -0.04,-0.04 -0.05,-0.05l-0.15 -0.15c-0.01,-0 -0.02,-0 -0.03,-0 -0.05,0 -0.09,0.01 -0.13,0.03 -0.11,-0.02 -0.23,-0.03 -0.35,-0.03 -0.01,0 -0.03,0 -0.05,0 -0,0 -0.01,0 -0.02,0 -0,0 -0.01,0 -0.01,0 -0.02,0 -0.03,0 -0.05,0 -0.19,0 -0.4,0.03 -0.53,0.09 -0.03,0.01 -0.05,0.03 -0.07,0.04 0,-0 0,-0 0,-0l-0.16 -0.15c-0.08,-0.02 -0.16,-0.03 -0.26,-0.03l-0 0c-0.27,0 -0.5,0.11 -0.56,0.25l-0 -0c0,0 -0.38,0.82 -0.23,1.04l0.4 0.41c-0.1,0.14 -0.26,0.23 -0.46,0.25 -0.06,-0.01 -0.12,-0 -0.18,0.02l-0.01 0 -0 0c-0.05,0.02 -0.11,0.06 -0.16,0.11 -0.16,0.17 -0.19,0.43 -0.19,0.79 -0,0.08 -0.01,0.16 -0.02,0.24l0.53 0.54c-0.01,0.14 -0.01,0.25 -0.01,0.41 -0.01,0.12 -0.01,0.24 -0.02,0.34l2.81 2.81c2.13,-0.13 3.9,-1.58 4.5,-3.54z"/>
   </g>
   <path class="fil2" d="M2.94 5.39c0,-0 0.01,-0 0.01,-0.01l0 -0 0.01 -0.01c0.08,-0.03 0.17,-0.05 0.26,-0.05 0.01,0 0.03,0 0.04,0 0.19,-0.09 0.36,-0.19 0.53,-0.3 0.02,-0.07 0.02,-0.15 0.02,-0.24 -0.04,-0.07 -0.08,-0.16 -0.11,-0.25 -0.03,-0.02 -0.06,-0.04 -0.08,-0.08 -0.13,-0.1 -0.14,-0.27 -0.15,-0.4 0,0 0,-0 0,-0 -0,-0.04 -0,-0.08 -0.01,-0.11 -0,-0.01 -0,-0.01 -0,-0.02 -0,-0.04 -0,-0.13 0.06,-0.21 -0,-0.04 0,-0.09 0,-0.15 -0.06,-0.32 -0.03,-0.55 0.09,-0.69 0.01,-0.01 0.02,-0.03 0.04,-0.04 -0.08,-0.02 -0.16,-0.03 -0.26,-0.03l-0 0c-0.27,0 -0.5,0.11 -0.56,0.25l-0 -0c0,0 -0.38,0.82 -0.23,1.04 0.05,0.08 0.31,0.06 0.38,0 0.01,-0.01 0.02,-0.02 0.03,-0.03 0.02,0.04 0.03,0.07 0.06,0.1 0.01,0.11 -0.01,0.21 -0.04,0.31 -0.1,0.16 -0.26,0.25 -0.48,0.28 -0.06,-0.01 -0.12,-0 -0.18,0.02l-0.01 0 -0 0c-0.05,0.02 -0.11,0.06 -0.16,0.11 -0.16,0.17 -0.19,0.43 -0.19,0.79 -0,0.08 -0.01,0.16 -0.02,0.24l0.43 0c0.05,-0.12 0.12,-0.23 0.21,-0.32 0.08,-0.08 0.18,-0.15 0.3,-0.2z"/>
   <path class="fil3" d="M8 6.75c0.01,-0.45 -0.03,-0.8 -0.24,-1.01 -0.06,-0.06 -0.14,-0.11 -0.21,-0.14l-0 -0 -0.02 -0.01c-0.08,-0.03 -0.15,-0.04 -0.23,-0.02 -0.29,0 -0.49,-0.13 -0.61,-0.35 -0.04,-0.12 -0.05,-0.25 -0.05,-0.39 0.06,-0.09 0.1,-0.19 0.13,-0.32l0.01 0c0.01,0 0.02,-0 0.04,-0.01 -0.01,0.04 -0.01,0.09 -0.01,0.1 0,0.02 0,0.2 0.06,0.2 0.05,0 0.06,-0.18 0.06,-0.2 0,-0.02 -0,-0.12 -0.03,-0.17 0.03,-0.04 0.04,-0.11 0.04,-0.2 0,-0.04 0,-0.07 0.01,-0.11 0,-0.03 -0,-0.05 -0.01,-0.06 -0.01,-0.01 -0.03,-0.01 -0.05,0 0.01,-0.07 0.01,-0.19 0,-0.26 0,0 -0.01,-0.09 -0.02,-0.14 -0.04,-0.18 -0.15,-0.29 -0.32,-0.35 -0.04,-0.02 -0.08,-0.03 -0.13,-0.04 0.02,-0.02 0.04,-0.05 0.04,-0.08 0,-0.07 -0.08,-0.13 -0.18,-0.14l0 -0c-0.01,-0 -0.02,-0 -0.03,-0 -0,0 -0,0 -0,0 -0,0 -0,-0 -0.01,-0 -0.01,0 -0.02,0 -0.03,0l0 0c-0.1,0.01 -0.18,0.07 -0.18,0.14 0,0.03 0.01,0.06 0.04,0.08 -0.05,0.01 -0.09,0.03 -0.13,0.04 -0.17,0.07 -0.28,0.17 -0.32,0.35 -0.01,0.05 -0.02,0.14 -0.02,0.14 -0,0.07 -0,0.19 0,0.26 -0.02,-0.01 -0.03,-0.01 -0.05,-0 -0.01,0.01 -0.02,0.03 -0.01,0.06 0,0.04 0.01,0.08 0.01,0.11 0.01,0.11 0.01,0.19 0.07,0.22 -0.03,0.04 -0.03,0.17 -0.03,0.18 0,0.02 0,0.2 0.06,0.2 0.05,0 0.06,-0.18 0.06,-0.2 0,-0.01 0,-0.07 -0.01,-0.12 0.01,0 0.01,0 0.02,0l0.01 0c0.03,0.12 0.07,0.23 0.13,0.32 0.01,0.14 -0.01,0.27 -0.05,0.39 -0.02,0.04 -0.05,0.08 -0.08,0.12 0.09,0 0.17,0.02 0.25,0.05l0.02 0.01 0 0c0,0 0.01,0 0.01,0 0.12,0.05 0.22,0.12 0.3,0.2 0.28,0.29 0.34,0.72 0.33,1.27 0,0.07 0.01,0.13 0.01,0.19l1.36 0c-0.01,-0.1 -0.01,-0.2 -0.02,-0.31zm-1.14 -2.3l0 0c0,-0 0,-0.01 0.01,-0.01 0,-0 0.01,-0 0.01,-0 0.01,0.02 0.02,0.07 0.02,0.15 0,0.09 -0.02,0.15 -0.03,0.16 -0.01,-0.01 -0.02,-0.07 -0.02,-0.16 0,-0.07 0.01,-0.11 0.02,-0.14zm-1.22 0.33l0 0c-0.01,-0.01 -0.03,-0.07 -0.03,-0.16 0,-0.08 0.01,-0.14 0.02,-0.16 0,0.01 0.01,0.01 0.01,0.02 0.01,0.03 0.02,0.07 0.02,0.14 0,0.09 -0.02,0.15 -0.03,0.16z"/>
   <path class="fil4" d="M6.44 6.87c0.01,-0.5 -0.03,-0.89 -0.27,-1.12 -0.07,-0.07 -0.15,-0.12 -0.23,-0.15l-0 -0 -0.02 -0.01c-0.06,-0.02 -0.12,-0.03 -0.18,-0.03 -0.03,0 -0.05,0 -0.08,0.01 -0.04,-0.02 -0.08,-0.04 -0.13,-0.06 -0.2,-0.1 -0.38,-0.21 -0.56,-0.33 -0.04,-0.14 -0.06,-0.28 -0.05,-0.44 0.07,-0.1 0.12,-0.21 0.14,-0.35l0.01 0c0.03,0 0.06,-0.01 0.09,-0.07 0.07,-0.02 0.08,-0.12 0.09,-0.25 0,-0.04 0,-0.08 0.01,-0.13 0,-0.04 -0,-0.06 -0.02,-0.07 -0.01,-0.01 -0.01,-0.01 -0.02,-0.01 -0.01,0 -0.02,0 -0.03,0.01 0.01,-0.05 0.01,-0.16 0.01,-0.16 0,-0.05 -0,-0.1 -0.01,-0.15 0.02,-0.12 0.04,-0.26 0.02,-0.38 0.05,0.03 0.08,0.1 0.11,0.17 0.01,-0.19 -0.1,-0.33 -0.23,-0.36 -0.04,-0.02 -0.08,-0.04 -0.14,-0.05 0.03,-0.02 0.05,-0.03 0.08,-0.05 -0.01,-0 -0.02,-0 -0.03,-0 -0.05,0 -0.09,0.01 -0.13,0.03 -0.11,-0.02 -0.23,-0.03 -0.35,-0.03 -0.01,0 -0.03,0 -0.05,0 -0,0 -0.01,0 -0.02,0 -0,0 -0.01,0 -0.01,0 -0.02,0 -0.03,0 -0.05,0 -0.19,0 -0.4,0.03 -0.53,0.09 -0.04,0.02 -0.07,0.04 -0.1,0.07 -0.1,0.11 -0.08,0.34 -0.04,0.53 -0,0.07 -0.01,0.22 0,0.3 -0.01,-0.01 -0.02,-0.01 -0.03,-0.01 -0.01,0 -0.02,0 -0.02,0.01 -0.01,0.01 -0.02,0.03 -0.02,0.07 0,0.04 0.01,0.09 0.01,0.13 0.01,0.09 0.01,0.16 0.04,0.21 0.01,0.02 0.03,0.03 0.05,0.04 0.03,0.06 0.06,0.07 0.09,0.07l0.01 0c0.03,0.12 0.07,0.23 0.13,0.32 0.01,0.01 0.01,0.02 0.02,0.03 0.01,0.16 -0.01,0.3 -0.05,0.44 -0.21,0.15 -0.44,0.29 -0.68,0.4 -0.03,-0 -0.05,-0.01 -0.08,-0.01 -0.06,0 -0.12,0.01 -0.18,0.03l-0.02 0.01 -0 0c-0.08,0.03 -0.16,0.08 -0.23,0.15 -0.05,0.05 -0.09,0.11 -0.12,0.17 -0.13,0.24 -0.15,0.56 -0.15,0.96 -0.01,0.12 -0.01,0.24 -0.02,0.34l3.95 0c-0,-0.05 -0.01,-0.1 -0.01,-0.15 -0,-0.06 -0.01,-0.12 -0.01,-0.19z"/>
  </g>
 </g>
</svg>
