<?xml version="1.0" encoding="UTF-8"?>
<!DOCTYPE svg PUBLIC "-//W3C//DTD SVG 1.1//EN" "http://www.w3.org/Graphics/SVG/1.1/DTD/svg11.dtd">
<!-- Creator: CorelDRAW 2020 (64-Bit) -->
<svg xmlns="http://www.w3.org/2000/svg" xml:space="preserve" width="0.408472in" height="0.408488in" version="1.1" style="shape-rendering:geometricPrecision; text-rendering:geometricPrecision; image-rendering:optimizeQuality; fill-rule:evenodd; clip-rule:evenodd"
viewBox="0 0 15.04 15.04"
 xmlns:xlink="http://www.w3.org/1999/xlink"
 xmlns:xodm="http://www.corel.com/coreldraw/odm/2003">
 <defs>
  <style type="text/css">
   <![CDATA[
    .fil0 {fill:#CB3448;fill-rule:nonzero}
    .fil1 {fill:#AE333F;fill-rule:nonzero}
    .fil3 {fill:#575B6E;fill-rule:nonzero}
    .fil5 {fill:#EBEFEF;fill-rule:nonzero}
    .fil2 {fill:#F0C30F;fill-rule:nonzero}
    .fil4 {fill:#F29A11;fill-rule:nonzero}
   ]]>
  </style>
 </defs>
 <g id="__x0023_Layer_x0020_1">
  <metadata id="CorelCorpID_0Corel-Layer"/>
  <g id="_1494038110400">
   <g>
    <path class="fil0" d="M15.04 7.52c0,4.15 -3.37,7.52 -7.52,7.52 -4.15,0 -7.52,-3.37 -7.52,-7.52 0,-4.15 3.37,-7.52 7.52,-7.52 4.15,0 7.52,3.37 7.52,7.52z"/>
    <path class="fil1" d="M15.04 7.52c0,-0.01 0,-0.01 0,-0.02l-3.46 -3.46c-0.07,-0.07 -0.15,-0.12 -0.24,-0.17 -0.09,-0.04 -0.18,-0.07 -0.27,-0.09 -0.05,-0.01 -0.09,-0.02 -0.14,-0.03l-0.7 -0.67c0,-0 0,-0 0,-0 0,-0.04 -0.04,-0.07 -0.09,-0.07l-5.28 0c-0.05,0 -0.09,0.03 -0.09,0.07 0,0.04 0.03,0.06 0.07,0.07 0,0 0,0 0,0 0,0.04 0.03,0.06 0.08,0.07l0 0c0,0.01 0,0.02 0.01,0.03 0.01,0.28 0.04,0.54 0.07,0.8 -0.01,-0.01 -0.03,-0.03 -0.04,-0.04 -0.05,-0.05 -0.1,-0.1 -0.16,-0.14 -0.08,-0.05 -0.17,-0.09 -0.27,-0.11 -0.09,-0.02 -0.19,-0.03 -0.29,-0.02 -0.02,0 -0.05,0 -0.07,0.01 -0.02,0 -0.05,0 -0.07,0.01 -0.05,0.01 -0.09,0.02 -0.14,0.03 -0.09,0.02 -0.18,0.05 -0.27,0.1 -0.09,0.04 -0.17,0.1 -0.24,0.16 -0.07,0.07 -0.13,0.15 -0.17,0.23 -0.04,0.09 -0.07,0.18 -0.09,0.27 -0.02,0.09 -0.02,0.19 -0.02,0.28 0,0.05 0,0.09 0.01,0.14 0,0.01 0,0.02 0,0.03l0 0.02 0 0.02c0,0.02 0.01,0.05 0.01,0.07 0.02,0.09 0.04,0.18 0.07,0.27 0.03,0.09 0.07,0.17 0.12,0.25 0.05,0.08 0.11,0.16 0.17,0.22l3.18 3.18 -0.33 0c-0.08,0 -0.14,0.05 -0.14,0.11l0 0.44 -0.37 0c-0.08,0 -0.14,0.05 -0.14,0.11l0 0.35 -0.61 0c-0.08,0 -0.14,0.05 -0.14,0.11l0 0.11 0 0.93 0 0.7c0,0.04 0.03,0.08 0.08,0.1l3 3c3.88,-0.3 6.93,-3.54 6.93,-7.5z"/>
   </g>
   <path class="fil2" d="M10.29 4.83c0,-0 0,-0 0,-0 0,-0 0,-0 0,-0 0,-0 0,-0 0.01,-0 0,-0 0.01,-0 0.01,-0.01 0.01,-0 0.02,-0.01 0.02,-0.01 0.02,-0 0.03,0 0.04,0.01 0.01,0.01 0.03,0.01 0.04,0.03 0.01,0.01 0.01,0.02 0.01,0.03 0,0.01 0,0.01 0,0.02 0,0 0,0.01 -0,0.01 -0,0.01 -0,0.02 -0.01,0.03 -0,0.01 -0.01,0.02 -0.02,0.02 -0.01,0.01 -0.03,0.02 -0.05,0.03 -0.03,0.01 -0.06,0.01 -0.08,0 -0.05,-0.01 -0.09,-0.02 -0.14,-0.03 -0.05,-0.02 -0.09,-0.04 -0.13,-0.07 -0.04,-0.03 -0.08,-0.07 -0.1,-0.12 -0.02,-0.05 -0.04,-0.1 -0.04,-0.15 -0,-0.05 -0,-0.1 0,-0.14 0,-0.02 0.01,-0.05 0.01,-0.07 0.01,-0.02 0.01,-0.05 0.02,-0.07 0.03,-0.09 0.07,-0.18 0.12,-0.26 0.06,-0.08 0.13,-0.15 0.21,-0.2 0.08,-0.05 0.17,-0.09 0.27,-0.11 0.09,-0.02 0.19,-0.03 0.29,-0.02 0.02,0 0.05,0 0.07,0.01 0.02,0 0.05,0.01 0.07,0.01 0.05,0.01 0.09,0.01 0.14,0.03 0.09,0.02 0.18,0.05 0.27,0.09 0.09,0.04 0.17,0.1 0.24,0.17 0.07,0.07 0.13,0.15 0.17,0.23 0.04,0.09 0.07,0.18 0.09,0.27 0.02,0.09 0.02,0.19 0.02,0.28 -0,0.05 -0,0.09 -0.01,0.14 -0,0.01 -0,0.02 -0.01,0.03l-0 0.02 -0 0.02c-0,0.02 -0.01,0.05 -0.01,0.07 -0.02,0.09 -0.04,0.18 -0.07,0.27 -0.03,0.09 -0.07,0.17 -0.12,0.25 -0.05,0.08 -0.11,0.16 -0.17,0.22 -0.07,0.07 -0.14,0.13 -0.22,0.18 -0.08,0.05 -0.16,0.1 -0.25,0.14 -0.09,0.04 -0.18,0.07 -0.27,0.09 -0.05,0.01 -0.09,0.02 -0.14,0.03 -0.01,0 -0.02,0 -0.03,0.01l-0.03 0.01 -0.07 0.01c-0.09,0.02 -0.18,0.03 -0.27,0.06 -0.09,0.02 -0.18,0.04 -0.26,0.07 -0.09,0.02 -0.17,0.05 -0.25,0.09 -0.08,0.04 -0.16,0.08 -0.23,0.13 -0.07,0.05 -0.14,0.11 -0.19,0.18 -0.03,0.03 -0.05,0.07 -0.07,0.11 -0.02,0.04 -0.03,0.08 -0.04,0.11 -0.01,0.04 -0.01,0.08 0.01,0.11 0.01,0.03 0.03,0.07 0.06,0.09 0.03,0.03 0.06,0.05 0.1,0.07 0.02,0.01 0.04,0.02 0.06,0.02 0.01,0 0.02,0.01 0.03,0.01l0.02 0 0.02 0c0.04,0.01 0.08,0.01 0.12,0.01 0.02,-0 0.04,-0 0.05,-0.01 0.01,-0.01 0.03,-0.01 0.04,-0.02 0,-0.01 0.01,-0.01 0.01,-0.02 0,-0 0.01,-0.01 0.01,-0.01 0,0 0,-0 0,0 0,-0 0,-0 0,-0l0 -0c0,-0 0,-0 0,-0 0,-0 0,-0.01 0,-0.01 0,-0 -0,-0.01 -0,-0.02 -0,-0.01 -0.01,-0.02 -0.03,-0.02 -0.01,-0 -0.03,0 -0.04,0.01l-0 0c-0.01,0 -0.02,0 -0.03,-0.01 -0,-0.01 -0,-0.01 0,-0.02 0.01,-0.01 0.02,-0.02 0.03,-0.03 0.01,-0.01 0.03,-0.01 0.05,-0.02 0.02,-0 0.03,0 0.05,0.01 0.02,0.01 0.03,0.02 0.04,0.03 0.01,0.01 0.02,0.03 0.03,0.04 0.01,0.02 0.01,0.04 0,0.05 -0,0 -0,0.01 -0,0.01 0,0 -0,0 -0,0.01l-0 0 -0 0c-0,0.01 -0.01,0.01 -0.01,0.02 -0.01,0.01 -0.02,0.03 -0.03,0.04 -0.02,0.02 -0.05,0.04 -0.07,0.05 -0.03,0.01 -0.05,0.02 -0.08,0.02 -0.05,0 -0.1,-0 -0.15,-0.01 -0.01,-0 -0.01,-0 -0.02,-0l-0.02 -0c-0.01,-0 -0.02,-0.01 -0.04,-0.01 -0.02,-0.01 -0.05,-0.02 -0.07,-0.03 -0.05,-0.02 -0.09,-0.05 -0.13,-0.09 -0.02,-0.02 -0.04,-0.04 -0.05,-0.06 -0.01,-0.02 -0.03,-0.05 -0.03,-0.07 -0.01,-0.03 -0.01,-0.05 -0.01,-0.08 -0,-0.03 0,-0.05 0.01,-0.08 0.01,-0.05 0.03,-0.1 0.05,-0.14 0.02,-0.04 0.05,-0.09 0.08,-0.12 0.06,-0.08 0.13,-0.14 0.21,-0.2 0.08,-0.05 0.16,-0.1 0.25,-0.14 0.09,-0.04 0.18,-0.07 0.27,-0.09 0.18,-0.05 0.36,-0.09 0.54,-0.12l0.07 -0.01 0.03 -0.01c0.01,-0 0.02,-0 0.03,-0.01 0.04,-0.01 0.09,-0.02 0.13,-0.03 0.09,-0.02 0.17,-0.05 0.25,-0.09 0.08,-0.04 0.16,-0.08 0.23,-0.13 0.07,-0.05 0.14,-0.11 0.2,-0.17 0.06,-0.06 0.11,-0.13 0.16,-0.21 0.05,-0.07 0.08,-0.15 0.12,-0.24 0.03,-0.08 0.05,-0.17 0.07,-0.25 0,-0.02 0.01,-0.04 0.01,-0.07l0 -0.02 0 -0.02c0,-0.01 0,-0.02 0,-0.03 0,-0.04 0.01,-0.09 0.01,-0.13 0,-0.09 -0,-0.17 -0.02,-0.26 -0.01,-0.09 -0.04,-0.17 -0.08,-0.25 -0.04,-0.08 -0.09,-0.15 -0.15,-0.21 -0.06,-0.06 -0.13,-0.11 -0.21,-0.15 -0.08,-0.04 -0.16,-0.07 -0.25,-0.09 -0.09,-0.02 -0.18,-0.03 -0.26,-0.04 -0.09,-0.01 -0.18,0 -0.26,0.02 -0.08,0.02 -0.17,0.05 -0.24,0.1 -0.07,0.05 -0.13,0.11 -0.18,0.18 -0.05,0.07 -0.09,0.15 -0.11,0.23 -0.01,0.02 -0.01,0.04 -0.02,0.06 -0,0.02 -0.01,0.04 -0.01,0.06 -0.01,0.04 -0.01,0.08 -0,0.13 0,0.04 0.01,0.08 0.03,0.11 0.02,0.03 0.04,0.07 0.08,0.09 0.03,0.03 0.07,0.04 0.11,0.06 0.04,0.01 0.08,0.02 0.13,0.03 0.02,0 0.04,0 0.05,0 0.01,-0 0.01,-0 0.01,-0.01 0,-0 0.01,-0 0.01,-0.01 0,-0 0,-0 0,-0 0,-0 0,-0 0,-0 -0,-0 -0.01,-0.01 -0.01,-0.01 -0.01,-0 -0.01,-0.01 -0.02,-0.01 -0,-0 -0.01,-0 -0.01,-0 -0,0 -0,0 -0,0l-0 0c-0,0 -0,0 -0,0l-0 0 -0 0c-0.01,0.01 -0.02,0 -0.03,-0.01 -0.01,-0.01 -0,-0.02 0,-0.02z"/>
   <path class="fil2" d="M4.72 4.87l-0 -0 -0 0c-0,-0 -0,-0 -0,-0 -0,0 -0,-0 -0.01,-0 -0,0 -0.01,0 -0.01,0 -0.01,0 -0.01,0 -0.02,0.01 -0.01,0 -0.01,0.01 -0.01,0.01 -0,0 -0,0 -0,0 0,0 0,0 0,0 0,0 0,0 0,0 0,0.01 0,0.01 0.01,0.01 0,0 0.01,0 0.01,0.01 0.01,0 0.03,0 0.05,-0 0.04,-0.01 0.09,-0.02 0.13,-0.03 0.04,-0.01 0.08,-0.03 0.11,-0.06 0.03,-0.02 0.06,-0.06 0.08,-0.09 0.02,-0.03 0.03,-0.07 0.03,-0.12 0,-0.04 0,-0.08 -0,-0.13 -0,-0.02 -0.01,-0.04 -0.01,-0.06 -0,-0.02 -0.01,-0.04 -0.02,-0.06 -0.03,-0.08 -0.06,-0.16 -0.11,-0.23 -0.05,-0.07 -0.11,-0.13 -0.18,-0.18 -0.07,-0.05 -0.15,-0.08 -0.24,-0.1 -0.08,-0.02 -0.17,-0.03 -0.26,-0.02 -0.09,0.01 -0.18,0.02 -0.26,0.04 -0.09,0.02 -0.17,0.05 -0.25,0.09 -0.08,0.04 -0.15,0.09 -0.21,0.15 -0.06,0.06 -0.11,0.13 -0.15,0.21 -0.04,0.08 -0.06,0.16 -0.08,0.24 -0.01,0.09 -0.02,0.17 -0.02,0.26 0,0.04 0.01,0.09 0.01,0.13 0,0.01 0,0.02 0,0.03l0 0.02 0 0.02c0,0.02 0.01,0.04 0.01,0.07 0.02,0.09 0.04,0.17 0.07,0.25 0.03,0.08 0.07,0.16 0.12,0.24 0.05,0.07 0.1,0.14 0.16,0.21 0.06,0.06 0.13,0.12 0.2,0.17 0.07,0.05 0.15,0.09 0.23,0.13 0.08,0.04 0.16,0.07 0.25,0.09 0.04,0.01 0.09,0.02 0.13,0.03 0.01,0 0.02,0 0.03,0.01l0.03 0.01 0.07 0.01c0.18,0.03 0.36,0.07 0.54,0.12 0.09,0.03 0.18,0.06 0.26,0.09 0.09,0.04 0.17,0.08 0.25,0.14 0.08,0.05 0.15,0.12 0.21,0.2 0.03,0.04 0.05,0.08 0.08,0.12 0.02,0.04 0.04,0.09 0.05,0.14 0.01,0.02 0.01,0.05 0.01,0.08 -0,0.03 -0.01,0.05 -0.01,0.08 -0.01,0.02 -0.02,0.05 -0.03,0.07 -0.01,0.02 -0.03,0.04 -0.05,0.06 -0.04,0.04 -0.08,0.06 -0.13,0.09 -0.02,0.01 -0.05,0.02 -0.07,0.03 -0.01,0 -0.02,0.01 -0.04,0.01l-0.02 0c-0.01,0 -0.01,0 -0.02,0 -0.05,0.01 -0.1,0.01 -0.15,0.01 -0.03,-0 -0.05,-0.01 -0.08,-0.02 -0.03,-0.01 -0.05,-0.03 -0.07,-0.05 -0.01,-0.01 -0.02,-0.02 -0.03,-0.04 -0,-0.01 -0.01,-0.01 -0.01,-0.02l-0 -0 -0 -0c-0,-0 -0,-0.01 -0,-0.01 -0,-0 -0,-0.01 -0,-0.01 -0,-0.02 -0,-0.04 0,-0.05 0.01,-0.02 0.01,-0.03 0.03,-0.04 0.01,-0.01 0.03,-0.02 0.04,-0.03 0.02,-0.01 0.03,-0.01 0.05,-0.01 0.02,0 0.03,0.01 0.05,0.02 0.01,0.01 0.02,0.02 0.03,0.03 0,0.01 -0,0.02 -0.01,0.03 -0.01,0 -0.01,0 -0.02,-0l-0 0c-0.02,-0.01 -0.03,-0.01 -0.04,-0.01 -0.01,0 -0.02,0.01 -0.03,0.02 -0,0.01 -0,0.01 -0,0.02 0,0.01 0,0.01 0,0.01 0,0 0,0 0,0l0 0c0,0 0,0 0,0 0,-0 0,0 0,0 0,0 0,0.01 0.01,0.01 0,0.01 0.01,0.01 0.01,0.02 0.01,0.01 0.02,0.02 0.04,0.02 0.02,0.01 0.03,0.01 0.05,0.01 0.04,0 0.08,-0 0.12,-0.01l0.01 -0 0.02 -0c0.01,-0 0.02,-0.01 0.03,-0.01 0.02,-0.01 0.04,-0.01 0.06,-0.02 0.04,-0.02 0.07,-0.04 0.1,-0.07 0.03,-0.03 0.05,-0.06 0.06,-0.09 0.01,-0.03 0.01,-0.07 0,-0.11 -0.01,-0.04 -0.02,-0.08 -0.04,-0.11 -0.02,-0.04 -0.04,-0.07 -0.07,-0.11 -0.05,-0.07 -0.11,-0.13 -0.19,-0.18 -0.07,-0.05 -0.15,-0.09 -0.23,-0.12 -0.08,-0.03 -0.17,-0.06 -0.25,-0.09 -0.09,-0.03 -0.17,-0.05 -0.26,-0.07 -0.09,-0.02 -0.18,-0.04 -0.27,-0.06l-0.07 -0.01 -0.03 -0.01c-0.01,-0 -0.02,-0 -0.03,-0.01 -0.05,-0.01 -0.09,-0.02 -0.14,-0.03 -0.09,-0.02 -0.18,-0.06 -0.27,-0.09 -0.09,-0.04 -0.17,-0.08 -0.25,-0.14 -0.08,-0.05 -0.15,-0.12 -0.22,-0.18 -0.07,-0.07 -0.12,-0.14 -0.17,-0.22 -0.05,-0.08 -0.09,-0.17 -0.12,-0.25 -0.03,-0.09 -0.06,-0.18 -0.07,-0.27 -0,-0.02 -0.01,-0.05 -0.01,-0.07l-0 -0.02 -0 -0.02c-0,-0.01 -0,-0.02 -0,-0.03 -0.01,-0.05 -0.01,-0.09 -0.01,-0.14 -0,-0.09 0,-0.19 0.02,-0.28 0.02,-0.09 0.05,-0.19 0.09,-0.27 0.04,-0.09 0.1,-0.17 0.17,-0.23 0.07,-0.07 0.15,-0.12 0.24,-0.16 0.09,-0.04 0.18,-0.07 0.27,-0.1 0.05,-0.01 0.09,-0.02 0.14,-0.03 0.02,-0 0.05,-0.01 0.07,-0.01 0.02,-0 0.05,-0.01 0.07,-0.01 0.1,-0 0.19,0 0.29,0.02 0.09,0.02 0.18,0.06 0.27,0.11 0.08,0.05 0.15,0.12 0.21,0.2 0.06,0.08 0.1,0.17 0.12,0.26 0.01,0.02 0.01,0.05 0.02,0.07 0.01,0.02 0.01,0.05 0.01,0.07 0.01,0.05 0.01,0.1 0,0.14 -0.01,0.05 -0.02,0.1 -0.04,0.14 -0.02,0.05 -0.06,0.09 -0.1,0.12 -0.04,0.03 -0.09,0.05 -0.13,0.07 -0.05,0.02 -0.09,0.03 -0.14,0.03 -0.03,0 -0.05,0.01 -0.08,-0 -0.02,-0 -0.03,-0.01 -0.04,-0.03 -0.01,-0.01 -0.01,-0.02 -0.02,-0.02 -0,-0.01 -0.01,-0.02 -0.01,-0.03 0,-0 0,-0.01 0,-0.01 0,-0 0,-0.01 0,-0.02 0,-0.01 0.01,-0.02 0.01,-0.03 0.01,-0.01 0.03,-0.02 0.04,-0.03 0.01,-0.01 0.03,-0.01 0.05,-0.01 0.01,0 0.02,0 0.02,0.01 0,0 0.01,0 0.01,0.01 0,0 0,0 0,0 0,0 0,0 0,0 0,0 0,0 0,0 0.01,0.01 0.01,0.02 -0,0.03 -0.01,0.01 -0.02,0.01 -0.02,0l-0 0z"/>
   <path class="fil2" d="M10.15 3.01l-5.28 0c-0.05,0 -0.09,0.03 -0.09,0.07 0,0.04 0.04,0.07 0.09,0.07l0.06 0c0.09,2.16 0.81,3.95 1.78,4.6 0.11,0.2 0.28,0.35 0.49,0.42 -0,0.09 -0,0.17 -0,0.26 0,0.07 0,0.13 0,0.2 -0.16,0.08 -0.3,0.23 -0.38,0.41l1.38 0c-0.08,-0.18 -0.22,-0.33 -0.38,-0.41 0,-0.07 0,-0.13 0,-0.2 0,-0.09 -0,-0.18 -0,-0.26 0.21,-0.08 0.38,-0.23 0.49,-0.42 0.97,-0.64 1.69,-2.43 1.78,-4.6l0.06 0c0.05,0 0.09,-0.03 0.09,-0.07 0,-0.04 -0.04,-0.07 -0.09,-0.07z"/>
   <path class="fil3" d="M9.86 10.06l-0.62 0 0 -0.35c0,-0.06 -0.07,-0.11 -0.14,-0.11l-0.37 0 0 -0.44c0,-0.06 -0.07,-0.11 -0.14,-0.11l-0.4 0 -1.38 0 -0.37 0c-0.08,0 -0.14,0.05 -0.14,0.11l0 0.44 -0.37 0c-0.08,0 -0.14,0.05 -0.14,0.11l0 0.35 -0.61 0c-0.08,0 -0.14,0.05 -0.14,0.11l0 0.11 0 0.93 0 0.7c0,0.06 0.06,0.11 0.14,0.11l4.69 0c0.08,0 0.14,-0.05 0.14,-0.11l0 -0.7 0 -0.93 0 -0.11c0,-0.06 -0.06,-0.11 -0.14,-0.11z"/>
   <path class="fil2" d="M8.89 10.45l-0.03 0 -2.68 0 -0.03 0c0,0.16 -0.16,0.28 -0.36,0.28l0 0.6c0.2,0 0.36,0.13 0.36,0.28l0.03 0 2.68 0 0.03 0c0,-0.16 0.16,-0.28 0.36,-0.28l0 -0.6c-0.2,0 -0.36,-0.12 -0.36,-0.28z"/>
   <g>
    <g>
     <g>
      <path class="fil4" d="M6.36 3.79c-0.3,0.22 -0.48,0.52 -0.56,0.83 -0.1,0.38 -0.09,0.59 0.04,0.95 0.11,0.3 0.3,0.58 0.56,0.77 0.16,0.12 0.25,0.16 0.46,0.22 0.1,0.03 0.16,0.04 0.27,0.05 0.09,0.01 0.19,0 0.3,0.04 0,0 0,0 0,0.01 -0.1,0.04 -0.21,0.02 -0.31,0.01 -0.12,-0.01 -0.17,-0.03 -0.28,-0.06 -0.21,-0.06 -0.31,-0.11 -0.47,-0.24 -0.28,-0.2 -0.48,-0.49 -0.58,-0.8 -0.12,-0.38 -0.13,-0.59 -0.03,-0.98 0.09,-0.32 0.28,-0.61 0.59,-0.83 0,0 0,0 0.01,0.01z"/>
      <g>
       <path class="fil4" d="M6.48 6.36c0.05,0.09 0.12,0.11 0.19,0.1 0.06,-0.01 0.09,-0.04 0.03,-0.12 -0.06,-0.08 -0.25,-0.3 -0.25,-0.3 0,0 -0.02,0.24 0.03,0.33z"/>
       <path class="fil4" d="M6.13 6.05c0.02,0.09 0.08,0.13 0.13,0.14 0.06,0.01 0.09,-0.01 0.07,-0.1 -0.02,-0.09 -0.13,-0.34 -0.13,-0.34 0,0 -0.08,0.21 -0.06,0.3z"/>
       <path class="fil4" d="M5.91 5.68c-0.01,0.09 0.03,0.14 0.08,0.16 0.05,0.02 0.08,0.01 0.09,-0.07 0,-0.08 -0.04,-0.34 -0.04,-0.34 0,0 -0.13,0.17 -0.13,0.26z"/>
       <path class="fil4" d="M5.8 5.3c-0.03,0.08 0,0.13 0.04,0.16 0.04,0.03 0.07,0.03 0.09,-0.05 0.02,-0.07 0.04,-0.32 0.04,-0.32 0,0 -0.15,0.13 -0.18,0.2z"/>
       <path class="fil4" d="M5.78 4.93c-0.04,0.06 -0.03,0.12 0,0.15 0.03,0.04 0.06,0.04 0.09,-0.02 0.03,-0.06 0.1,-0.28 0.1,-0.28 0,0 -0.16,0.08 -0.2,0.15z"/>
       <path class="fil4" d="M5.83 4.59c-0.05,0.05 -0.05,0.1 -0.03,0.14 0.02,0.04 0.04,0.05 0.09,0 0.04,-0.05 0.15,-0.23 0.15,-0.23 0,0 -0.16,0.04 -0.21,0.09z"/>
       <path class="fil4" d="M5.95 4.3c-0.05,0.04 -0.06,0.08 -0.05,0.12 0.01,0.04 0.03,0.06 0.08,0.02 0.05,-0.04 0.18,-0.19 0.18,-0.19 0,0 -0.15,0.01 -0.21,0.05z"/>
       <path class="fil4" d="M6.12 4.06c-0.06,0.03 -0.07,0.06 -0.07,0.1 0,0.04 0.02,0.05 0.07,0.03 0.05,-0.03 0.2,-0.14 0.2,-0.14 0,0 -0.14,-0.01 -0.2,0.01z"/>
       <path class="fil4" d="M6.32 3.86c-0.05,0.01 -0.08,0.05 -0.08,0.08 -0.01,0.03 0,0.05 0.06,0.04 0.05,-0.01 0.21,-0.1 0.21,-0.1 0,0 -0.13,-0.03 -0.18,-0.01z"/>
       <path class="fil4" d="M6.94 6.55c0.08,0.07 0.17,0.06 0.23,0.03 0.06,-0.03 0.08,-0.07 -0.01,-0.13 -0.09,-0.06 -0.36,-0.21 -0.36,-0.21 0,0 0.06,0.23 0.14,0.3z"/>
      </g>
      <g>
       <path class="fil4" d="M6.4 6.47c0.11,0.02 0.16,0.06 0.2,0.12 0.04,0.06 0.04,0.11 -0.08,0.1 -0.12,-0.01 -0.49,-0.21 -0.49,-0.21 0,0 0.27,-0.02 0.37,-0.01z"/>
       <path class="fil4" d="M6.04 6.12c0.09,0.04 0.12,0.1 0.13,0.16 0.01,0.06 -0,0.1 -0.1,0.06 -0.1,-0.04 -0.36,-0.31 -0.36,-0.31 0,0 0.24,0.04 0.33,0.09z"/>
       <path class="fil4" d="M5.81 5.73c0.07,0.06 0.08,0.12 0.08,0.17 -0,0.06 -0.03,0.09 -0.11,0.03 -0.08,-0.06 -0.25,-0.36 -0.25,-0.36 0,0 0.21,0.1 0.28,0.16z"/>
       <path class="fil4" d="M5.69 5.32c0.05,0.07 0.05,0.13 0.03,0.17 -0.02,0.05 -0.05,0.07 -0.11,0 -0.06,-0.07 -0.14,-0.38 -0.14,-0.38 0,0 0.17,0.13 0.21,0.2z"/>
       <path class="fil4" d="M5.68 4.92c0.03,0.07 0.02,0.12 -0.01,0.16 -0.03,0.04 -0.06,0.06 -0.09,-0.02 -0.04,-0.08 -0.05,-0.37 -0.05,-0.37 0,0 0.12,0.16 0.15,0.23z"/>
       <path class="fil4" d="M5.75 4.57c0.01,0.07 -0.01,0.11 -0.04,0.14 -0.03,0.03 -0.06,0.04 -0.08,-0.04 -0.02,-0.07 0.03,-0.34 0.03,-0.34 0,0 0.08,0.16 0.09,0.23z"/>
       <path class="fil4" d="M5.88 4.26c-0,0.07 -0.03,0.1 -0.07,0.12 -0.03,0.02 -0.07,0.02 -0.07,-0.05 -0,-0.07 0.09,-0.3 0.09,-0.3 0,0 0.04,0.16 0.04,0.23z"/>
       <path class="fil4" d="M6.06 4c-0.02,0.06 -0.05,0.09 -0.08,0.1 -0.04,0.01 -0.06,0.01 -0.05,-0.05 0.01,-0.06 0.14,-0.26 0.14,-0.26 0,0 0.01,0.15 -0.01,0.21z"/>
       <path class="fil4" d="M6.27 3.8c-0.03,0.05 -0.06,0.07 -0.09,0.08 -0.03,0.01 -0.06,-0 -0.03,-0.06 0.02,-0.05 0.18,-0.21 0.18,-0.21 0,0 -0.02,0.13 -0.05,0.19z"/>
       <path class="fil4" d="M6.9 6.7c0.12,-0.02 0.19,0.01 0.25,0.05 0.06,0.04 0.08,0.09 -0.05,0.12 -0.13,0.03 -0.57,-0.05 -0.57,-0.05 0,0 0.26,-0.1 0.37,-0.12z"/>
      </g>
      <path class="fil4" d="M6.47 3.66c-0.06,0.04 -0.07,0.07 -0.06,0.09 0.01,0.02 0.04,0.02 0.1,-0.01 0.06,-0.03 0.23,-0.16 0.23,-0.16 0,0 -0.21,0.05 -0.27,0.08z"/>
     </g>
    </g>
    <g>
     <g>
      <path class="fil4" d="M8.68 3.81c0.3,0.22 0.48,0.52 0.56,0.83 0.1,0.38 0.09,0.59 -0.04,0.95 -0.11,0.3 -0.3,0.58 -0.57,0.77 -0.16,0.12 -0.25,0.16 -0.46,0.22 -0.1,0.03 -0.16,0.04 -0.27,0.05 -0.09,0.01 -0.19,0 -0.3,0.04 0,0 -0,0 -0,0.01 0.1,0.04 0.21,0.02 0.3,0.01 0.12,-0.01 0.17,-0.03 0.28,-0.06 0.21,-0.06 0.31,-0.11 0.47,-0.23 0.28,-0.2 0.47,-0.49 0.58,-0.8 0.12,-0.38 0.13,-0.6 0.03,-0.98 -0.09,-0.32 -0.28,-0.61 -0.59,-0.83 -0,0 -0,0 -0.01,0.01z"/>
      <g>
       <path class="fil4" d="M8.56 6.37c-0.05,0.09 -0.12,0.11 -0.19,0.1 -0.06,-0.01 -0.09,-0.04 -0.03,-0.12 0.06,-0.08 0.25,-0.3 0.25,-0.3 0,0 0.02,0.24 -0.03,0.33z"/>
       <path class="fil4" d="M8.91 6.06c-0.02,0.09 -0.08,0.13 -0.13,0.14 -0.06,0.01 -0.09,-0.01 -0.07,-0.1 0.02,-0.09 0.13,-0.34 0.13,-0.34 0,0 0.08,0.21 0.06,0.3z"/>
       <path class="fil4" d="M9.13 5.7c0.01,0.09 -0.03,0.14 -0.08,0.16 -0.05,0.02 -0.08,0.01 -0.09,-0.07 -0,-0.08 0.04,-0.34 0.04,-0.34 0,0 0.12,0.17 0.13,0.26z"/>
       <path class="fil4" d="M9.24 5.32c0.03,0.08 -0,0.13 -0.04,0.16 -0.04,0.03 -0.07,0.03 -0.09,-0.04 -0.02,-0.07 -0.04,-0.32 -0.04,-0.32 0,0 0.15,0.12 0.18,0.2z"/>
       <path class="fil4" d="M9.26 4.95c0.04,0.06 0.03,0.12 -0,0.15 -0.03,0.04 -0.06,0.04 -0.09,-0.02 -0.03,-0.06 -0.1,-0.28 -0.1,-0.28 0,0 0.16,0.08 0.2,0.15z"/>
       <path class="fil4" d="M9.21 4.61c0.05,0.05 0.05,0.1 0.03,0.14 -0.02,0.04 -0.04,0.05 -0.09,0 -0.04,-0.05 -0.15,-0.23 -0.15,-0.23 0,0 0.16,0.04 0.21,0.09z"/>
       <path class="fil4" d="M9.09 4.32c0.05,0.04 0.06,0.08 0.06,0.12 -0.01,0.04 -0.03,0.05 -0.08,0.02 -0.05,-0.04 -0.18,-0.19 -0.18,-0.19 0,0 0.16,0.01 0.21,0.05z"/>
       <path class="fil4" d="M8.92 4.07c0.05,0.02 0.07,0.06 0.07,0.1 0,0.04 -0.02,0.05 -0.07,0.03 -0.05,-0.03 -0.2,-0.14 -0.2,-0.14 0,0 0.14,-0.01 0.2,0.01z"/>
       <path class="fil4" d="M8.72 3.88c0.05,0.01 0.08,0.05 0.08,0.08 0.01,0.03 -0,0.05 -0.06,0.04 -0.05,-0.02 -0.21,-0.1 -0.21,-0.1 0,0 0.13,-0.03 0.18,-0.01z"/>
       <path class="fil4" d="M8.1 6.56c-0.08,0.07 -0.17,0.06 -0.23,0.03 -0.06,-0.03 -0.08,-0.07 0.01,-0.13 0.09,-0.06 0.36,-0.21 0.36,-0.21 0,0 -0.06,0.23 -0.14,0.3z"/>
      </g>
      <g>
       <path class="fil4" d="M8.64 6.48c-0.11,0.02 -0.16,0.06 -0.2,0.12 -0.03,0.06 -0.04,0.11 0.08,0.1 0.12,-0.01 0.49,-0.21 0.49,-0.21 0,0 -0.26,-0.02 -0.37,-0.01z"/>
       <path class="fil4" d="M9 6.14c-0.09,0.04 -0.12,0.1 -0.14,0.16 -0.01,0.06 0,0.1 0.1,0.07 0.1,-0.04 0.36,-0.31 0.36,-0.31 0,0 -0.24,0.04 -0.33,0.09z"/>
       <path class="fil4" d="M9.23 5.74c-0.07,0.06 -0.08,0.12 -0.08,0.17 0.01,0.06 0.03,0.09 0.11,0.03 0.08,-0.06 0.25,-0.36 0.25,-0.36 0,0 -0.21,0.1 -0.28,0.16z"/>
       <path class="fil4" d="M9.35 5.33c-0.05,0.07 -0.05,0.12 -0.03,0.17 0.02,0.05 0.05,0.07 0.1,0 0.06,-0.07 0.14,-0.38 0.14,-0.38 0,0 -0.17,0.13 -0.22,0.21z"/>
       <path class="fil4" d="M9.36 4.94c-0.03,0.07 -0.02,0.12 0.01,0.16 0.03,0.04 0.06,0.06 0.1,-0.02 0.04,-0.08 0.05,-0.37 0.05,-0.37 0,0 -0.12,0.15 -0.15,0.23z"/>
       <path class="fil4" d="M9.3 4.58c-0.01,0.07 0.01,0.11 0.04,0.15 0.03,0.03 0.06,0.04 0.08,-0.04 0.02,-0.07 -0.03,-0.34 -0.03,-0.34 0,0 -0.08,0.16 -0.09,0.23z"/>
       <path class="fil4" d="M9.16 4.27c0,0.07 0.03,0.1 0.06,0.12 0.04,0.02 0.07,0.02 0.07,-0.05 0,-0.07 -0.09,-0.3 -0.09,-0.3 0,0 -0.04,0.16 -0.04,0.23z"/>
       <path class="fil4" d="M8.99 4.02c0.02,0.06 0.05,0.09 0.08,0.1 0.04,0.01 0.06,0.01 0.05,-0.05 -0.01,-0.06 -0.14,-0.25 -0.14,-0.25 0,0 -0,0.15 0.01,0.21z"/>
       <path class="fil4" d="M8.77 3.81c0.03,0.05 0.06,0.07 0.09,0.08 0.03,0.01 0.06,-0 0.03,-0.06 -0.02,-0.05 -0.18,-0.21 -0.18,-0.21 0,0 0.02,0.13 0.05,0.19z"/>
       <path class="fil4" d="M8.14 6.71c-0.12,-0.02 -0.19,0.01 -0.25,0.05 -0.06,0.04 -0.08,0.09 0.05,0.12 0.13,0.03 0.57,-0.05 0.57,-0.05 0,0 -0.26,-0.1 -0.37,-0.12z"/>
      </g>
      <path class="fil4" d="M8.57 3.68c0.06,0.04 0.07,0.07 0.05,0.09 -0.01,0.02 -0.04,0.03 -0.1,-0.01 -0.06,-0.03 -0.23,-0.16 -0.23,-0.16 0,0 0.21,0.05 0.27,0.08z"/>
     </g>
    </g>
    <path class="fil4" d="M7.8 6.7c0,0.16 -0.13,0.29 -0.29,0.29 -0.16,0 -0.29,-0.13 -0.29,-0.29 0,-0.16 0.13,-0.29 0.29,-0.29 0.16,0 0.29,0.13 0.29,0.29z"/>
   </g>
   <path class="fil5" d="M8.8 4.97c0,0.7 -0.58,1.27 -1.29,1.27 -0.71,0 -1.29,-0.57 -1.29,-1.27 0,-0.7 0.58,-1.27 1.29,-1.27 0.71,0 1.29,0.57 1.29,1.27z"/>
   <path class="fil4" d="M8.03 5.48l-0.29 0 0 -1.28c0,-0.03 -0.02,-0.06 -0.06,-0.06l-0.24 0c-0.01,0 -0.01,0 -0.02,0l-0.44 0.18c-0.03,0.01 -0.04,0.04 -0.03,0.07l0.05 0.16c0.01,0.01 0.02,0.03 0.03,0.03 0.01,0.01 0.03,0.01 0.05,0l0.28 -0.11 0 1.01 -0.3 0c-0.03,0 -0.06,0.02 -0.06,0.06l0 0.2c0,0.03 0.03,0.06 0.06,0.06l0.35 0 0.27 0 0.34 0c0.03,0 0.06,-0.02 0.06,-0.06l0 -0.2c0,-0.03 -0.03,-0.06 -0.06,-0.06z"/>
  </g>
 </g>
</svg>
