<?xml version="1.0" encoding="utf-8"?>
<!-- Generator: Adobe Illustrator 16.0.0, SVG Export Plug-In . SVG Version: 6.00 Build 0)  -->
<!DOCTYPE svg PUBLIC "-//W3C//DTD SVG 1.1//EN" "http://www.w3.org/Graphics/SVG/1.1/DTD/svg11.dtd">
<svg version="1.1" id="Layer_1" xmlns="http://www.w3.org/2000/svg" xmlns:xlink="http://www.w3.org/1999/xlink" x="0px" y="0px"
	 width="512px" height="512px" viewBox="0 0 512 512" enable-background="new 0 0 512 512" xml:space="preserve">
<g id="clean_code_1_">
	<rect x="13.484" y="103.219" fill="#434A54" width="445.891" height="307.219"/>
	<rect x="9.984" y="58.906" fill="#E6E9ED" width="443.5" height="53.641"/>
	<polygon fill="#3BAFDA" points="426.672,325.359 392.672,429.359 492.672,334.688 	"/>
	<polygon fill="#3BAFDA" points="342.016,325.359 277.344,336.688 373.344,423.359 	"/>
	<polygon fill="#4FC2E9" points="343.031,328.547 386.672,429.359 424.938,330.672 	"/>
	<path fill="#4FC2E9" d="M314.016,283.688c0,1.328,27.328,32.656,27.328,32.656l27.328-31L314.016,283.688z"/>
	<polygon fill="#4FC2E9" points="400.016,280.688 428.344,320 459.375,283.688 	"/>
	<polygon fill="#3BAFDA" points="464.672,290.688 437.344,322.688 494.672,325.359 	"/>
	<polygon fill="#3BAFDA" points="381.016,283.688 345.672,324.016 418.016,324.016 	"/>
	<polygon fill="#3BAFDA" points="303.672,288 280.672,325.359 328.344,321.688 	"/>
	<path d="M32,85.328c0,5.891,4.781,10.656,10.672,10.656s10.656-4.766,10.656-10.656s-4.766-10.672-10.656-10.672
		S32,79.438,32,85.328z"/>
	<path d="M64,85.328c0,5.891,4.781,10.656,10.672,10.656s10.656-4.766,10.656-10.656s-4.766-10.672-10.656-10.672
		S64,79.438,64,85.328z"/>
	<path d="M96,85.328c0,5.891,4.781,10.656,10.672,10.656s10.656-4.766,10.656-10.656s-4.766-10.672-10.656-10.672
		S96,79.438,96,85.328z"/>
	<path fill="#FC6E51" d="M53.328,160h319.984c0.016,0,0.016,0,0.031,0c5.891,0,10.672-4.781,10.672-10.672
		s-4.781-10.672-10.672-10.672l0,0H53.328c-5.891,0-10.656,4.781-10.656,10.672S47.438,160,53.328,160z"/>
	<path fill="#AC92EB" d="M53.328,202.656H224c5.891,0,10.672-4.766,10.672-10.656s-4.781-10.672-10.672-10.672H53.328
		c-5.891,0-10.656,4.781-10.656,10.672S47.438,202.656,53.328,202.656z"/>
	<path fill="#48CFAD" d="M53.328,245.328h234.656H288c5.891,0,10.672-4.781,10.672-10.656c0-5.906-4.781-10.672-10.672-10.672l0,0
		H53.328c-5.891,0-10.656,4.766-10.656,10.656S47.438,245.328,53.328,245.328z"/>
	<path fill="#5D9CEC" d="M53.328,288h149.344c5.891,0,10.656-4.781,10.656-10.672s-4.766-10.656-10.656-10.656l-149.344-0.016
		c-5.891,0-10.656,4.781-10.656,10.672S47.438,288,53.328,288z"/>
	<path fill="#FFCE54" d="M224,309.328L224,309.328H53.328c-5.891,0-10.656,4.781-10.656,10.672s4.766,10.672,10.656,10.672h170.656
		H224c5.891,0,10.672-4.781,10.672-10.672S229.891,309.328,224,309.328z"/>
	<path fill="#ED5564" d="M138.672,352H53.328c-5.891,0-10.656,4.766-10.656,10.672c0,5.891,4.766,10.656,10.656,10.656h85.344
		c5.891,0,10.656-4.766,10.656-10.656S144.562,352,138.672,352z"/>
	<path d="M512,330.672l-42.656-64V74.656c0-11.781-9.547-21.328-21.328-21.328H21.328C9.547,53.328,0,62.875,0,74.656V416h341.312
		L384,458.672L512,330.672z M410.859,341.328l-27.156,67.281l-26.672-67.281H410.859z M356.406,320l27.578-27.578L411.578,320
		H356.406z M433.859,341.328h37.312l-62.562,62.562L433.859,341.328z M448.859,320l16.578-20.719L479.25,320H448.859z
		 M430.516,308.781L409.734,288h37.406L430.516,308.781z M337.484,308.766L320.859,288h37.375L337.484,308.766z M302.562,299.281
		L319.141,320h-30.406L302.562,299.281z M334.078,341.328l24.484,61.75l-61.766-61.75H334.078z M21.328,74.656h21.344h32h32h341.344
		v21.328H106.672h-32h-32H21.328V74.656z M21.328,394.672V117.328h426.688v149.328H298.672l-42.688,64.031l63.984,63.984H21.328z"/>
</g>
</svg>
