<?xml version="1.0" encoding="utf-8"?>
<!-- Generator: Adobe Illustrator 16.0.0, SVG Export Plug-In . SVG Version: 6.00 Build 0)  -->
<!DOCTYPE svg PUBLIC "-//W3C//DTD SVG 1.1//EN" "http://www.w3.org/Graphics/SVG/1.1/DTD/svg11.dtd">
<svg version="1.1" id="Layer_1" xmlns="http://www.w3.org/2000/svg" xmlns:xlink="http://www.w3.org/1999/xlink" x="0px" y="0px"
	 width="512px" height="512px" viewBox="0 0 512 512" enable-background="new 0 0 512 512" xml:space="preserve">
<g id="payout_2_1_">
	<rect x="42.672" y="115.984" fill="#A0D468" width="431.328" height="217.344"/>
	<polygon fill="#EAC6BB" points="336,35.328 298.672,46 286,25.328 252,11.328 234.672,40 218,40 180.672,40 166.672,96 154,93.328 
		114.672,93.328 104,120 356.672,114 356.672,57.328 	"/>
	<polygon fill="#8CC153" points="430.672,176.656 399.344,146.656 104,146.656 75.336,179.984 75.336,262.656 108,299.984 
		327.344,299.984 442.672,262.656 	"/>
	<polygon fill="#EAC6BB" points="411.344,239.344 381.344,235.344 314,335.344 280.672,332.016 108,327.344 121.336,434.672 
		206,498.016 284.672,491.344 344,443.344 396,346.672 426,262.016 	"/>
	<path fill="#A0D468" d="M292.672,223c0,21.906-17.766,39.656-39.672,39.656s-39.664-17.75-39.664-39.656
		s17.758-39.672,39.664-39.672S292.672,201.094,292.672,223z"/>
	<g>
		<path d="M256,170.094c-29.453,0-53.336,23.891-53.336,53.344s23.883,53.344,53.336,53.344s53.344-23.891,53.344-53.344
			S285.453,170.094,256,170.094z M256,255.438c-17.648,0-32-14.344-32-32s14.352-32,32-32c17.656,0,32,14.344,32,32
			S273.656,255.438,256,255.438z"/>
		<path d="M364.344,106.094V67.375c0-22.328-18.094-40.438-40.406-40.438c-7.25,0-14.047,1.938-19.938,5.266
			C300.219,13.812,283.938,0,264.422,0c-20.43,0-37.305,15.156-40.031,34.828c-6.703-4.953-14.992-7.891-23.969-7.891
			C178.094,26.938,160,45.047,160,67.375v21.031c-6.625-4.75-14.75-7.562-23.523-7.562c-16.969,0-31.477,10.438-37.477,25.25H32
			v234.688h64v29.875l0,0C96,448.719,159.281,512,237.352,512c55.773,0,104.008-32.312,126.992-79.234l0,0l46.438-91.984H480
			V106.094H364.344z M304.844,67.375c0-10.531,8.562-19.094,19.094-19.094c10.516,0,19.078,8.562,19.078,19.094v38.719h-38.172
			V67.375z M245.336,40.422c0-10.516,8.562-19.078,19.086-19.078c10.516,0,19.078,8.562,19.078,19.078v26.953v38.719h-38.164V40.422
			z M181.336,67.375c0-10.531,8.562-19.094,19.086-19.094s19.086,8.562,19.086,19.094v38.719h-38.172V67.375z M136.477,102.188
			c4.344,0,8.352,1.469,11.562,3.906h-23.133C128.117,103.656,132.125,102.188,136.477,102.188z M416.531,282.031l-0.047,0.094
			l-0.047,0.062l-36.5,72.344l-29.969,59.562c-5.938,15.453-15.688,29.359-27.75,41.422c-22.688,22.672-52.812,35.141-84.867,35.141
			c-32.062,0-62.195-12.469-84.867-35.141c-22.664-22.672-35.148-52.797-35.148-84.859l0,0h-0.008v-29.875h191.344l-11.297,21.875
			h23.969L364,280.062l10.219-19.812c4.109-7.969,12.219-12.906,21.188-12.906c3.797,0,7.453,0.875,10.875,2.641
			c5.641,2.922,9.812,7.859,11.75,13.906S419.438,276.375,416.531,282.031z M336.188,287.438H112.883
			c-5.383-12.281-15.266-22.156-27.547-27.547v-72.906c12.281-5.391,22.164-15.266,27.547-27.547h286.242
			c5.375,12.281,15.25,22.156,27.531,27.547v51.641c-3.062-2.969-6.625-5.547-10.609-7.594c-6.609-3.406-13.672-5.031-20.641-5.031
			c-16.344,0-32.125,8.922-40.156,24.469L336.188,287.438z M458.656,319.438h-37.109l13.953-27.625
			c2.312-4.531,3.797-9.25,4.5-14.031c2.562-0.656,5.25-1,8-1V170.094c-17.672,0-32-14.312-32-32H96c0,17.688-14.328,32-32,32
			v106.688c17.672,0,32,14.312,32,32h229.188l-5.5,10.656H53.336v-192h405.32V319.438z"/>
	</g>
</g>
</svg>
