<?xml version="1.0" encoding="UTF-8"?>
<!DOCTYPE svg PUBLIC "-//W3C//DTD SVG 1.1//EN" "http://www.w3.org/Graphics/SVG/1.1/DTD/svg11.dtd">
<!-- Creator: CorelDRAW 2020 (64-Bit) -->
<svg xmlns="http://www.w3.org/2000/svg" xml:space="preserve" width="5.175in" height="5.175in" version="1.1" style="shape-rendering:geometricPrecision; text-rendering:geometricPrecision; image-rendering:optimizeQuality; fill-rule:evenodd; clip-rule:evenodd"
viewBox="0 0 340.07 340.07"
 xmlns:xlink="http://www.w3.org/1999/xlink"
 xmlns:xodm="http://www.corel.com/coreldraw/odm/2003">
 <defs>
  <style type="text/css">
   <![CDATA[
    .fil1 {fill:black;fill-rule:nonzero}
    .fil0 {fill:#5D9CEC;fill-rule:nonzero}
    .fil3 {fill:#EAC6BB;fill-rule:nonzero}
    .fil2 {fill:#ED5564;fill-rule:nonzero}
    .fil4 {fill:#FFCE54;fill-rule:nonzero}
   ]]>
  </style>
 </defs>
 <g id="__x0023_Layer_x0020_1">
  <metadata id="CorelCorpID_0Corel-Layer"/>
  <polygon class="fil0" points="14.38,10.62 6.88,265.68 48.76,270.06 49.38,317.58 151.29,269.43 326.94,261.93 331.34,10.62 "/>
  <path class="fil1" d="M340.07 9.99c0,-5.51 -4.47,-9.99 -9.99,-9.99l-320.08 0c-5.52,0 -10,4.48 -10,9.99l0 260.07c0,5.52 4.48,9.99 10,9.99l30.01 0 0 60.01 108.03 -60.01c256.44,0 19.45,0 182.04,0 5.52,0 9.99,-4.47 9.99,-9.99 0,-219.14 0,35.26 0,-260.07zm-197.22 250.08l-4.53 2.51 -78.31 43.5 0 -26.02 0 -19.98 -20.01 0 -20 0 0 -240.06 300.08 0 0 240.06 -172.05 0 -5.19 0z"/>
  <g id="_1494248588064">
   <path class="fil2" d="M233.91 106.87c0,36.04 -29.22,65.25 -65.25,65.25 -36.04,0 -65.26,-29.21 -65.26,-65.25 0,-36.03 29.22,-65.25 65.26,-65.25 36.03,0 65.25,29.22 65.25,65.25z"/>
   <polygon class="fil3" points="191.47,88.85 171.62,78.93 148.35,92.27 146.29,100.83 154.51,125.13 174.7,132.32 193.87,115.89 "/>
   <polygon class="fil4" points="184.63,132.32 165.46,134.26 146.29,132.32 120.74,150.23 159.53,171.69 196.95,164.84 217.94,147.5 "/>
   <path class="fil1" d="M169.12 34.32c-40.33,0 -73.03,32.69 -73.03,73.01 0,40.32 32.69,73.01 73.03,73.01 40.32,0 73.01,-32.69 73.01,-73.01 0,-40.32 -32.69,-73.01 -73.01,-73.01zm-37.68 117.65c3.31,-1.09 5.52,-2.14 7.11,-2.91 0.53,-0.26 1.04,-0.49 1.31,-0.6 8.83,-3.36 14.44,-6.74 17.86,-10.87 3.98,2.7 8,4.26 11.4,4.26 3.38,0 7.4,-1.56 11.39,-4.26 3.41,4.13 9.02,7.51 17.87,10.87 0.25,0.11 0.75,0.34 1.29,0.6 1.58,0.77 3.8,1.82 7.1,2.91 -10.52,8.91 -23.72,13.78 -37.66,13.78 -13.95,0 -27.15,-4.87 -37.68,-13.78zm47.04 -32.22c-3.9,4.76 -7.83,6.97 -9.37,7.43 -1.56,-0.46 -5.48,-2.67 -9.39,-7.43 -4.17,-5.09 -6.56,-10.91 -6.56,-16 0,-10.97 6.41,-18.33 15.94,-18.33 9.52,0 15.93,7.36 15.93,18.33 -0,5.09 -2.39,10.91 -6.56,16zm38.8 20.61c-0.88,-0.55 -1.82,-1.01 -2.84,-1.34l-0.41 -0.13c-5.87,-1.57 -7.86,-3.08 -10.48,-4.09 -9.27,-3.53 -11.69,-6.08 -12.3,-7.28 -0.02,-0.04 -0.04,-0.1 -0.06,-0.14l0 -0.19c4.93,-6.63 8.45,-14.89 8.45,-23.44 0,-19.85 -13.67,-32.94 -30.53,-32.94 -16.87,0 -30.54,13.09 -30.54,32.94 0,8.56 3.52,16.81 8.46,23.44l-0.01 0.19c-0.02,0.04 -0.03,0.1 -0.06,0.14 -0.61,1.21 -3.03,3.75 -12.31,7.28 -2.61,1.01 -4.6,2.51 -10.48,4.09l-0.41 0.13c-1.02,0.33 -1.97,0.79 -2.85,1.34 -6.65,-9.66 -10.23,-21.07 -10.23,-33.04 0,-15.61 6.08,-30.27 17.11,-41.31 11.03,-11.04 25.7,-17.11 41.31,-17.11 15.59,0 30.27,6.08 41.3,17.11 11.03,11.04 17.1,25.7 17.1,41.31 -0,11.97 -3.57,23.38 -10.22,33.04z"/>
  </g>
  <path class="fil1" d="M234.49 196.96l-154.98 0c-3.57,0 -6.46,2.89 -6.46,6.45 0,3.57 2.89,6.45 6.46,6.45l154.98 0c3.57,0 6.46,-2.89 6.46,-6.45 0,-3.57 -2.89,-6.45 -6.46,-6.45z"/>
  <path class="fil1" d="M163.47 223.65l-83.95 0c-3.57,0 -6.46,2.89 -6.46,6.45 0,3.57 2.89,6.45 6.46,6.45l83.95 0c3.57,0 6.45,-2.89 6.45,-6.45 0,-3.57 -2.89,-6.45 -6.45,-6.45z"/>
 </g>
</svg>
