<?xml version="1.0" encoding="utf-8"?>
<!-- Generator: Adobe Illustrator 16.0.0, SVG Export Plug-In . SVG Version: 6.00 Build 0)  -->
<!DOCTYPE svg PUBLIC "-//W3C//DTD SVG 1.1//EN" "http://www.w3.org/Graphics/SVG/1.1/DTD/svg11.dtd">
<svg version="1.1" id="Layer_1" xmlns="http://www.w3.org/2000/svg" xmlns:xlink="http://www.w3.org/1999/xlink" x="0px" y="0px"
	 width="512px" height="512px" viewBox="0 0 512 512" enable-background="new 0 0 512 512" xml:space="preserve">
<g id="books_1_">
	<path fill="#F5F7FA" d="M65.504,316.252l-16.5,9.812l-22.5,20l-11,23v38.998l17.5,27.5l21.671,20.5l98.826,7h337.994
		c0,0,0-144.998,0-146.811H65.504z"/>
	<polygon fill="#A0D468" points="332.67,82.249 302.672,59.593 266.672,59.593 224.001,59.593 194.673,63.593 176.674,80.921 
		159.33,118.249 163.33,164.248 182.173,196.919 204.673,223.59 233.329,223.59 270,223.59 307.999,216.247 341.326,176.248 
		349.326,115.592 	"/>
	<polygon fill="#F5F7FA" points="457.996,232.246 351.998,232.246 139.331,232.246 80.003,235.59 63.332,256.011 54.676,268.918 
		54.676,283.098 66.676,303.598 92.003,316.252 461.324,308.908 	"/>
	<polygon fill="#ED5564" points="87.019,391.252 87.019,484.562 110.347,474.562 127.674,480.906 129.346,394.252 	"/>
	<g>
		<path fill="#080808" d="M501.324,453.75V325.752c5.891,0,10.671-4.781,10.671-10.656c0-5.906-4.78-10.686-10.671-10.686h-10.656
			h-21.344v-63.992c5.891,0,10.672-4.781,10.672-10.672c0-5.89-4.781-10.656-10.672-10.656h-10.656H327.499
			c3.452-3.078,6.765-6.453,9.89-10.109c16.938-19.781,26.641-45.562,26.641-70.749c0-24.421-6.859-46.765-19.328-62.874
			c-13.422-17.375-32.843-26.937-54.654-26.937c-6.969,0-14.156,0.969-21.5,2.859c3.797-10.015,11.828-13.75,14.484-14.75
			c4.531-1.234,7.859-5.359,7.859-10.281c0-5.89-4.781-10.656-10.672-10.656c-0.812,0-1.609,0.094-2.375,0.266l-0.031-0.062
			c-10.094,2.859-27.203,13.812-31.562,36.249c-8.312-2.406-16.438-3.625-24.296-3.625c-21.812,0-41.234,9.562-54.655,26.937
			c-12.469,16.109-19.328,38.437-19.328,62.874c0,25.187,9.703,50.968,26.64,70.733c3.125,3.672,6.437,7.047,9.89,10.125H96.003
			c-29.406,0-53.327,23.921-53.327,53.32c0,14.219,5.594,27.156,14.703,36.717c-33.358,11.594-57.374,43.344-57.374,80.625
			c0,43.436,32.625,79.404,74.671,84.654v11.344c0,3.688,1.906,7.125,5.046,9.062c3.156,1.938,7.078,2.125,10.391,0.469L106.675,487
			l16.562,8.281c1.5,0.75,3.141,1.125,4.765,1.125c1.953,0,3.891-0.531,5.609-1.594c3.141-1.938,5.062-5.375,5.062-9.062v-10.656
			h351.994h10.656c5.891,0,10.671-4.781,10.671-10.688C511.995,458.531,507.215,453.75,501.324,453.75z M169.299,138.232
			c0-19.734,5.281-37.421,14.875-49.827c9.438-12.203,22.5-18.656,37.781-18.656c9.265,0,19.281,2.344,29.75,6.953
			c0.047,0.016,0.078,0.031,0.125,0.047c0.234,0.094,0.484,0.188,0.734,0.266c0.078,0.031,0.172,0.078,0.25,0.094
			c0.281,0.094,0.562,0.156,0.844,0.234c0.062,0,0.125,0.031,0.188,0.031c0.328,0.078,0.656,0.125,1,0.156
			c0.016,0,0.047,0.016,0.047,0.016c0.375,0.031,0.734,0.062,1.094,0.062c0.25,0,0.484-0.016,0.734-0.031
			c0.062,0,0.125-0.016,0.188-0.016c0.172-0.016,0.359-0.047,0.531-0.062c0.188-0.031,0.391-0.062,0.578-0.094
			c0.141-0.031,0.297-0.062,0.453-0.109c0.203-0.047,0.422-0.094,0.625-0.156c0.125-0.047,0.25-0.094,0.391-0.125
			c0.219-0.078,0.422-0.156,0.641-0.25c0.062-0.031,0.109-0.047,0.172-0.062c10.469-4.609,20.484-6.953,29.75-6.953
			c15.28,0,28.343,6.453,37.78,18.656c9.593,12.406,14.874,30.093,14.874,49.827c0,20.171-7.844,40.905-21.515,56.874
			c-13.047,15.234-29.374,23.984-44.796,23.984l0,0c-5.562,0-10.938-1.172-16.016-3.453c-1.391-0.625-2.875-0.938-4.375-0.938
			s-2.984,0.312-4.375,0.938c-5.078,2.297-10.453,3.453-16.016,3.453c-15.421,0-31.75-8.75-44.796-24
			C177.143,179.138,169.299,158.404,169.299,138.232z M96.003,240.418h351.993v21.328h-31.999c-5.891,0-10.671,4.781-10.671,10.664
			c0,5.906,4.78,10.688,10.671,10.688h31.999v21.312H96.003c-17.641,0-32-14.344-32-32
			C64.004,254.777,78.363,240.418,96.003,240.418z M117.331,468.5l-5.891-2.969c-1.5-0.75-3.141-1.125-4.766-1.125
			c-1.641,0-3.281,0.375-4.781,1.125l-5.89,2.969v-68.092h21.328V468.5z M479.996,347.096h-106.67
			c-5.891,0-10.656,4.75-10.656,10.656c0,5.875,4.766,10.656,10.656,10.656h106.67v42.686h-42.672
			c-5.89,0-10.655,4.75-10.655,10.656c0,5.875,4.766,10.656,10.655,10.656h42.672v21.344H138.674v-53.342
			c5.891,0,10.656-4.781,10.656-10.656c0-5.906-4.766-10.656-10.656-10.656h-10.672H85.332H74.676
			c-5.891,0-10.672,4.75-10.672,10.656c0,5.875,4.781,10.656,10.672,10.656v52.436c-30.234-5.094-53.343-31.438-53.343-63.092
			c0-35.281,28.718-64,63.999-64h10.672h362.665h21.328V347.096z"/>
		<path fill="#080808" d="M330.671,379.096H181.33c-5.89,0-10.656,4.75-10.656,10.656c0,5.875,4.766,10.656,10.656,10.656h149.341
			c5.89,0,10.655-4.781,10.655-10.656C341.326,383.846,336.561,379.096,330.671,379.096z"/>
		<path fill="#080808" d="M181.33,283.098h85.342c5.891,0,10.656-4.781,10.656-10.688c0-5.883-4.766-10.664-10.656-10.664H181.33
			c-5.89,0-10.656,4.781-10.656,10.664C170.674,278.316,175.439,283.098,181.33,283.098z"/>
		<path fill="#080808" d="M205.86,182.419c2.234,0,4.469-0.688,6.391-2.125c4.719-3.531,5.672-10.218,2.156-14.937
			c-20.578-27.5-6.188-51.983-3.172-56.515c1.656-1.875,2.656-4.328,2.656-7.016c0-5.89-4.781-10.656-10.671-10.656
			c-3.453,0-6.516,1.641-8.469,4.188l-0.062-0.047c-0.781,1.031-7.766,10.546-10.969,25.312
			c-3.016,13.906-3.109,35.187,13.594,57.514C199.408,180.935,202.626,182.419,205.86,182.419z"/>
	</g>
</g>
</svg>
