<?xml version="1.0" encoding="UTF-8"?>
<!DOCTYPE svg PUBLIC "-//W3C//DTD SVG 1.1//EN" "http://www.w3.org/Graphics/SVG/1.1/DTD/svg11.dtd">
<!-- Creator: CorelDRAW 2020 (64-Bit) -->
<svg xmlns="http://www.w3.org/2000/svg" xml:space="preserve" width="0.408504in" height="0.408488in" version="1.1" style="shape-rendering:geometricPrecision; text-rendering:geometricPrecision; image-rendering:optimizeQuality; fill-rule:evenodd; clip-rule:evenodd"
viewBox="0 0 13.24 13.24"
 xmlns:xlink="http://www.w3.org/1999/xlink"
 xmlns:xodm="http://www.corel.com/coreldraw/odm/2003">
 <defs>
  <style type="text/css">
   <![CDATA[
    .fil6 {fill:#219C97;fill-rule:nonzero}
    .fil3 {fill:#2B3D50;fill-rule:nonzero}
    .fil5 {fill:#9A59B6;fill-rule:nonzero}
    .fil2 {fill:#C86057;fill-rule:nonzero}
    .fil4 {fill:#EBEFEF;fill-rule:nonzero}
    .fil0 {fill:#F0C30F;fill-rule:nonzero}
    .fil1 {fill:#F29A11;fill-rule:nonzero}
   ]]>
  </style>
 </defs>
 <g id="__x0023_Layer_x0020_1">
  <metadata id="CorelCorpID_0Corel-Layer"/>
  <path class="fil0" d="M13.24 6.62c0,3.66 -2.96,6.62 -6.62,6.62 -3.66,0 -6.62,-2.96 -6.62,-6.62 0,-3.66 2.97,-6.62 6.62,-6.62 3.66,0 6.62,2.96 6.62,6.62z"/>
  <path class="fil1" d="M13.24 6.62c0,3.66 -2.96,6.62 -6.62,6.62 -1.85,0 -3.52,-0.76 -4.72,-1.98 0.55,-0.63 1.11,-1.12 1.11,-2.01l0 -5.66c0,-0.82 0.71,-1.49 1.58,-1.49l6.87 0c1.1,1.18 1.78,2.77 1.78,4.51z"/>
  <g id="_1494079850688">
   <path class="fil2" d="M2.39 9.48c-0.57,0 -1.05,0.41 -1.18,0.96 0.37,0.5 0.8,0.95 1.28,1.34l1.11 0 0 -1.04c0,-0.69 -0.54,-1.26 -1.21,-1.26z"/>
   <path class="fil3" d="M2.39 9.34c0.37,0 0.66,-0.31 0.66,-0.69 0,-0.38 -0.3,-0.69 -0.66,-0.69 -0.37,0 -0.66,0.31 -0.66,0.69 0,0.38 0.3,0.69 0.66,0.69z"/>
   <path class="fil2" d="M5.21 9.48c-0.67,0 -1.21,0.56 -1.21,1.26l0 1.04 2.42 0 0 -1.04c0,-0.69 -0.54,-1.26 -1.21,-1.26z"/>
   <path class="fil3" d="M5.21 9.34c0.37,0 0.66,-0.31 0.66,-0.69 0,-0.38 -0.3,-0.69 -0.66,-0.69 -0.37,0 -0.66,0.31 -0.66,0.69 0,0.38 0.3,0.69 0.66,0.69z"/>
   <path class="fil2" d="M8.03 9.48c-0.67,0 -1.21,0.56 -1.21,1.26l0 1.04 2.42 0 0 -1.04c0,-0.69 -0.54,-1.26 -1.21,-1.26z"/>
   <path class="fil3" d="M8.03 9.34c0.37,0 0.66,-0.31 0.66,-0.69 0,-0.38 -0.3,-0.69 -0.66,-0.69 -0.37,0 -0.66,0.31 -0.66,0.69 0,0.38 0.3,0.69 0.66,0.69z"/>
   <path class="fil2" d="M12.03 10.44c-0.13,-0.55 -0.61,-0.96 -1.18,-0.96 -0.67,0 -1.21,0.56 -1.21,1.26l0 1.04 1.11 0c0.48,-0.38 0.91,-0.83 1.28,-1.34z"/>
   <path class="fil3" d="M10.85 9.34c0.37,0 0.66,-0.31 0.66,-0.69 0,-0.38 -0.3,-0.69 -0.66,-0.69 -0.37,0 -0.66,0.31 -0.66,0.69 0,0.38 0.3,0.69 0.66,0.69z"/>
  </g>
  <path class="fil4" d="M10.04 3.03l0 3.48c0,0.4 -0.35,0.72 -0.78,0.72l-5.27 0c-0.43,0 -0.78,-0.33 -0.78,-0.72l0 -3.48c0,-0.4 0.35,-0.72 0.78,-0.72l5.27 0c0.43,0 0.78,0.32 0.78,0.72z"/>
  <path class="fil3" d="M10.23 3.03l0 3.48c0,0.5 -0.44,0.92 -0.97,0.92l-5.27 0c-0.54,0 -0.97,-0.41 -0.97,-0.92l0 -3.48c0,-0.51 0.44,-0.92 0.97,-0.92l5.27 0c0.54,0 0.97,0.41 0.97,0.92zm-0.19 3.48l0 0 0 -3.48c0,-0.4 -0.35,-0.72 -0.78,-0.72l-5.27 0c-0.43,0 -0.78,0.32 -0.78,0.72l0 3.48c0,0.4 0.35,0.72 0.78,0.72l5.27 0c0.43,0 0.78,-0.33 0.78,-0.72z"/>
  <path class="fil5" d="M6.62 6.26c-0.01,-0 -0.03,0.01 -0.04,0.01 -0.01,0.01 -0.02,0.02 -0.02,0.04l0 0.43c0,0.03 0.02,0.05 0.05,0.05l0 0c0.03,0 0.05,-0.02 0.05,-0.05l0 -0.43c0,-0.03 -0.03,-0.05 -0.06,-0.05z"/>
  <path class="fil5" d="M6.62 2.73c-0.03,0 -0.05,0.02 -0.05,0.05l0 0.43c0,0.03 0.03,0.05 0.06,0.05 0.03,0 0.05,-0.02 0.05,-0.05l0 -0.43c0,-0.03 -0.03,-0.05 -0.06,-0.05z"/>
  <path class="fil5" d="M5.07 4.71l-0.43 0c-0.03,0 -0.05,0.03 -0.05,0.06 0,0.03 0.02,0.05 0.05,0.05l0.43 0c0.03,0 0.05,-0.03 0.05,-0.06 0,-0.03 -0.03,-0.05 -0.05,-0.05z"/>
  <path class="fil5" d="M8.6 4.71l-0.43 0c-0.03,0 -0.05,0.03 -0.05,0.06 0,0.03 0.02,0.05 0.05,0.05l0.43 0c0.03,0 0.05,-0.03 0.05,-0.06 0,-0.03 -0.02,-0.05 -0.05,-0.05z"/>
  <path class="fil5" d="M6.62 5.92c-0.64,0 -1.16,-0.52 -1.16,-1.16 0,-0.64 0.52,-1.16 1.16,-1.16 0.64,0 1.16,0.52 1.16,1.16 0,0.64 -0.52,1.16 -1.16,1.16zm0 -2.2l0 0c-0.58,0 -1.05,0.47 -1.05,1.05 0,0.58 0.47,1.05 1.05,1.05 0.58,0 1.05,-0.47 1.05,-1.05 0,-0.58 -0.47,-1.05 -1.05,-1.05z"/>
  <path class="fil5" d="M6.62 6.13c-0.75,0 -1.37,-0.61 -1.37,-1.37 0,-0.75 0.61,-1.36 1.37,-1.36 0.75,0 1.37,0.61 1.37,1.36 0,0.75 -0.61,1.37 -1.37,1.37zm0 -2.62l0 0c-0.69,0 -1.26,0.56 -1.26,1.26 0,0.69 0.57,1.26 1.26,1.26 0.69,0 1.26,-0.57 1.26,-1.26 0,-0.69 -0.57,-1.26 -1.26,-1.26z"/>
  <path class="fil6" d="M6.99 4.88l-0.16 0 0 -0.8c0,-0.01 -0.01,-0.03 -0.03,-0.03l-0.19 0c-0.01,0 -0.02,0 -0.02,0.01l-0.59 0.85c-0,0 -0.01,0.01 -0.01,0.02l0 0.12c0,0.01 0.01,0.03 0.03,0.03l0.59 0 0 0.34c0,0.01 0.01,0.03 0.03,0.03l0.17 0c0.01,0 0.03,-0.01 0.03,-0.03l0 -0.34 0.16 0c0.01,0 0.03,-0.01 0.03,-0.03l0 -0.14c0,-0.01 -0.01,-0.03 -0.03,-0.03zm-0.74 0l0 0 0.3 -0.41c0.02,-0.04 0.04,-0.07 0.06,-0.11 -0,0.04 -0,0.07 -0,0.11l0 0.42 -0.36 0z"/>
 </g>
</svg>
