<?xml version="1.0" encoding="utf-8"?>
<!-- Generator: Adobe Illustrator 16.0.0, SVG Export Plug-In . SVG Version: 6.00 Build 0)  -->
<!DOCTYPE svg PUBLIC "-//W3C//DTD SVG 1.1//EN" "http://www.w3.org/Graphics/SVG/1.1/DTD/svg11.dtd">
<svg version="1.1" id="Layer_1" xmlns="http://www.w3.org/2000/svg" xmlns:xlink="http://www.w3.org/1999/xlink" x="0px" y="0px"
	 width="512px" height="512px" viewBox="0 0 512 512" enable-background="new 0 0 512 512" xml:space="preserve">
<g id="organic_search_1_">
	<path fill="#8CC153" d="M414.672,209.344l-32,32.656l-19.344,64.672L386.672,345l28,11l34-30v-63.328
		C448.672,262.672,415.328,211.344,414.672,209.344z"/>
	<path fill="#8CC153" d="M259.266,449.328l33.938,30.641l65.422,16.688l37.328-24.891l9.844-28.438l-31.359-32.734l-63.281,2.594
		C311.156,413.188,261.234,448.594,259.266,449.328z"/>
	<path fill="#4FC2E9" d="M342,181c0,90.578-73.422,164-164,164S14,271.578,14,181S87.422,17,178,17S342,90.422,342,181z"/>
	<path fill="#A0D468" d="M320.875,287.344l-27.547,36l103.453,104.234l65.469,64.484l39.469-25.5
		C501.719,466.562,323.094,290.344,320.875,287.344z"/>
	<g>
		<path d="M466.734,512L512,466.75l-95.516-95.531l0.453-7.562c16.594-3.328,46.766-15.312,49.406-58.562
			c4.406-72.531-49.891-108.859-49.906-108.875c0,0.016-58.312,29.469-62.734,102.016c-0.219,3.578-0.203,6.984-0.031,10.203
			l-23.5-23.516c20.484-29.359,32.5-65.078,32.5-103.578C362.672,81.188,281.484,0,181.328,0C81.188,0,0,81.188,0,181.344
			s81.188,181.328,181.328,181.328c38.516,0,74.219-12.016,103.594-32.484l70.984,70.984c-1.609-0.203-3.281-0.375-5.016-0.5
			c-3-0.203-5.922-0.297-8.781-0.297c-61.766,0-93.078,45.969-93.078,45.984s27.031,54.578,94.609,59.25
			c1.984,0.141,3.922,0.203,5.781,0.203c35.344,0,49.031-23.812,54.062-38.094l20.375,1.406L466.734,512z M375,299.531
			c1.5-24.5,10.375-46,26.375-63.891c4.719-5.266,9.422-9.484,13.438-12.672c3.609,3.656,7.75,8.391,11.797,14.188
			c13.719,19.719,19.922,42.125,18.438,66.641c-1.016,16.547-7.156,27.703-18.812,34.125c-2.688,1.484-5.406,2.562-7.938,3.375
			l3.484-57.141l-21.297-1.297L397,340c-2.406-1.125-4.969-2.531-7.453-4.312C378.75,327.906,374,316.078,375,299.531z
			 M181.328,341.344c-21.609,0-42.562-4.234-62.266-12.562c-19.047-8.062-36.172-19.594-50.875-34.312
			c-14.688-14.688-26.234-31.812-34.297-50.859c-8.328-19.703-12.562-40.672-12.562-62.266c0-21.625,4.234-42.562,12.562-62.281
			c8.062-19.047,19.609-36.156,34.297-50.875c14.703-14.688,31.828-26.219,50.875-34.281c19.703-8.344,40.656-12.562,62.266-12.562
			s42.562,4.219,62.281,12.562c19.047,8.062,36.156,19.594,50.859,34.281c14.703,14.719,26.25,31.828,34.297,50.875
			c8.344,19.719,12.562,40.656,12.562,62.281c0,21.594-4.219,42.562-12.562,62.266c-8.047,19.047-19.594,36.172-34.297,50.859
			c-14.703,14.719-31.812,26.25-50.859,34.312C223.891,337.109,202.938,341.344,181.328,341.344z M316.875,301.781L481.828,466.75
			l-15.094,15.078L301.781,316.875C307.109,312.156,312.141,307.109,316.875,301.781z M378.859,469.906
			c-6.453,9.938-15.812,14.562-29.438,14.562c-1.391,0-2.844-0.031-4.312-0.141c-22.438-1.547-42.094-9.828-58.391-24.609
			c-4.422-4-8.016-8-10.828-11.5c2.844-2.688,6.312-5.656,10.422-8.594c16.594-11.891,35.359-17.922,55.797-17.922
			c2.406,0,4.859,0.078,7.312,0.266c8.5,0.578,15.516,2.688,20.844,6.25c4,2.672,7.141,6.188,9.609,10.703
			c1.078,2,1.922,4.016,2.594,5.953l-51.391-3.531l-1.469,21.281L381,466.156C380.375,467.406,379.672,468.656,378.859,469.906z"/>
		<path d="M181.328,42.672c-76.578,0-138.656,62.078-138.656,138.672l0,0c0,5.875,4.766,10.656,10.656,10.656S64,187.219,64,181.344
			l0,0C64,150,76.203,120.531,98.359,98.375C120.531,76.219,149.984,64,181.328,64C187.219,64,192,59.219,192,53.344
			C192,47.438,187.219,42.672,181.328,42.672z"/>
	</g>
</g>
</svg>
