<?xml version="1.0" encoding="utf-8"?>
<!-- Generator: Adobe Illustrator 16.0.0, SVG Export Plug-In . SVG Version: 6.00 Build 0)  -->
<!DOCTYPE svg PUBLIC "-//W3C//DTD SVG 1.1//EN" "http://www.w3.org/Graphics/SVG/1.1/DTD/svg11.dtd">
<svg version="1.1" id="Layer_1" xmlns="http://www.w3.org/2000/svg" xmlns:xlink="http://www.w3.org/1999/xlink" x="0px" y="0px"
	 width="512px" height="512px" viewBox="0 0 512 512" enable-background="new 0 0 512 512" xml:space="preserve">
<g id="marketing_1_">
	<polygon fill="#F5F7FA" points="189.999,159.874 189.999,309.22 380.674,363.799 380.674,100.451 	"/>
	<polygon fill="#E6E9ED" points="189.999,159.874 67.997,159.874 67.997,306.126 194.999,306.126 	"/>
	<polygon fill="#CCD1D9" points="24.997,186.124 15.997,282.125 62.997,282.125 62.997,186.124 	"/>
	<polygon fill="#656D78" points="166.999,348.127 177.999,309.22 80.998,314.126 114.998,433.128 181.999,427.128 	"/>
	<polygon fill="#ED5564" points="389.002,186.124 389.002,278.125 413.003,241.125 413.003,212.124 	"/>
	<g>
		<path d="M501.348,223.875h-53.345c-5.891,0-10.656,4.781-10.656,10.672s4.766,10.672,10.656,10.672h53.345
			c5.891,0,10.656-4.781,10.656-10.672S507.238,223.875,501.348,223.875z"/>
		<path d="M448.003,202.546c1.406,0,2.734-0.266,3.969-0.766l0,0l0.172-0.062c0,0,0.016,0,0.031-0.016l53.126-21.25v-0.016
			c3.938-1.562,6.703-5.406,6.703-9.891c0-5.891-4.766-10.672-10.656-10.672c-1.406,0-2.734,0.281-3.969,0.781v-0.016l-0.172,0.078
			c-0.016,0-0.016,0-0.016,0l-53.142,21.25v0.016c-3.922,1.578-6.703,5.406-6.703,9.891
			C437.347,197.78,442.112,202.546,448.003,202.546z"/>
		<path d="M394.674,178.124V85.216c0-5.906-4.781-10.672-10.672-10.672c-5.875,0-10.656,4.766-10.656,10.672v6.407l-192.003,57.594
			H63.997c-5.875,0-10.656,4.782-10.656,10.657v21.344h-32c-5.891,0-10.672,4.781-10.672,10.656v21.344
			c-5.891,0-10.672,4.782-10.672,10.657l0,0v21.344l0,0l0,0c0,5.875,4.781,10.656,10.672,10.656v21.344
			c0,5.891,4.781,10.656,10.672,10.656h32v21.345c0,5.891,4.781,10.656,10.656,10.656h15.094l27.579,117.58h96.001l-26.61-76.392
			c3.156-1.844,5.281-5.25,5.281-9.188c0-3.719-1.906-7-4.812-8.906l10.375-21.422l186.44,55.938v6.391
			c0,5.906,4.781,10.672,10.656,10.672c5.891,0,10.672-4.766,10.672-10.672v-94.908c19.126-11.062,32.001-31.734,32.001-55.422
			C426.675,209.858,413.8,189.187,394.674,178.124z M31.997,266.547v-64.001h21.344v64.001H31.997z M74.669,170.546h106.673v128.002
			H74.669V170.546z M123.592,416.127l-22.578-96.251h62.985l-10.594,21.938l-3.86,7.969l2.907,8.344l20.203,58H123.592z
			 M202.671,304.001v-15.048l0.203-0.391h-0.203v-123.47l170.674-51.204v241.332L202.671,304.001z M394.674,261.719v-56.345
			c6.642,7.516,10.673,17.376,10.673,28.173S401.315,254.203,394.674,261.719z"/>
		<path d="M505.301,288.656L505.301,288.656l-53.126-21.266c-0.016-0.016-0.031-0.016-0.031-0.016l-0.172-0.062l0,0
			c-1.234-0.484-2.562-0.766-3.969-0.766c-5.891,0-10.656,4.766-10.656,10.672c0,4.484,2.781,8.312,6.703,9.906l0,0l53.126,21.251
			c0.016,0,0.031,0,0.047,0.016l0.156,0.062v-0.016c1.234,0.5,2.562,0.781,3.969,0.781c5.891,0,10.656-4.781,10.656-10.672
			C512.004,294.063,509.238,290.22,505.301,288.656z"/>
	</g>
</g>
</svg>
