<?xml version="1.0" encoding="utf-8"?>
<!-- Generator: Adobe Illustrator 16.0.0, SVG Export Plug-In . SVG Version: 6.00 Build 0)  -->
<!DOCTYPE svg PUBLIC "-//W3C//DTD SVG 1.1//EN" "http://www.w3.org/Graphics/SVG/1.1/DTD/svg11.dtd">
<svg version="1.1" id="Layer_1" xmlns="http://www.w3.org/2000/svg" xmlns:xlink="http://www.w3.org/1999/xlink" x="0px" y="0px"
	 width="512px" height="512px" viewBox="0 0 512 512" enable-background="new 0 0 512 512" xml:space="preserve">
<g id="offenders_database_1_">
	<rect x="14.015" y="45.013" fill="#A0D468" width="487.97" height="294.982"/>
	<rect x="18.921" y="343.495" fill="#F4F6F9" width="478.658" height="45.996"/>
	<rect x="194.91" y="394.835" fill="#CBD0D8" width="123.336" height="71.996"/>
	<path fill="#EAC6BB" d="M213.331,128.008h-95.322l-4.671,10.656c0,0-2.656,29.342-2.656,32.014
		c0,2.671,10.656,42.653,10.656,42.653l25.999,23.342l18.42,8.671l32.92-16.015l24.655-29.998v-47.997L213.331,128.008z"/>
	<polygon fill="#965353" points="191.504,108.009 187.004,80.511 137.507,96.01 110.681,114.009 117.008,125.008 151.506,128.008 
		201.503,125.008 209.503,117.352 	"/>
	<polygon fill="#FC6E51" points="248.672,278.671 212.003,256 204.003,232.673 167.005,248.672 146.679,242.673 134.679,232.673 
		119.352,256 97.354,262.015 56.684,278.671 50.685,300.669 269.999,300.669 269.999,287.342 	"/>
	<g>
		<path d="M490.658,32.014h-469.3c-11.78,0-21.342,9.562-21.342,21.342v319.981c0,11.78,9.562,21.311,21.342,21.311h166.334
			l-12.765,63.996h-4.265c-5.875,0-10.656,4.781-10.656,10.688c0,5.875,4.781,10.655,10.656,10.655h170.661
			c5.891,0,10.672-4.78,10.672-10.655c0-5.906-4.781-10.688-10.672-10.688h-4.265l-12.78-63.996h166.381
			c11.779,0,21.326-9.53,21.326-21.311V53.356C511.984,41.576,502.438,32.014,490.658,32.014z M196.691,458.644l12.75-63.902
			l93.088-0.031l12.78,63.934H196.691z M490.658,53.356v277.295h-469.3V53.356H490.658z M256,373.337H21.358v-21.343H256h234.658
			v21.343H256z"/>
		<path d="M266.656,362.649c0-5.875-4.766-10.655-10.656-10.655c-5.89,0-10.656,4.78-10.656,10.655
			c0,5.906,4.766,10.688,10.656,10.688C261.891,373.337,266.656,368.556,266.656,362.649z"/>
		<path d="M319.996,138.664h127.992c5.891,0,10.672-4.766,10.672-10.656s-4.781-10.656-10.672-10.656H319.996
			c-5.891,0-10.672,4.766-10.672,10.656S314.105,138.664,319.996,138.664z"/>
		<path d="M319.996,181.348h127.992c5.891,0,10.672-4.781,10.672-10.687c0-5.875-4.781-10.656-10.672-10.656H319.996
			c-5.891,0-10.672,4.781-10.672,10.656C309.324,176.567,314.105,181.348,319.996,181.348z"/>
		<path d="M319.996,224.002h127.992c5.891,0,10.672-4.781,10.672-10.656c0-5.906-4.781-10.687-10.672-10.687H319.996
			c-5.891,0-10.672,4.781-10.672,10.687C309.324,219.221,314.105,224.002,319.996,224.002z"/>
		<path d="M319.996,266.655h127.992c5.891,0,10.672-4.766,10.672-10.655c0-5.89-4.781-10.656-10.672-10.656H319.996
			c-5.891,0-10.672,4.766-10.672,10.656C309.324,261.89,314.105,266.655,319.996,266.655z"/>
		<path d="M287.186,309.341v-13.734c0-12.607-8.109-23.779-20.154-27.764l-0.906-0.25c-1.156-0.312-2.219-0.625-3.25-0.938h15.311
			c5.891,0,10.672-4.766,10.672-10.655c0-5.89-4.781-10.656-10.672-10.656h-60.589c-1.547-1.406-2.375-2.531-2.797-3.375
			c-0.047-0.094-0.094-0.203-0.141-0.312l-0.125-17.655h63.652c5.891,0,10.672-4.781,10.672-10.656
			c0-5.906-4.781-10.687-10.672-10.687h-51.543c2.953-6.796,5.109-13.968,6.234-21.312h45.309c5.891,0,10.672-4.781,10.672-10.687
			c0-5.875-4.781-10.656-10.672-10.656h-42.497c0.843-5.843,1.531-13.499,1.093-21.342h41.403c5.891,0,10.672-4.766,10.672-10.656
			s-4.781-10.656-10.672-10.656h-46.653c-9.515-17.967-30.842-21.092-30.842-21.092s-1.594-8.031,12.64-16.593
			c2.391-1.422-11.265-4.968-30.139-4.968c-28.186,0-67.964,7.906-83.385,42.653H53.356c-5.906,0-10.687,4.766-10.687,10.656
			s4.781,10.656,10.687,10.656h41.169c-0.734,7.562-0.594,15.046-0.141,21.342H53.356c-5.906,0-10.687,4.781-10.687,10.656
			c0,5.906,4.781,10.687,10.687,10.687h43.638c1.109,7.343,3.265,14.515,6.234,21.312H53.356c-5.906,0-10.687,4.781-10.687,10.687
			c0,5.875,4.781,10.656,10.687,10.656h61.965l-0.125,17.655c-0.047,0.109-0.094,0.219-0.125,0.312
			c-0.438,0.844-1.25,1.969-2.812,3.375H53.356c-5.906,0-10.687,4.766-10.687,10.656c0,5.89,4.781,10.655,10.687,10.655H66.98
			c-1.031,0.312-2.094,0.625-3.25,0.938l-0.906,0.25c-12.03,3.984-20.155,15.156-20.155,27.764v13.734h122.258H287.186z
			 M136.757,216.002c-12.25-13.952-19.265-30.561-19.265-45.591c0-11.453,2.578-21.655,7.484-30.092
			c8.75,1.562,23.936,3.797,39.951,3.797c15.702,0,30.952-2.141,40.013-3.703c4.875,8.406,7.437,18.593,7.437,29.999
			c0,15.03-7.031,31.639-19.28,45.591c-11.437,13.03-23.342,18.905-28.17,18.905C160.115,234.908,148.194,229.033,136.757,216.002z
			 M144.007,103.072c12.062-5.156,25.295-6.703,35.342-7c0.031,2.031,0.25,3.547,0.406,4.343l2.437,15.156l15.28,1.781
			c0.562,0.125,2.781,0.609,5.438,1.75c-7.875,1.422-22.749,3.688-37.982,3.688c-18.405,0-36.029-3.375-41.2-4.453
			C128.477,111.853,135.195,106.822,144.007,103.072z M91.104,280.03c1.562-0.734,2.796-1.328,3.843-1.719
			c21.874-8.344,33.936-16.547,39.091-26.608l0.031-0.047l0.031-0.047c0.25-0.531,0.469-0.984,0.609-1.328l1.797-3.953v-1.641
			c9.875,7.281,19.999,11.531,28.42,11.531s18.562-4.25,28.42-11.531l0.016,1.641l1.797,3.953c0.125,0.344,0.344,0.797,0.609,1.328
			l0.016,0.047l0.031,0.047c5.156,10.061,17.217,18.264,39.123,26.608c1.016,0.391,2.25,0.984,3.812,1.719
			c4.469,2.156,10.593,5.077,21.14,7.968h-94.963H69.964C80.526,285.107,86.635,282.187,91.104,280.03z"/>
	</g>
</g>
</svg>
