<?xml version="1.0" encoding="utf-8"?>
<!-- Generator: Adobe Illustrator 16.0.0, SVG Export Plug-In . SVG Version: 6.00 Build 0)  -->
<!DOCTYPE svg PUBLIC "-//W3C//DTD SVG 1.1//EN" "http://www.w3.org/Graphics/SVG/1.1/DTD/svg11.dtd">
<svg version="1.1" id="Layer_1" xmlns="http://www.w3.org/2000/svg" xmlns:xlink="http://www.w3.org/1999/xlink" x="0px" y="0px"
	 width="512px" height="512px" viewBox="0 0 512 512" enable-background="new 0 0 512 512" xml:space="preserve">
<g id="presentation_1_">
	<polygon fill="#7F4545" points="117.996,242 139.996,355 160.996,355 158.996,285.5 349.996,285.5 358.996,349 377.996,349 
		394.996,242 	"/>
	<rect x="159.129" y="290.031" fill="#965353" width="189.867" height="215.969"/>
	<polygon fill="#434A54" points="362.527,210.594 314.652,184.219 290.777,169.625 257.488,182.141 222.512,174.75 196.902,191.281 
		165.035,199.266 148.824,226.797 161.066,246.484 214.41,239.453 299.73,241.578 336.402,242.281 362.496,246.484 	"/>
	<polygon fill="#ED5564" points="237.355,241.609 280.199,241.609 273.559,205.969 289.23,164.812 232.418,160.891 239.605,198.766 
			"/>
	<polygon fill="#EAC6BB" points="302.559,69.859 280.871,61.188 206.566,77.562 210.434,117.625 245.645,158.141 277.965,154.266 
		306.434,112.797 	"/>
	<polygon fill="#656D78" points="313.168,40.406 272.402,12.859 222.785,21.844 195.824,67.953 211.848,71.469 240.238,71.469 
		285.559,60.141 316.168,64.438 	"/>
	<path d="M405.34,234.656h-31.562v-19.609c0-12.234-7.766-23.078-19.344-26.953l-0.75-0.219
		c-12.828-3.469-22.234-6.781-27.906-8.969c-20.062-7.719-25.281-13.297-26.625-15.938c-0.047-0.094-0.078-0.188-0.125-0.281
		l-0.078-10.625c13.484-15.844,23.797-37.094,23.797-58.75c0-0.203,0-0.406,0-0.625v0.016c0,0,12.594-46.953-23.734-79.844
		C292.34,6.828,276.496,0,256.879,0c-13.836,0-29.539,3.391-45.234,12.859c-19.227,11.609-33.211,62.828-33.211,62.828
		s4.25,2.406,11.75,4.719c-0.609,4.141-0.938,8.438-0.938,12.906c0,21.656,10.312,42.906,23.797,58.75l-0.078,10.625
		c-0.039,0.094-0.078,0.188-0.125,0.281c-1.336,2.641-6.555,8.219-26.625,15.938c-5.656,2.188-15.078,5.5-27.781,8.938l-0.875,0.25
		c-11.57,3.875-19.352,14.719-19.352,26.953v19.609H106.66l21.336,128h21.344V512h213.328V362.656h21.328L405.34,234.656z
		 M318.09,198.797c6.047,2.328,16.094,5.891,29.719,9.578l0.062,0.031c2.75,1,4.578,3.656,4.578,6.641v19.609h-64.578l-5.859-31.406
		l5.328-21.375C293.887,187.875,303.84,193.312,318.09,198.797z M252.105,213.328h10.078l3.992,21.328h-18.055L252.105,213.328z
		 M246.613,176.766c3.281,1.062,6.445,1.625,9.383,1.625c3.094,0,6.422-0.625,9.883-1.797h0.797L262.832,192h-11.711
		L246.613,176.766z M207.621,56.594c8.891-21.438,14.984-25.438,15.047-25.469c10.773-6.5,22.281-9.797,34.211-9.797
		c15.031,0,25.648,5.391,27.805,7.344c5.844,5.297,10.344,11.422,13.484,18.359c-3.391-1.219-7.031-1.844-10.844-1.844
		c-8.188,0-17.359,2.75-31.672,9.469c-12.188,5.75-24.633,8.656-36.984,8.656c-4.914,0-9.375-0.469-13.266-1.156
		C206.09,60.344,206.832,58.484,207.621,56.594z M210.574,93.312c0-3.094,0.211-6.062,0.594-8.969
		c2.398,0.188,4.898,0.297,7.5,0.297c13.211,0,28.938-2.609,46.062-10.672c11.172-5.25,17.984-7.453,22.594-7.453
		c6.078,0,8.344,3.812,11.781,9.422c1.516,5.359,2.312,11.172,2.312,17.375c0,14.594-6.828,31-18.75,44.969
		c-11.984,14.047-23.336,18.781-26.672,18.781s-14.688-4.734-26.672-18.781C217.41,124.312,210.574,107.906,210.574,93.312z
		 M159.543,215.047c0-2.969,1.805-5.594,4.523-6.625l0.156-0.047c13.523-3.672,23.578-7.219,29.664-9.562
		c14.984-5.766,25.219-11.5,31.719-17.844l6.648,22.438l-5.836,31.25h-66.875V215.047z M341.34,490.656H170.668v-192H341.34V490.656
		z M365.934,341.328h-3.266v-64H149.34v64h-3.273L131.848,256h248.305L365.934,341.328z"/>
</g>
</svg>
