<?xml version="1.0" encoding="utf-8"?>
<!-- Generator: Adobe Illustrator 16.0.0, SVG Export Plug-In . SVG Version: 6.00 Build 0)  -->
<!DOCTYPE svg PUBLIC "-//W3C//DTD SVG 1.1//EN" "http://www.w3.org/Graphics/SVG/1.1/DTD/svg11.dtd">
<svg version="1.1" id="Layer_1" xmlns="http://www.w3.org/2000/svg" xmlns:xlink="http://www.w3.org/1999/xlink" x="0px" y="0px"
	 width="512px" height="512px" viewBox="0 0 512 512" enable-background="new 0 0 512 512" xml:space="preserve">
<g id="file_sharing_1_">
	<rect x="11.344" y="98.008" fill="#FFCE54" width="187.328" height="148"/>
	<rect x="159.344" y="304.68" fill="#FC6E51" width="187.328" height="148"/>
	<rect x="310.672" y="96.664" fill="#ED5564" width="187.328" height="148"/>
	<polygon fill="#ED5564" points="148.016,172.008 100.672,244.664 193.344,239.336 	"/>
	<polygon fill="#DA4453" points="82.672,189.336 53.562,242.008 90,245.336 105,227.336 	"/>
	<path fill="#F5F7FA" d="M256,407.68c0,11.609-9.406,21-21,21c-11.609,0-21-9.391-21-21c0-11.594,9.391-21,21-21
		C246.594,386.68,256,396.086,256,407.68z"/>
	<polygon fill="#F5F7FA" points="387.328,145.32 396,193.992 436,172.008 	"/>
	<path fill="#FC6E51" d="M70.672,137.758c0,11.281-9.141,20.438-20.422,20.438s-20.438-9.156-20.438-20.438
		s9.156-20.422,20.438-20.422S70.672,126.477,70.672,137.758z"/>
	<g>
		<path d="M501.328,85.336h-128.5C341.266,58.711,300.516,42.664,256,42.664s-85.281,16.047-116.828,42.672H10.656
			C4.766,85.336,0,90.117,0,95.992v149.344c0,5.891,4.766,10.656,10.656,10.656H77.5c8.359,46.953,34.781,87.625,71.828,114.625
			v88.047c0,5.891,4.781,10.672,10.672,10.672h192c5.891,0,10.656-4.781,10.656-10.672v-88.047
			c37.047-27,63.484-67.672,71.844-114.625h66.828c5.891,0,10.672-4.766,10.672-10.656V95.992
			C512,90.117,507.219,85.336,501.328,85.336z M21.328,106.664h32.234H192v103.109l-42.641-56.875l-40.016,53.312l-23.984-32
			L40,234.664H21.328V106.664z M88,234.664H66.672l18.672-24.891l10.672,14.219L88,234.664z M130.672,234.664h-16l34.672-46.219
			L184,234.664H130.672z M341.328,447.992H170.656v-128h170.672V447.992z M403.438,286.273
			c-8.062,19.047-19.609,36.156-34.297,50.859c-2.109,2.109-4.266,4.141-6.484,6.125v-33.922c0-5.891-4.766-10.672-10.656-10.672
			H160c-5.891,0-10.672,4.781-10.672,10.672v33.922c-2.203-1.984-4.359-4.016-6.469-6.125
			c-14.703-14.703-26.234-31.812-34.297-50.859c-4.156-9.812-7.266-19.922-9.375-30.281h103.469c5.891,0,10.672-4.766,10.672-10.656
			V95.992c0-5.875-4.781-10.656-10.672-10.656h-26.562c5.672-3.281,11.547-6.203,17.625-8.781
			c19.719-8.328,40.672-12.562,62.281-12.562s42.562,4.234,62.266,12.562c6.078,2.578,11.953,5.5,17.625,8.781h-26.562
			c-5.891,0-10.672,4.781-10.672,10.656v149.344c0,5.891,4.781,10.656,10.672,10.656h103.469
			C410.703,266.352,407.578,276.461,403.438,286.273z M490.656,234.664H320v-128h170.656V234.664z"/>
		<path d="M21.562,138.664c0,17.641,14.359,32,32,32s32-14.359,32-32s-14.359-32-32-32S21.562,121.023,21.562,138.664z
			 M53.562,127.992c5.891,0,10.672,4.781,10.672,10.672s-4.781,10.672-10.672,10.672s-10.672-4.781-10.672-10.672
			S47.672,127.992,53.562,127.992z"/>
		<path d="M240,437.336c17.672,0,32-14.328,32-32c0,0,0,0,0-0.016v-49.719c1.734,0.203,3.594,0.328,5.531,0.328
			c6.188,0,13.297-1.281,20.703-5.125l0,0c3.422-1.781,5.766-5.344,5.766-9.469c0-5.891-4.781-10.672-10.672-10.672
			c-1.766,0-3.438,0.438-4.906,1.203l0,0c-11.406,5.906-21.312,0.469-21.734,0.25l0.125,0.062h-0.016
			c-1.594-0.953-3.469-1.516-5.469-1.516c-5.891,0-10.672,4.781-10.672,10.672v33.828c-3.328-1.172-6.922-1.828-10.656-1.828
			c-17.672,0-32,14.312-32,32C208,423.008,222.328,437.336,240,437.336z M240,394.664c5.875,0,10.656,4.781,10.656,10.672l0,0l0,0
			c0,5.875-4.781,10.656-10.656,10.656c-5.891,0-10.672-4.781-10.672-10.656S234.109,394.664,240,394.664z"/>
		<path d="M373.328,117.336v106.656l85.328-53.328L373.328,117.336z M394.656,155.82l23.75,14.844l-23.75,14.844V155.82z"/>
	</g>
</g>
</svg>
