<?xml version="1.0" encoding="UTF-8"?>
<!DOCTYPE svg PUBLIC "-//W3C//DTD SVG 1.1//EN" "http://www.w3.org/Graphics/SVG/1.1/DTD/svg11.dtd">
<!-- Creator: CorelDRAW 2020 (64-Bit) -->
<svg xmlns="http://www.w3.org/2000/svg" xml:space="preserve" width="14.336in" height="11.1356in" version="1.1" style="shape-rendering:geometricPrecision; text-rendering:geometricPrecision; image-rendering:optimizeQuality; fill-rule:evenodd; clip-rule:evenodd"
viewBox="0 0 2694.41 2092.9"
 xmlns:xlink="http://www.w3.org/1999/xlink"
 xmlns:xodm="http://www.corel.com/coreldraw/odm/2003">
 <defs>
  <style type="text/css">
   <![CDATA[
    .fil2 {fill:none}
    .fil1 {fill:#373435}
    .fil0 {fill:#A8CF45}
   ]]>
  </style>
 </defs>
 <g id="Layer_x0020_1">
  <metadata id="CorelCorpID_0Corel-Layer"/>
  <path class="fil0" d="M356.9 419.79c14.58,-72.88 97.66,-82.39 134.7,-110.17 38.43,9.1 155.89,-111.14 181.68,-150.9 81.55,-125.7 394.68,-191.29 516.32,-102.3 36.4,26.63 186.18,27.82 234.4,-23 34.61,-36.48 191.72,-45.04 251.4,8.32 76.02,67.97 136.73,-38.57 243.53,-38.57 135.26,0 150.75,27.06 276.46,80.64 25.41,10.83 119.3,214.02 119.3,249.08 0,42.49 -0.24,108.57 48.33,123.42 4.75,12.47 128.65,76.26 77.51,176.49 -25.17,49.34 -7.31,118.96 43.05,134.7 70.21,21.93 131.47,20.07 171.39,94.03 27.97,51.82 17.28,148.56 20.03,222.59 1.82,48.73 25.44,78.75 13.26,111.01 -11.71,31.03 -28.98,35.85 -38.28,55.69 -30.85,65.8 30.65,126.97 25.73,227.89 -1.04,21.27 -18.74,54.41 -22.44,81.31 -6.23,45.2 -10.27,111.79 -213.28,159.49 -7.85,1.84 -16.67,48.29 -45.87,69.54 -19.75,14.37 -51.06,5.61 -63.73,27.61 -10.57,18.37 11.98,33.38 13.22,55.17 1.5,26.39 -17.3,58.35 -22.66,61.76 -61.2,38.89 -40.95,70.45 -159.49,68.11 -70.08,-1.38 -183.97,54.2 -300.98,4.21 -189.17,-80.82 -150.42,1.29 -341.44,52.98 -184.84,50.02 -40.34,44.36 -222.94,-13.33 -69.42,-21.93 -138.25,80.04 -243.8,-14.86 -75.6,-67.98 -10.04,-37.62 -134.96,-7.61 -219.93,52.84 -122.74,-125.04 -263.13,-63.19 -50.41,22.21 -230.13,82.45 -253.46,10.2 -10.09,-31.23 -89.49,-117.68 -122.97,-121.9 -47.38,-5.96 -177.74,-124.18 -177.74,-172.02 0,-135.78 -109.68,-140.42 -21.17,-355.02 4.12,-10 23.68,7.91 20.96,-61.37 -0.54,-13.7 -21.53,-2.18 -26.42,-38.84 -4.81,-36.07 -177.16,-237.42 43.09,-322.69 151.39,-58.61 85.77,-75.18 186.87,-185.62 90.83,-99.21 99.71,-57.15 38.66,-205.13 -1.26,-3.06 -8.76,-89.57 14.86,-87.71z"/>
  <g id="_2313540740720">
   <path class="fil1" d="M616.11 278.04c56.99,-103.73 62.82,-130.96 170.06,-188.74 82,-44.18 237.34,-72.1 329.71,-51.57 46.58,10.35 -1.03,41.61 144.1,29.56 89.81,-7.45 68.57,59.45 168.63,-9.97 42.49,-29.48 52.62,-32.04 107.95,-36.17 129.87,-9.69 123.58,59.15 201.56,57.61 66,-1.31 75.92,-134.05 323.07,-52.03 138.26,45.88 201.46,138.65 235.85,275.99 16.39,65.47 8.47,63.4 -0.67,122.99 -6.25,40.77 114.62,33.51 134.54,104.77 11.53,41.24 -3.86,79.83 -22.9,115.5 -0.22,0.41 -1.18,1.92 -1.16,2.69 6.33,5.96 80.87,-6.32 51.32,84.52 -3.95,12.16 -12.54,15.41 -15.7,19.6 61.19,24.96 113.71,-4.76 172.02,60.59 50.52,56.62 89.22,172.43 72.19,247.45 -8.92,39.29 -8.95,19.9 -0.15,65.58 22.65,117.59 -6.05,79.1 -53.18,162.53 -22.72,40.23 -4.88,34.31 20.14,76.27 77.05,129.18 1,267.34 -116.64,338.46 -50.05,30.26 -72.78,-0.38 -88.55,12.3 -14.79,11.9 7.62,94.68 -110.51,116.59 2.23,38.46 19.68,59.41 -13.87,99.26 -82.4,97.85 -226.09,116.04 -341.8,76.98 -35.82,-12.1 -35.9,-18.12 -74.28,-15.76 -58.56,3.6 -103.09,-23.4 -153.06,-50.62 -8.29,-1.1 -132.9,81.21 -151.92,91.3 -65.4,34.69 -165.32,67.86 -237.12,35.21 -66.73,-30.34 -6.38,-90.65 -134.75,-34.07 -74.16,32.69 -111.45,57.32 -169.17,-17.61 -72.34,-93.91 -31.52,-14.46 -171.33,5.41 -42.06,5.98 -144.76,12.78 -152.88,-46.66l0.03 0.2c-7.48,-18.7 -54.7,-25.63 -78.05,-14.94 -44.08,20.17 -13.64,37.52 -101.95,34.42 -58.65,-2.06 -178.64,-14.28 -185.53,-91.83 -2.79,-31.4 7.78,-32.65 -33.03,-37.78 -49.78,-6.26 -62.93,-77.48 -162.72,-110.26 -36.61,-12.02 -37.75,-7.93 -58.83,-46.73 -48.7,-89.62 -97.34,-307.18 -52.02,-402.84 23.87,-50.39 36.29,-28.26 -13.2,-93.39 -53.77,-70.75 -59.99,-129.85 -45.64,-216.34 23.86,-143.81 121.93,-112.62 231.49,-141.92 22.98,-6.15 38.69,-81.92 51.7,-110.1 22.36,-48.45 41.16,-67.29 80.77,-101.51 15,-12.96 -9.39,-102.73 -11.97,-127.04 -8.67,-81.76 11.25,-136.86 92.6,-166.98 27.57,-10.21 171.85,-53.35 174.27,-83.44 -2.35,30.11 -146.56,73.57 -174.12,83.85 -80.98,30.2 -100.67,85.02 -91.84,166.47 2.76,25.44 27.73,114.29 11.79,128.13 -39.32,34.14 -57.98,52.92 -80.11,101.17 -13.41,29.25 -28.14,104.63 -52.69,111.26 -109.23,29.5 -206.13,-1.63 -229.34,140.54 -35.3,216.26 111.54,229.31 72.59,289.05 -63.11,96.8 -16.48,296.51 27.98,396.57 37.02,83.31 37.41,48.96 107.85,84.97 60.39,30.87 81.62,88.16 121.72,93.08 44.8,5.49 35.29,8.84 38.41,42.93 7.33,80.06 154.86,88.93 211.65,85.32 42.28,-2.69 29.61,-10.13 57.27,-28.19 34,-22.21 94.77,-7.81 98,15.02 8.06,56.79 127.02,43.65 164.84,35.78 111.51,-23.2 84.68,-95.13 159.07,0.64 54.8,70.56 88.08,45.67 158.54,14.25 134.85,-60.14 83.16,6.69 142.71,33.37 68.68,30.77 165.49,-2.61 227.6,-36 32.82,-17.64 127.57,-85.01 148.67,-92.14 26.8,-9.06 78.95,53.56 160.37,47.9 41.4,-2.88 41.97,3.25 80.13,15.74 109.09,35.7 234.73,16.99 318.2,-65.79 52.76,-52.33 -0.45,-106.37 26.22,-110.26 118.03,-17.22 85.02,-99.67 111.8,-115.13 26.22,-15.15 40.46,17.16 87.6,-10.93 107.27,-63.91 181.68,-185.95 122.05,-308.09 -26.7,-54.69 -56.43,-50.4 -27.59,-100.96 47.71,-83.66 74.09,-42.95 52.83,-155.87 -8.63,-45.86 -8.92,-28.56 0.47,-69.24 14.22,-61.55 -11.6,-149.86 -42.88,-203.15 -41.76,-71.13 -65.8,-72.98 -139.01,-84.58 -97.72,-15.49 -52.03,-17.87 -44.75,-39.92 29.15,-88.38 -43.97,-66.5 -50.51,-79.75 -3.65,-7.38 28.36,-47.94 27.22,-98.29 -2.09,-92.01 -130.57,-74.16 -137.4,-120.98 -3.61,-24.77 21.01,-48.26 1.24,-128.27 -44.8,-181.25 -147.65,-274.31 -334.77,-297.28 -89.25,-10.96 -111.59,6.35 -174.42,55.2 -58.8,45.72 -95.7,3.89 -150.88,-25.84 -38.73,-20.87 -106.13,-14.59 -147.73,-4.89 -66.44,15.5 -87.54,82.44 -157.97,50.52 -41.92,-19 -44.1,-13.99 -90.11,-10.29 -109.75,8.83 -83.99,-24.11 -120.63,-32.34 -92.1,-20.7 -247.25,6.85 -329.14,50.73 -107.3,57.5 -113.16,84.69 -170.35,188.23zm1716.72 1555.39c-0.2,0.03 -0.4,0.07 -0.6,0.11 0.2,-0.03 0.4,-0.06 0.6,-0.11z"/>
  </g>
  <path class="fil2" d="M616.11 278.04c60.15,-105.78 49.09,-118.7 170.2,-188.49 32.5,-18.73 70.78,-27.85 108.47,-38.02 71.85,-19.39 147.76,-28.15 220.96,-13.12 37.27,7.65 6.56,45.95 144.34,29.76 90.53,-10.64 63.79,71.1 191.33,-26.13 22.56,-17.2 144.29,-32.8 181.41,-7.07 202.37,140.25 97.89,-96.8 399.43,-14.86 156.54,42.54 222.62,131.29 262.32,283.26 38.86,148.76 -71.86,116.27 91.65,180.88 61.01,24.11 52.93,106.22 19.06,160.02 -15.22,24.18 79.97,-17.7 49.58,87.98 -7.56,26.3 -64.58,19.78 90.84,42.78 95.74,14.17 166.88,214.66 131.29,302.59 -9.15,22.62 35.51,120.38 -3.94,151.61 -0.98,0.78 -70.41,75.29 -52.18,98.18 24.95,31.33 127.45,157.99 -16.47,315.04 -0.91,1 -39.54,41 -88.63,65.86 -24.01,12.16 -74.39,-19.84 -78.01,16.58 -4.84,48.83 -37.84,96.42 -106.14,101.45 -5.83,0.43 11.03,42.29 1.98,74.69 -6.17,22.13 -39.05,49.18 -49.59,57.17 -84.6,64.14 -198.99,84.76 -322.75,35.35 -68.9,-27.51 -49.69,29.49 -203.61,-56.65 -22.54,-12.61 -169.15,139.17 -316.38,139.17 -186.59,0 -30.03,-134.98 -249.07,-28.19 -137.02,66.8 -133.4,-133.76 -204.86,-64.8 -46.45,44.83 -242.9,62.31 -246.21,-7.25 -0.42,-8.85 -62.47,-51.58 -111.43,4.21 -23.9,27.23 -188.04,6.84 -225.81,-25.33 -61.88,-52.72 6.14,-87.37 -64.71,-91.38 -52.66,-2.98 -49.42,-82.77 -186.16,-116.71 -53.07,-13.17 -155.29,-358.37 -72.58,-461.72 36.77,-45.95 -82.48,-75.28 -78.31,-220.61 5.99,-208.92 87.59,-175.08 236.19,-208.8 37.67,-8.55 22.49,-128.94 132.64,-212.02 31.91,-24.07 -84.48,-220.36 62.65,-287.38 32.9,-14.99 191.88,-59.72 191.88,-90.57"/>
  <g id="_2313540743600">
   <path class="fil1" d="M2310.16 335.39c-45.81,-152.17 -151.94,-282.41 -312.4,-318.14 -92.71,-20.64 -154.22,-1.14 -234.19,43.71 -62.06,34.81 -172.8,-87.7 -303.17,-20.24 -61.89,32.03 -62.29,48.2 -143.71,43.06 -131.01,-8.27 -241.06,-69.66 -379.47,-30.61 -4.47,10.72 -46.96,25.67 -86.63,38.35 -47.62,25.74 -103.78,59.52 -123.54,75.6 -0.01,0.01 -34.66,33.62 -49.16,38.34 -25.02,32.22 -53.32,65.98 -116.8,97.03 -45.62,22.32 -73.77,28.17 -120.27,42.68 -80.05,24.97 -113.1,136.2 -73.74,211.05 20.93,39.8 41.86,55.87 10.04,104.17 -41.44,62.89 -120.28,93.47 -122.34,178.98 -2.59,107.83 -247.45,-65.9 -242.17,241.26 0.67,39.13 -3.68,122.08 43.28,134.88 27.35,7.45 31.64,19.68 35.49,49.33 4.78,36.76 -14.28,103.23 -19.32,143.87 -9.65,77.78 2.88,115 9.84,190.26 11.6,125.3 60.45,164.51 173.86,218.13 73.38,34.69 108.69,46.23 161.95,113.18 28.89,36.31 33.28,44.33 83.8,49.71 26.19,2.79 186.49,3.87 203.92,-13.24 8.55,-8.39 7.85,-12.19 21.26,-11.9 -13.4,-0.24 -12.69,3.55 -21.2,11.96 -17.42,17.23 -177.83,16.73 -204.08,14.03 -50.88,-5.23 -55.5,-13.38 -84.74,-49.84 -53.3,-66.47 -88.57,-77.8 -161.8,-112.05 -114.55,-53.58 -164.06,-93.35 -176.32,-219.7 -9.77,-100.72 -22.52,-118.02 -5.79,-225.99 5.46,-35.26 18.51,-72.28 13.72,-107.83 -3.73,-27.68 -6.93,-38.2 -31.85,-44.86 -42.21,-11.28 -43.49,-61.42 -46.32,-100.38 -8.99,-123.76 -2.31,-231.45 146.83,-245 36.3,-3.3 90.51,6.12 91.2,-35.19 2.14,-127.95 182.79,-164.86 123.51,-258.73 -31.29,-49.55 -43.53,-100.7 -20.67,-157.16 25.82,-63.79 52.7,-81.12 111.67,-99.09 222.04,-67.67 191.12,-173.04 326.24,-226.06 10.92,-4.29 107.79,-43.6 139.65,-50.09l1.63 -0.74c-0.18,0.17 -0.34,0.34 -0.5,0.52 2.04,-0.38 3.78,-0.62 5.17,-0.68 89.84,-26.82 167.76,-11.11 280.31,13.23 79.83,17.26 144.32,35.02 218.38,-8.04 64.3,-37.39 101.71,-46.96 175.79,-27.6 42.4,11.08 118.55,52.95 154.49,32.99 80.74,-44.83 142.81,-64.27 236.12,-43.1 160.67,36.46 266.63,167.17 312,319.9zm-1499.55 -231.33c-19.92,8.29 -37.78,16.12 -49.65,22 -11.85,7.46 -25.46,16.98 -38.1,27.12 -9.95,9.2 -18.43,18.79 -26.44,28.64 2.76,-2.36 4.94,-4.27 5.86,-5.04 45.82,-38.53 70.59,-49.21 115.36,-74.92 -2.42,0.76 -4.77,1.49 -7.03,2.21z"/>
  </g>
  <path class="fil2" d="M2310.16 335.39c-17.05,-62.93 -52.44,-142.43 -114.59,-204.94 -107.22,-107.83 -275.5,-172.82 -432.76,-70.67 -58.52,38.01 -188.11,-105.68 -329.78,-4.79 -134.37,95.68 -358.3,-103.43 -581.56,31.33 -26.99,16.29 -49.51,29.43 -68.11,39.87 -11.85,6.65 -25.59,12.5 -36.83,20.53 -31.28,22.36 -56.32,48.46 -68.39,54.51 -8.79,4.41 13.71,-30.17 49.57,-59.06 32.01,-25.79 75.86,-45.86 98.69,-48.51 15.02,-1.75 102.65,-38.5 105.73,-41.17 2.92,-2.53 -76.42,28.26 -142.79,52.63 -138.3,50.79 -86.48,163.47 -350.3,233.41 -64.9,17.21 -137.83,137.13 -64.8,239.68 65.67,92.21 -132.35,151.79 -123.69,261.52 7.25,91.86 -241.2,-52.7 -241.2,217.75 0,261.36 75.63,84.13 81.44,231.76 0.06,1.65 -34.72,153.17 -22.96,210.9 30.12,147.79 -25.49,224.31 208.58,327.52 247.94,109.32 38.1,179.17 412.68,146.55 22.45,-1.95 17.11,-20.95 37.59,-19.33"/>
  <g id="_2313540690176">
   <path class="fil1" d="M8.58 1136.51c5.38,99.96 92.76,31.73 64.72,218.26 -7.24,48.15 -34.9,135.78 -33.78,172.02 2.72,88.11 75.69,236.31 170.74,252.83 49.41,8.59 72.15,41.98 89.97,85.01 11.88,28.67 58.52,-19.92 69.73,32.51 18.17,84.98 161.31,131.16 228.61,85.73 85.31,-57.59 133.72,26.8 230.71,33.64l34.43 0.22 -34.43 0.22c-96.06,-5.56 -146.5,-88.21 -228.24,-31.15 -45.39,31.68 -107.79,21.91 -155.97,1.13 -113.37,-48.88 -61.25,-109.94 -106.71,-104.75 -46.98,5.37 -39.16,2.59 -56,-30.35 -25.53,-49.93 -53.49,-46.24 -93.6,-61.09 -84.91,-31.43 -154.34,-177.36 -155.41,-263.79 -0.46,-37.6 28.6,-123.59 36.73,-172.68 30.6,-184.71 -57.36,-117.5 -61.5,-217.75zm855.13 880.22l0 0 0.03 0z"/>
  </g>
  <path class="fil2" d="M8.58 1136.51c-3.56,110.48 131.95,0.35 32.13,351.37 -26.3,92.47 71.9,288.85 168.62,299.91 33.82,3.87 72.02,36.39 84.31,75.72 12.35,39.55 66.01,-12.66 71.78,34.19 10.44,84.82 176.52,135.44 234.4,86.63 71.31,-60.14 149.42,32.4 229.48,32.4 11.49,0 22.97,0 34.46,0"/>
 </g>
</svg>
