<?xml version="1.0" encoding="utf-8"?>
<!-- Generator: Adobe Illustrator 16.0.0, SVG Export Plug-In . SVG Version: 6.00 Build 0)  -->
<!DOCTYPE svg PUBLIC "-//W3C//DTD SVG 1.1//EN" "http://www.w3.org/Graphics/SVG/1.1/DTD/svg11.dtd">
<svg version="1.1" id="Layer_1" xmlns="http://www.w3.org/2000/svg" xmlns:xlink="http://www.w3.org/1999/xlink" x="0px" y="0px"
	 width="512px" height="512px" viewBox="0 0 512 512" enable-background="new 0 0 512 512" xml:space="preserve">
<g id="site_1_">
	<rect x="15.344" y="47.328" fill="#F5F7FA" width="484" height="292"/>
	<rect x="51" y="256" fill="#5D9CEC" width="194.344" height="81.359"/>
	<rect x="51" y="82" fill="#4FC2E9" width="405.5" height="127"/>
	<polygon fill="#CCD1D9" points="312.844,390.031 202.156,390.031 179.5,468.703 332.844,468.703 	"/>
	<rect x="8.844" y="337.359" fill="#E6E9ED" width="494.312" height="43.344"/>
	<g>
		<path d="M501.344,32H10.656C4.781,32,0,36.781,0,42.656V384c0,5.891,4.781,10.656,10.656,10.656h177.031l-12.766,64h-4.266
			c-5.875,0-10.656,4.781-10.656,10.688c0,5.875,4.781,10.656,10.656,10.656h170.688c5.875,0,10.656-4.781,10.656-10.656
			c0-5.906-4.781-10.688-10.656-10.688h-4.281l-12.781-64h177.062c5.875,0,10.656-4.766,10.656-10.656V42.656
			C512,36.781,507.219,32,501.344,32z M196.688,458.656l12.75-63.906l93.094-0.031l12.781,63.938H196.688z M490.656,53.344v277.312
			H256v-85.312H42.656v85.312H21.344V53.344H490.656z M234.656,330.656H64v-64h170.656V330.656z M256,373.344H21.344V352H256
			h234.656v21.344H256z"/>
		<path d="M266.656,362.656c0-5.875-4.766-10.656-10.656-10.656s-10.656,4.781-10.656,10.656c0,5.906,4.766,10.688,10.656,10.688
			S266.656,368.562,266.656,362.656z"/>
		<path d="M437.344,245.344H288c-5.891,0-10.656,4.766-10.656,10.656s4.766,10.656,10.656,10.656h149.344
			c5.875,0,10.656-4.766,10.656-10.656S443.219,245.344,437.344,245.344z"/>
		<path d="M117.344,160h277.312c5.906,0,10.688-4.781,10.688-10.656c0-5.906-4.781-10.688-10.688-10.688H117.344
			c-5.906,0-10.688,4.781-10.688,10.688C106.656,155.219,111.438,160,117.344,160z"/>
		<path d="M469.344,74.656H42.656V224h426.688V74.656z M448,202.656H64V96h384V202.656z"/>
		<path d="M437.344,288H288c-5.891,0-10.656,4.781-10.656,10.656c0,5.906,4.766,10.688,10.656,10.688h149.344
			c5.875,0,10.656-4.781,10.656-10.688C448,292.781,443.219,288,437.344,288z"/>
	</g>
</g>
</svg>
