<?xml version="1.0" encoding="UTF-8"?>
<!DOCTYPE svg PUBLIC "-//W3C//DTD SVG 1.1//EN" "http://www.w3.org/Graphics/SVG/1.1/DTD/svg11.dtd">
<!-- Creator: CorelDRAW 2020 (64-Bit) -->
<svg xmlns="http://www.w3.org/2000/svg" xml:space="preserve" width="1.73228in" height="1.7308in" version="1.1" style="shape-rendering:geometricPrecision; text-rendering:geometricPrecision; image-rendering:optimizeQuality; fill-rule:evenodd; clip-rule:evenodd"
viewBox="0 0 196.91 196.74"
 xmlns:xlink="http://www.w3.org/1999/xlink"
 xmlns:xodm="http://www.corel.com/coreldraw/odm/2003">
 <defs>
  <style type="text/css">
   <![CDATA[
    .fil2 {fill:#201E1E;fill-rule:nonzero}
    .fil1 {fill:black;fill-rule:nonzero}
    .fil0 {fill:#FFCE54;fill-rule:nonzero}
   ]]>
  </style>
 </defs>
 <g id="__x0023_Layer_x0020_1">
  <metadata id="CorelCorpID_0Corel-Layer"/>
  <g id="_1494229202864">
   <g id="seo_tag_1_">
    <path class="fil0" d="M150.66 4.92l-37.97 2.31 -105.76 108.07 74.23 74.23 107.3 -109.99 5 -31.54 -42.79 -43.07zm0.2 47.88c-3.56,0 -6.44,-2.97 -6.44,-6.63 0,-3.67 2.88,-6.63 6.44,-6.63 3.56,0 6.44,2.97 6.44,6.63 0,3.67 -2.88,6.63 -6.44,6.63z"/>
    <g>
     <path class="fil1" d="M150.59 0l-40.39 5.34 -110.2 110.21 81.2 81.2 110.2 -110.2 5.5 -40.23 -46.32 -46.32zm33.06 82.69l-102.45 102.45 -69.6 -69.6 102.44 -102.44 33.61 -4.45 40.59 40.58 -4.58 33.45z"/>
     <path class="fil1" d="M138.36 46.25c0,6.77 5.5,12.26 12.3,12.26 6.8,0 12.31,-5.49 12.31,-12.26 0,-6.77 -5.51,-12.26 -12.3,-12.26 -6.8,0 -12.31,5.49 -12.31,12.26zm9.39 -2.86c0.45,-0.44 1.42,-1.2 2.91,-1.2l0 0 0.01 0c1.09,0 2.13,0.43 2.91,1.2 0.44,0.44 1.19,1.41 1.19,2.86 0,1.45 -0.75,2.42 -1.19,2.86 -0.45,0.44 -1.43,1.2 -2.91,1.2 -1.48,0 -2.46,-0.76 -2.91,-1.2 -0.44,-0.44 -1.2,-1.41 -1.2,-2.86 0,-1.45 0.75,-2.42 1.2,-2.86z"/>
    </g>
   </g>
  </g>
  <path class="fil2" d="M60.79 110.12l5.5 5.17 -4.46 4.75 10.61 9.96c2.15,2.02 3.45,3.16 3.89,3.4 0.44,0.24 0.92,0.31 1.47,0.21 0.53,-0.11 1.01,-0.38 1.44,-0.85 0.61,-0.65 1.26,-1.78 1.96,-3.42l5.93 4.47c-0.82,2.25 -2.18,4.4 -4.09,6.43 -1.17,1.25 -2.43,2.17 -3.79,2.78 -1.36,0.61 -2.59,0.83 -3.69,0.66 -1.11,-0.16 -2.32,-0.69 -3.63,-1.57 -0.94,-0.61 -2.65,-2.07 -5.11,-4.39l-11.47 -10.77 -2.99 3.18 -5.5 -5.17 2.99 -3.18 -5.2 -4.88 2.4 -10.76 9.29 8.72 4.46 -4.75zm17.46 -2.42l-6.99 5.22c-1.9,-3.11 -2.64,-6.11 -2.25,-8.98 0.39,-2.88 2.18,-6.02 5.38,-9.42 2.9,-3.09 5.43,-5.06 7.58,-5.88 2.15,-0.82 4.08,-1.02 5.78,-0.58 1.71,0.44 4.06,2.07 7.07,4.9l7.99 7.68c2.3,2.16 4.1,3.64 5.4,4.45 1.3,0.81 2.86,1.49 4.67,2.06l-6.45 6.87c-0.62,-0.25 -1.51,-0.65 -2.64,-1.23 -0.52,-0.28 -0.86,-0.45 -1.04,-0.51 0.06,2.27 -0.26,4.34 -0.95,6.24 -0.68,1.89 -1.73,3.6 -3.16,5.12 -2.52,2.68 -5.24,4.12 -8.16,4.29 -2.91,0.18 -5.49,-0.78 -7.73,-2.88 -1.47,-1.38 -2.46,-2.98 -2.96,-4.77 -0.49,-1.79 -0.46,-3.61 0.13,-5.47 0.58,-1.85 1.76,-4.19 3.55,-7.02 2.43,-3.8 3.96,-6.59 4.61,-8.32l-0.7 -0.66c-1.35,-1.26 -2.61,-1.84 -3.81,-1.72 -1.2,0.13 -2.65,1.11 -4.37,2.93 -1.16,1.24 -1.82,2.43 -1.97,3.58 -0.17,1.16 0.18,2.53 1.01,4.12zm14.33 -4.03c-0.53,1.16 -1.5,2.9 -2.9,5.21 -1.39,2.31 -2.17,3.95 -2.34,4.9 -0.2,1.51 0.18,2.72 1.17,3.65 0.98,0.92 2.15,1.34 3.54,1.28 1.39,-0.06 2.6,-0.65 3.65,-1.77 1.17,-1.25 1.88,-2.83 2.13,-4.73 0.15,-1.43 -0.09,-2.69 -0.75,-3.81 -0.42,-0.73 -1.46,-1.88 -3.12,-3.44l-1.38 -1.3zm26.38 0.33l8.4 -7.03c1.06,0.74 1.98,1.04 2.78,0.9 1.12,-0.2 2.34,-1 3.67,-2.41 1.7,-1.81 2.7,-3.42 3.01,-4.84 0.21,-0.95 0.06,-1.95 -0.46,-3.02 -0.38,-0.75 -1.34,-1.86 -2.88,-3.31l-3.8 -3.63c0.89,4.77 -0.15,8.73 -3.12,11.89 -3.3,3.52 -7.41,4.91 -12.31,4.18 -3.87,-0.59 -7.55,-2.53 -11.05,-5.81 -4.39,-4.12 -6.75,-8.33 -7.08,-12.61 -0.33,-4.29 0.98,-8.01 3.93,-11.16 3.04,-3.24 6.98,-4.58 11.79,-4.02l-3.71 -3.48 6.07 -6.46 23.5 22.05c3.09,2.9 5.17,5.32 6.21,7.27 1.06,1.94 1.58,3.78 1.59,5.53 0.01,1.73 -0.46,3.61 -1.41,5.61 -0.95,2.01 -2.53,4.18 -4.73,6.53 -4.17,4.44 -7.89,6.87 -11.16,7.3 -3.28,0.42 -6.07,-0.46 -8.42,-2.66 -0.23,-0.21 -0.5,-0.49 -0.82,-0.81zm-9.47 -20.57c2.78,2.61 5.31,3.97 7.6,4.11 2.3,0.13 4.2,-0.59 5.67,-2.16 1.58,-1.68 2.26,-3.74 2.03,-6.14 -0.22,-2.41 -1.63,-4.82 -4.22,-7.26 -2.71,-2.54 -5.24,-3.88 -7.61,-3.99 -2.36,-0.12 -4.34,0.68 -5.94,2.38 -1.56,1.66 -2.19,3.63 -1.91,5.92 0.29,2.28 1.74,4.66 4.38,7.14z"/>
 </g>
</svg>
