<?xml version="1.0" encoding="utf-8"?>
<!-- Generator: Adobe Illustrator 16.0.0, SVG Export Plug-In . SVG Version: 6.00 Build 0)  -->
<!DOCTYPE svg PUBLIC "-//W3C//DTD SVG 1.1//EN" "http://www.w3.org/Graphics/SVG/1.1/DTD/svg11.dtd">
<svg version="1.1" id="Layer_1" xmlns="http://www.w3.org/2000/svg" xmlns:xlink="http://www.w3.org/1999/xlink" x="0px" y="0px"
	 width="512px" height="512px" viewBox="0 0 512 512" enable-background="new 0 0 512 512" xml:space="preserve">
<g id="lecture_1_">
	<rect x="31.34" y="54.02" fill="#48CFAD" width="445.328" height="273.995"/>
	<polygon fill="#ED5564" points="151.002,394.498 125.503,364.498 73.004,361.498 51.668,382.998 38.504,408.247 31.34,461.996 
		161.002,454.996 	"/>
	<polygon fill="#A0D468" points="310.827,394.498 285.328,364.498 232.829,361.498 211.493,382.998 198.33,408.247 191.166,461.996 
		320.827,454.996 	"/>
	<polygon fill="#AC92EB" points="470.652,394.498 445.152,364.498 392.654,361.498 371.311,382.998 358.154,408.247 
		350.998,461.996 480.652,454.996 	"/>
	<path fill="#EAC6BB" d="M131.94,351.139c0,22.156-17.968,40.141-40.14,40.141c-22.164,0-40.132-17.984-40.132-40.141
		c0-22.171,17.969-40.14,40.132-40.14C113.972,310.999,131.94,328.968,131.94,351.139z"/>
	<path fill="#EAC6BB" d="M292.438,351.139c0,22.156-17.969,40.141-40.14,40.141c-22.164,0-40.132-17.984-40.132-40.141
		c0-22.171,17.968-40.14,40.132-40.14C274.469,310.999,292.438,328.968,292.438,351.139z"/>
	<path fill="#EAC6BB" d="M456.434,351.139c0,22.156-17.969,40.141-40.14,40.141s-40.14-17.984-40.14-40.141
		c0-22.171,17.969-40.14,40.14-40.14S456.434,328.968,456.434,351.139z"/>
	<path fill="#F5F7FA" d="M239.336,190.157c0,39.124-31.71,70.843-70.834,70.843c-39.125,0-70.834-31.719-70.834-70.843
		c0-39.108,31.71-70.826,70.834-70.826C207.626,119.331,239.336,151.049,239.336,190.157z"/>
	<g>
		<path d="M170.666,106.659c-22.789,0-44.218,8.875-60.335,24.999c-16.117,16.125-24.992,37.547-24.992,60.343
			c0,22.797,8.875,44.218,24.992,60.343c16.117,16.125,37.546,25,60.335,25c22.796,0,44.226-8.875,60.342-25
			C247.125,236.219,256,214.798,256,192.001c0-22.796-8.875-44.218-24.992-60.343C214.892,115.534,193.462,106.659,170.666,106.659z
			 M215.923,237.25C203.837,249.344,187.759,256,170.666,256c-13.5,0-26.359-4.156-37.125-11.844
			c3.562-4.203,3.375-10.484-0.586-14.438c-3.953-3.968-10.242-4.155-14.437-0.594c-7.695-10.765-11.852-23.624-11.852-37.124
			c0-17.093,6.664-33.155,18.75-45.249c12.085-12.094,28.155-18.75,45.249-18.75c13.5,0,26.359,4.156,37.124,11.844
			c-3.555,4.203-3.367,10.484,0.586,14.438c3.961,3.969,10.25,4.156,14.438,0.594c7.703,10.766,11.851,23.624,11.851,37.124
			C234.665,209.095,228.009,225.157,215.923,237.25z"/>
		<path d="M238.547,109.034c-4.164,4.156-4.164,10.922,0,15.094c4.172,4.155,10.922,4.155,15.086,0
			c4.164-4.172,4.164-10.938,0-15.094C249.469,104.878,242.711,104.878,238.547,109.034z"/>
		<path d="M178.212,169.377c-4.164,4.156-4.164,10.905,0,15.093c4.164,4.156,10.914,4.156,15.086,0
			c4.164-4.188,4.164-10.937,0-15.093C189.126,165.221,182.376,165.221,178.212,169.377z"/>
		<path d="M148.042,199.532c-4.164,4.188-4.164,10.938,0,15.094c4.164,4.172,10.921,4.172,15.085,0
			c4.164-4.156,4.164-10.906,0-15.094C158.963,195.376,152.206,195.376,148.042,199.532z"/>
		<path d="M87.707,259.875c-4.172,4.172-4.172,10.938,0,15.094c4.164,4.156,10.914,4.156,15.078,0
			c4.172-4.156,4.172-10.922,0-15.094C98.621,255.719,91.871,255.719,87.707,259.875z"/>
		<path d="M416.185,149.346H309.53c-5.905,0-10.671,4.766-10.671,10.656s4.766,10.656,10.671,10.656h106.654
			c5.891,0,10.672-4.766,10.672-10.656S422.075,149.346,416.185,149.346z"/>
		<path d="M415.997,192.001H309.343c-5.905,0-10.687,4.781-10.687,10.656c0,5.906,4.781,10.688,10.687,10.688h106.654
			c5.891,0,10.656-4.781,10.656-10.688C426.653,196.782,421.888,192.001,415.997,192.001z"/>
		<path d="M362.857,234.656H309.14c-5.89,0-10.671,4.781-10.671,10.688c0,5.875,4.781,10.656,10.671,10.656h53.718
			c5.891,0,10.672-4.781,10.672-10.656C373.529,239.438,368.748,234.656,362.857,234.656z"/>
		<path d="M501.34,319.999h-10.688V53.348c0-5.906-4.766-10.688-10.656-10.688H32.004c-5.891,0-10.664,4.781-10.664,10.688v266.651
			H10.669c-5.891,0-10.664,4.781-10.664,10.656c0,5.905,4.773,10.687,10.664,10.687h21.335h10.984
			c-0.703,3.438-1.078,7-1.078,10.656c0,7.844,1.719,15.281,4.773,22c-15.531,13.688-25.343,33.718-25.343,55.999v28.655
			c0,5.906,4.773,10.688,10.664,10.688h127.998c5.891,0,10.664-4.781,10.664-10.688v-28.655c0-22.797-10.273-43.233-26.429-56.937
			c2.789-6.469,4.344-13.594,4.344-21.062c0-3.656-0.375-7.219-1.078-10.656h55.483c-0.703,3.438-1.078,7-1.078,10.656
			c0,7.844,1.718,15.281,4.773,22c-15.531,13.688-25.343,33.718-25.343,55.999v28.655c0,5.906,4.773,10.688,10.664,10.688h127.998
			c5.891,0,10.656-4.781,10.656-10.688v-28.655c0-22.797-10.266-43.233-26.421-56.937c2.796-6.469,4.343-13.594,4.343-21.062
			c0-3.656-0.375-7.219-1.078-10.656h55.483c-0.703,3.438-1.078,7-1.078,10.656c0,7.844,1.719,15.281,4.781,22
			c-15.531,13.688-25.344,33.718-25.344,55.999v28.655c0,5.906,4.766,10.688,10.656,10.688h127.998
			c5.891,0,10.656-4.781,10.656-10.688v-28.655c0-22.797-10.266-43.233-26.422-56.937c2.797-6.469,4.344-13.594,4.344-21.062
			c0-3.656-0.375-7.219-1.078-10.656h12.5h21.344c5.875,0,10.655-4.781,10.655-10.687
			C511.995,324.78,507.215,319.999,501.34,319.999z M127.245,351.998c0,17.656-14.351,32-31.999,32c-17.648,0-32-14.344-32-32
			s14.351-31.999,32-31.999C112.894,319.999,127.245,334.342,127.245,351.998z M149.338,429.997v17.999H42.668v-17.999
			c0-15.188,6.398-28.905,16.632-38.64c9.484,8.672,22.109,13.984,35.945,13.984c14.21,0,27.125-5.609,36.694-14.688
			C142.62,400.404,149.338,414.435,149.338,429.997z M287.25,351.998c0,17.656-14.359,32-32.008,32
			c-17.648,0-31.999-14.344-31.999-32s14.351-31.999,31.999-31.999C272.891,319.999,287.25,334.342,287.25,351.998z
			 M309.343,429.997v17.999H202.666v-17.999c0-15.188,6.398-28.905,16.632-38.64c9.484,8.672,22.109,13.984,35.944,13.984
			c14.211,0,27.133-5.609,36.695-14.688C302.625,400.404,309.343,414.435,309.343,429.997z M447.246,351.998
			c0,17.656-14.359,32-31.999,32c-17.655,0-31.999-14.344-31.999-32s14.344-31.999,31.999-31.999
			C432.887,319.999,447.246,334.342,447.246,351.998z M469.34,429.997v17.999H362.654v-17.999c0-15.188,6.406-28.905,16.641-38.64
			c9.484,8.672,22.109,13.984,35.952,13.984c14.203,0,27.124-5.609,36.687-14.688C462.621,400.404,469.34,414.435,469.34,429.997z
			 M457.871,319.999c-9.734-12.938-25.219-21.343-42.624-21.343c-17.421,0-32.905,8.405-42.655,21.343h-74.717
			c-9.734-12.938-25.219-21.343-42.633-21.343c-17.414,0-32.897,8.405-42.64,21.343h-74.717
			c-9.742-12.938-25.226-21.343-42.64-21.343c-17.414,0-32.898,8.405-42.64,21.343h-9.937V64.004H469.34v255.995H457.871z"/>
	</g>
</g>
</svg>
