<?xml version="1.0" encoding="utf-8"?>
<!-- Generator: Adobe Illustrator 16.0.0, SVG Export Plug-In . SVG Version: 6.00 Build 0)  -->
<!DOCTYPE svg PUBLIC "-//W3C//DTD SVG 1.1//EN" "http://www.w3.org/Graphics/SVG/1.1/DTD/svg11.dtd">
<svg version="1.1" id="Layer_1" xmlns="http://www.w3.org/2000/svg" xmlns:xlink="http://www.w3.org/1999/xlink" x="0px" y="0px"
	 width="512px" height="512px" viewBox="0 0 512 512" enable-background="new 0 0 512 512" xml:space="preserve">
<g id="keyboard_1_">
	<rect x="13" y="236" fill="#E6E9ED" width="479" height="234"/>
	<path d="M501.328,224H266.672v-32c0-5.875,4.781-10.656,10.656-10.656h117.344c17.672,0,32-14.344,32-32c0-17.688-14.328-32-32-32
		H117.328l0,0c-5.875,0-10.656-4.797-10.656-10.672c0-5.891,4.781-10.672,10.656-10.672l0,0h117.344c17.672,0,32-14.328,32-32
		V42.672C266.672,36.781,261.891,32,256,32s-10.672,4.781-10.672,10.672V64c0,5.875-4.781,10.672-10.656,10.672H117.328l0,0
		c-17.672,0-32,14.328-32,32s14.328,32,32,32l0,0h277.344c5.875,0,10.656,4.781,10.656,10.672c0,5.875-4.781,10.656-10.656,10.656
		H277.328c-17.672,0-32,14.328-32,32v32H10.672C4.781,224,0,228.781,0,234.672v234.672C0,475.219,4.781,480,10.672,480h490.656
		c5.891,0,10.672-4.781,10.672-10.656V234.672C512,228.781,507.219,224,501.328,224z M490.672,458.672H21.328V245.344h469.344
		V458.672z"/>
	<path d="M64,298.672c5.891,0,10.672-4.781,10.672-10.672S69.891,277.344,64,277.344S53.328,282.109,53.328,288
		S58.109,298.672,64,298.672z"/>
	<path d="M106.672,298.672c5.891,0,10.656-4.781,10.656-10.672s-4.766-10.656-10.656-10.656S96,282.109,96,288
		S100.781,298.672,106.672,298.672z"/>
	<path d="M149.328,298.672c5.891,0,10.672-4.781,10.672-10.672s-4.781-10.656-10.672-10.656s-10.656,4.766-10.656,10.656
		S143.438,298.672,149.328,298.672z"/>
	<path d="M192,298.672c5.891,0,10.672-4.781,10.672-10.672s-4.781-10.656-10.672-10.656s-10.672,4.766-10.672,10.656
		S186.109,298.672,192,298.672z"/>
	<path d="M234.672,298.672c5.891,0,10.656-4.781,10.656-10.672s-4.766-10.656-10.656-10.656S224,282.109,224,288
		S228.781,298.672,234.672,298.672z"/>
	<path d="M277.328,298.672c5.891,0,10.672-4.781,10.672-10.672s-4.781-10.656-10.672-10.656s-10.656,4.766-10.656,10.656
		S271.438,298.672,277.328,298.672z"/>
	<path d="M320,298.672c5.891,0,10.672-4.781,10.672-10.672s-4.781-10.656-10.672-10.656s-10.672,4.766-10.672,10.656
		S314.109,298.672,320,298.672z"/>
	<path d="M362.672,298.672c5.891,0,10.656-4.781,10.656-10.672s-4.766-10.656-10.656-10.656S352,282.109,352,288
		S356.781,298.672,362.672,298.672z"/>
	<path d="M405.328,298.672c5.891,0,10.672-4.781,10.672-10.672s-4.781-10.656-10.672-10.656s-10.656,4.766-10.656,10.656
		S399.438,298.672,405.328,298.672z"/>
	<path d="M448,298.672c5.891,0,10.672-4.781,10.672-10.672s-4.781-10.656-10.672-10.656s-10.672,4.766-10.672,10.656
		S442.109,298.672,448,298.672z"/>
	<path d="M85.328,341.344c5.891,0,10.672-4.781,10.672-10.672S91.219,320,85.328,320s-10.656,4.781-10.656,10.672
		S79.438,341.344,85.328,341.344z"/>
	<path d="M128,341.344c5.891,0,10.672-4.781,10.672-10.672S133.891,320,128,320s-10.672,4.781-10.672,10.672
		S122.109,341.344,128,341.344z"/>
	<path d="M170.672,341.344c5.891,0,10.656-4.781,10.656-10.672S176.562,320,170.672,320S160,324.781,160,330.672
		S164.781,341.344,170.672,341.344z"/>
	<path d="M213.328,341.344c5.891,0,10.672-4.781,10.672-10.672S219.219,320,213.328,320s-10.656,4.781-10.656,10.672
		S207.438,341.344,213.328,341.344z"/>
	<path d="M256,341.344c5.891,0,10.672-4.781,10.672-10.672S261.891,320,256,320s-10.672,4.781-10.672,10.672
		S250.109,341.344,256,341.344z"/>
	<path d="M298.672,341.344c5.891,0,10.656-4.781,10.656-10.672S304.562,320,298.672,320S288,324.781,288,330.672
		S292.781,341.344,298.672,341.344z"/>
	<path d="M341.328,341.344c5.891,0,10.672-4.781,10.672-10.672S347.219,320,341.328,320s-10.656,4.781-10.656,10.672
		S335.438,341.344,341.328,341.344z"/>
	<path d="M384,341.344c5.891,0,10.672-4.781,10.672-10.672S389.891,320,384,320s-10.672,4.781-10.672,10.672
		S378.109,341.344,384,341.344z"/>
	<path d="M426.672,341.344h10.656v32c0,5.875,4.781,10.656,10.672,10.656s10.672-4.781,10.672-10.656v-42.672
		c0-5.891-4.781-10.672-10.672-10.672h-21.328c-5.891,0-10.672,4.781-10.672,10.672S420.781,341.344,426.672,341.344z"/>
	<path d="M64,384L64,384h42.656c0.016,0,0.016,0,0.016,0c5.891,0,10.656-4.781,10.656-10.656c0-5.906-4.766-10.672-10.656-10.672H64
		c-5.891,0-10.672,4.766-10.672,10.672C53.328,379.219,58.109,384,64,384z"/>
	<path d="M149.328,362.672c-5.891,0-10.656,4.766-10.656,10.672c0,5.875,4.766,10.656,10.656,10.656S160,379.219,160,373.344
		C160,367.438,155.219,362.672,149.328,362.672z"/>
	<path d="M202.672,373.344c0-5.906-4.781-10.672-10.672-10.672s-10.672,4.766-10.672,10.672c0,5.875,4.781,10.656,10.672,10.656
		S202.672,379.219,202.672,373.344z"/>
	<path d="M245.328,373.344c0-5.906-4.766-10.672-10.656-10.672S224,367.438,224,373.344c0,5.875,4.781,10.656,10.672,10.656
		S245.328,379.219,245.328,373.344z"/>
	<path d="M288,373.344c0-5.906-4.781-10.672-10.672-10.672s-10.656,4.766-10.656,10.672c0,5.875,4.766,10.656,10.656,10.656
		S288,379.219,288,373.344z"/>
	<path d="M330.672,373.344c0-5.906-4.781-10.672-10.672-10.672s-10.672,4.766-10.672,10.672c0,5.875,4.781,10.656,10.672,10.656
		S330.672,379.219,330.672,373.344z"/>
	<path d="M362.672,362.672c-5.891,0-10.672,4.766-10.672,10.672c0,5.875,4.781,10.656,10.672,10.656s10.656-4.781,10.656-10.656
		C373.328,367.438,368.562,362.672,362.672,362.672z"/>
	<path d="M405.328,362.672c-5.891,0-10.656,4.766-10.656,10.672c0,5.875,4.766,10.656,10.656,10.656S416,379.219,416,373.344
		C416,367.438,411.219,362.672,405.328,362.672z"/>
	<path d="M85.328,405.344c-5.891,0-10.656,4.766-10.656,10.656s4.766,10.672,10.656,10.672S96,421.891,96,416
		S91.219,405.344,85.328,405.344z"/>
	<path d="M128,405.344c-5.891,0-10.672,4.766-10.672,10.656s4.781,10.672,10.672,10.672s10.672-4.781,10.672-10.672
		S133.891,405.344,128,405.344z"/>
	<path d="M341.328,405.344H170.672c-5.891,0-10.672,4.766-10.672,10.656s4.781,10.672,10.672,10.672h170.656
		c5.891,0,10.672-4.781,10.672-10.672S347.219,405.344,341.328,405.344z"/>
	<path d="M384,405.344c-5.891,0-10.672,4.766-10.672,10.656s4.781,10.672,10.672,10.672s10.672-4.781,10.672-10.672
		S389.891,405.344,384,405.344z"/>
	<path d="M426.672,405.344c-5.891,0-10.672,4.766-10.672,10.656s4.781,10.672,10.672,10.672s10.656-4.781,10.656-10.672
		S432.562,405.344,426.672,405.344z"/>
</g>
</svg>
