<?xml version="1.0" encoding="UTF-8"?>
<!DOCTYPE svg PUBLIC "-//W3C//DTD SVG 1.1//EN" "http://www.w3.org/Graphics/SVG/1.1/DTD/svg11.dtd">
<!-- Creator: CorelDRAW 2020 (64-Bit) -->
<svg xmlns="http://www.w3.org/2000/svg" xml:space="preserve" width="4.45758in" height="4.47722in" version="1.1" style="shape-rendering:geometricPrecision; text-rendering:geometricPrecision; image-rendering:optimizeQuality; fill-rule:evenodd; clip-rule:evenodd"
viewBox="0 0 714.18 717.32"
 xmlns:xlink="http://www.w3.org/1999/xlink"
 xmlns:xodm="http://www.corel.com/coreldraw/odm/2003">
 <defs>
  <style type="text/css">
   <![CDATA[
    .fil0 {fill:#A46080;fill-rule:nonzero}
    .fil7 {fill:#A8CF45;fill-rule:nonzero}
    .fil6 {fill:#201E1E;fill-rule:nonzero}
    .fil5 {fill:black;fill-rule:nonzero}
    .fil1 {fill:#434A54;fill-rule:nonzero}
    .fil4 {fill:#656D78;fill-rule:nonzero}
    .fil3 {fill:#EAC6BB;fill-rule:nonzero}
    .fil2 {fill:#ED5564;fill-rule:nonzero}
   ]]>
  </style>
 </defs>
 <g id="__x0023_Layer_x0020_1">
  <metadata id="CorelCorpID_0Corel-Layer"/>
  <g id="_1494224938032">
   <g id="target_auditory_1_">
    <circle class="fil0" cx="351.15" cy="362.05" r="331.23"/>
    <polygon class="fil1" points="572.57,580.13 462.42,544.54 420.15,493.35 355.06,517.83 286.64,503.36 239.91,546.75 157.57,574.58 128.64,601.28 166.47,643.65 281.07,693.28 392.33,700.3 509.15,669.16 581.49,621.31 "/>
    <polygon class="fil2" points="407.92,516.71 311.11,510.04 323.35,574.55 317.23,691.56 402.34,700.3 381.2,586.81 "/>
    <polygon class="fil3" points="457.99,309.77 407.92,289.74 236.56,327.55 245.46,419.91 326.68,513.37 401.24,504.46 466.85,408.78 "/>
    <polygon class="fil4" points="466.85,250.65 379.81,191.82 273.83,211.01 216.26,309.48 250.47,316.99 311.11,316.99 407.92,292.79 473.27,301.97 "/>
    <path class="fil5" d="M710.57 344.24c-9,-182.2 -155.03,-328.33 -337.18,-337.46l-35.59 -0.03c-182.43,8.84 -328.8,155.08 -337.8,337.49l-0 35.59c9,182.41 155.37,328.67 337.8,337.49l35.59 0c182.15,-9.15 328.18,-155.29 337.18,-337.49l0 -35.59zm-251.49 -60.58c-10.56,-9.83 -23.47,-14.81 -38.39,-14.81 -15.62,0 -33.61,5.48 -62.1,18.88 -26.49,12.47 -53.6,18.78 -80.55,18.78 -15.35,0 -28.67,-2.06 -39.27,-4.64 2.33,-6.52 5.04,-13.64 8.07,-20.96 19.48,-47.1 33.46,-56.53 35,-57.45 23.76,-14.37 49.21,-21.62 75.6,-21.62 33.48,0 57.34,11.79 63.65,17.52 19.27,17.47 32.02,39.04 38.05,64.36 -0.03,-0.02 -0.03,-0.05 -0.05,-0.05zm-205.51 57c7.59,0.89 15.75,1.46 24.47,1.46 27.45,0 60.13,-5.42 95.71,-22.16 23.23,-10.95 37.37,-15.49 46.94,-15.49 15.44,0 19.04,11.84 29.73,27.88 1.77,2.66 4.25,5.19 7.12,7.56 0.76,6.13 1.17,12.44 1.17,18.96 0,32.39 -14.97,68.5 -41.05,99.09 -23.31,27.33 -49.39,42.09 -62.06,42.09 -12.7,0 -38.75,-14.76 -62.06,-42.09 -26.09,-30.59 -41.05,-66.7 -41.05,-99.09 0,-6.26 0.35,-12.31 1.07,-18.2zm396.68 145.98c-14.45,34.16 -34.53,65.22 -59.72,92.47 -7.09,-10.69 -17.6,-19.04 -30.38,-23.26l-1.57 -0.5c-26.65,-7.22 -46.21,-14.11 -57.97,-18.65 -41.7,-16.04 -52.57,-27.62 -55.34,-33.06 -0.1,-0.21 -0.18,-0.42 -0.26,-0.63l-0.18 -22.09c28.03,-32.91 49.47,-77.06 49.47,-122.07 0,0 26.16,-97.58 -49.34,-165.9 -13.85,-12.54 -46.76,-26.75 -87.54,-26.75 -28.75,0 -61.38,7.07 -94.01,26.75 -39.92,24.1 -69,130.54 -69,130.54 0,0 8.76,4.95 24.23,9.75 -1.15,8.24 -1.77,16.77 -1.77,25.61 0,45.01 21.44,89.16 49.47,122.09l-0.16 22.06c-0.09,0.21 -0.17,0.42 -0.26,0.63 -2.79,5.45 -13.64,17.03 -55.33,33.09 -11.76,4.51 -31.33,11.4 -57.73,18.57l-1.83 0.55c-12.91,4.28 -23.55,12.78 -30.63,23.68 -25.37,-27.38 -45.57,-58.54 -60.09,-92.89 -14.39,-34 -22.63,-69.86 -24.64,-106.81l-0 -35.59c2.01,-36.95 10.25,-72.78 24.64,-106.78 16.11,-38.12 39.19,-72.34 68.61,-101.75 29.41,-29.41 63.65,-52.52 101.77,-68.63 34.1,-14.42 70.06,-22.69 107.11,-24.67l35.59 0.05c36.82,2.03 72.57,10.27 106.5,24.62 38.1,16.11 72.34,39.22 101.75,68.63 29.41,29.41 52.49,63.63 68.61,101.75 14.39,34 22.63,69.83 24.64,106.78l-0 35.59c-2.01,36.95 -10.25,72.8 -24.64,106.81z"/>
   </g>
  </g>
  <circle class="fil6" cx="584.06" cy="130.12" r="130.12"/>
  <circle class="fil7" cx="584.06" cy="130.12" r="96.95"/>
 </g>
</svg>
