<?xml version="1.0" encoding="utf-8"?>
<!-- Generator: Adobe Illustrator 16.0.0, SVG Export Plug-In . SVG Version: 6.00 Build 0)  -->
<!DOCTYPE svg PUBLIC "-//W3C//DTD SVG 1.1//EN" "http://www.w3.org/Graphics/SVG/1.1/DTD/svg11.dtd">
<svg version="1.1" id="Слой_1" xmlns="http://www.w3.org/2000/svg" xmlns:xlink="http://www.w3.org/1999/xlink" x="0px" y="0px"
	 width="512px" height="512px" viewBox="0 0 512 512" enable-background="new 0 0 512 512" xml:space="preserve">
<g id="cake_1_">
	<polygon fill="#965353" points="398.495,241.501 365.996,241.501 341.998,251 271.993,245.001 238.995,241.501 212.996,252 
		166.499,253 110.501,249.5 78.503,256 74.503,369.494 89.002,378.993 433.493,375.994 440.493,256 	"/>
	<rect x="74.503" y="375.994" fill="#F4B68C" width="365.99" height="43.325"/>
	<path fill="#EC87C0" d="M428.993,165.005H81.002l-6.5,96.494c0,0,34.499-14.499,36.499-14.999s43.998,1.5,43.998,1.5l43.998,10.499
		l52.997-14.498l68.005,14.498l59.497-13.998l55.997,13.998l5-55.997L428.993,165.005z"/>
	<path fill="#ED5564" d="M287,113.632l-20.007-24.671l-23.999,8l-15.327,28.607l-9.344,27.405l17.343,9.202
		c0,0,24.655-3.218,28.654-3.765c4-0.547,29.335-22.124,29.335-22.124L287,113.632z"/>
	<g>
		<path d="M508.864,412.757c-2.063-2.077-4.812-3.124-7.531-3.124l0,0h-53.341v-234.66c0-11.781-9.562-21.327-21.343-21.327h-10.655
			c0-2.734-1.031-5.453-3.125-7.547c-4.156-4.155-10.905-4.155-15.062,0c-2.094,2.094-3.125,4.813-3.125,7.547H373.34
			c0-2.734-1.031-5.453-3.125-7.547c-4.155-4.155-10.937-4.155-15.093,0c-2.063,2.094-3.125,4.813-3.125,7.547h-21.343
			c0-2.734-1.031-5.453-3.094-7.547c-4.188-4.155-10.937-4.155-15.093,0c-2.094,2.094-3.125,4.813-3.125,7.547H294.75
			c11.874-11.156,12.999-22.983,8.313-34.795c0.78-0.359,1.562-0.813,2.28-1.375c4.594-3.688,5.344-10.391,1.656-14.999
			c-3.687-4.594-10.374-5.344-14.999-1.656l0,0l0,0l0,0c4.625-3.688,5.344-10.406,1.688-15c-3.688-4.593-10.406-5.343-14.999-1.656
			c-0.719,0.563-1.313,1.219-1.844,1.906c-5.414-3.687-11.164-5.874-17.319-5.874c-6.828,0-14.14,2.688-22.031,8.999
			c-18.311,14.624-33.967,44.186-30.248,64.45h-4.578c0-2.734-1.031-5.453-3.125-7.547c-4.156-4.155-10.921-4.155-15.078,0
			c-2.078,2.094-3.125,4.813-3.125,7.547h-21.343c0-2.734-1.031-5.453-3.109-7.547c-4.172-4.155-10.921-4.155-15.093,0
			c-2.078,2.094-3.125,4.813-3.125,7.547h-21.327c0-2.734-1.047-5.453-3.125-7.547c-4.171-4.155-10.921-4.155-15.093,0
			c-2.078,2.094-3.109,4.813-3.109,7.547H85.346c-11.781,0-21.327,9.546-21.327,21.327v234.66H10.678l0,0
			c-2.719,0-5.453,1.047-7.531,3.124c-4.172,4.172-4.172,10.922,0,15.078c2.078,2.094,4.812,3.125,7.531,3.125l0,0h74.668h196.999
			l0.843,0.844l0.844-0.844h142.618h74.684l0,0c2.72,0,5.469-1.031,7.531-3.125C513.021,423.679,513.021,416.929,508.864,412.757z
			 M85.346,267.53l26.827-10.718c1.531-0.625,3.281-1.141,5.172-1.563v15.718l0,0c0,2.75,1.046,5.468,3.125,7.563
			c4.171,4.155,10.921,4.155,15.077,0c2.094-2.095,3.125-4.813,3.125-7.563l0,0v-16.515c2.266,0.328,4.375,0.781,6.203,1.391
			l23.53,7.843c3.812,1.266,8.234,2.172,12.937,2.719v25.905l0,0c0,2.719,1.047,5.468,3.125,7.53c4.171,4.172,10.921,4.172,15.078,0
			c2.093-2.063,3.125-4.812,3.125-7.53l0,0v-25.905c4.703-0.547,9.14-1.453,12.953-2.719l23.515-7.843
			c1.828-0.609,3.938-1.094,6.203-1.453v48.575l0,0c0,2.734,1.047,5.469,3.125,7.547c4.172,4.172,10.922,4.172,15.093,0
			c2.079-2.078,3.109-4.813,3.109-7.547l0,0v-48.575c2.281,0.359,4.375,0.844,6.211,1.453l23.53,7.843
			c3.813,1.266,8.218,2.172,12.937,2.719v15.233l0,0c0,2.734,1.031,5.453,3.125,7.547c4.156,4.156,10.905,4.156,15.093,0
			c2.063-2.094,3.094-4.813,3.094-7.547v-15.233c4.719-0.547,9.156-1.453,12.969-2.719l23.498-7.843
			c1.844-0.609,3.938-1.063,6.219-1.391v16.515c0,2.734,1.031,5.468,3.125,7.547c4.156,4.171,10.905,4.171,15.062,0
			c2.094-2.079,3.125-4.813,3.125-7.547l0,0V255.25c1.906,0.422,3.656,0.938,5.188,1.563l26.811,10.718v99.433H85.346V267.53z
			 M206.028,388.306l-21.327,21.327H124.36l21.327-21.327H206.028z M214.871,409.633l21.327-21.327h60.333l-21.343,21.327H214.871z
			 M326.717,388.306h60.31l-21.312,21.327h-60.341L326.717,388.306z M395.87,409.633l21.343-21.327h9.437v21.327H395.87z
			 M228.761,151.411c-0.796-1-1.781-6.953,2.125-17.249c4.109-10.796,11.921-21.905,19.937-28.312
			c3.484-2.796,6.578-4.343,8.703-4.343c0.938,0,3.749,0.469,8.593,4.812c-4.078,3.75-4.609,10.094-1.094,14.484
			c3.516,4.405,9.82,5.265,14.383,2.109c2.188,3.905,2.78,6.405,2.874,7.812c0.095,1.078,0.313,3.938-6.218,9.172
			c-9.96,7.952-26.351,13.733-39.021,13.749h-0.094C232.605,153.63,229.355,152.13,228.761,151.411z M238.948,174.973h0.047h0.047
			h187.607v69.59l-18.874-7.562c-13.155-5.25-33.967-5.875-47.372-1.406l-23.53,7.843c-9,3-24.749,3-33.749,0l-23.498-7.843
			c-13.241-4.406-33.991-4.406-47.225,0l-23.53,7.843c-8.984,3-24.749,3-33.732,0l-23.514-7.843
			c-13.421-4.469-34.233-3.844-47.389,1.406l-18.89,7.562v-69.59H238.948z M85.346,388.306h30.17l-21.327,21.327h-8.843V388.306z"/>
		<path d="M135.547,203.846c4.172-4.155,4.172-10.905,0-15.077c-4.156-4.172-10.906-4.172-15.077,0
			c-4.172,4.172-4.172,10.922,0,15.077C124.641,208.018,131.391,208.018,135.547,203.846z"/>
		<path d="M199.544,235.845c4.171-4.156,4.171-10.906,0-15.078c-4.156-4.171-10.906-4.171-15.078,0
			c-4.171,4.172-4.171,10.922,0,15.078C188.638,240.017,195.388,240.017,199.544,235.845z"/>
		<path d="M263.713,203.846c4.155-4.155,4.155-10.905,0-15.077c-4.172-4.172-10.921-4.172-15.093,0
			c-4.156,4.172-4.156,10.922,0,15.077C252.792,208.018,259.541,208.018,263.713,203.846z"/>
		<path d="M327.561,235.845c4.156-4.156,4.156-10.906,0-15.078c-4.188-4.171-10.937-4.171-15.093,0
			c-4.156,4.172-4.156,10.922,0,15.078C316.624,240.017,323.373,240.017,327.561,235.845z"/>
		<path d="M391.558,203.846c4.156-4.155,4.156-10.905,0-15.077c-4.188-4.172-10.937-4.172-15.093,0s-4.156,10.922,0,15.077
			C380.621,208.018,387.37,208.018,391.558,203.846z"/>
	</g>
</g>
</svg>
