<?xml version="1.0" encoding="utf-8"?>
<!-- Generator: Adobe Illustrator 16.0.0, SVG Export Plug-In . SVG Version: 6.00 Build 0)  -->
<!DOCTYPE svg PUBLIC "-//W3C//DTD SVG 1.1//EN" "http://www.w3.org/Graphics/SVG/1.1/DTD/svg11.dtd">
<svg version="1.1" id="Layer_1" xmlns="http://www.w3.org/2000/svg" xmlns:xlink="http://www.w3.org/1999/xlink" x="0px" y="0px"
	 width="512px" height="512px" viewBox="0 0 512 512" enable-background="new 0 0 512 512" xml:space="preserve">
<g id="file_storage_1_">
	<rect x="12" y="154" fill="#434A54" width="494" height="309"/>
	<path fill="#CCD1D9" d="M334.656,277.344L316,280.016l-8.656,28.484c0,0-100.68,1.516-102.68,0S198,285.344,198,285.344
		l-24.664-11.328l-16.672,24.656v28.672l16.672,24h163.32l14-15.328v-40L334.656,277.344z"/>
	<path fill="#FFCE54" d="M476,105l-275.5,0.5l-39.5-34H52.5l-3,33.5l-22,4l-3,38l455.5-2.5C480,144.5,478,108,476,105z"/>
	<path fill="#F6BB42" d="M219.5,78L173,42H73v27.5c0,0,85.531-0.125,88,2s31.5,34.5,33,35s262-7,262-7l4-28L219.5,78z"/>
	<g>
		<path d="M490.656,138.672V96h-21.312V64H213.336L192,32H64v32H42.664v32H21.336v42.672H0V480h512V138.672H490.656z M85.336,53.344
			h95.25l15,22.5l6.328,9.5h11.422H448V96H192l-21.336-32H85.336V53.344z M42.664,117.344H64V96V85.344h95.25l15,22.5l6.336,9.5H192
			h277.344v21.328H42.664V117.344z M490.656,458.672H21.336V160h469.32V458.672z"/>
		<path d="M181.336,362.672h149.32c17.688,0,32-14.328,32-32v-32c0-17.672-14.312-32-32-32c-17.656,0-32,14.328-32,32h-85.32
			c0-17.672-14.328-32-32-32s-32,14.328-32,32v32C149.336,348.344,163.664,362.672,181.336,362.672z M170.664,298.672
			c0-5.891,4.789-10.672,10.672-10.672c5.875,0,10.664,4.781,10.664,10.672V320h21.336h85.32H320v-21.328
			c0-5.891,4.781-10.672,10.656-10.672c5.891,0,10.688,4.781,10.688,10.672v32c0,5.891-4.797,10.672-10.688,10.672h-149.32
			c-5.883,0-10.672-4.781-10.672-10.672V298.672z"/>
	</g>
</g>
</svg>
