<?xml version="1.0" encoding="utf-8"?>
<!-- Generator: Adobe Illustrator 16.0.0, SVG Export Plug-In . SVG Version: 6.00 Build 0)  -->
<!DOCTYPE svg PUBLIC "-//W3C//DTD SVG 1.1//EN" "http://www.w3.org/Graphics/SVG/1.1/DTD/svg11.dtd">
<svg version="1.1" id="Layer_1" xmlns="http://www.w3.org/2000/svg" xmlns:xlink="http://www.w3.org/1999/xlink" x="0px" y="0px"
	 width="512px" height="512px" viewBox="0 0 512 512" enable-background="new 0 0 512 512" xml:space="preserve">
<g id="wet_floor_1_">
	<path fill="#FFCE54" d="M155.505,12.002l-2.5,425.996l253.498-5l0.5-420.996H155.505z M334.003,93.751l-34.75,3.25h-50.249
		l-23.25-5.25l-8-12.25l2.25-9.5l12.25-16.999l95.499,2l19,19.655L334.003,93.751z"/>
	<polygon fill="#ED5564" points="282.676,166.251 202.504,348.749 359.003,348.749 	"/>
	<polygon fill="#F6BB42" points="148.005,155.001 113.005,412.998 156.005,412.998 	"/>
	<g>
		<path fill="#080808" d="M275.129,312.469c-4.172,4.156-4.172,10.906,0,15.078s10.922,4.172,15.077,0
			c4.172-4.172,4.172-10.922,0-15.078C286.051,308.281,279.301,308.281,275.129,312.469z"/>
		<path fill="#080808" d="M410.675,0.002H154.677c-5.891,0-10.672,4.781-10.672,10.656v3.25L90.74,478.779
			c-0.672,5.859,3.531,11.156,9.391,11.812c0.406,0.062,0.812,0.078,1.219,0.078c5.344,0,9.969-4.016,10.594-9.453l6.25-54.562
			h25.812v8.438c0,0.016,0,0.016,0,0.016v66.234c0,5.875,4.781,10.656,10.672,10.656s10.656-4.781,10.656-10.656v-53.344h234.67
			v53.344c0,5.875,4.781,10.656,10.672,10.656s10.656-4.781,10.656-10.656v-64v-2.234V10.658
			C421.331,4.783,416.565,0.002,410.675,0.002z M120.63,405.342l23.375-204.029v204.029H120.63z M165.333,21.346h234.67v405.309
			h-234.67V21.346z"/>
		<path fill="#080808" d="M240.004,106.657h85.327c17.656,0,32-14.344,32-32c0-17.624-14.344-31.999-32-31.999h-85.327
			c-17.64,0-32,14.375-32,31.999C208.004,92.313,222.364,106.657,240.004,106.657z M240.004,64.001h85.327
			c5.891,0,10.672,4.781,10.672,10.656c0,5.891-4.781,10.688-10.672,10.688h-85.327c-5.875,0-10.671-4.797-10.671-10.688
			C229.333,68.782,234.129,64.001,240.004,64.001z"/>
		<path fill="#080808" d="M292.425,155.657c-1.719-3.844-5.546-6.312-9.749-6.312c-4.219,0-8.047,2.469-9.75,6.312l-85.328,192.014
			c-1.469,3.297-1.172,7.109,0.797,10.141s5.328,4.844,8.938,4.844h170.67c3.609,0,6.984-1.812,8.938-4.844
			c1.969-3.031,2.281-6.844,0.812-10.141L292.425,155.657z M213.754,341.344l68.921-155.078l68.921,155.078H213.754z"/>
		<path fill="#080808" d="M272.004,245.344V288c0,5.891,4.781,10.656,10.672,10.656c5.89,0,10.655-4.766,10.655-10.656v-42.656
			c0-5.906-4.766-10.688-10.655-10.688C276.785,234.656,272.004,239.438,272.004,245.344z"/>
	</g>
</g>
</svg>
