<?xml version="1.0" encoding="UTF-8"?>
<!DOCTYPE svg PUBLIC "-//W3C//DTD SVG 1.1//EN" "http://www.w3.org/Graphics/SVG/1.1/DTD/svg11.dtd">
<!-- Creator: CorelDRAW 2020 (64-Bit) -->
<svg xmlns="http://www.w3.org/2000/svg" xml:space="preserve" width="17.0409in" height="17.6189in" version="1.1" style="shape-rendering:geometricPrecision; text-rendering:geometricPrecision; image-rendering:optimizeQuality; fill-rule:evenodd; clip-rule:evenodd"
viewBox="0 0 2563.08 2650.02"
 xmlns:xlink="http://www.w3.org/1999/xlink"
 xmlns:xodm="http://www.corel.com/coreldraw/odm/2003">
 <defs>
  <style type="text/css">
   <![CDATA[
    .fil2 {fill:none}
    .fil4 {fill:#FEFEFE}
    .fil1 {fill:#373435}
    .fil0 {fill:#ABA994}
    .fil3 {fill:#9ACA48}
   ]]>
  </style>
 </defs>
 <g id="Layer_x0020_1">
  <metadata id="CorelCorpID_0Corel-Layer"/>
  <path class="fil0" d="M1031.12 2109.29c49.76,55.08 87.39,253.6 83.98,333.4 -0.63,14.76 17.24,192.35 34.67,195.96 6.52,31.53 146.33,-20.56 205.56,-1.07 0.35,0.11 77.13,0.45 75.63,-34.45 -3.87,-90.42 3.64,-160.72 -7.74,-253.19 -10.17,-82.71 71.76,-149.96 87.74,-228.33 7.62,-37.39 -51.78,40.71 -69.76,40.32 -108.04,-2.31 -38.76,24.5 -101.13,97.76 -18.67,21.93 -10.25,-50.95 -41.97,-74.56 -11.41,-8.49 -23.26,-112.49 -85.23,-48.06 -28.62,29.76 -92.75,-39.66 -92.75,67.47 0,162.55 -4.95,15.53 -37.17,-47.63 -11.7,-22.93 6.09,-28.95 -30.3,-50.78 -3.78,-32.75 -38.58,-2.54 -17.87,6.73l-3.65 -3.58z"/>
  <g id="_1494249160176">
   <path class="fil1" d="M1143.64 2171.97c-1.25,39.75 -21.51,483.47 6.24,471.99 94.32,-39.01 132.28,-19.4 223.89,-20.64 54.17,-0.73 48.74,-15.01 50.61,-61.7 1.53,-38.34 16.12,-431.61 -10.01,-433.27 -61.25,-3.89 -155.46,5.68 -214.63,23 -25.33,7.41 -30.63,9.87 -57.36,13.72 26.69,-4.12 31.93,-6.62 57.18,-14.29 59.5,-18.07 152.92,-28.47 214.8,-25.44 13.46,0.66 16.28,63.15 16.69,68.14 9.49,116.15 4.63,250.64 4.5,368.38 -0.03,29.27 8,58.24 -24.45,68.8 -36.22,11.78 -142.5,-11.79 -212.05,3.16 -10.25,2.2 -48.73,16.15 -49.31,16.19 -37.83,2.83 -8.13,-429.07 -6.11,-478.03z"/>
  </g>
  <path class="fil2" d="M1143.64 2171.97c-0.57,34.37 -28.73,492.09 7.52,474.64 122.66,-59.04 278.25,23.62 278.25,-51.78 0,-45.2 14.32,-467.98 -15.04,-467.98 -201.75,0 -216.44,33.88 -271.99,38.23"/>
  <g id="_1494249160128">
   <path class="fil1" d="M1041.16 2124.33c0.39,3.76 1.01,8.01 1.8,12.65 2.75,5.63 5.22,12.31 6.87,20.31l1.89 19.91c13.54,54.66 35.92,126.76 46,164.47 20.93,78.35 42.5,157.98 45.37,239.38 1.98,56.17 43.07,42.67 93.4,41.84 38.21,-0.63 55.84,1.7 93.24,9.01 85.12,16.63 98.03,-22.98 93.78,-103.6 -4.92,-93.56 -34.39,-238.61 32.75,-317.01 24.79,-28.95 43.4,-34.63 56.98,-74.15 0.33,-0.97 0.63,-2.06 0.92,-3.21 -26.73,11.91 -67.79,24.23 -68.66,24.54 -17.52,6.24 -64.74,25.11 -79.81,26.33 -1.11,5.39 -11.38,87.86 -30.92,81.46 -33.68,-11.02 -50.34,-192.12 -171.39,-133.88 -48.16,23.17 -21.28,200.61 -33.55,185.92 -3.55,-4.25 -38.77,-92.17 -40.17,-98.95 -3.64,-17.65 -30.58,-179.56 -63.52,-111.17 -2.16,4.49 8.44,11.79 16.7,28.57 -0.75,-4.55 -1.32,-8.71 -1.68,-12.4zm2.01 13.85c1.94,11.03 4.89,24.24 8.47,38.69l-1.98 -19.54c-1.59,-7.46 -3.91,-13.77 -6.49,-19.15zm474.48 -16.95c2.38,-5.79 6.37,-9.82 14.73,-6.88 8.1,2.85 4.09,7.78 -5.66,13.34 -13.27,49.22 -23.71,52.02 -59.58,92.94 -67.9,77.47 -40.23,213.74 -36.44,307.3 3.42,84.42 -12.57,127.45 -102.27,109.03 -36.83,-7.56 -54.17,-10 -91.88,-9.71 -51.72,0.4 -95.14,13.36 -96.78,-46.31 -2.22,-81.13 -23.18,-160.68 -43.5,-238.89 -9.68,-37.27 -31.09,-107.97 -44.33,-162.42l0.49 5.17 -0.55 -5.41c-3.78,-15.56 -6.89,-29.78 -8.86,-41.51 -8.49,-17.5 -19.74,-24.99 -17.38,-29.98 21.07,-44.52 39.39,8.17 47.15,32.25 8.86,27.46 13.31,66.83 20.56,88.22 1.52,4.48 31.43,73.34 37.31,86.21 0.02,-0.53 0,-1.26 -0,-2.93 -0.08,-42.7 -3.5,-114.19 8.82,-154.29 12.9,-42.01 70.13,-47.69 103.61,-31.97 51.14,24.02 62.41,105.63 90.48,132.7 13.28,12.81 24.79,-74.76 24.79,-74.76 42.19,-23.04 111.48,-39.11 159.28,-62.12z"/>
  </g>
  <path class="fil2" d="M1041.16 2124.33c-1.16,34.83 103.84,344.85 100.27,456.67 -2.44,76.63 78.09,25.44 187.65,53.43 143.38,36.62 88.1,-130.92 88.1,-239.36 0,-220.18 83.35,-165.82 106.14,-274.89 50.56,-10.46 -161.15,63.14 -161.29,63.89 -9.09,46.4 -14.68,74.42 -22.3,78.63 -10.56,5.84 -23.3,-27.08 -39.25,-58.1 -10.48,-20.4 -21.56,-47.52 -38.54,-63.51 -23.04,-21.68 -61.06,-29.95 -99.47,-10.52 -15.1,7.64 -31.07,16.83 -31.07,145.47 0,68.92 8.01,51.91 -38.82,-47.27 -2.63,-5.57 -29.8,-189.05 -65.18,-123.62 -5.07,9.37 -1.45,4.63 1.63,9.3 6.85,10.4 23.41,27.79 23.41,70.37"/>
  <path class="fil3" d="M471.52 855.76c10.89,-58.32 77.28,-65.94 106.63,-88.17 30.85,7.28 121.69,-90.24 143.8,-120.76 68.26,-94.23 316.35,-149.37 412.11,-81.86 29.68,20.93 149.29,22.27 187.34,-18.41 27.31,-29.2 152.95,-36.04 201.28,6.66 61.56,54.39 109.01,-30.87 194.48,-30.87 108.24,0 120.93,21.66 222.1,64.53 20.45,8.67 97.74,171.28 98.11,199.33 0.45,34.01 0.96,86.89 39.98,98.77 3.93,9.98 98.55,46.61 58.69,126.83 -8.47,17.05 23.94,33.99 27.65,52.32 4.88,24.11 -34.71,56.47 -11.72,63.62 56.42,17.55 130.57,22.33 163.3,81.52 22.93,41.47 15.4,118.89 18.39,178.13 1.97,39 21.19,63.02 11.79,88.83 -9.04,24.83 -22.81,28.69 -30.05,44.57 -23.99,52.66 25.87,101.61 23,182.37 -0.6,17.02 -14.42,43.54 -17.1,65.07 -4.5,36.17 -7.04,89.46 -168.99,127.63 -6.26,1.48 -12.83,38.65 -35.97,55.65 -15.65,11.5 -40.8,4.49 -50.71,22.1 -8.27,14.7 9.94,26.71 11.17,44.15 1.48,21.12 -13.22,46.7 -17.48,49.42 -48.57,31.12 -32.02,56.38 -126.91,54.5 -56.1,-1.11 -146.65,43.37 -240.82,3.37 -152.24,-64.68 -120.36,1.04 -272.68,42.4 -147.39,40.03 -31.81,35.5 -178.55,-10.67 -55.79,-17.55 -109.79,64.06 -195.26,-11.89 -61.22,-54.4 -8.43,-30.11 -108.09,-6.09 -175.44,42.29 -99.54,-100.07 -211.24,-50.57 -40.11,17.78 -183.29,65.98 -202.73,8.17 -8.4,-25 -72.86,-94.18 -99.7,-97.55 -37.98,-4.77 -143.56,-99.37 -144.06,-137.66 -1.44,-108.66 -89.26,-112.37 -20.69,-284.11 3.19,-8 19.03,6.33 16.13,-49.12 -0.57,-10.96 -17.26,-1.74 -21.56,-31.08 -4.23,-28.86 -144.29,-190 31.07,-258.24 120.54,-46.9 67.84,-60.16 147.58,-148.55 71.64,-79.4 79.19,-45.74 28.77,-164.16 -1.04,-2.45 -7.96,-71.68 10.96,-70.19z"/>
  <g id="_1494249167712">
   <path class="fil1" d="M677.46 742.33c44.51,-83.01 48.89,-104.8 134.09,-151.04 65.15,-35.35 189.17,-57.7 263.31,-41.27 37.38,8.29 -0.38,33.3 115.63,23.66 71.79,-5.96 55.51,47.57 134.84,-7.98 33.69,-23.59 41.77,-25.64 86,-28.95 103.82,-7.75 99.52,47.34 161.91,46.1 52.8,-1.05 59.34,-107.27 257.99,-41.64 111.13,36.72 162.69,110.96 191.66,220.86 13.81,52.39 7.45,50.73 0.77,98.42 -4.57,32.63 92.08,26.82 108.78,83.84 9.66,33 -2.24,63.88 -17.1,92.43 -0.17,0.33 -0.93,1.54 -0.9,2.15 5.13,4.77 64.65,-5.06 41.96,67.64 -3.04,9.73 -9.87,12.33 -12.36,15.68 49.24,19.97 90.94,-3.81 138.3,48.49 41.03,45.31 73.22,137.99 60.39,198.03 -6.72,31.44 -6.95,15.92 0.57,52.48 19.37,94.1 -4.01,63.3 -40.84,130.07 -17.76,32.19 -3.54,27.46 16.93,61.03 63.02,103.38 3.63,213.94 -89.76,270.86 -39.73,24.21 -58.25,-0.31 -70.73,9.84 -11.71,9.52 7.1,75.77 -87.2,93.31 2.2,30.78 16.38,47.54 -10.05,79.44 -64.9,78.31 -179.71,92.87 -272.72,61.6 -28.8,-9.68 -28.92,-14.5 -59.61,-12.61 -46.83,2.88 -82.75,-18.73 -123.03,-40.51 -6.65,-0.88 -105.49,64.99 -120.61,73.06 -51.97,27.76 -131.58,54.31 -189.39,28.18 -53.72,-24.28 -6.07,-72.54 -108.2,-27.26 -59,26.16 -88.59,45.87 -135.57,-14.1 -58.88,-75.15 -25.37,-11.57 -137.06,4.33 -33.59,4.78 -115.71,10.23 -122.83,-37.34l0.02 0.16c-6.19,-14.97 -44.04,-20.51 -62.62,-11.96 -35.06,16.14 -10.52,30.02 -81.22,27.54 -46.95,-1.65 -143.11,-11.43 -149.45,-73.48 -2.57,-25.13 5.88,-26.13 -26.83,-30.24 -39.91,-5.01 -51.18,-62.01 -131.38,-88.24 -29.43,-9.62 -30.29,-6.35 -47.57,-37.4 -39.92,-71.72 -81.14,-245.82 -45.89,-322.38 18.57,-40.33 28.75,-22.62 -11.55,-74.74 -43.78,-56.62 -49.38,-103.91 -38.81,-173.13 17.57,-115.09 96.38,-90.12 183.75,-113.58 18.32,-4.92 30.1,-65.56 40.21,-88.11 17.38,-38.77 32.23,-53.85 63.56,-81.24 11.86,-10.37 -8.6,-82.21 -10.92,-101.67 -7.81,-65.43 7.56,-109.52 72.34,-133.63 21.96,-8.17 136.96,-42.69 138.58,-66.77 -1.56,24.09 -116.51,58.88 -138.45,67.1 -64.49,24.17 -79.66,68.04 -71.73,133.22 2.48,20.36 23.4,91.46 10.79,102.53 -31.11,27.32 -45.84,42.35 -63.04,80.96 -10.42,23.41 -21.41,83.73 -40.99,89.04 -87.1,23.61 -164.98,-1.3 -182.04,112.47 -25.96,173.06 91.69,183.51 61.15,231.31 -49.48,77.46 -10.05,237.29 26.59,317.36 30.51,66.67 30.45,39.18 87.21,68 48.65,24.71 66.25,70.55 98.4,74.49 35.91,4.39 28.34,7.08 31.2,34.35 6.71,64.07 124.87,71.17 170.28,68.28 33.81,-2.15 23.59,-8.1 45.53,-22.56 26.98,-17.78 75.76,-6.25 78.59,12.02 7.05,45.45 102.11,34.93 132.3,28.63 88.99,-18.57 66.76,-76.13 127.3,0.51 44.6,56.47 70.97,36.55 127.03,11.4 107.28,-48.13 66.62,5.35 114.56,26.71 55.29,24.63 132.41,-2.09 181.76,-28.81 26.07,-14.12 101.19,-68.03 118,-73.74 21.35,-7.25 63.74,42.86 128.84,38.34 33.1,-2.3 33.62,2.6 64.29,12.6 87.68,28.57 188.02,13.6 253.95,-52.65 41.67,-41.88 -1.48,-85.12 19.82,-88.24 94.28,-13.78 66.98,-79.76 88.25,-92.13 20.83,-12.12 32.56,13.73 69.99,-8.74 85.17,-51.15 143.42,-148.81 94.41,-246.55 -21.94,-43.77 -45.69,-40.33 -23.15,-80.8 37.29,-66.95 58.83,-34.37 40.63,-124.74 -7.39,-36.7 -7.44,-22.86 -0.35,-55.41 10.73,-49.25 -10.87,-119.93 -36.46,-162.57 -34.17,-56.92 -53.43,-58.4 -112.14,-67.69 -78.36,-12.39 -41.82,-14.3 -36.24,-31.94 22.39,-70.73 -35.89,-53.22 -41.27,-63.82 -3,-5.91 22.19,-38.36 20.74,-78.66 -2.64,-73.63 -105.28,-59.35 -111.24,-96.82 -3.15,-19.82 16.3,-38.62 -0.37,-102.65 -37.77,-145.04 -121.06,-219.52 -271.05,-237.9 -71.54,-8.77 -89.23,5.08 -139,44.18 -46.57,36.59 -76.54,3.11 -121.02,-20.68 -31.21,-16.7 -85.09,-11.68 -118.27,-3.91 -53,12.4 -69.18,65.98 -125.88,40.43 -33.75,-15.21 -35.44,-11.2 -72.22,-8.24 -87.73,7.07 -67.47,-19.29 -96.88,-25.88 -73.93,-16.56 -197.79,5.48 -262.86,40.6 -85.26,46.01 -89.66,67.77 -134.33,150.64zm1390.29 1244.72c-0.16,0.03 -0.32,0.06 -0.48,0.08 0.16,-0.02 0.32,-0.05 0.48,-0.08z"/>
  </g>
  <path class="fil2" d="M677.46 742.33c47.02,-84.66 38.03,-94.99 134.21,-150.84 25.81,-14.99 56.34,-22.29 86.4,-30.43 57.29,-15.52 117.95,-22.52 176.68,-10.5 29.91,6.12 5.74,36.77 115.82,23.81 72.34,-8.52 51.8,56.9 152.83,-20.91 17.87,-13.76 115.12,-26.25 145.1,-5.66 163.43,112.24 77.31,-77.46 319.5,-11.89 125.72,34.04 179.55,105.07 212.92,226.69 32.67,119.05 -56.28,93.05 75.26,144.75 49.08,19.29 43.48,85 16.95,128.06 -11.92,19.35 63.81,-14.17 40.61,70.4 -5.77,21.05 -51.47,15.83 73.15,34.24 76.77,11.34 135.82,171.78 108.27,242.16 -7.09,18.1 29.69,96.33 -1.55,121.33 -0.78,0.62 -55.55,60.25 -40.72,78.57 20.3,25.07 103.67,126.43 -9.84,252.11 -0.72,0.8 -31.21,32.81 -70.23,52.71 -19.09,9.73 -59.74,-15.87 -62.25,13.27 -3.36,39.08 -29.26,77.16 -83.86,81.19 -4.66,0.34 9.27,33.84 2.38,59.77 -4.71,17.71 -30.73,39.35 -39.08,45.75 -67.02,51.33 -158.35,67.83 -257.91,28.29 -55.43,-22.01 -39.45,23.6 -163.54,-45.34 -18.17,-10.09 -133.89,111.37 -251.71,111.37 -149.32,0 -25.46,-108.02 -199.62,-22.56 -108.94,53.46 -108.17,-107.04 -164.63,-51.86 -36.7,35.87 -193.73,49.86 -197.11,-5.8 -0.43,-7.08 -50.54,-41.28 -89.13,3.37 -18.83,21.79 -150.41,5.48 -180.97,-20.27 -50.08,-42.19 3.99,-69.92 -52.75,-73.13 -42.17,-2.38 -40.43,-66.24 -150.21,-93.4 -42.61,-10.54 -128.06,-286.79 -62.97,-369.5 28.94,-36.77 -66.8,-60.24 -65,-176.55 2.58,-167.19 68.24,-140.11 186.8,-167.1 30.06,-6.84 16.63,-103.18 103.9,-169.67 25.28,-19.26 -69.94,-176.35 47.1,-229.98 26.17,-11.99 152.93,-47.79 152.6,-72.48"/>
  <path class="fil4" d="M69.95 253.55c98.63,-2.64 27.8,-38.53 96.09,-61.35 73.17,-24.45 29.01,-99.68 108.79,-81.09 11.33,2.64 26.39,19.46 43.36,25.72 24.35,8.99 15.64,76.3 113.24,-0.62 24.96,-19.67 228.88,-16.15 236.2,27.37 13.42,79.78 -50.33,30.19 -40.62,81.03 6.8,35.64 87.35,14.54 136.76,30.13 57.42,18.12 123.2,11.32 49.66,99.96 -88.88,107.13 -215.59,-45.92 -255.81,109.32 -6.86,26.47 -172.92,150.29 -235.6,4.46 -10.02,-23.31 -77.4,-6.18 -103.4,-63.49 -17.31,-38.15 -72.67,-10.44 -117.15,-3.49 -100.53,15.7 -121.14,-165.54 -31.5,-167.94z"/>
  <g id="_1494249179328">
   <path class="fil1" d="M2033.76 788.22c-38.27,-121.78 -124.58,-226 -253.37,-254.6 -74.41,-16.52 -123.43,-0.91 -186.95,34.98 -49.29,27.85 -139.21,-70.19 -242.83,-16.2 -49.19,25.63 -49.33,38.57 -114.55,34.46 -104.93,-6.61 -193.65,-55.75 -304,-24.5 -3.47,8.58 -37.31,20.55 -68.92,30.69 -37.83,20.6 -82.42,47.63 -98.06,60.5 -0.01,0.01 -27.38,26.91 -38.94,30.68 -19.69,25.78 -41.97,52.8 -92.45,77.65 -36.27,17.86 -58.73,22.55 -95.8,34.16 -63.8,19.99 -89.07,108.99 -56.78,168.9 17.17,31.85 34.09,44.71 9.13,83.37 -32.49,50.33 -95.27,74.8 -96.01,143.23 -0.93,86.29 -198.72,-52.74 -191.24,193.07 0.95,31.32 -1.66,97.69 36.06,107.94 21.96,5.96 25.53,15.75 28.92,39.48 4.21,29.42 -10.33,82.61 -13.94,115.13 -6.9,62.24 3.52,92.03 9.89,152.26 10.61,100.27 50.12,131.65 141.45,174.56 59.09,27.76 87.47,36.99 130.8,90.57 23.5,29.06 27.1,35.47 67.59,39.78 20.99,2.23 149.29,3.1 163.05,-10.59 6.75,-6.71 6.15,-9.75 16.89,-9.52 -10.73,-0.19 -10.11,2.84 -16.83,9.57 -13.76,13.78 -142.13,13.39 -163.17,11.23 -40.77,-4.18 -44.56,-10.7 -68.34,-39.88 -43.36,-53.19 -71.7,-62.26 -130.67,-89.67 -92.23,-42.88 -132.28,-74.71 -143.42,-175.81 -8.89,-80.6 -19.27,-94.45 -7.03,-180.85 4,-28.22 14.05,-57.84 9.84,-86.29 -3.28,-22.15 -5.95,-30.57 -25.96,-35.9 -33.9,-9.03 -35.45,-49.15 -38.13,-80.33 -8.5,-99.04 -4.3,-185.22 114.91,-196.06 29.02,-2.64 72.49,4.9 72.61,-28.16 0.36,-102.4 144.54,-131.93 96.1,-207.05 -25.57,-39.65 -35.9,-80.58 -18.21,-125.77 19.99,-51.05 41.32,-64.91 88.32,-79.3 176.97,-54.15 151.12,-138.47 258.69,-180.91 8.7,-3.43 85.8,-34.89 111.23,-40.09l1.3 -0.59c-0.14,0.13 -0.27,0.27 -0.39,0.42 1.63,-0.31 3.02,-0.5 4.13,-0.54 71.61,-21.47 134.14,-8.89 224.46,10.58 64.07,13.81 115.87,28.03 174.68,-6.44 51.06,-29.92 80.9,-37.58 140.39,-22.09 34.05,8.87 95.43,42.37 123.99,26.4 64.14,-35.88 113.61,-51.44 188.5,-34.49 128.96,29.18 215.14,133.78 253.07,256zm-1202.48 -185.12c-15.85,6.63 -30.06,12.9 -39.5,17.6 -9.4,5.97 -20.19,13.59 -30.2,21.7 -7.86,7.36 -14.55,15.03 -20.86,22.92 2.19,-1.89 3.91,-3.42 4.64,-4.03 36.26,-30.84 55.97,-39.38 91.52,-59.95 -1.93,0.61 -3.8,1.19 -5.6,1.76z"/>
  </g>
  <path class="fil2" d="M2033.76 788.22c-14.31,-50.36 -43.47,-113.98 -93.87,-164.01 -86.94,-86.3 -222.3,-138.31 -347.07,-56.56 -46.43,30.42 -151.65,-84.57 -263.96,-3.83 -106.52,76.57 -287.83,-82.77 -465.07,25.07 -21.43,13.04 -39.31,23.55 -54.08,31.9 -9.41,5.32 -20.35,10 -29.25,16.43 -24.79,17.89 -44.56,38.78 -54.15,43.63 -6.99,3.53 10.66,-24.14 39.05,-47.26 25.34,-20.64 60.23,-36.7 78.46,-38.82 12,-1.4 81.74,-30.81 84.18,-32.95 2.31,-2.03 -60.86,22.62 -113.71,42.12 -110.14,40.64 -67.48,130.82 -277.86,186.79 -51.76,13.77 -108.85,109.74 -49.32,191.81 53.53,73.79 -104.31,121.47 -96.22,209.28 6.78,73.51 -193.58,-42.17 -190.72,174.26 2.77,209.16 61.41,67.32 67.63,185.47 0.07,1.32 -26.17,122.58 -16.14,168.78 25.67,118.27 -18.03,179.51 170.38,262.1 199.58,87.49 32.39,143.38 331.8,117.28 17.95,-1.56 13.47,-16.76 29.88,-15.47"/>
  <g id="_1494249184176">
   <path class="fil1" d="M1792.55 2121.2c42.12,0.32 74.98,4.38 116.06,-6.71 46.76,-12.62 95.36,-3.72 130.47,-36.93l12.18 -12.76c-24.41,28.72 -29.4,32.87 -66.11,43.04 -82.8,22.93 -104.68,19.12 -192.6,13.36z"/>
  </g>
  <path class="fil2" d="M1792.55 2121.2c36.77,0 81.36,7.71 117.36,-2.18 28.18,-7.74 88.03,-10.39 116.71,-29.47 9.59,-6.38 16.42,-16.42 24.63,-24.75"/>
  <g id="_1494249187056">
   <path class="fil1" d="M200.36 1429.33c5.36,80 74.57,25.39 54.1,174.67 -5.28,38.53 -26.49,108.66 -25.22,137.66 3.11,70.51 63.07,189.11 139.31,202.33 39.63,6.87 58.18,33.6 72.9,68.03 9.81,22.94 46.62,-15.94 56.15,26.02 15.44,68.01 130.48,104.96 183.86,68.61 67.66,-46.08 107.3,21.45 184.98,26.92l27.55 0.17 -27.55 0.17c-76.93,-4.45 -118.17,-70.59 -182.98,-24.93 -35.99,25.35 -86.03,17.53 -124.81,0.91 -91.24,-39.12 -50.18,-87.98 -86.5,-83.83 -37.54,4.3 -31.31,2.07 -45.13,-24.29 -20.96,-39.96 -43.29,-37.01 -75.55,-48.89 -68.28,-25.15 -125.39,-141.94 -127.16,-211.1 -0.77,-30.09 21.58,-98.9 27.56,-138.19 22.53,-147.82 -47.14,-94.03 -51.52,-174.26zm693.65 704.41l0 0 0.02 0z"/>
  </g>
  <path class="fil2" d="M200.36 1429.33c-1.68,88.41 105.6,0.28 29.43,281.19 -20.07,74 60.59,231.15 138.11,240.01 27.11,3.1 58.02,29.12 68.27,60.59 10.3,31.65 52.69,-10.14 57.8,27.36 9.25,67.88 142.7,108.39 188.5,69.33 56.43,-48.13 119.92,25.93 183.98,25.93 9.19,0 18.38,0 27.57,0"/>
  <g id="_1494249189840">
   <path class="fil1" d="M1024.86 2104.28c9.96,18.3 18.61,38.81 26.69,60.43 -1.91,-9.28 -3.08,-17.51 -4.3,-26.44 2.2,13.13 5.01,25.51 8.31,37.38 5.43,15.1 10.65,30.64 15.9,46.26 14.1,34.9 31.58,67.9 48.63,106.76 36.93,84.17 29.95,99.56 24.36,130.39 0.26,2.79 0.52,5.59 0.79,8.42 1.82,18.91 14.56,109.37 1.18,113.63 -13,4.14 -12.09,-24.35 -12.36,-27.74 -3.85,-48.81 -3.33,-55.2 2.96,-91.12 -2.59,-42.33 -4.1,-80.7 -22.95,-118.96 -18.54,-37.63 -32.19,-81.74 -45.88,-124.9 -4.23,-10.63 -7.91,-20.79 -10.73,-30.31 -1.56,-5.26 -2.85,-10.06 -3.94,-14.54 -8.57,-24.89 -17.78,-48.51 -28.67,-69.27zm53.88 139.23c11.64,34.19 23.93,68.01 39.4,97.75 14.5,27.9 19.81,55.7 23.14,85.2 -0.87,-53.68 -36.42,-123.15 -62.54,-182.95zm-31.49 -105.24c-0.73,-5.35 -1.49,-10.94 -2.44,-17.16 0.16,1.48 0.35,3.09 0.58,4.85 0.56,4.18 1.18,8.28 1.86,12.32zm-2.44 -17.16c-0.38,-2.47 -0.79,-5.03 -1.24,-7.72 -0.91,-5.41 -1.81,-8 -3.8,-9.73 4.28,3.05 3.91,6.95 5.04,17.45zm-5.04 -17.45c-1.51,-1.31 -3.63,-2.12 -6.85,-3.28 3.1,1.17 5.28,2.17 6.85,3.28zm-6.85 -3.28c-0.92,-0.33 -1.94,-0.7 -3.05,-1.11 1.11,0.39 2.12,0.75 3.05,1.11zm105.87 470.64c-0.19,0.37 -0.33,0.76 -0.4,1.17 0.14,-0.28 0.27,-0.68 0.4,-1.17z"/>
  </g>
  <path class="fil2" d="M1024.86 2104.28c18.28,23.23 63.65,192.5 97.76,250.03 22.35,37.69 30.66,332.86 14.83,173.61 -8.28,-83.26 26.86,-77.93 -6.66,-166.74 -33.09,-87.68 -75.34,-146.43 -85.66,-235.21 -2.52,-21.7 -0.63,-21.65 -15.26,-26.72"/>
  <g id="_1494249190464">
   <path class="fil1" d="M12.51 329.95c-0.68,-32.33 -5.42,-71.68 34.29,-74.85 29.82,-2.38 65.23,-0 85.48,-27.51 7.62,-10.35 -7.7,-29.64 48.89,-43.56 52.55,-12.93 8.51,-82.89 84,-79.34 72.62,3.42 46.71,80.58 126.46,55.08 64.24,-20.54 94.08,-53.99 172.45,-41.89 42.93,6.63 113.3,24.15 108.21,80.7 -2.15,23.86 -107.52,63.84 93.79,71.23 38.06,1.4 84.65,4.67 79.09,56.65 -7.02,65.6 -67.81,105.24 -133.3,90.98 -42.1,-9.17 -59.78,-30.19 -103.27,9.83 -39.17,36.04 -18.46,48.13 -86.75,89.74 -54.34,33.11 -140.97,62.24 -177.54,-10.42 -23.84,-47.36 9.36,-16.39 -58.87,-26.01 -45.61,-6.43 -65.8,-44.42 -81.69,-82.43 -79.89,34.44 -193.76,56.2 -198.81,-64.54 -0.25,-6.06 1.95,-7.57 6.42,-11.32 -4.44,3.77 -6.62,5.28 -6.33,11.32 4.19,85.87 60.42,101.43 136.59,83.6 10.01,-2.34 63.54,-20.84 63.67,-20.56 22.58,47.89 39.6,82.42 99.47,81.98 45.53,-0.34 23.89,-10.54 42.86,26.32 32.18,62.55 102.96,44.44 153.82,17.33 86.82,-46.27 67.22,-78.26 116.15,-111.61 41.39,-28.21 57.51,-9.59 96.05,-1.82 58.92,11.87 114.72,-23.9 118.75,-83.27 2.77,-40.86 -38.23,-42.28 -66.85,-44.14 -214.96,-13.97 -103.38,-66.01 -101.26,-83.33 6.26,-51.14 -63.85,-67.93 -101.36,-74.16 -76.02,-12.63 -106.97,20.49 -169.88,39.9 -82.82,25.56 -58,-52.32 -128.01,-56.21 -73.06,-4.06 -29.24,65.36 -83.43,78.24 -55.85,13.27 -40.37,32 -48.24,42.52 -20.71,27.69 -56.27,25.17 -86.52,27.36 -39.34,2.85 -34.79,42.17 -34.34,74.19z"/>
  </g>
  <path class="fil2" d="M12.51 329.95c-6.31,-126.59 58,-38.46 119.49,-100.98 4.99,-5.07 0.97,-12.08 6.1,-19.33 27.88,-39.43 63.01,-7.33 73.76,-57.21 5.53,-25.67 6.35,-38.13 34.95,-44.62 22.32,-5.07 54.25,-0.83 81.08,39.53 43.05,64.77 125.64,-47.74 235.64,-26.41 38.63,7.49 107.97,19.53 104.79,77.43 -1.09,19.72 -118.91,69.78 118.78,78.19 48.43,1.71 62.9,36.98 43.54,79.75 -19.05,42.09 -67.44,79.42 -145.85,48.26 -47.26,-18.78 -89.79,22.54 -109.38,62.12 -17.34,35.03 -198.94,158.62 -238.4,15.27 -4.24,-15.42 -88.39,36.15 -132.62,-84.95 -1.02,-0.2 -195.64,92.47 -199.36,-63.38 -0.14,-5.75 1.47,-7.42 6.37,-11.32"/>
  <g id="_1494249193680">
   <path class="fil1" d="M226.16 117.46c-11.34,26.91 -13.95,29.95 -19.61,56.26 -3.26,15.16 -31.27,7.69 -55.43,27.27 -10.09,8.17 -17.21,39.7 -18.87,40.33 -51.63,19.48 -126.18,-10.55 -123.59,90.27 2.9,112.81 106.32,88.89 183.03,79.49 34.51,-4.23 26.35,42.6 86.81,63.45 53.34,18.4 49.3,-16.3 60.74,23.36 3.32,11.5 10.6,18.04 19.39,23.63 -1.17,-0.59 -2.42,-1.21 -3.74,-1.85 -22.63,-10.94 -17.52,-36.21 -22.52,-36.25 -75.38,-0.68 -80.91,-14.99 -130.95,-66.96 -2.25,-0.41 -6.83,0.29 -8.87,0.6 -83.19,12.69 -194.46,42.23 -192.51,-85.45 1.48,-97.02 62.26,-79.19 130.33,-93.29 3.03,-10.97 10.16,-32.15 19.26,-39.18 24.31,-18.78 52.7,-11.91 55.84,-25.59 5.91,-25.78 9.16,-30.03 20.71,-56.09zm132.46 404.06c5.38,3.42 11.31,6.48 17.25,10.1 14.59,8.89 15.85,8.94 28.27,12.77 -26.78,-8.8 -24.41,-12.17 -45.53,-22.87zm45.53 22.87c2.2,0.68 4.75,1.47 7.79,2.46 -2.85,-0.87 -5.43,-1.69 -7.79,-2.46z"/>
  </g>
  <path class="fil2" d="M226.16 117.46c-44.76,94.23 12.94,39.71 -74,81.44 -9.52,4.57 -20.23,36.42 -20.49,40.84 -45.91,16.49 -139.65,-16.74 -125.99,114.61 12.03,115.69 187.17,52.12 197.33,59.72 23,17.19 40.76,72.94 129.28,68.31 6.14,-0.32 2.55,30.06 22.76,36.73 9.11,3.01 26.93,21.91 56.88,27.74"/>
  <path class="fil4" d="M1721.65 233.81c-57.88,-46.7 -103.77,-100.37 -7.23,-148.38 61.8,-30.73 142.18,47.99 189.52,-24.71 36.38,-55.87 228.34,-81.68 286.85,-19.22 63.73,68.02 133.73,-7.9 184.43,-11.43 68.55,-4.77 186.47,78.02 93.59,187.49 -36.89,43.48 145.51,93 79.92,200.17 -53.46,87.36 -223.37,-37.18 -290.14,-32.53 -80.1,5.57 -57.05,0.88 -126.01,27.12 -73.44,27.95 -59.84,-158.62 -206.33,-137.85 -41.92,5.94 -42.26,37.39 -125.88,0.18 -24.78,-11.03 -59.15,-25.07 -78.71,-40.85z"/>
  <g id="_1494249195792">
   <path class="fil1" d="M1716.96 254.07c-41.05,-31.86 -84.91,-77.86 -46.91,-134.75 46.31,-69.33 148.31,-6.42 216.79,-40.25 44.57,-22.02 63,-52.55 120.64,-66.96 37.88,-9.47 120.63,-22.2 150.91,2.32 34.93,28.29 30.72,39.65 82.55,52.06 57.1,13.67 118.87,-57.95 206.31,-14.74 66.49,32.86 73.53,116.3 32.76,179.27 -24.23,37.41 89.04,23.64 73.98,157.43 -10.91,96.89 -97.19,61.97 -156.33,42.28 -34.01,-11.32 -41.42,-14.43 -70.67,-32.46 -27.87,-17.18 -64.38,-12.1 -96.78,-9.57 -54.92,4.28 -52.15,16.34 -91.13,22.84 -44.34,7.4 -102.75,-40.46 -110.95,-81.78 -7.18,-36.17 -12.45,-41.12 -56,-44.23 -45.4,-3.24 -87.9,3.31 -132.99,6.52 -17.21,1.23 -40.39,-4.94 -63.23,-13.05 57.43,17.82 55.16,11.51 119.05,6.65 178.98,-13.6 107.49,26.69 151.23,75.98 29.28,33 62.97,57.49 109.9,42.01 40.44,-13.34 25.82,-14.94 74.07,-19.11 34.22,-2.96 70.74,-8.08 99.81,9.43 29.04,17.49 36.15,20.37 69.86,31.19 42.43,13.62 126.95,49.61 143.55,-20.75 12.47,-52.85 -2.26,-99.09 -44.51,-128.8 -39.4,-27.71 -44.08,-22.96 -21.74,-64.18 30.47,-56.24 21.92,-123.22 -34.09,-152.01 -83.55,-42.95 -144.05,27.84 -203.93,12.83 -52.79,-13.23 -48.62,-24.67 -83.93,-53.88 -28.58,-23.64 -111.1,-11.44 -147.26,-2.69 -56.36,13.63 -75.97,44.32 -119.99,65.67 -69.86,33.88 -170.8,-29.82 -217.04,38.5 -38.11,56.31 5.58,102.39 46.08,134.24zm58.95 24.92c-20.18,-7.16 -40.09,-15.85 -55.4,-22.29 15.5,6.63 33.82,15.48 48.09,20 2.54,0.81 4.97,1.57 7.31,2.29zm-55.4 -22.29c-2.05,-0.86 -4.02,-1.69 -5.9,-2.46 1.91,0.77 3.88,1.6 5.9,2.46z"/>
  </g>
  <path class="fil2" d="M1716.96 254.07c-40.49,-29.33 -83.79,-76.92 -46.49,-134.5 15.85,-24.47 49.54,-36.2 84.95,-34.46 31.45,1.54 72.94,10.61 109.7,3.42 15.66,-3.06 29.44,-12.16 42.88,-21.01 34.27,-22.57 65.4,-47.21 99.7,-53.63 202.05,-37.84 118.07,26.03 232.32,55.47 55.05,14.18 90.9,-41 175.85,-23.76 86.31,17.52 106.67,111.9 59.02,182.13 -28.94,42.65 76,26.35 76,140.57 0,115.91 -82.06,82.36 -168.25,54.37 -84.15,-27.33 -29.59,-48.39 -177.99,-33.7 -42.63,4.22 -79.46,60.3 -159.44,-26.42 -42.38,-45.95 30.3,-88.86 -150.26,-76.3 -85.45,5.95 -44.03,12.43 -126.41,-9.36 -8.39,-2.22 -35.73,-15.8 -53.93,-22.64"/>
  <g id="_1494249139824">
   <path class="fil1" d="M2167.78 28.3c-82.23,-35.41 -130.96,-41.63 -212.33,15.26 -77.93,54.48 -104.32,67.5 -192.37,41.8 -76.22,-22.25 -174.9,117.55 7.21,187.28 76.24,29.2 115.44,10.74 190,8.77 41.47,-1.1 83.59,10.31 96.71,52.68 15.35,49.61 22.68,81.59 85.74,75.46 21.98,-2.14 33.42,-8.51 53.64,-10.96 15.27,-1.85 30.5,-3.63 45.78,-5.22 -15.28,1.76 -30.49,3.72 -45.76,5.73 -26.96,3.55 -40.57,13.47 -71.6,12.39 -89.75,-3.13 -35.77,-96.28 -120.26,-121.36 -53.44,-15.86 -133.05,18.58 -215.08,-2.44 -221.46,-56.77 -117.62,-237.23 -24.04,-207.93 86.32,27.03 111.16,14.27 188.57,-38.4 82.58,-56.19 131.47,-49.64 213.79,-13.06z"/>
  </g>
  <path class="fil2" d="M2167.78 28.3c-219.18,-102.94 -214.46,122.61 -403.53,54.26 -70.96,-25.65 -193.07,119.29 4.29,194.11 120.23,45.58 210.57,-31.34 276.27,36.04 26.23,26.9 1.83,132.13 143.83,87.13 0.27,-0.08 48.4,-6.11 53.53,-6.47"/>
 </g>
</svg>
