<?xml version="1.0" encoding="utf-8"?>
<!-- Generator: Adobe Illustrator 16.0.0, SVG Export Plug-In . SVG Version: 6.00 Build 0)  -->
<!DOCTYPE svg PUBLIC "-//W3C//DTD SVG 1.1//EN" "http://www.w3.org/Graphics/SVG/1.1/DTD/svg11.dtd">
<svg version="1.1" id="Слой_1" xmlns="http://www.w3.org/2000/svg" xmlns:xlink="http://www.w3.org/1999/xlink" x="0px" y="0px"
	 width="512px" height="512px" viewBox="0 0 512 512" enable-background="new 0 0 512 512" xml:space="preserve">
<g id="computer_protection_1_">
	<rect x="12" y="64" fill="#A0D468" width="446" height="273"/>
	<path fill="#AC92EB" d="M394.406,154l-46.156-26.328l-67.438,34.906c0,0-74.539,17.75-76.906,17.75l9.461,75.734l28.398,69.797
		l33.141,52.656l75.906,69.813l12.625-13.609l63.5-66.25l66.25-104.125l7.109-84.016L394.406,154z"/>
	<polygon fill="#E6E9ED" points="287.344,382.016 12,382.016 12,337 252.336,337 	"/>
	<polygon fill="#CCD1D9" points="334,448.328 149.672,448.328 149.672,389.344 294,389.344 	"/>
	<g>
		<path d="M223.992,362.656c0,5.906,4.781,10.688,10.672,10.688s10.664-4.781,10.664-10.688c0-5.875-4.773-10.656-10.664-10.656
			S223.992,356.781,223.992,362.656z"/>
		<path d="M511.938,178.938c0-3.406-2.781-6.219-6.188-6.219c-8.688-0.344-21.438-1.266-36.422-3.719V64
			c0-5.891-4.766-10.656-10.672-10.656H10.664C4.773,53.344,0,58.109,0,64v320c0,5.891,4.773,10.656,10.664,10.656h133.352
			l-9.07,42.688h-4.539c-5.891,0-10.664,4.766-10.664,10.656s4.773,10.656,10.664,10.656h93.586h128.492l-0.016-0.031
			c1.063-0.078,2.094-0.406,3-1.031l1-0.656C429.031,406.406,507.594,307.406,512,180.031L511.938,178.938z M448,74.656v90
			c-29.656-7.188-63.734-20.625-91.781-45.625l-1.016-0.563l0.047-0.188c-0.984-0.594-2.125-0.938-3.281-0.938
			c-1.484,0-2.969,0.594-4.125,1.625c-50.844,45.344-121.477,52.688-149.469,53.75c-3.539,0-6.297,2.813-6.32,6.219l-0.063,1.594
			c2.047,56.156,18.484,106.781,42.445,150.125H21.328v-256H448z M21.328,352h213.336h12.516c4.734,7.359,9.68,14.469,14.781,21.344
			h-27.297H21.328V352z M156.75,437.344l9.07-42.688h113.242c13.75,16,28.313,30.281,43,42.688h-98.07H156.75z M352,433.875
			c-34.344-25.5-65.75-59.641-89.203-97.063c-14.555-23.25-26.109-47.734-34.344-72.813c-7.609-23.156-12.422-46.938-14.359-70.906
			c15.445-1.359,34.992-4.219,56.148-10.094c31.633-8.781,59.07-22.125,81.758-39.734c22.688,17.625,50.125,30.984,81.781,39.75
			c21.125,5.844,40.656,8.703,56.094,10.063C481.156,301.516,415.188,386.922,352,433.875z"/>
		<path d="M352.094,202.656c-5.875,0-10.656,4.781-10.656,10.688l0,0v149.313l0,0c0,5.906,4.781,10.688,10.656,10.688
			c5.906,0,10.672-4.781,10.672-10.688l0,0l0,0V213.344l0,0C362.766,207.438,358,202.656,352.094,202.656z"/>
	</g>
</g>
</svg>
