<?xml version="1.0" encoding="UTF-8"?>
<!DOCTYPE svg PUBLIC "-//W3C//DTD SVG 1.1//EN" "http://www.w3.org/Graphics/SVG/1.1/DTD/svg11.dtd">
<!-- Creator: CorelDRAW 2020 (64-Bit) -->
<svg xmlns="http://www.w3.org/2000/svg" xml:space="preserve" width="0.408516in" height="0.408461in" version="1.1" style="shape-rendering:geometricPrecision; text-rendering:geometricPrecision; image-rendering:optimizeQuality; fill-rule:evenodd; clip-rule:evenodd"
viewBox="0 0 17.15 17.15"
 xmlns:xlink="http://www.w3.org/1999/xlink"
 xmlns:xodm="http://www.corel.com/coreldraw/odm/2003">
 <defs>
  <style type="text/css">
   <![CDATA[
    .fil5 {fill:#D2EEFB;fill-rule:nonzero}
    .fil0 {fill:#3888BF;fill-rule:nonzero}
    .fil1 {fill:#205D8B;fill-rule:nonzero}
    .fil2 {fill:#3FBCBC;fill-rule:nonzero}
    .fil3 {fill:#9A59B6;fill-rule:nonzero}
    .fil4 {fill:#E67264;fill-rule:nonzero}
   ]]>
  </style>
 </defs>
 <g id="__x0023_Layer_x0020_1">
  <metadata id="CorelCorpID_0Corel-Layer"/>
  <path class="fil0" d="M17.15 8.57c0,4.74 -3.84,8.57 -8.57,8.57 -4.74,0 -8.57,-3.84 -8.57,-8.57 0,-4.73 3.84,-8.57 8.57,-8.57 4.73,0 8.57,3.84 8.57,8.57z"/>
  <path class="fil1" d="M17.14 8.85l-4.71 -4.48c-0.54,-0.53 -1.19,-0.96 -1.91,-1.24l-1.6 -1.52c-0.12,-0.14 -0.3,-0.24 -0.53,-0.25 -0.48,-0.02 -0.75,0.51 -0.67,0.93 -0.07,-0.06 -0.05,0.2 -0.05,0.23 0.01,0.1 0.04,0.22 0.15,0.26 0.01,0.03 0.03,0.06 0.06,0.08 0.01,0.02 0.01,0.03 0.02,0.05 0.03,0.08 0.1,0.16 0.12,0.24 0.01,0.08 0.01,0.21 -0.02,0.31l-0.64 -0.62c-2.71,0.51 -4.74,2.93 -4.67,5.78 0.02,0.87 0.24,1.68 0.6,2.41l0.3 0.26c-0.05,0.03 -0.11,0.06 -0.16,0.1 -0.1,0.06 -0.2,0.04 -0.3,0.07 -0.09,0.02 -0.17,0.07 -0.24,0.13 -0.29,0.25 -0.29,0.68 -0.28,1.03l4.69 4.46c0.41,0.06 0.84,0.09 1.27,0.09 4.64,0 8.42,-3.69 8.57,-8.3z"/>
  <g id="_1494261520640">
   <path class="fil2" d="M3.64 10.8l0 -0c0,-0.01 0,-0.02 0,-0.04 0,-0.01 0.01,-0.03 0.01,-0.05 -0.04,-0.06 -0.07,-0.13 -0.09,-0.19 -0.01,-0.01 -0.01,-0.01 -0.02,-0.02l-0.01 -0.01c-0.05,-0.05 -0.15,-0.14 -0.19,-0.29 0,-0 -0.09,-0.35 0,-0.59 -0,-0.28 0.09,-0.57 0.27,-0.79 0.08,-0.1 0.17,-0.18 0.27,-0.24 0,0 0,-0 0,-0 -0.04,-1.77 0.93,-3.33 2.4,-4.12 0.04,-0.18 0.11,-0.35 0.24,-0.5 0.11,-0.14 0.26,-0.25 0.42,-0.31 0.1,-0.04 0.19,-0.05 0.25,-0.05 0.01,0 0.03,-0 0.04,-0.01 0.07,-0.03 0.14,-0.07 0.21,-0.12 0.07,-0.04 0.13,-0.08 0.19,-0.13 0,-0.01 0,-0.02 0.01,-0.04 0,-0.01 0,-0.03 0.01,-0.05 -0.04,-0.06 -0.07,-0.13 -0.09,-0.19 -0.01,-0.01 -0.01,-0.01 -0.02,-0.02l-0.01 -0.01c-0.04,-0.04 -0.11,-0.1 -0.15,-0.19 -2.71,0.51 -4.74,2.93 -4.67,5.78 0.02,0.87 0.24,1.68 0.6,2.41 0.05,-0.03 0.1,-0.06 0.16,-0.1 0.07,-0.04 0.13,-0.08 0.19,-0.12z"/>
   <path class="fil3" d="M10.58 12.77l-0.01 -0.3c-0.61,0.33 -1.3,0.52 -2.04,0.54 -0.63,0.02 -1.22,-0.09 -1.77,-0.31l0.01 0.17 -0.38 0.01 -1.58 0.04c1.02,0.83 2.34,1.32 3.76,1.28 1.42,-0.04 2.71,-0.59 3.69,-1.47l-1.29 0.03 -0.38 0.01z"/>
   <path class="fil4" d="M9.3 3.03c-0.01,0.05 -0.03,0.1 -0.06,0.16 -0.01,0.02 -0.01,0.02 0,0.1 0,0.01 0,0.01 0,0.02 0.02,0.02 0.05,0.03 0.07,0.05 0.11,0.07 0.23,0.13 0.34,0.18 0.01,0 0.03,0 0.04,0 0.07,0.01 0.16,0.01 0.27,0.05 0.14,0.05 0.26,0.13 0.37,0.23 0,0 0,0 0,0 0.06,0.05 0.11,0.11 0.14,0.17 0.11,0.17 0.17,0.36 0.21,0.55 1.3,0.75 2.2,2.13 2.27,3.73 0.5,0.11 0.84,0.53 0.87,1.06 0.07,0.13 0.07,0.29 0.05,0.44 -0.01,0.17 -0.08,0.38 -0.24,0.51 -0.01,0.04 -0.03,0.1 -0.06,0.16 -0.01,0.02 -0.01,0.02 0,0.1 0,0.01 0,0.01 0,0.02 0.02,0.01 0.05,0.03 0.07,0.04 0.02,0.01 0.04,0.02 0.06,0.03 0.29,-0.71 0.44,-1.49 0.42,-2.31 -0.07,-2.76 -2.09,-5.01 -4.7,-5.49 -0.04,0.08 -0.09,0.15 -0.16,0.2z"/>
  </g>
  <g id="_1494261521552">
   <path class="fil5" d="M10.23 4.29c-0.06,-0.12 -0.15,-0.24 -0.28,-0.31 -0.14,-0.08 -0.29,-0.04 -0.43,-0.1 -0.15,-0.07 -0.3,-0.14 -0.44,-0.23 -0.14,-0.09 -0.19,-0.14 -0.21,-0.3 -0.03,-0.15 0.01,-0.25 0.05,-0.39 0.02,-0.05 0.02,-0.11 0.05,-0.16 0.03,-0.05 0.09,-0.06 0.12,-0.11 0.06,-0.07 0.06,-0.17 0.07,-0.25 0,-0.03 0.01,-0.26 -0.06,-0.19 0.04,-0.45 -0.23,-0.88 -0.71,-0.9 -0.48,-0.02 -0.75,0.51 -0.67,0.93 -0.07,-0.06 -0.05,0.2 -0.05,0.23 0.01,0.1 0.04,0.22 0.15,0.26 0.05,0.02 0.06,0.07 0.08,0.12 0.03,0.08 0.1,0.16 0.12,0.24 0.02,0.11 0,0.32 -0.06,0.4 -0.05,0.07 -0.15,0.12 -0.22,0.16 -0.09,0.06 -0.18,0.12 -0.27,0.17 -0.18,0.1 -0.39,0.07 -0.56,0.2 -0.31,0.24 -0.32,0.69 -0.31,1.05 1.26,-0.03 2.51,-0.06 3.77,-0.09 -0.01,-0.25 -0.02,-0.52 -0.13,-0.75 -0.04,-0.08 0.11,0.23 0,0z"/>
   <path class="fil5" d="M14.43 11.32c-0.09,-0.09 -0.22,-0.16 -0.35,-0.17 -0.16,-0.01 -0.28,-0.06 -0.43,-0.14 -0.12,-0.06 -0.26,-0.12 -0.36,-0.22 -0.08,-0.07 -0.09,-0.25 -0.08,-0.35 0,-0.11 0.06,-0.21 0.09,-0.32 0.03,-0.11 0.13,-0.13 0.18,-0.23 0.03,-0.07 0.03,-0.15 0.04,-0.22 0,-0.02 0.01,-0.24 -0.06,-0.17 0.04,-0.47 -0.28,-0.93 -0.79,-0.89 -0.44,0.03 -0.68,0.53 -0.6,0.93 -0.07,-0.06 -0.05,0.21 -0.05,0.23 0.01,0.09 0.05,0.27 0.17,0.27 0.02,0 0.06,0.14 0.07,0.16 0.03,0.08 0.1,0.15 0.11,0.23 0.01,0.11 0,0.32 -0.08,0.4 -0.13,0.14 -0.34,0.24 -0.51,0.33 -0.1,0.06 -0.2,0.05 -0.31,0.08 -0.09,0.02 -0.17,0.07 -0.24,0.13 -0.29,0.25 -0.29,0.68 -0.28,1.03 1.26,-0.03 2.51,-0.06 3.76,-0.1 -0.01,-0.33 -0.03,-0.72 -0.28,-0.97 -0.06,-0.06 0.25,0.24 0,0z"/>
   <path class="fil5" d="M6.1 11.53c-0.09,-0.1 -0.22,-0.16 -0.35,-0.17 -0.15,-0.01 -0.26,-0.06 -0.4,-0.13 -0.12,-0.07 -0.28,-0.14 -0.38,-0.23 -0.08,-0.07 -0.09,-0.25 -0.08,-0.35 0,-0.11 0.06,-0.21 0.09,-0.32 0.03,-0.11 0.13,-0.13 0.18,-0.23 0.03,-0.07 0.03,-0.15 0.04,-0.22 0,-0.02 0.01,-0.24 -0.06,-0.17 0.04,-0.39 -0.16,-0.79 -0.57,-0.88 -0.54,-0.12 -0.91,0.42 -0.82,0.91 -0.07,-0.06 -0.05,0.21 -0.05,0.23 0.01,0.09 0.05,0.27 0.17,0.27 0.02,0 0.06,0.15 0.07,0.16 0.03,0.08 0.1,0.15 0.11,0.23 0.01,0.12 0,0.34 -0.1,0.42 -0.16,0.12 -0.33,0.21 -0.49,0.31 -0.1,0.06 -0.2,0.04 -0.3,0.07 -0.09,0.02 -0.17,0.07 -0.24,0.13 -0.29,0.25 -0.29,0.68 -0.28,1.03 1.26,-0.03 2.51,-0.06 3.77,-0.1 -0.01,-0.33 -0.03,-0.72 -0.28,-0.97 -0.06,-0.06 0.25,0.24 0,0z"/>
  </g>
 </g>
</svg>
