<?xml version="1.0" encoding="utf-8"?>
<!-- Generator: Adobe Illustrator 16.0.0, SVG Export Plug-In . SVG Version: 6.00 Build 0)  -->
<!DOCTYPE svg PUBLIC "-//W3C//DTD SVG 1.1//EN" "http://www.w3.org/Graphics/SVG/1.1/DTD/svg11.dtd">
<svg version="1.1" id="Layer_1" xmlns="http://www.w3.org/2000/svg" xmlns:xlink="http://www.w3.org/1999/xlink" x="0px" y="0px"
	 width="512px" height="512px" viewBox="0 0 512 512" enable-background="new 0 0 512 512" xml:space="preserve">
<g id="consultation_1_">
	<polygon fill="#48CFAD" points="504,212 353.344,212 346,316 220,316.828 220,428 386,426 463,454 456,426 504,420 	"/>
	<polygon fill="#5D9CEC" points="15.336,43.328 7.336,315.328 52,320 52.664,370.672 161.336,319.328 348.656,311.328 
		353.344,43.328 	"/>
	<g>
		<path d="M501.344,202.656H362.656v-160C362.656,36.781,357.891,32,352,32H10.664C4.773,32,0,36.781,0,42.656V320
			c0,5.891,4.773,10.656,10.664,10.656h32v64l115.203-64h55.469v96c0,5.906,4.773,10.688,10.664,10.688h170.656L469.344,480v-42.656
			h32c5.875,0,10.656-4.781,10.656-10.688V213.344C512,207.438,507.219,202.656,501.344,202.656z M152.336,309.344l-4.828,2.672
			L64,358.406v-27.75v-21.312H42.664H21.336v-256h320.008v256H157.867H152.336z M490.656,416h-21.312H448v21.344v5.906
			l-42.75-24.438L400.344,416h-5.688H234.664v-85.344H352c5.891,0,10.656-4.766,10.656-10.656v-96h128V416z"/>
		<path d="M181.352,96c-16.711,0-29.984,5.062-39.453,15.062c-14.953,15.781-13.938,37.906-13.883,38.844h0.016
			c0.297,5.625,4.938,10.094,10.633,10.094c5.891,0,10.672-4.781,10.672-10.656c0-0.188-0.023-0.344-0.031-0.531h0.016
			c-0.008-0.125-0.484-14.188,8.164-23.188c5.281-5.5,13.312-8.281,23.867-8.281c12.68,0,21.219,3.062,26.117,9.422
			c3.875,5.016,5.844,12.609,5.867,22.578c0.008,7.156-6.133,16.344-17.297,25.875c-9.727,8.297-19.727,13.812-19.812,13.875
			l-5.555,3.031l-0.016,31.859h0.031V224c0,5.875,4.781,10.656,10.672,10.656s10.664-4.781,10.664-10.656
			c0-0.219-0.016-0.422-0.031-0.625L192,204.547c13.031-8.094,42.711-29.375,42.664-55.234C234.602,114.938,215.672,96,181.352,96z"
			/>
		<path d="M181.336,245.344c-5.891,0-10.672,4.766-10.672,10.656s4.781,10.656,10.672,10.656S192,261.891,192,256
			S187.227,245.344,181.336,245.344z"/>
	</g>
</g>
</svg>
