<?xml version="1.0" encoding="utf-8"?>
<!-- Generator: Adobe Illustrator 16.0.0, SVG Export Plug-In . SVG Version: 6.00 Build 0)  -->
<!DOCTYPE svg PUBLIC "-//W3C//DTD SVG 1.1//EN" "http://www.w3.org/Graphics/SVG/1.1/DTD/svg11.dtd">
<svg version="1.1" id="Layer_1" xmlns="http://www.w3.org/2000/svg" xmlns:xlink="http://www.w3.org/1999/xlink" x="0px" y="0px"
	 width="512px" height="512px" viewBox="0 0 512 512" enable-background="new 0 0 512 512" xml:space="preserve">
<g id="notebook_1_">
	<rect x="69.996" y="13" fill="#656D78" width="60" height="491"/>
	<rect x="123.996" y="13" fill="#965353" width="289" height="491"/>
	<path fill="#ED5564" d="M371.996,255.328c0,52.656-42.688,95.328-95.328,95.328c-52.656,0-95.336-42.672-95.336-95.328
		c0-52.641,42.68-95.328,95.336-95.328C329.309,160,371.996,202.688,371.996,255.328z"/>
	<polygon fill="#EAC6BB" points="309.996,229 280.996,214.5 246.996,234 243.996,246.5 255.996,282 285.496,292.5 313.496,268.5 	
		"/>
	<polygon fill="#FFCE54" points="299.996,292.5 271.996,295.344 243.996,292.5 206.668,318.672 263.332,350.016 317.996,340.016 
		348.668,314.672 	"/>
	<rect x="412.996" y="270.016" fill="#965353" width="50" height="233.984"/>
	<rect x="410.34" y="202.688" fill="#A0D468" width="50" height="63.641"/>
	<rect x="410.34" y="139.047" fill="#FFCE54" width="50" height="63.641"/>
	<rect x="412.996" y="71.703" fill="#FC6E51" width="50" height="63.641"/>
	<rect x="412.996" y="8.062" fill="#ED5564" width="50" height="63.641"/>
	<g>
		<path d="M426.652,0H159.996H138.66h-21.328H63.996v53.344H53.332c-5.891,0-10.672,4.766-10.672,10.656s4.781,10.656,10.672,10.656
			h10.664v42.688H53.332c-5.891,0-10.672,4.766-10.672,10.656s4.781,10.656,10.672,10.656h10.664v42.688H53.332
			c-5.891,0-10.672,4.766-10.672,10.656s4.781,10.656,10.672,10.656h10.664v42.688H53.332c-5.891,0-10.672,4.766-10.672,10.656
			s4.781,10.656,10.672,10.656h10.664v42.688H53.332c-5.891,0-10.672,4.766-10.672,10.656s4.781,10.656,10.672,10.656h10.664v42.688
			H53.332c-5.891,0-10.672,4.766-10.672,10.656s4.781,10.656,10.672,10.656h10.664v42.688H53.332
			c-5.891,0-10.672,4.766-10.672,10.656s4.781,10.656,10.672,10.656h10.664V512h53.336h21.328h21.336h266.656h42.688V0H426.652z
			 M117.332,490.656h-32v-32h10.664c5.891,0,10.664-4.766,10.664-10.656s-4.773-10.656-10.664-10.656H85.332v-42.688h10.664
			c5.891,0,10.664-4.766,10.664-10.656s-4.773-10.656-10.664-10.656H85.332v-42.688h10.664c5.891,0,10.664-4.766,10.664-10.656
			s-4.773-10.656-10.664-10.656H85.332v-42.688h10.664c5.891,0,10.664-4.766,10.664-10.656s-4.773-10.656-10.664-10.656H85.332
			v-42.688h10.664c5.891,0,10.664-4.766,10.664-10.656s-4.773-10.656-10.664-10.656H85.332v-42.688h10.664
			c5.891,0,10.664-4.766,10.664-10.656s-4.773-10.656-10.664-10.656H85.332V74.656h10.664c5.891,0,10.664-4.766,10.664-10.656
			s-4.773-10.656-10.664-10.656H85.332v-32h32V490.656z M447.996,21.344V64h-21.344V21.344H447.996z M426.652,213.344h21.344V256
			h-21.344V213.344z M426.652,192v-42.656h21.344V192H426.652z M426.652,128V85.344h21.344V128H426.652z M138.66,490.656V21.344
			h266.68v469.312H138.66z M426.652,490.656V277.344h21.344v213.312H426.652z"/>
		<path d="M277.34,149.344c-58.922,0-106.68,47.75-106.68,106.656s47.758,106.656,106.68,106.656
			c58.906,0,106.656-47.75,106.656-106.656S336.246,149.344,277.34,149.344z M222.301,321.219c4.836-1.594,8.062-3.125,10.383-4.25
			c0.781-0.375,1.523-0.719,1.914-0.875c12.906-4.906,21.094-9.844,26.086-15.875c5.82,3.938,11.688,6.219,16.656,6.219
			c4.938,0,10.812-2.281,16.641-6.219c4.984,6.031,13.172,10.969,26.109,15.875c0.359,0.156,1.094,0.5,1.891,0.875
			c2.312,1.125,5.547,2.656,10.375,4.25c-15.375,13.016-34.656,20.125-55.016,20.125
			C256.957,341.344,237.676,334.234,222.301,321.219z M291.027,274.156c-5.703,6.953-11.438,10.188-13.688,10.859
			c-2.281-0.672-8-3.906-13.711-10.859c-6.086-7.438-9.578-15.938-9.578-23.375c0-16.031,9.359-26.781,23.289-26.781
			c13.906,0,23.266,10.75,23.266,26.781C300.605,258.219,297.121,266.719,291.027,274.156z M347.715,304.266
			c-1.281-0.797-2.656-1.469-4.156-1.953l-0.594-0.188c-8.578-2.297-11.484-4.5-15.312-5.969
			c-13.547-5.156-17.078-8.875-17.969-10.641c-0.031-0.062-0.062-0.141-0.094-0.203v-0.281c7.203-9.688,12.344-21.75,12.344-34.25
			c0-29-19.969-48.125-44.594-48.125c-24.648,0-44.617,19.125-44.617,48.125c0,12.5,5.141,24.562,12.352,34.25l-0.008,0.281
			c-0.023,0.062-0.047,0.141-0.086,0.203c-0.898,1.766-4.422,5.484-17.984,10.641c-3.82,1.469-6.719,3.672-15.305,5.969
			l-0.594,0.188c-1.484,0.484-2.883,1.156-4.164,1.953c-9.711-14.109-14.938-30.781-14.938-48.266
			c0-22.797,8.875-44.219,24.992-60.344s37.547-25,60.352-25c22.781,0,44.219,8.875,60.328,25s24.984,37.547,24.984,60.344
			C362.652,273.484,357.434,290.156,347.715,304.266z"/>
	</g>
</g>
</svg>
