<?xml version="1.0" encoding="UTF-8"?>
<!DOCTYPE svg PUBLIC "-//W3C//DTD SVG 1.1//EN" "http://www.w3.org/Graphics/SVG/1.1/DTD/svg11.dtd">
<!-- Creator: CorelDRAW 2020 (64-Bit) -->
<svg xmlns="http://www.w3.org/2000/svg" xml:space="preserve" width="0.4085in" height="0.408488in" version="1.1" style="shape-rendering:geometricPrecision; text-rendering:geometricPrecision; image-rendering:optimizeQuality; fill-rule:evenodd; clip-rule:evenodd"
viewBox="0 0 24.77 24.77"
 xmlns:xlink="http://www.w3.org/1999/xlink"
 xmlns:xodm="http://www.corel.com/coreldraw/odm/2003">
 <defs>
  <style type="text/css">
   <![CDATA[
    .fil3 {fill:#2B414F;fill-rule:nonzero}
    .fil1 {fill:#41B6F0;fill-rule:nonzero}
    .fil0 {fill:#97CCF6;fill-rule:nonzero}
    .fil4 {fill:#BC3D24;fill-rule:nonzero}
    .fil2 {fill:#DF5B49;fill-rule:nonzero}
   ]]>
  </style>
 </defs>
 <g id="__x0023_Layer_x0020_1">
  <metadata id="CorelCorpID_0Corel-Layer"/>
  <path class="fil0" d="M24.77 12.39c0,6.84 -5.55,12.38 -12.38,12.38 -6.84,0 -12.39,-5.54 -12.39,-12.38 0,-6.84 5.55,-12.39 12.39,-12.39 6.84,0 12.38,5.54 12.38,12.39z"/>
  <path class="fil1" d="M24.77 12.39c0,6.84 -5.55,12.38 -12.38,12.38 -0.33,0 -0.65,-0.01 -0.97,-0.04l-5.2 -5.2c-0.23,-0.13 -0.39,-0.38 -0.39,-0.67 0,-0.28 0.15,-0.52 0.37,-0.65l-0.31 -0.35c-0.19,-0.07 -0.32,-0.24 -0.32,-0.45 0,-0.27 0.22,-0.48 0.48,-0.48l1.11 0 -1.46 -1.46 -0.31 -1.29 2.62 -3.87 8.74 0 1.66 -3.61c0,-0 0,-0.01 0.01,-0.01 0.01,-0.01 0.01,-0.02 0.01,-0.03 0,-0.01 0.01,-0.01 0.01,-0.02 0,-0.01 0.01,-0.01 0.01,-0.02 0,-0.01 0.01,-0.01 0.02,-0.02 0.01,-0 0.01,-0.01 0.01,-0.01 0.01,-0.01 0.01,-0.02 0.02,-0.02 0,-0.01 0.01,-0.01 0.01,-0.01 0.01,-0.01 0.01,-0.01 0.02,-0.02 0,-0 0.01,-0.01 0.02,-0.01 0,-0.01 0.01,-0.01 0.02,-0.02 0.01,-0 0.01,-0.01 0.02,-0.01 0.01,-0 0.01,-0.01 0.02,-0.01 0.01,-0.01 0.02,-0.01 0.02,-0.01 0.01,-0 0.01,-0.01 0.02,-0.01 0.01,-0.01 0.01,-0.01 0.03,-0.01 0,-0 0.01,-0 0.02,-0.01 0.01,-0 0.02,-0 0.03,-0.01 0.01,-0 0.01,-0 0.02,-0 0.01,-0 0.02,-0.01 0.03,-0.01 0.01,-0 0.01,-0 0.02,-0 0.01,-0 0.02,-0 0.02,-0 0.01,0 0.02,0 0.03,0 0,0 0.01,-0 0.01,-0l1.85 0c0.21,0 0.39,0.13 0.45,0.32l3.42 3.42c0.13,0.73 0.2,1.47 0.2,2.24z"/>
  <polygon class="fil2" points="16.97,10.3 4.45,10.3 5.7,15.47 14.62,15.47 "/>
  <path class="fil3" d="M7.36 18.86c0,0.42 -0.34,0.77 -0.77,0.77 -0.42,0 -0.77,-0.34 -0.77,-0.77 0,-0.42 0.34,-0.76 0.77,-0.76 0.42,0 0.77,0.34 0.77,0.76z"/>
  <path class="fil3" d="M14.03 18.86c0,0.42 -0.34,0.77 -0.77,0.77 -0.42,0 -0.77,-0.34 -0.77,-0.77 0,-0.42 0.34,-0.76 0.77,-0.76 0.42,0 0.77,0.34 0.77,0.76z"/>
  <path class="fil4" d="M20.69 6.41l-1.85 0c-0.01,0 -0.01,0 -0.01,0 -0.01,0 -0.02,0 -0.03,0 -0.01,0 -0.02,0 -0.02,0 -0.01,0 -0.02,0 -0.02,0 -0.01,0 -0.02,0 -0.03,0.01 -0,0 -0.01,0 -0.02,0 -0.01,0 -0.02,0 -0.03,0.01 -0.01,0 -0.01,0 -0.02,0.01 -0.01,0 -0.02,0.01 -0.03,0.01 -0.01,0 -0.01,0 -0.02,0.01 -0.01,0 -0.02,0.01 -0.02,0.01 -0.01,0 -0.01,0.01 -0.02,0.01 -0.01,0 -0.01,0.01 -0.02,0.01 -0.01,0.01 -0.01,0.01 -0.02,0.02 -0.01,0 -0.01,0.01 -0.02,0.01 -0.01,0 -0.01,0.01 -0.02,0.02 -0,0 -0.01,0.01 -0.01,0.01 -0.01,0.01 -0.01,0.02 -0.02,0.02 -0,0 -0.01,0.01 -0.01,0.01 -0,0.01 -0.01,0.01 -0.02,0.02 -0,0.01 -0.01,0.01 -0.01,0.02 -0.01,0.01 -0.01,0.01 -0.01,0.02 -0.01,0.01 -0.01,0.02 -0.01,0.03 -0,0 -0,0.01 -0.01,0.01l-4.69 10.23 -7.67 0c-0.27,0 -0.48,0.22 -0.48,0.48 0,0.27 0.22,0.48 0.48,0.48l7.98 0c0,0 0,0 0,0 0.02,0 0.03,-0 0.04,-0 0,0 0.01,0 0.01,0 0.01,-0 0.02,-0 0.03,-0.01 0,0 0.01,0 0.01,0 0.01,-0 0.03,-0.01 0.04,-0.01 0,-0 0.01,-0 0.01,-0 0.01,-0 0.02,-0.01 0.02,-0.01 0.01,-0 0.01,-0 0.02,-0.01 0.01,-0 0.02,-0.01 0.03,-0.02 0,0 0.01,-0 0.01,-0 0.01,-0.01 0.02,-0.01 0.03,-0.02 0,-0 0.01,-0.01 0.01,-0.01 0.01,-0.01 0.02,-0.01 0.03,-0.02 0,0 0,0 0,0 0.02,-0.02 0.04,-0.04 0.06,-0.06 0,-0 0,-0 0,-0.01 0.01,-0.01 0.02,-0.02 0.02,-0.03 0,-0 0,-0.01 0.01,-0.01 0.01,-0.01 0.01,-0.02 0.02,-0.04 0,-0 0,-0.01 0.01,-0.01 0,-0.01 0.01,-0.01 0.01,-0.02l4.69 -10.24 1.54 0c0.27,0 0.48,-0.21 0.48,-0.48 0,-0.27 -0.22,-0.48 -0.48,-0.48z"/>
 </g>
</svg>
