<?xml version="1.0" encoding="utf-8"?>
<!-- Generator: Adobe Illustrator 16.0.0, SVG Export Plug-In . SVG Version: 6.00 Build 0)  -->
<!DOCTYPE svg PUBLIC "-//W3C//DTD SVG 1.1//EN" "http://www.w3.org/Graphics/SVG/1.1/DTD/svg11.dtd">
<svg version="1.1" id="Layer_1" xmlns="http://www.w3.org/2000/svg" xmlns:xlink="http://www.w3.org/1999/xlink" x="0px" y="0px"
	 width="512px" height="512px" viewBox="0 0 512 512" enable-background="new 0 0 512 512" xml:space="preserve">
<g id="features_1_">
	<rect x="57.853" y="1.971" fill="#656D78" width="394.143" height="498.029"/>
	<rect x="98.995" y="42" fill="#F5F7FA" width="318.001" height="421"/>
	<path fill="#8CC153" d="M141.774,166.25l22.642,22.623l0,0c4.172,4.157,10.922,4.157,15.079,0l0,0l45.25-45.245l0,0
		c4.171-4.176,4.171-10.926,0-15.098c-4.157-4.157-10.907-4.157-15.079,0l-0.015,0.02L171.96,166.25l-15.078-15.063
		c-0.015-0.015-0.015-0.03-0.015-0.03c-4.157-4.157-10.922-4.157-15.093,0C137.618,155.328,137.618,162.093,141.774,166.25
		L141.774,166.25z"/>
	<path fill="#8CC153" d="M141.774,272.902l22.642,22.627l0,0c4.172,4.187,10.922,4.187,15.079,0l0,0l45.25-45.25l0,0l0,0
		c4.171-4.152,4.171-10.907,0-15.078c-4.157-4.172-10.907-4.172-15.079,0c0,0.02-0.015,0.02-0.015,0.02l-37.691,37.682
		l-15.078-15.06c-0.015,0-0.015,0-0.015-0.015c-4.157-4.171-10.922-4.171-15.093,0C137.618,262,137.618,268.745,141.774,272.902
		L141.774,272.902z"/>
	<path fill="#8CC153" d="M141.774,379.598l22.642,22.618l0,0c4.172,4.157,10.922,4.157,15.079,0l0,0l45.25-45.265l0,0l0,0
		c4.171-4.167,4.171-10.922,0-15.078c-4.157-4.167-10.907-4.167-15.079,0h-0.015l-37.691,37.725L156.882,364.5
		c-0.015,0-0.015,0-0.015,0c-4.157-4.156-10.922-4.177-15.093,0C137.618,368.657,137.618,375.402,141.774,379.598L141.774,379.598z"
		/>
	<path d="M266.652,170.657h96c5.902,0,10.686-4.765,10.686-10.657s-4.783-10.657-10.686-10.657h-96
		c-5.877,0-10.657,4.765-10.657,10.657S260.775,170.657,266.652,170.657z"/>
	<path d="M266.652,277.343h96c5.902,0,10.686-4.784,10.686-10.686c0-5.878-4.783-10.657-10.686-10.657h-96
		c-5.877,0-10.657,4.779-10.657,10.657C255.995,272.559,260.775,277.343,266.652,277.343z"/>
	<path d="M266.652,384h96c5.902,0,10.686-4.784,10.686-10.656c0-5.902-4.783-10.687-10.686-10.687h-96
		c-5.877,0-10.657,4.784-10.657,10.687C255.995,379.216,260.775,384,266.652,384z"/>
	<path fill="#FFCE54" d="M176.495,11c1,3,19.5,44.5,23,45s122.001-3,122.001-3l14-38L176.495,11z"/>
	<path d="M447.996,0h-96H159.995h-96c-5.892,0-10.657,4.779-10.657,10.657v490.687c0,5.872,4.765,10.656,10.657,10.656h384.001
		c5.891,0,10.666-4.784,10.666-10.656V10.657C458.662,4.779,453.887,0,447.996,0z M223.995,21.343
		c0,5.878,4.779,10.657,10.657,10.657h42.686c5.873,0,10.658-4.779,10.658-10.657h34.4l-7.117,21.314H196.71l-7.122-21.314H223.995z
		 M181.338,64h149.314l3.559-10.657h71.127v405.314H106.652V53.343h71.123L181.338,64z M437.318,490.657H74.652V21.343h92.451
		L170.652,32H85.338v448h341.314V32h-85.314l3.549-10.657h92.432V490.657z"/>
</g>
</svg>
