<?xml version="1.0" encoding="utf-8"?>
<!-- Generator: Adobe Illustrator 16.0.0, SVG Export Plug-In . SVG Version: 6.00 Build 0)  -->
<!DOCTYPE svg PUBLIC "-//W3C//DTD SVG 1.1//EN" "http://www.w3.org/Graphics/SVG/1.1/DTD/svg11.dtd">
<svg version="1.1" id="Layer_1" xmlns="http://www.w3.org/2000/svg" xmlns:xlink="http://www.w3.org/1999/xlink" x="0px" y="0px"
	 width="512px" height="512px" viewBox="0 0 512 512" enable-background="new 0 0 512 512" xml:space="preserve">
<g id="natural_links_1_">
	<path fill="#A0D468" d="M417.326,96.672l-77.998-8.656l-140,122.655l-5.328,106l52,43.343l82.672-7.344l122.654-113.999
		l6.672-101.327L417.326,96.672z M351.999,274.015l-64.671,49.328l-54-21.328L230,279.343l49.328-81.328l54-57.343l19.999-8
		l12-6.656l44,20.656l15.999,38L351.999,274.015z"/>
	<path fill="#A0D468" d="M276.656,232.671l-78-8.656L58.658,346.671L53.33,452.669l52,43.344L188,488.669L310.656,374.67
		l6.672-101.327L276.656,232.671z M211.328,410.014l-64.671,49.327l-54-21.328l-3.328-22.671l49.328-81.327l54-57.344l20-8l12-6.656
		l44,20.656l16,38L211.328,410.014z"/>
	<path fill="#8CC153" d="M267.766,9.579l-27.875,28.438l-16.844,56.343l20.328,33.391l24.391,9.578l29.625-26.125V56.032
		C297.391,56.032,268.344,11.313,267.766,9.579z"/>
	<path fill="#8CC153" d="M374.562,477.513l-24.015-31.766l-53.234-24.969l-36.031,15.172l-13.062,22.703l21.453,33.156l54.578,8.156
		C324.25,499.966,372.765,477.841,374.562,477.513z"/>
	<path d="M327.938,364.186c9.391-4.906,18.219-11.281,26.108-19.187l90.499-90.5c41.656-41.656,41.656-109.187,0-150.827
		c-20.828-20.828-48.124-31.234-75.421-31.234c-20.671,0-41.343,5.969-59.218,17.921c3.641-58.483-38.422-90.358-38.422-90.358
		c-0.016,0-52.203,22.656-59.75,85.483c-4.359,36.266,18.016,51.484,31.859,57.328l-1.453,12.109l0.281,0.031l-39.218,39.218
		c-7.875,7.891-14.25,16.687-19.141,26.078c-9.406,4.891-18.218,11.281-26.109,19.172l-90.5,90.5
		c-41.656,41.655-41.656,109.186,0,150.842c41.656,41.641,109.187,41.656,150.842,0l16.562-16.562L244,465.31
		c2.422,14.844,11.891,40.156,48.172,44.516c4.828,0.578,9.484,0.844,13.969,0.844c53.937,0,83.218-38.672,83.218-38.672
		s-22.641-52.188-85.468-59.749c-3.141-0.375-6.125-0.531-8.938-0.531c-2.859,0-5.562,0.172-8.125,0.516l21.969-21.984
		C316.672,382.373,323.047,373.561,327.938,364.186z M242.578,117.625c-3.516-2.906-6.031-6.219-7.688-10.141
		c-2.234-5.266-2.891-11.828-1.969-19.453c2.453-20.531,10.953-38.171,25.234-52.437c3.516-3.5,6.984-6.406,10.094-8.719
		c2.469,3,5.156,6.609,7.734,10.844c10.516,17.25,14.594,36.406,12.141,56.937c-1.531,12.656-6.453,21.078-15.062,25.781
		c-1.859,1-3.75,1.781-5.578,2.375L273,76.875l-21.188-2.531l-5.516,45.937C245.062,119.5,243.797,118.625,242.578,117.625z
		 M308.797,118.75c16.109-16.109,37.531-25,60.327-25c22.797,0,44.219,8.891,60.343,25c16.109,16.125,24.984,37.547,24.984,60.343
		c0,22.781-8.875,44.218-24.984,60.328l-90.514,90.516c-16.109,16.109-37.531,24.968-60.328,24.968s-44.219-8.858-60.328-24.968
		c-10.765-10.781-18.296-23.906-22.109-38.234l7.016-7.031c3.531-3.516,7.531-6.297,11.796-8.328
		c1.484,14.062,7.594,27.719,18.375,38.5c12.5,12.5,28.875,18.75,45.25,18.75s32.75-6.25,45.25-18.75l90.483-90.484
		c0.016-0.016,0.016-0.016,0.016-0.016c24.999-25,24.999-65.515,0-90.499c-12.484-12.5-28.875-18.75-45.25-18.75
		s-32.749,6.25-45.249,18.75l-75.422,75.405c-10-1.421-20.156-1.421-30.156,0L308.797,118.75z M239.656,368.904l-66.608,66.608
		c-16.641,16.641-43.703,16.641-60.344,0c-8.062-8.062-12.5-18.766-12.5-30.171c0-11.391,4.438-22.109,12.5-30.156l0.016-0.031
		l66.609-66.593c5.188,13.281,13.156,25.719,23.875,36.438C213.938,355.732,226.375,363.686,239.656,368.904z M248.453,299.749
		c-7.625-7.625-11.75-17.438-12.375-27.453c10,0.625,19.828,4.75,27.469,12.375c7.625,7.641,11.734,17.484,12.359,27.484
		C265.531,311.515,255.875,307.171,248.453,299.749z M332.672,275.874c-5.203-13.281-13.156-25.719-23.875-36.453
		c-10.734-10.734-23.172-18.672-36.453-23.891l66.609-66.608c8.062-8.062,18.78-12.5,30.171-12.5c11.406,0,22.109,4.438,30.172,12.5
		c16.578,16.578,16.641,43.515,0.172,60.155l-0.344,0.328l-0.203,0.219L332.672,275.874z M203.204,465.685
		c-16.109,16.109-37.546,24.984-60.328,24.984c-22.797,0-44.219-8.875-60.344-24.984c-16.109-16.125-24.984-37.547-24.984-60.343
		c0-22.781,8.875-44.219,24.984-60.343l90.516-90.5c16.109-16.109,37.53-24.984,60.327-24.984s44.219,8.875,60.328,24.984
		c10.766,10.781,18.297,23.906,22.109,38.25l-7.016,7c-3.484,3.5-7.469,6.297-11.797,8.359
		c-1.469-14.062-7.594-27.734-18.375-38.516c-24.984-25-65.516-25-90.5,0l-14.687,14.688l-0.625-1.25
		c0.078,0.547,0.156,1.094,0.234,1.641l-75.406,75.405c-0.016,0.016-0.016,0.016-0.016,0.016c-25,25-25,65.499,0,90.499
		c24.984,25,65.5,25,90.5,0l75.406-75.405c5.016,0.703,10.047,1.062,15.094,1.062s10.078-0.359,15.078-1.062L203.204,465.685z
		 M301.344,433.435c20.531,2.469,38.172,10.969,52.437,25.266c3.516,3.516,6.391,6.984,8.703,10.078
		c-2.234,1.844-4.828,3.828-7.781,5.781c-14.749,9.812-31.077,14.781-48.562,14.781c-3.75,0-7.594-0.234-11.422-0.703
		c-7.641-0.922-13.844-3.109-18.438-6.516c-3.422-2.531-6.047-5.781-8.031-9.875c-0.688-1.438-1.25-2.844-1.703-4.25l45.938,5.531
		l2.547-21.188l-45.953-5.516c0.328-0.516,0.672-1.047,1.031-1.562c5.797-8.344,13.688-12.234,24.844-12.234
		C296.969,433.028,299.125,433.169,301.344,433.435z"/>
</g>
</svg>
