<?xml version="1.0" encoding="UTF-8"?>
<!DOCTYPE svg PUBLIC "-//W3C//DTD SVG 1.1//EN" "http://www.w3.org/Graphics/SVG/1.1/DTD/svg11.dtd">
<!-- Creator: CorelDRAW 2020 (64-Bit) -->
<svg xmlns="http://www.w3.org/2000/svg" xml:space="preserve" width="4.9742in" height="4.1553in" version="1.1" style="shape-rendering:geometricPrecision; text-rendering:geometricPrecision; image-rendering:optimizeQuality; fill-rule:evenodd; clip-rule:evenodd"
viewBox="0 0 421.44 352.06"
 xmlns:xlink="http://www.w3.org/1999/xlink"
 xmlns:xodm="http://www.corel.com/coreldraw/odm/2003">
 <defs>
  <style type="text/css">
   <![CDATA[
    .fil3 {fill:black;fill-rule:nonzero}
    .fil0 {fill:#ED5564;fill-rule:nonzero}
    .fil1 {fill:#FC6E51;fill-rule:nonzero}
    .fil2 {fill:#FFCE54;fill-rule:nonzero}
   ]]>
  </style>
 </defs>
 <g id="__x0023_Layer_x0020_1">
  <metadata id="CorelCorpID_0Corel-Layer"/>
  <rect class="fil0" x="293.09" y="82.27" width="122.35" height="263.52"/>
  <rect class="fil1" x="176.23" y="166.1" width="122.35" height="179.69"/>
  <rect class="fil2" x="55.84" y="248.53" width="122.35" height="103.53"/>
  <path class="fil3" d="M113.48 162.35c1.92,0 3.69,-0.62 5.13,-1.67l0 0.01 176.6 -126.58 -2.27 13.77c0,0.01 0,0.01 0,0.01 -0.79,4.8 2.46,9.33 7.26,10.12 4.8,0.8 9.34,-2.45 10.13,-7.26l0 0 5.73 -34.78 0 0 0 0c0.8,-4.8 -2.45,-9.35 -7.26,-10.13l0 0 -34.78 -5.73 0 0c-4.81,-0.79 -9.34,2.47 -10.13,7.27 -0.79,4.8 2.46,9.32 7.26,10.12l0 0 13.79 2.27 -176.59 126.6 0 0c-2.23,1.6 -3.68,4.21 -3.68,7.15 0,4.88 3.94,8.82 8.81,8.82z"/>
  <path class="fil3" d="M287.6 159.64l-117.12 0 0 83.67 -117.12 0 0 108.75 117.12 0 16.73 0 100.39 0 16.74 0 117.1 0 0 -276.07 -133.84 0 0 83.65zm-117.12 175.68l-100.39 0 0 -75.29 100.39 0 0 75.29zm117.12 0l-100.39 0 0 -92.01 0 -66.93 100.39 0 0 158.94zm16.74 -242.59l100.39 0 0 242.59 -100.39 0 0 -175.68 0 -66.91z"/>
  <path class="fil3" d="M202.71 6.1c-1.92,0 -3.69,0.62 -5.13,1.67l0 -0.01 -176.6 126.58 2.27 -13.77c0,-0.01 0,-0.01 0,-0.01 0.79,-4.8 -2.46,-9.33 -7.26,-10.12 -4.8,-0.8 -9.34,2.45 -10.13,7.26l0 0 -5.73 34.78 0 0 0 0c-0.8,4.8 2.45,9.35 7.26,10.13l0 0 34.78 5.73 0 0c4.81,0.79 9.34,-2.47 10.13,-7.27 0.79,-4.8 -2.46,-9.32 -7.26,-10.12l0 0 -13.79 -2.27 176.59 -126.6 0 0c2.23,-1.6 3.68,-4.21 3.68,-7.15 0,-4.88 -3.94,-8.82 -8.81,-8.82z"/>
 </g>
</svg>
