<?xml version="1.0" encoding="utf-8"?>
<!-- Generator: Adobe Illustrator 16.0.0, SVG Export Plug-In . SVG Version: 6.00 Build 0)  -->
<!DOCTYPE svg PUBLIC "-//W3C//DTD SVG 1.1//EN" "http://www.w3.org/Graphics/SVG/1.1/DTD/svg11.dtd">
<svg version="1.1" id="Layer_1" xmlns="http://www.w3.org/2000/svg" xmlns:xlink="http://www.w3.org/1999/xlink" x="0px" y="0px"
	 width="512px" height="512px" viewBox="0 0 512 512" enable-background="new 0 0 512 512" xml:space="preserve">
<g id="calendar_2_1_">
	<rect x="11.328" y="75" fill="#ED5564" width="490" height="58"/>
	<rect x="11.328" y="133" fill="#FFCE54" width="487.234" height="336.328"/>
	<g>
		<path d="M490.672,58.672h-64V37.328c0-5.875-4.766-10.656-10.672-10.656c-5.875,0-10.656,4.781-10.656,10.656v21.344H320V37.328
			c0-5.875-4.766-10.656-10.656-10.656s-10.672,4.781-10.672,10.656v21.344h-85.328V37.328c0-5.875-4.781-10.656-10.672-10.656
			S192,31.453,192,37.328v21.344h-85.328V37.328c0-5.875-4.766-10.656-10.672-10.656c-5.875,0-10.656,4.781-10.656,10.656v21.344
			h-64C9.609,58.672,0,68.266,0,80v384c0,11.734,9.609,21.328,21.344,21.328h469.328c11.734,0,21.328-9.594,21.328-21.328V80
			C512,68.266,502.406,58.672,490.672,58.672z M21.375,80h63.969v21.328C85.344,107.234,90.125,112,96,112
			c5.906,0,10.672-4.766,10.672-10.672V80H192v21.328c0,5.906,4.781,10.672,10.672,10.672s10.672-4.766,10.672-10.672V80h85.328
			v21.328c0,5.906,4.781,10.672,10.672,10.672S320,107.234,320,101.328V80h85.344v21.328c0,5.906,4.781,10.672,10.656,10.672
			c5.906,0,10.672-4.766,10.672-10.672V80h63.953c0.031,0.016,0.031,0.016,0.047,0.047v42.625H21.344V80.047
			C21.344,80.016,21.375,80.016,21.375,80z M490.625,464H21.375c0-0.016-0.031-0.016-0.031-0.047V144h469.328v319.953
			C490.656,463.984,490.656,463.984,490.625,464z"/>
		<path d="M140.719,374.141c4.766-16.469,21.547-27.203,36.469-36.75l4.781-3.062c12.75-8.125,27.172-17.359,38.109-28.781
			c12.766-13.312,18.984-27.641,18.984-43.812c0-15.906-5.531-29.406-16.016-39c-10.406-9.547-24.984-14.594-42.188-14.594
			c-18.391,0-33.734,5.938-44.344,17.172c-10.578,11.172-16.156,27.312-16.156,46.672v5.156h21.609v-2.859
			c0-14.047,2.812-25.141,8.344-32.922c6.312-8.875,16.344-13.391,29.781-13.391c22.375,0,36.828,13.359,36.828,34.016
			c0,25.016-21.984,39.469-41.391,52.203l-4.062,2.672c-28.5,18.719-53.125,34.906-55.453,74.312l-0.172,3.031h123.969v-20.094
			h-98.406C141.188,374.109,140.969,374.125,140.719,374.141z"/>
		<path d="M334.656,268.609c-14.406,0-26.625,4.031-35.922,11.75l10.344-50.062h78.141v-20.078h-94.625l-18.75,98.078l19.281,0.688
			l0.875-1.312c8.938-13.297,20.812-19.484,37.328-19.484c25.156,0,42.734,18.297,42.734,44.516
			c0,25.938-17.875,44.781-42.469,44.781c-23.875,0-39.453-14.875-40.688-38.781l-0.141-2.719h-21.547l0.078,2.938
			c0.797,35.156,25.25,57.875,62.297,57.875c18.125,0,34.625-6.656,46.438-18.734c11.719-11.938,18.156-28.406,18.156-46.391
			C396.188,295.141,370.312,268.609,334.656,268.609z"/>
	</g>
</g>
</svg>
