<?xml version="1.0" encoding="utf-8"?>
<!-- Generator: Adobe Illustrator 16.0.0, SVG Export Plug-In . SVG Version: 6.00 Build 0)  -->
<!DOCTYPE svg PUBLIC "-//W3C//DTD SVG 1.1//EN" "http://www.w3.org/Graphics/SVG/1.1/DTD/svg11.dtd">
<svg version="1.1" id="Layer_1" xmlns="http://www.w3.org/2000/svg" xmlns:xlink="http://www.w3.org/1999/xlink" x="0px" y="0px"
	 width="512px" height="512px" viewBox="0 0 512 512" enable-background="new 0 0 512 512" xml:space="preserve">
<g id="dna_analysis_1_">
	<rect x="16.679" y="336.589" fill="#F4F6F9" width="478.65" height="45.997"/>
	<rect x="192.668" y="387.93" fill="#CBD0D8" width="123.328" height="71.995"/>
	<rect x="11.351" y="48.435" fill="#5E9CEA" width="487.291" height="284.654"/>
	<g>
		<path d="M490.643,32.014H21.35c-11.78,0-21.334,9.546-21.334,21.327v319.981c0,11.78,9.554,21.326,21.334,21.326H187.7
			l-12.773,63.996h-4.257c-5.891,0-10.664,4.781-10.664,10.672s4.773,10.671,10.664,10.671h170.668
			c5.875,0,10.656-4.78,10.656-10.671s-4.781-10.672-10.656-10.672h-4.28l-12.78-63.996h166.365
			c11.795,0,21.342-9.546,21.342-21.326V53.34C511.984,41.56,502.438,32.014,490.643,32.014z M196.683,458.644l12.757-63.918
			l93.088-0.016l12.78,63.934H196.683z M490.643,53.34v277.311H21.35V53.34H490.643z M256,373.321H21.35v-21.327H256h234.643v21.327
			H256z"/>
		<path d="M266.664,362.649c0-5.891-4.773-10.655-10.664-10.655c-5.89,0-10.664,4.765-10.664,10.655s4.773,10.672,10.664,10.672
			C261.891,373.321,266.664,368.54,266.664,362.649z"/>
		<path d="M277.342,138.664h170.646c5.891,0,10.656-4.781,10.656-10.656c0-5.906-4.766-10.671-10.656-10.671H277.342
			c-5.897,0-10.678,4.766-10.678,10.671C266.664,133.882,271.444,138.664,277.342,138.664z"/>
		<path d="M277.342,181.333h170.646c5.891,0,10.656-4.781,10.656-10.671c0-5.891-4.766-10.656-10.656-10.656H277.342
			c-5.897,0-10.678,4.765-10.678,10.656C266.664,176.552,271.444,181.333,277.342,181.333z"/>
		<path d="M277.342,224.002h170.646c5.891,0,10.656-4.781,10.656-10.671c0-5.89-4.766-10.671-10.656-10.671H277.342
			c-5.897,0-10.678,4.781-10.678,10.671C266.664,219.221,271.444,224.002,277.342,224.002z"/>
		<path d="M277.342,266.655h170.646c5.891,0,10.656-4.781,10.656-10.655c0-5.906-4.766-10.671-10.656-10.671H277.342
			c-5.897,0-10.678,4.766-10.678,10.671C266.664,261.874,271.444,266.655,277.342,266.655z"/>
		<path d="M115.563,192.004c-47.989,32.092-61.403,101.415-62.012,104.712c-1.078,5.781,2.742,11.344,8.523,12.422
			c0.664,0.125,1.32,0.172,1.969,0.172c5.031,0,9.515-3.562,10.476-8.688c0.039-0.203,0.992-5.094,3.187-12.624h121.961
			c2.195,7.53,3.148,12.405,3.18,12.608c0.953,5.141,5.437,8.719,10.476,8.719c0.648,0,1.305-0.062,1.961-0.172
			c5.789-1.094,9.617-6.656,8.539-12.438c-0.609-3.297-14.022-72.62-62.012-104.712c47.989-32.107,61.402-101.431,62.012-104.712
			c1.078-5.796-2.742-11.358-8.531-12.437s-11.351,2.734-12.444,8.531c-0.031,0.188-0.984,5.062-3.18,12.624H77.706
			c-2.195-7.562-3.148-12.437-3.187-12.624c-1.078-5.797-6.64-9.609-12.429-8.531c-5.796,1.062-9.617,6.64-8.539,12.437
			C54.161,90.573,67.574,159.896,115.563,192.004z M85.19,266.655c2.82-6.827,6.297-14.124,10.5-21.327h85.995
			c4.203,7.203,7.671,14.5,10.5,21.327H85.19z M166.255,224.002h-55.137c7.671-8.453,16.796-15.702,27.569-20.467
			C149.459,208.3,158.584,215.549,166.255,224.002z M138.687,180.473c-10.773-4.781-19.897-12.03-27.569-20.467h55.137
			C158.584,168.443,149.459,175.692,138.687,180.473z M192.184,117.336c-2.828,6.828-6.296,14.125-10.5,21.327H95.689
			c-4.203-7.203-7.679-14.5-10.5-21.327H192.184z"/>
	</g>
</g>
</svg>
