<?xml version="1.0" encoding="utf-8"?>
<!-- Generator: Adobe Illustrator 16.0.0, SVG Export Plug-In . SVG Version: 6.00 Build 0)  -->
<!DOCTYPE svg PUBLIC "-//W3C//DTD SVG 1.1//EN" "http://www.w3.org/Graphics/SVG/1.1/DTD/svg11.dtd">
<svg version="1.1" id="Layer_1" xmlns="http://www.w3.org/2000/svg" xmlns:xlink="http://www.w3.org/1999/xlink" x="0px" y="0px"
	 width="512px" height="512px" viewBox="0 0 512 512" enable-background="new 0 0 512 512" xml:space="preserve">
<g id="envelope_1_">
	<rect x="10.672" y="104.672" fill="#F6BB42" width="492" height="300.672"/>
	<polygon fill="#FFCE54" points="384,104.672 20,110 256.672,255 491.344,121.344 491.344,104.672 	"/>
	<path fill="#E9573F" d="M402.891,277.609l-37.297,84.109c0,0,68.016,1.469,83.375,0
		C464.328,360.266,402.891,277.609,402.891,277.609z"/>
	<path fill="#FC6E51" d="M336.547,316.969l-19.969,45.047c0,0,36.438,0.781,44.672,0
		C369.484,361.266,336.547,316.969,336.547,316.969z"/>
	<g>
		<path d="M181.344,352h-128c-5.906,0-10.672,4.781-10.672,10.656c0,5.906,4.766,10.688,10.672,10.688h128
			c5.875,0,10.656-4.781,10.656-10.688C192,356.781,187.219,352,181.344,352z"/>
		<path d="M53.344,330.656H96c5.891,0,10.672-4.766,10.672-10.656S101.891,309.344,96,309.344H53.344
			c-5.906,0-10.672,4.766-10.672,10.656S47.438,330.656,53.344,330.656z"/>
		<path d="M367.062,324.781l-19.625-32.719l-48.766,81.281h40.641h56.875h73.156l-65.031-113.781L367.062,324.781z M336.344,352
			l11.094-18.469L354.922,346l-3.422,6H336.344z M376.062,352l28.25-49.438L432.578,352H376.062z"/>
		<path d="M501.344,96H10.672C4.781,96,0,100.781,0,106.656v298.688C0,411.219,4.781,416,10.672,416h490.672
			c5.875,0,10.656-4.781,10.656-10.656V106.656C512,100.781,507.219,96,501.344,96z M469.734,117.344L259.719,242.047
			c-1.656,0.984-5.781,0.984-7.438,0L42.188,117.344H469.734z M21.344,394.656V129.766l220.031,130.625
			c4.188,2.484,9.406,3.703,14.625,3.703s10.453-1.219,14.625-3.703l220.047-130.672v264.938H21.344z"/>
	</g>
</g>
</svg>
