<?xml version="1.0" encoding="utf-8"?>
<!-- Generator: Adobe Illustrator 16.0.0, SVG Export Plug-In . SVG Version: 6.00 Build 0)  -->
<!DOCTYPE svg PUBLIC "-//W3C//DTD SVG 1.1//EN" "http://www.w3.org/Graphics/SVG/1.1/DTD/svg11.dtd">
<svg version="1.1" id="Layer_1" xmlns="http://www.w3.org/2000/svg" xmlns:xlink="http://www.w3.org/1999/xlink" x="0px" y="0px"
	 width="512px" height="512px" viewBox="0 0 512 512" enable-background="new 0 0 512 512" xml:space="preserve">
<g id="certificate_1_">
	<polygon fill="#E6E9ED" points="411.984,458 45.484,458 45.484,26.672 69.984,11.578 411.984,11.578 	"/>
	<rect x="83.328" y="14.672" fill="#F5F7FA" width="278.672" height="400.984"/>
	<path fill="#ED5564" d="M386,410.609c0,29.016-23.531,52.531-52.547,52.531s-52.531-23.516-52.531-52.531
		s23.516-52.547,52.531-52.547S386,381.594,386,410.609z"/>
	<rect x="296.406" y="462" fill="#FFCE54" width="65.594" height="29.5"/>
	<path fill="#AAB2BC" d="M471.781,41.484c0,16.516-13.375,29.891-29.891,29.891S411.984,58,411.984,41.484
		s13.391-29.906,29.906-29.906S471.781,24.969,471.781,41.484z"/>
	<g>
		<path d="M341.328,405c0-5.891-4.781-10.656-10.672-10.656S320,399.109,320,405s4.766,10.656,10.656,10.656
			S341.328,410.891,341.328,405z"/>
		<path d="M128,170.656h192c5.875,0,10.656-4.766,10.656-10.656s-4.781-10.656-10.656-10.656H128
			c-5.906,0-10.672,4.766-10.672,10.656S122.094,170.656,128,170.656z"/>
		<path d="M128,106.656h192c5.875,0,10.656-4.766,10.656-10.656S325.875,85.344,320,85.344H128c-5.906,0-10.672,4.766-10.672,10.656
			S122.094,106.656,128,106.656z"/>
		<path d="M128,234.656h192c5.875,0,10.656-4.766,10.656-10.656s-4.781-10.656-10.656-10.656H128
			c-5.906,0-10.672,4.766-10.672,10.656S122.094,234.656,128,234.656z"/>
		<path d="M224,277.344h-96c-5.906,0-10.672,4.766-10.672,10.656s4.766,10.656,10.672,10.656h96c5.875,0,10.656-4.766,10.656-10.656
			S229.875,277.344,224,277.344z"/>
		<path d="M437.328,0H416h-19.312h-23.359H74.656C51.094,0,32,19.094,32,42.656v426.688h256V512l42.656-10.656L373.328,512v-42.656
			H416v-384h21.328c23.562,0,42.672-19.109,42.672-42.688C480,19.094,460.891,0,437.328,0z M96,21.344h256v323.312
			c-6.688-2.375-13.859-3.656-21.344-3.656c-35.344,0-64,28.656-64,64c0,0.109,0,0.219,0,0.344H96V21.344z M288,405
			c0-23.531,19.125-42.656,42.656-42.656s42.672,19.125,42.672,42.656s-19.141,42.656-42.672,42.656S288,428.531,288,405z
			 M53.328,42.656c0-11.75,9.578-21.312,21.328-21.312v405.312h195.766c2.859,7.969,7.266,15.203,12.828,21.344H53.328V42.656z
			 M335.844,480.641l-5.188-1.297l-5.172,1.297l-16.156,4.047v-19.344C316,467.719,323.188,469,330.656,469
			c7.484,0,14.656-1.281,21.344-3.656v19.344L335.844,480.641z M394.656,53.844v31.5V405v43h-16.594
			c10.312-11.359,16.594-26.438,16.594-43c0-18.953-8.25-35.969-21.328-47.688V21.344h21.328V53.844z M437.328,64
			C425.562,64,416,54.438,416,42.656c0-11.75,9.562-21.312,21.328-21.312s21.328,9.562,21.328,21.312
			C458.656,54.438,449.094,64,437.328,64z"/>
	</g>
</g>
</svg>
