<?xml version="1.0" encoding="UTF-8"?>
<!DOCTYPE svg PUBLIC "-//W3C//DTD SVG 1.1//EN" "http://www.w3.org/Graphics/SVG/1.1/DTD/svg11.dtd">
<!-- Creator: CorelDRAW 2020 (64-Bit) -->
<svg xmlns="http://www.w3.org/2000/svg" xml:space="preserve" width="0.407311in" height="0.407291in" version="1.1" style="shape-rendering:geometricPrecision; text-rendering:geometricPrecision; image-rendering:optimizeQuality; fill-rule:evenodd; clip-rule:evenodd"
viewBox="0 0 58.38 58.37"
 xmlns:xlink="http://www.w3.org/1999/xlink"
 xmlns:xodm="http://www.corel.com/coreldraw/odm/2003">
 <defs>
  <style type="text/css">
   <![CDATA[
    .fil1 {fill:#2B3D50;fill-rule:nonzero}
    .fil2 {fill:#41B6F0;fill-rule:nonzero}
    .fil0 {fill:#575B6E;fill-rule:nonzero}
    .fil4 {fill:#97CCF6;fill-rule:nonzero}
    .fil3 {fill:#9A59B6;fill-rule:nonzero}
   ]]>
  </style>
 </defs>
 <g id="__x0023_Layer_x0020_1">
  <metadata id="CorelCorpID_0Corel-Layer"/>
  <g id="_1494552522960">
   <g>
    <path class="fil0" d="M58.38 29.19c0,16.12 -13.07,29.19 -29.19,29.19 -16.12,0 -29.19,-13.07 -29.19,-29.19 0,-16.12 13.07,-29.19 29.19,-29.19 16.12,0 29.19,13.07 29.19,29.19z"/>
    <path class="fil1" d="M57.99 33.94l-8.6 -8.6c-0.09,-0.15 -0.22,-0.27 -0.39,-0.34 -0.2,-0.08 -0.4,-0.11 -0.61,-0.11 -0.79,0 -1.62,0.45 -2.03,0.68 -2.06,1.16 -3.33,2.42 -3.93,3.12l-9.37 -9.37c-1,-1.07 -2.65,-2.04 -5.35,-2.04 -4.32,-0 -6.61,2.34 -7.61,3.78l0.63 0.5c-0.39,0.11 -0.78,0.23 -1.15,0.36 -5.18,1.77 -8.77,4.95 -10.45,6.69 -0.05,0.06 -0.11,0.11 -0.16,0.17 -0.05,0.05 -0.1,0.1 -0.14,0.15 -0.05,0.08 -0.09,0.18 -0.09,0.29 0,0.11 0.03,0.2 0.09,0.29l27.87 27.9c10.98,-2.92 19.41,-12.09 21.27,-23.45z"/>
   </g>
   <path class="fil2" d="M27.23 19.99c2.75,0 5.15,0.67 7.18,1.65 -0.42,-1.28 -1.88,-4.36 -6.71,-4.36 -4.32,-0 -6.61,2.34 -7.61,3.78 2.31,-0.71 4.69,-1.07 7.12,-1.07l0.01 0z"/>
   <path class="fil2" d="M34.36 36.81c0.89,0.36 2.43,0.43 4.78,-1.24 2.01,-1.43 1.93,-3.26 1.83,-3.89 -1.36,1.57 -3.58,3.69 -6.61,5.13z"/>
   <path class="fil2" d="M20.47 37.47c0.85,1.39 2.57,3.42 5.42,3.62 2.44,0.17 4.02,-1.62 4.88,-3.04 -1.1,0.24 -2.29,0.38 -3.54,0.38 -2.3,0 -4.56,-0.33 -6.76,-0.96z"/>
   <path class="fil3" d="M15.71 26.44c-0.58,0 -1.05,0.47 -1.05,1.05 0,0.58 0.47,1.05 1.05,1.05 0.58,0 1.05,-0.47 1.05,-1.05 0,-0.58 -0.47,-1.05 -1.05,-1.05z"/>
   <path class="fil4" d="M42 29.2c-0.13,-0.22 -2.84,-4.56 -7.86,-6.97 -1.96,-0.94 -4.27,-1.59 -6.91,-1.59l-0.01 0c-2.83,0 -5.39,0.5 -7.64,1.28 -5.18,1.77 -8.77,4.95 -10.45,6.69 -0.05,0.06 -0.11,0.11 -0.16,0.17 -0.05,0.05 -0.1,0.1 -0.14,0.15 -0.05,0.08 -0.09,0.18 -0.09,0.29 0,0.11 0.03,0.2 0.09,0.29 0.04,0.05 0.09,0.1 0.14,0.15 0.05,0.05 0.1,0.11 0.16,0.17 1.73,1.79 5.46,5.09 10.87,6.83 2.15,0.69 4.56,1.13 7.22,1.13l0.01 0c1.42,0 2.74,-0.19 3.96,-0.51 0.88,-0.23 1.71,-0.53 2.49,-0.87 2.44,-1.08 4.36,-2.63 5.74,-4.02 1.63,-1.64 2.5,-3.04 2.58,-3.16l0.01 0 0 -0.02 -0.01 0zm-26.29 0.01l0 0c-0.95,0 -1.71,-0.77 -1.71,-1.71 0,-0.95 0.77,-1.71 1.71,-1.71 0.95,0 1.71,0.77 1.71,1.71 0,0.95 -0.77,1.71 -1.71,1.71z"/>
   <path class="fil2" d="M48.6 29.21l0.11 -0.11c0,0 0.93,-1.91 0.92,-2.6 -0.01,-0.4 -0.01,-1.25 -0.62,-1.5 -0.2,-0.08 -0.4,-0.11 -0.61,-0.11 -0.79,0 -1.62,0.45 -2.03,0.68 -2.91,1.63 -4.25,3.5 -4.35,3.63l-0.01 0 0 0.02 0.01 0c0.1,0.14 1.43,2 4.35,3.63 0.41,0.23 1.24,0.68 2.03,0.68 0.21,0 0.41,-0.03 0.61,-0.11 0.62,-0.25 0.61,-1.09 0.62,-1.5 0.02,-0.69 -0.92,-2.6 -0.92,-2.6l-0.11 -0.11z"/>
   <g>
    <path class="fil2" d="M22.54 25.52c0,-0.72 -0.58,-1.34 -1.36,-1.54 0.37,0.29 0.63,0.87 0.63,1.54 0,0.67 -0.26,1.24 -0.63,1.53 0.79,-0.2 1.36,-0.81 1.36,-1.53z"/>
    <path class="fil2" d="M22.32 29.94c0,-0.73 -0.58,-1.34 -1.37,-1.53 0.37,0.29 0.63,0.87 0.63,1.53 0,0.66 -0.26,1.24 -0.63,1.53 0.79,-0.2 1.37,-0.81 1.37,-1.53z"/>
    <path class="fil2" d="M22.16 33.58c0,-0.72 -0.58,-1.33 -1.37,-1.53 0.38,0.29 0.63,0.87 0.63,1.53 0,0.67 -0.25,1.25 -0.63,1.53 0.79,-0.19 1.37,-0.81 1.37,-1.53z"/>
    <path class="fil2" d="M25.01 27.05c0,-0.73 -0.58,-1.34 -1.37,-1.53 0.38,0.29 0.63,0.87 0.63,1.53 0,0.66 -0.25,1.25 -0.63,1.53 0.79,-0.2 1.37,-0.81 1.37,-1.53z"/>
    <path class="fil2" d="M25.01 31.74c0,-0.73 -0.58,-1.34 -1.37,-1.53 0.38,0.29 0.63,0.87 0.63,1.53 0,0.66 -0.25,1.24 -0.63,1.53 0.79,-0.2 1.37,-0.81 1.37,-1.53z"/>
    <path class="fil2" d="M27.95 25.02c0,-0.72 -0.58,-1.34 -1.37,-1.53 0.38,0.29 0.64,0.87 0.64,1.53 0,0.67 -0.26,1.25 -0.64,1.53 0.79,-0.2 1.37,-0.81 1.37,-1.53z"/>
    <path class="fil2" d="M27.95 29.12c0,-0.73 -0.58,-1.34 -1.37,-1.54 0.38,0.29 0.64,0.87 0.64,1.54 0,0.66 -0.26,1.24 -0.64,1.53 0.79,-0.19 1.37,-0.81 1.37,-1.53z"/>
    <path class="fil2" d="M27.95 32.81c0,-0.72 -0.58,-1.33 -1.37,-1.53 0.38,0.29 0.64,0.87 0.64,1.53 0,0.67 -0.26,1.25 -0.64,1.54 0.79,-0.2 1.37,-0.81 1.37,-1.54z"/>
    <path class="fil2" d="M30.87 26.56c0,-0.72 -0.57,-1.34 -1.36,-1.53 0.37,0.29 0.63,0.87 0.63,1.53 0,0.66 -0.26,1.24 -0.63,1.53 0.79,-0.2 1.36,-0.81 1.36,-1.53z"/>
    <path class="fil2" d="M30.87 31.47c0,-0.72 -0.57,-1.34 -1.36,-1.53 0.37,0.29 0.63,0.87 0.63,1.53 0,0.66 -0.26,1.24 -0.63,1.53 0.79,-0.2 1.36,-0.81 1.36,-1.53z"/>
    <path class="fil2" d="M33.87 25.43c0,-0.66 -0.52,-1.21 -1.23,-1.38 0.34,0.26 0.57,0.78 0.57,1.38 0,0.6 -0.23,1.12 -0.57,1.38 0.71,-0.18 1.23,-0.73 1.23,-1.38z"/>
    <path class="fil2" d="M33.87 28.68c0,-0.66 -0.52,-1.21 -1.23,-1.38 0.34,0.26 0.57,0.78 0.57,1.38 0,0.6 -0.23,1.12 -0.57,1.38 0.71,-0.18 1.23,-0.73 1.23,-1.38z"/>
    <path class="fil2" d="M33.87 32.32c0,-0.65 -0.52,-1.21 -1.23,-1.38 0.34,0.26 0.57,0.78 0.57,1.38 0,0.6 -0.23,1.12 -0.57,1.38 0.71,-0.18 1.23,-0.73 1.23,-1.38z"/>
    <path class="fil2" d="M36.88 27.35c0,-0.56 -0.45,-1.03 -1.06,-1.18 0.29,0.22 0.49,0.67 0.49,1.18 0,0.52 -0.19,0.96 -0.49,1.19 0.61,-0.15 1.06,-0.63 1.06,-1.19z"/>
    <path class="fil2" d="M36.88 30.78c0,-0.56 -0.45,-1.03 -1.06,-1.19 0.29,0.23 0.49,0.67 0.49,1.19 0,0.52 -0.19,0.96 -0.49,1.19 0.61,-0.16 1.06,-0.62 1.06,-1.19z"/>
    <path class="fil2" d="M38.87 29.12c0,-0.38 -0.3,-0.71 -0.72,-0.81 0.2,0.15 0.33,0.46 0.33,0.81 0,0.35 -0.14,0.66 -0.33,0.81 0.42,-0.1 0.72,-0.43 0.72,-0.81z"/>
   </g>
  </g>
 </g>
</svg>
