<?xml version="1.0" encoding="utf-8"?>
<!-- Generator: Adobe Illustrator 16.0.0, SVG Export Plug-In . SVG Version: 6.00 Build 0)  -->
<!DOCTYPE svg PUBLIC "-//W3C//DTD SVG 1.1//EN" "http://www.w3.org/Graphics/SVG/1.1/DTD/svg11.dtd">
<svg version="1.1" id="Layer_1" xmlns="http://www.w3.org/2000/svg" xmlns:xlink="http://www.w3.org/1999/xlink" x="0px" y="0px"
	 width="512px" height="512px" viewBox="0 0 512 512" enable-background="new 0 0 512 512" xml:space="preserve">
<g id="link_building_1_">
	<path fill="#4FC2E9" d="M489.007,66.999l-28.001-36l-51-20.001l-42,11.001l-69,64l-63,56L223.998,199l98.008,95l49-18l86-81
		l47.001-75.001L489.007,66.999z M454.006,123.999l-44,49l-83,83.001l-15-40.469l-49.001-25.532l9-21l66.001-66.734l54-46.266
		c0,0,35-4,39,0s31,37,31,37L454.006,123.999z"/>
	<path fill="#A0D468" d="M26.497,444.001l28,36.001l51,20l42-11l69-64.001L279.505,369l12-57l-98.007-95l-49,18l-86,81l-47,75.001
		L26.497,444.001z M61.497,387.001l44-49.001l83.001-83l15,40.469l49,25.531l-9,21l-66,66.735l-54,46.266c0,0-35,4-39,0
		s-31-37-31-37L61.497,387.001z"/>
	<circle fill="#ED5564" cx="258.256" cy="257.25" r="58.25"/>
	<polygon fill="#DA4453" points="300.006,178.999 291.505,199 322.506,224 332.506,196 	"/>
	<polygon fill="#DA4453" points="188.005,288 179.505,308 210.505,333 220.505,305 	"/>
	<g>
		<path d="M480.757,31.249c-20.813-20.845-48.126-31.251-75.423-31.251s-54.594,10.406-75.422,31.251l-90.508,90.5
			c-21.211,21.203-31.602,49.125-31.219,76.907c-3.453,2.875-6.641,6.062-9.523,9.531c-0.492-0.016-0.992-0.031-1.484-0.031
			c-27.297,0-54.594,10.406-75.422,31.25l-90.516,90.5c-41.656,41.656-41.648,109.188,0.008,150.846
			c20.82,20.844,48.125,31.25,75.422,31.25c27.297,0,54.595-10.406,75.423-31.25l90.507-90.501
			c21.219-21.204,31.595-49.126,31.22-76.907c3.453-2.875,6.641-6.062,9.531-9.531c0.484,0.016,0.984,0.031,1.469,0.031
			c27.312,0,54.594-10.406,75.438-31.25l90.501-90.501C522.413,140.437,522.413,72.905,480.757,31.249z M328.381,237.625
			c-0.562-2.281-1.25-4.516-2.031-6.719l5.078-5.078c12.484-12.484,12.484-32.766,0-45.251c-6.25-6.25-14.438-9.375-22.625-9.375
			c-8.203,0-16.392,3.125-22.642,9.375l-5.062,5.078c-2.188-0.781-4.438-1.469-6.703-2.031c2-6.031,5.359-11.688,10.125-16.484
			l0.156-0.141l90.485-90.5c8.062-8.062,18.781-12.5,30.172-12.5s22.109,4.438,30.172,12.5
			c16.594,16.594,16.625,43.594,0.094,60.234l-0.344,0.359l-0.125,0.125l-90.125,90.126
			C340.256,232.094,334.568,235.562,328.381,237.625z M316.35,210.75l-0.547,0.531c-4.281-5.719-9.359-10.797-15.078-15.094
			l0.531-0.531c2.719-2.719,5.891-3.125,7.547-3.125c1.641,0,4.828,0.406,7.547,3.125s3.125,5.906,3.125,7.547
			S319.068,208.031,316.35,210.75z M256.005,202.656L256.005,202.656c14.242,0,27.625,5.562,37.718,15.625
			c10.063,10.078,15.61,23.469,15.61,37.719c0,29.406-23.923,53.344-53.336,53.344c-14.242,0-27.633-5.562-37.711-15.625
			c-10.07-10.078-15.617-23.469-15.617-37.719s5.547-27.641,15.617-37.719C228.365,208.219,241.755,202.656,256.005,202.656z
			 M183.615,274.375c0.578,2.281,1.266,4.516,2.047,6.719l-5.086,5.078c-12.5,12.484-12.492,32.766,0,45.25
			c6.25,6.25,14.438,9.375,22.625,9.375c8.195,0,16.383-3.125,22.633-9.375l5.078-5.078c2.188,0.781,4.422,1.469,6.695,2.031
			c-2.008,6.031-5.383,11.719-10.156,16.516l-0.125,0.125l-90.485,90.485c-8.062,8.062-18.773,12.5-30.172,12.5
			c-11.398,0-22.109-4.438-30.172-12.5c-8.055-8.062-12.5-18.781-12.5-30.156c0-11.391,4.43-22.095,12.469-30.157l0,0l0.047-0.031
			l90.493-90.5C171.755,279.906,177.427,276.438,183.615,274.375z M195.662,301.25l0.539-0.531
			c4.281,5.719,9.367,10.797,15.086,15.094l-0.539,0.531c-2.719,2.719-5.891,3.125-7.547,3.125c-1.648,0-4.82-0.406-7.539-3.125
			s-3.125-5.906-3.125-7.547S192.943,303.969,195.662,301.25z M257.521,375.156l-90.515,90.517
			c-16.117,16.11-37.547,24.985-60.337,24.985c-22.797,0-44.227-8.875-60.344-24.985c-16.117-16.109-24.992-37.547-24.992-60.328
			c0-22.813,8.875-44.235,24.992-60.345l90.516-90.516c13.422-13.422,30.54-21.828,49.063-24.266
			c-2.609,7.094-4.164,14.688-4.5,22.594c-10.797,2.719-21.031,8.312-29.484,16.75l-90.485,90.5c-0.008,0-0.016,0-0.023,0.016
			c-24.992,24.985-24.992,65.517,0,90.517c12.5,12.5,28.875,18.751,45.258,18.751c16.375,0,32.758-6.251,45.251-18.751
			l90.492-90.501c0.008,0,0.016,0,0.023-0.016c8.453-8.453,14.031-18.672,16.757-29.484c7.906-0.344,15.5-1.891,22.578-4.5
			C279.349,344.625,270.942,361.734,257.521,375.156z M465.678,166.999l-90.516,90.517c-13.422,13.422-30.531,21.828-49.062,24.266
			c2.609-7.094,4.156-14.688,4.5-22.594c10.797-2.719,21.031-8.312,29.484-16.75l90.484-90.501c0,0,0.016,0,0.031-0.016
			c24.985-24.984,24.985-65.516,0-90.516c-12.5-12.5-28.875-18.75-45.266-18.75c-16.375,0-32.766,6.25-45.25,18.75l-90.493,90.5
			c-0.008,0-0.016,0-0.023,0.016c-8.453,8.453-14.031,18.672-16.757,29.484c-7.906,0.344-15.5,1.891-22.578,4.5
			c2.43-18.531,10.828-35.641,24.25-49.062l90.524-90.516c16.109-16.109,37.531-24.984,60.328-24.984s44.234,8.875,60.344,24.984
			c16.11,16.109,24.985,37.547,24.985,60.328C490.663,129.468,481.788,150.89,465.678,166.999z"/>
		<path d="M234.669,266.656L234.669,266.656h10.664v10.688l0,0c0,5.875,4.773,10.656,10.664,10.656
			c5.898,0,10.671-4.781,10.671-10.656v-10.688h10.852l0,0c5.797-0.094,10.484-4.828,10.484-10.656s-4.688-10.562-10.484-10.656l0,0
			h-10.852v-10.688c0-5.875-4.781-10.656-10.671-10.656c-5.891,0-10.664,4.781-10.664,10.656l0,0l0,0v10.688h-10.664l0,0
			c-5.891,0-10.672,4.766-10.672,10.656S228.779,266.656,234.669,266.656z"/>
	</g>
</g>
</svg>
