<?xml version="1.0" encoding="utf-8"?>
<!-- Generator: Adobe Illustrator 16.0.0, SVG Export Plug-In . SVG Version: 6.00 Build 0)  -->
<!DOCTYPE svg PUBLIC "-//W3C//DTD SVG 1.1//EN" "http://www.w3.org/Graphics/SVG/1.1/DTD/svg11.dtd">
<svg version="1.1" id="Layer_1" xmlns="http://www.w3.org/2000/svg" xmlns:xlink="http://www.w3.org/1999/xlink" x="0px" y="0px"
	 width="512px" height="512px" viewBox="0 0 512 512" enable-background="new 0 0 512 512" xml:space="preserve">
<g id="monitor_1_">
	<rect x="12" y="43" fill="#5D9CEC" width="488" height="296"/>
	<rect x="12" y="339" fill="#E6E9ED" width="488" height="44"/>
	<polygon fill="#CCD1D9" points="322.75,466.5 185,469.75 193,388.656 317,388.656 	"/>
	<g>
		<path d="M490.656,32H21.328C9.547,32,0,41.562,0,53.344v320c0,11.781,9.547,21.312,21.328,21.312h166.359l-12.766,64h-4.266
			c-5.891,0-10.656,4.781-10.656,10.688c0,5.875,4.766,10.656,10.656,10.656h170.672c5.891,0,10.672-4.781,10.672-10.656
			c0-5.906-4.781-10.688-10.672-10.688h-4.266l-12.797-64h166.391c11.781,0,21.344-9.531,21.344-21.312v-320
			C512,41.562,502.438,32,490.656,32z M196.672,458.656l12.75-63.906l93.109-0.031l12.781,63.938H196.672z M490.656,53.344v277.312
			H21.328V53.344H490.656z M256,373.344H21.328V352H256h234.656v21.344H256z"/>
		<path d="M266.656,362.656c0-5.875-4.781-10.656-10.656-10.656c-5.906,0-10.672,4.781-10.672,10.656
			c0,5.906,4.766,10.688,10.672,10.688C261.875,373.344,266.656,368.562,266.656,362.656z"/>
	</g>
</g>
</svg>
