<?xml version="1.0" encoding="UTF-8"?>
<!DOCTYPE svg PUBLIC "-//W3C//DTD SVG 1.1//EN" "http://www.w3.org/Graphics/SVG/1.1/DTD/svg11.dtd">
<!-- Creator: CorelDRAW 2020 (64-Bit) -->
<svg xmlns="http://www.w3.org/2000/svg" xml:space="preserve" width="17.1659in" height="17.6176in" version="1.1" style="shape-rendering:geometricPrecision; text-rendering:geometricPrecision; image-rendering:optimizeQuality; fill-rule:evenodd; clip-rule:evenodd"
viewBox="0 0 2606.57 2675.16"
 xmlns:xlink="http://www.w3.org/1999/xlink"
 xmlns:xodm="http://www.corel.com/coreldraw/odm/2003">
 <defs>
  <style type="text/css">
   <![CDATA[
    .fil2 {fill:none}
    .fil3 {fill:#FEFEFE}
    .fil1 {fill:#373435}
    .fil0 {fill:#ABA994}
   ]]>
  </style>
 </defs>
 <g id="Layer_x0020_1">
  <metadata id="CorelCorpID_0Corel-Layer"/>
  <path class="fil0" d="M1059.97 2129.26c50.24,55.6 88.23,256.03 84.78,336.59 -0.64,14.9 17.4,194.19 35,197.83 6.58,31.83 147.73,-20.76 207.52,-1.08 0.35,0.11 77.86,0.46 76.36,-34.78 -3.91,-91.28 3.67,-162.26 -7.81,-255.61 -10.27,-83.5 72.45,-151.4 88.58,-230.52 7.7,-37.75 -52.27,41.1 -70.43,40.71 -109.07,-2.34 -39.13,24.73 -102.1,98.7 -18.85,22.14 -10.35,-51.44 -42.37,-75.27 -11.52,-8.58 -23.48,-113.57 -86.05,-48.52 -28.9,30.04 -93.64,-40.04 -93.64,68.11 0,164.11 -4.99,15.68 -37.53,-48.08 -11.81,-23.15 6.15,-29.23 -30.59,-51.27 -3.81,-33.06 -38.94,-2.56 -18.04,6.8l-3.69 -3.62z"/>
  <g id="_2313437927584">
   <path class="fil1" d="M1173.56 2192.54c-1.26,40.13 -21.72,488.1 6.3,476.51 95.22,-39.39 133.54,-19.58 226.03,-20.83 54.69,-0.74 49.21,-15.15 51.09,-62.29 1.54,-38.7 16.28,-435.74 -10.1,-437.42 -61.83,-3.93 -156.94,5.74 -216.68,23.22 -25.57,7.48 -30.92,9.96 -57.91,13.86 26.94,-4.16 32.23,-6.68 57.73,-14.43 60.07,-18.25 154.38,-28.74 216.86,-25.69 13.59,0.66 16.44,63.76 16.85,68.79 9.58,117.26 4.68,253.04 4.54,371.91 -0.03,29.55 8.08,58.8 -24.69,69.45 -36.57,11.89 -143.86,-11.9 -214.08,3.19 -10.35,2.22 -49.19,16.3 -49.79,16.34 -38.19,2.85 -8.21,-433.17 -6.17,-482.61z"/>
  </g>
  <path class="fil2" d="M1173.56 2192.54c-0.58,34.69 -29,496.8 7.59,479.18 123.84,-59.61 280.92,23.84 280.92,-52.28 0,-45.63 14.45,-472.46 -15.18,-472.46 -203.68,0 -218.51,34.2 -274.59,38.59"/>
  <g id="_2313437928928">
   <path class="fil1" d="M1070.1 2144.45c0.4,3.79 1.02,8.08 1.82,12.77 2.77,5.68 5.27,12.43 6.93,20.5l1.91 20.1c13.67,55.18 36.27,127.97 46.44,166.04 21.13,79.1 42.91,159.5 45.8,241.67 2,56.71 43.48,43.08 94.29,42.24 38.58,-0.64 56.38,1.72 94.14,9.09 85.94,16.79 98.97,-23.2 94.68,-104.59 -4.97,-94.46 -34.71,-240.89 33.06,-320.04 25.02,-29.22 43.82,-34.96 57.52,-74.86 0.34,-0.98 0.64,-2.08 0.93,-3.24 -26.98,12.02 -68.43,24.46 -69.32,24.77 -17.69,6.3 -65.36,25.35 -80.58,26.58 -1.12,5.44 -11.49,88.7 -31.22,82.24 -34,-11.13 -50.82,-193.96 -173.03,-135.16 -48.62,23.39 -21.48,202.53 -33.87,187.7 -3.58,-4.29 -39.14,-93.05 -40.55,-99.9 -3.67,-17.81 -30.87,-181.28 -64.13,-112.23 -2.18,4.53 8.52,11.9 16.86,28.85 -0.75,-4.59 -1.33,-8.79 -1.69,-12.51zm2.03 13.98c1.96,11.14 4.94,24.48 8.55,39.06l-2 -19.73c-1.6,-7.53 -3.94,-13.9 -6.55,-19.33zm479.02 -17.11c2.4,-5.85 6.44,-9.91 14.87,-6.94 8.18,2.88 4.12,7.85 -5.71,13.46 -13.39,49.69 -23.94,52.52 -60.15,93.83 -68.55,78.21 -40.61,215.78 -36.79,310.24 3.45,85.23 -12.69,128.67 -103.25,110.07 -37.18,-7.63 -54.69,-10.1 -92.76,-9.8 -52.21,0.4 -96.05,13.48 -97.7,-46.75 -2.24,-81.9 -23.41,-162.22 -43.91,-241.18 -9.77,-37.63 -31.39,-109 -44.75,-163.97l0.49 5.22 -0.55 -5.46c-3.82,-15.71 -6.95,-30.07 -8.95,-41.91 -8.57,-17.66 -19.93,-25.23 -17.54,-30.26 21.27,-44.95 39.77,8.25 47.61,32.56 8.94,27.73 13.44,67.47 20.76,89.07 1.53,4.52 31.73,74.04 37.66,87.03 0.02,-0.53 0,-1.27 -0,-2.95 -0.08,-43.11 -3.53,-115.28 8.9,-155.76 13.03,-42.42 70.8,-48.15 104.6,-32.27 51.63,24.25 63.01,106.64 91.34,133.97 13.4,12.93 25.03,-75.48 25.03,-75.48 42.59,-23.27 112.54,-39.48 160.81,-62.71z"/>
  </g>
  <path class="fil2" d="M1070.1 2144.45c-1.17,35.16 104.83,348.15 101.23,461.03 -2.47,77.37 78.83,25.69 189.45,53.94 144.75,36.97 88.94,-132.18 88.94,-241.65 0,-222.29 84.15,-167.4 107.16,-277.52 51.04,-10.56 -162.69,63.75 -162.84,64.5 -9.18,46.85 -14.82,75.13 -22.51,79.38 -10.66,5.89 -23.53,-27.33 -39.63,-58.66 -10.58,-20.59 -21.76,-47.98 -38.91,-64.11 -23.26,-21.89 -61.64,-30.23 -100.42,-10.62 -15.24,7.71 -31.36,16.99 -31.36,146.86 0,69.58 8.08,52.41 -39.19,-47.72 -2.65,-5.62 -30.08,-190.86 -65.8,-124.8 -5.11,9.46 -1.46,4.67 1.64,9.39 6.91,10.5 23.63,28.05 23.63,71.04"/>
  <path class="fil3" d="M495.01 863.75c11,-58.88 78.02,-66.57 107.65,-89.01 31.15,7.35 122.85,-91.1 145.17,-121.91 68.91,-95.13 319.37,-150.8 416.05,-82.65 29.97,21.13 150.72,22.48 189.13,-18.58 27.57,-29.48 154.41,-36.39 203.2,6.72 62.14,54.91 110.06,-31.16 196.34,-31.16 109.28,0 122.08,21.86 224.22,65.15 20.65,8.75 98.67,172.91 99.05,201.23 0.45,34.33 0.97,87.72 40.36,99.71 3.97,10.07 99.5,47.06 59.25,128.04 -8.55,17.21 24.17,34.32 27.91,52.82 4.92,24.34 -35.04,57.01 -11.83,64.23 56.96,17.72 131.82,22.54 164.86,82.3 23.15,41.87 15.54,120.03 18.56,179.83 1.99,39.37 21.39,63.62 11.9,89.68 -9.13,25.07 -23.03,28.96 -30.33,44.99 -24.22,53.16 26.12,102.58 23.22,184.11 -0.61,17.19 -14.56,43.96 -17.26,65.69 -4.55,36.52 -7.11,90.31 -170.61,128.85 -6.32,1.49 -12.96,39.02 -36.32,56.18 -15.8,11.61 -41.19,4.53 -51.19,22.31 -8.35,14.84 10.04,26.97 11.27,44.57 1.5,21.32 -13.35,47.14 -17.65,49.9 -49.03,31.42 -32.33,56.92 -128.12,55.03 -56.64,-1.12 -148.05,43.79 -243.13,3.4 -153.7,-65.29 -121.51,1.04 -275.29,42.81 -148.8,40.41 -32.12,35.84 -180.26,-10.77 -56.32,-17.72 -110.84,64.67 -197.12,-12 -61.81,-54.92 -8.51,-30.39 -109.12,-6.15 -177.12,42.69 -100.5,-101.02 -213.26,-51.05 -40.49,17.95 -185.05,66.61 -204.67,8.24 -8.48,-25.24 -73.56,-95.08 -100.65,-98.48 -38.35,-4.82 -144.93,-100.32 -145.44,-138.98 -1.45,-109.7 -90.11,-113.45 -20.89,-286.83 3.22,-8.08 19.22,6.39 16.28,-49.59 -0.58,-11.06 -17.42,-1.76 -21.76,-31.38 -4.27,-29.14 -145.67,-191.82 31.37,-260.71 121.69,-47.35 68.49,-60.74 149,-149.97 72.32,-80.16 79.95,-46.17 29.05,-165.73 -1.05,-2.47 -8.04,-72.37 11.07,-70.86z"/>
  <g id="_2313437930656">
   <path class="fil1" d="M702.92 749.23c44.94,-83.8 49.35,-105.8 135.38,-152.49 65.77,-35.69 190.98,-58.25 265.83,-41.66 37.74,8.37 -0.38,33.61 116.74,23.89 72.48,-6.02 56.04,48.03 136.13,-8.05 34.01,-23.81 42.17,-25.89 86.83,-29.22 104.82,-7.83 100.48,47.79 163.46,46.54 53.31,-1.06 59.91,-108.3 260.46,-42.04 112.19,37.07 164.25,112.02 193.49,222.98 13.94,52.89 7.52,51.22 0.77,99.36 -4.62,32.94 92.96,27.08 109.82,84.65 9.76,33.32 -2.27,64.49 -17.27,93.32 -0.17,0.33 -0.93,1.55 -0.91,2.17 5.18,4.82 65.27,-5.11 42.36,68.29 -3.07,9.82 -9.97,12.45 -12.48,15.83 49.71,20.16 91.81,-3.85 139.63,48.95 41.42,45.74 73.92,139.31 60.97,199.92 -6.78,31.74 -7.02,16.08 0.58,52.99 19.56,95 -4.05,63.9 -41.23,131.31 -17.93,32.5 -3.58,27.72 17.09,61.62 63.63,104.37 3.67,215.99 -90.62,273.45 -40.11,24.44 -58.81,-0.31 -71.41,9.94 -11.82,9.61 7.17,76.49 -88.04,94.2 2.22,31.07 16.54,48 -10.15,80.2 -65.52,79.06 -181.43,93.75 -275.33,62.19 -29.07,-9.77 -29.2,-14.64 -60.18,-12.73 -47.27,2.91 -83.54,-18.91 -124.2,-40.89 -6.71,-0.89 -106.5,65.61 -121.77,73.76 -52.47,28.02 -132.84,54.83 -191.2,28.45 -54.23,-24.51 -6.12,-73.23 -109.23,-27.52 -59.57,26.41 -89.43,46.31 -136.86,-14.23 -59.44,-75.87 -25.62,-11.68 -138.37,4.37 -33.91,4.83 -116.81,10.33 -124.01,-37.69l0.02 0.17c-6.25,-15.11 -44.46,-20.7 -63.22,-12.07 -35.4,16.3 -10.62,30.31 -82,27.81 -47.4,-1.66 -144.48,-11.54 -150.87,-74.19 -2.59,-25.37 5.93,-26.38 -27.09,-30.53 -40.29,-5.06 -51.67,-62.6 -132.64,-89.08 -29.71,-9.71 -30.58,-6.41 -48.03,-37.76 -40.3,-72.4 -81.92,-248.17 -46.33,-325.46 18.75,-40.71 29.02,-22.83 -11.66,-75.45 -44.19,-57.16 -49.85,-104.91 -39.18,-174.79 17.74,-116.19 97.3,-90.99 185.51,-114.66 18.5,-4.96 30.39,-66.18 40.59,-88.95 17.55,-39.14 32.54,-54.36 64.17,-82.01 11.98,-10.47 -8.69,-83 -11.03,-102.64 -7.88,-66.06 7.63,-110.57 73.03,-134.91 22.17,-8.25 138.27,-43.1 139.9,-67.41 -1.58,24.32 -117.62,59.44 -139.78,67.74 -65.11,24.4 -80.43,68.69 -72.42,134.49 2.5,20.56 23.63,92.34 10.9,103.52 -31.41,27.58 -46.28,42.75 -63.64,81.74 -10.52,23.63 -21.62,84.53 -41.38,89.89 -87.93,23.84 -166.55,-1.31 -183.78,113.54 -26.21,174.72 92.57,185.27 61.74,233.53 -49.96,78.2 -10.15,239.56 26.84,320.39 30.8,67.31 30.74,39.55 88.04,68.65 49.12,24.94 66.89,71.23 99.34,75.2 36.26,4.44 28.61,7.14 31.49,34.68 6.77,64.69 126.07,71.85 171.91,68.93 34.13,-2.17 23.82,-8.18 45.97,-22.78 27.23,-17.95 76.48,-6.31 79.34,12.13 7.12,45.88 103.08,35.27 133.56,28.91 89.84,-18.74 67.4,-76.85 128.52,0.52 45.03,57.01 71.65,36.9 128.24,11.51 108.31,-48.59 67.26,5.4 115.65,26.96 55.82,24.86 133.67,-2.11 183.5,-29.09 26.32,-14.25 102.16,-68.68 119.13,-74.44 21.55,-7.32 64.35,43.27 130.07,38.7 33.42,-2.32 33.94,2.62 64.91,12.72 88.52,28.85 189.82,13.73 256.38,-53.15 42.07,-42.28 -1.5,-85.94 20,-89.08 95.18,-13.91 67.62,-80.52 89.09,-93.02 21.03,-12.24 32.87,13.86 70.66,-8.83 85.99,-51.64 144.79,-150.23 95.31,-248.91 -22.15,-44.18 -46.13,-40.72 -23.37,-81.57 37.65,-67.59 59.4,-34.7 41.01,-125.93 -7.46,-37.05 -7.51,-23.07 -0.36,-55.94 10.83,-49.73 -10.97,-121.07 -36.81,-164.13 -34.49,-57.46 -53.94,-58.96 -113.21,-68.33 -79.11,-12.51 -42.22,-14.44 -36.58,-32.25 22.61,-71.41 -36.24,-53.73 -41.66,-64.43 -3.02,-5.97 22.4,-38.73 20.94,-79.41 -2.67,-74.34 -106.28,-59.91 -112.3,-97.74 -3.18,-20.01 16.46,-38.99 -0.37,-103.63 -38.13,-146.43 -122.22,-221.62 -273.64,-240.18 -72.22,-8.85 -90.09,5.13 -140.33,44.6 -47.02,36.94 -77.27,3.14 -122.17,-20.88 -31.51,-16.86 -85.9,-11.79 -119.41,-3.95 -53.51,12.52 -69.84,66.61 -127.08,40.81 -34.07,-15.35 -35.78,-11.3 -72.91,-8.31 -88.57,7.13 -68.11,-19.48 -97.81,-26.13 -74.63,-16.72 -199.68,5.53 -265.38,40.98 -86.08,46.45 -90.52,68.42 -135.62,152.08zm1403.58 1256.63c-0.16,0.03 -0.32,0.06 -0.49,0.08 0.16,-0.02 0.33,-0.05 0.49,-0.08z"/>
  </g>
  <path class="fil2" d="M702.92 749.23c47.47,-85.47 38.4,-95.9 135.5,-152.28 26.06,-15.13 56.88,-22.5 87.23,-30.72 57.84,-15.66 119.08,-22.74 178.37,-10.6 30.19,6.18 5.79,37.12 116.93,24.04 73.03,-8.6 52.29,57.45 154.3,-21.11 18.04,-13.89 116.22,-26.5 146.49,-5.71 164.99,113.31 78.05,-78.2 322.55,-12 126.93,34.37 181.26,106.07 214.96,228.85 32.98,120.18 -56.82,93.94 75.98,146.13 49.55,19.48 43.9,85.82 17.11,129.29 -12.04,19.53 64.42,-14.3 41,71.08 -5.83,21.25 -51.96,15.98 73.85,34.56 77.5,11.45 137.12,173.43 109.31,244.47 -7.15,18.28 29.97,97.25 -1.56,122.49 -0.78,0.63 -56.08,60.83 -41.11,79.32 20.49,25.31 104.66,127.64 -9.94,254.52 -0.73,0.8 -31.51,33.12 -70.91,53.21 -19.27,9.83 -60.32,-16.03 -62.85,13.4 -3.39,39.45 -29.54,77.9 -84.67,81.96 -4.7,0.35 9.36,34.16 2.4,60.34 -4.75,17.88 -31.03,39.73 -39.46,46.19 -67.66,51.82 -159.86,68.48 -260.38,28.56 -55.96,-22.22 -39.83,23.82 -165.11,-45.77 -18.34,-10.19 -135.17,112.44 -254.12,112.44 -150.75,0 -25.71,-109.05 -201.53,-22.78 -109.99,53.97 -109.2,-108.07 -166.2,-52.35 -37.05,36.22 -195.58,50.34 -199,-5.86 -0.43,-7.15 -51.02,-41.67 -89.98,3.4 -19.01,22 -151.85,5.53 -182.7,-20.46 -50.56,-42.59 4.02,-70.59 -53.25,-73.83 -42.58,-2.41 -40.81,-66.87 -151.65,-94.29 -43.02,-10.64 -129.29,-289.53 -63.57,-373.04 29.21,-37.12 -67.44,-60.82 -65.63,-178.24 2.61,-168.79 68.89,-141.45 188.59,-168.69 30.35,-6.91 16.79,-104.17 104.9,-171.3 25.53,-19.45 -70.61,-178.03 47.55,-232.18 26.42,-12.11 154.39,-48.25 154.06,-73.18"/>
  <path class="fil3" d="M89.61 255.78c99.57,-2.66 28.07,-38.9 97.01,-61.94 73.87,-24.69 29.29,-100.63 109.83,-81.86 11.44,2.67 26.65,19.64 43.77,25.96 24.58,9.07 15.79,77.03 114.32,-0.62 25.19,-19.86 231.06,-16.31 238.46,27.63 13.55,80.54 -50.81,30.47 -41.01,81.81 6.87,35.98 88.19,14.68 138.06,30.42 57.97,18.29 124.37,11.42 50.13,100.91 -89.73,108.15 -217.66,-46.36 -258.26,110.36 -6.92,26.72 -174.58,151.72 -237.85,4.5 -10.12,-23.54 -78.14,-6.23 -104.39,-64.1 -17.47,-38.52 -73.36,-10.54 -118.27,-3.53 -101.49,15.85 -122.3,-167.13 -31.8,-169.55z"/>
  <g id="_2313437930848">
   <path class="fil1" d="M2072.19 795.56c-38.64,-122.94 -125.77,-228.17 -255.79,-257.03 -75.13,-16.68 -124.61,-0.92 -188.74,35.32 -49.76,28.12 -140.55,-70.86 -245.15,-16.35 -49.66,25.87 -49.81,38.94 -115.65,34.79 -105.94,-6.68 -195.5,-56.28 -306.91,-24.73 -3.5,8.66 -37.66,20.74 -69.58,30.98 -38.19,20.8 -83.21,48.09 -99,61.07 -0.01,0.01 -27.64,27.17 -39.31,30.98 -19.87,26.03 -42.38,53.31 -93.33,78.39 -36.62,18.03 -59.3,22.76 -96.72,34.48 -64.41,20.18 -89.92,110.04 -57.32,170.51 17.33,32.16 34.41,45.14 9.22,84.16 -32.8,50.81 -96.18,75.52 -96.93,144.6 -0.94,87.11 -200.62,-53.25 -193.07,194.92 0.96,31.62 -1.67,98.63 36.41,108.97 22.17,6.02 25.77,15.9 29.2,39.85 4.25,29.7 -10.43,83.4 -14.07,116.23 -6.97,62.84 3.55,92.91 9.98,153.72 10.71,101.23 50.6,132.91 142.8,176.23 59.65,28.03 88.31,37.35 132.05,91.44 23.73,29.34 27.36,35.81 68.24,40.16 21.19,2.26 150.71,3.13 164.61,-10.69 6.81,-6.78 6.21,-9.85 17.05,-9.61 -10.83,-0.19 -10.21,2.87 -17,9.66 -13.89,13.92 -143.49,13.52 -164.73,11.34 -41.16,-4.22 -44.98,-10.81 -69,-40.26 -43.77,-53.7 -72.39,-62.85 -131.92,-90.53 -93.12,-43.29 -133.54,-75.42 -144.8,-177.5 -8.97,-81.37 -19.46,-95.35 -7.09,-182.58 4.04,-28.49 14.18,-58.39 9.93,-87.11 -3.31,-22.36 -6,-30.86 -26.21,-36.24 -34.22,-9.11 -35.79,-49.62 -38.5,-81.09 -8.58,-99.99 -4.34,-186.99 116.01,-197.94 29.29,-2.67 73.19,4.95 73.3,-28.43 0.36,-103.38 145.92,-133.19 97.02,-209.03 -25.81,-40.03 -36.24,-81.35 -18.38,-126.97 20.18,-51.54 41.71,-65.53 89.16,-80.05 178.67,-54.67 152.56,-139.8 261.16,-182.64 8.78,-3.46 86.62,-35.23 112.29,-40.47l1.31 -0.6c-0.14,0.14 -0.27,0.28 -0.4,0.42 1.64,-0.31 3.05,-0.5 4.17,-0.55 72.29,-21.67 135.42,-8.97 226.6,10.69 64.68,13.94 116.97,28.29 176.35,-6.5 51.55,-30.21 81.67,-37.94 141.73,-22.3 34.37,8.95 96.34,42.78 125.17,26.65 64.75,-36.22 114.7,-51.93 190.3,-34.82 130.2,29.45 217.2,135.06 255.49,258.45zm-1213.98 -186.89c-16.01,6.69 -30.35,13.02 -39.88,17.77 -9.49,6.03 -20.39,13.72 -30.49,21.91 -7.94,7.43 -14.69,15.18 -21.06,23.14 2.21,-1.91 3.95,-3.45 4.68,-4.07 36.61,-31.13 56.5,-39.75 92.4,-60.53 -1.95,0.61 -3.84,1.2 -5.66,1.78z"/>
  </g>
  <path class="fil2" d="M2072.19 795.56c-14.45,-50.84 -43.89,-115.07 -94.77,-165.57 -87.77,-87.12 -224.42,-139.63 -350.39,-57.1 -46.87,30.71 -153.1,-85.38 -266.49,-3.87 -107.53,77.3 -290.58,-83.56 -469.52,25.31 -21.63,13.16 -39.69,23.77 -54.6,32.21 -9.5,5.37 -20.54,10.1 -29.53,16.58 -25.03,18.06 -44.98,39.15 -54.67,44.04 -7.05,3.56 10.76,-24.37 39.42,-47.71 25.59,-20.84 60.8,-37.05 79.21,-39.19 12.12,-1.41 82.52,-31.11 84.98,-33.27 2.33,-2.05 -61.44,22.83 -114.8,42.52 -111.19,41.03 -68.12,132.07 -280.52,188.58 -52.25,13.9 -109.89,110.79 -49.79,193.64 54.04,74.5 -105.31,122.63 -97.14,211.28 6.84,74.21 -195.43,-42.58 -192.54,175.92 2.79,211.16 62,67.97 68.28,187.24 0.07,1.33 -26.42,123.75 -16.29,170.39 25.91,119.4 -18.2,181.23 172.01,264.61 201.48,88.32 32.7,144.75 334.98,118.4 18.12,-1.58 13.6,-16.92 30.16,-15.62"/>
  <g id="_2313437935216">
   <path class="fil1" d="M1828.67 2141.29c42.52,0.32 75.7,4.42 117.17,-6.78 47.21,-12.74 96.27,-3.76 131.72,-37.28l12.29 -12.88c-24.64,28.99 -29.68,33.19 -66.74,43.45 -83.59,23.15 -105.68,19.31 -194.44,13.49z"/>
  </g>
  <path class="fil2" d="M1828.67 2141.29c37.12,0 82.14,7.78 118.48,-2.21 28.44,-7.82 88.88,-10.48 117.83,-29.75 9.68,-6.44 16.58,-16.58 24.87,-24.98"/>
  <g id="_2313437933776">
   <path class="fil1" d="M221.26 1442.8c5.41,80.76 75.28,25.64 54.62,176.34 -5.33,38.9 -26.75,109.7 -25.46,138.97 3.14,71.19 63.68,190.92 140.65,204.26 40.01,6.94 58.74,33.92 73.6,68.68 9.9,23.16 47.07,-16.1 56.68,26.26 15.59,68.66 131.73,105.97 185.61,69.27 68.31,-46.53 108.32,21.65 186.75,27.18l27.82 0.17 -27.81 0.17c-77.67,-4.49 -119.3,-71.27 -184.73,-25.17 -36.33,25.6 -86.85,17.7 -126,0.91 -92.12,-39.49 -50.66,-88.82 -87.33,-84.63 -37.9,4.34 -31.61,2.09 -45.56,-24.52 -21.16,-40.34 -43.71,-37.36 -76.27,-49.36 -68.93,-25.39 -126.59,-143.29 -128.37,-213.12 -0.78,-30.38 21.78,-99.85 27.83,-139.51 22.75,-149.23 -47.59,-94.93 -52.02,-175.93zm700.28 711.15l0 0 0.02 0z"/>
  </g>
  <path class="fil2" d="M221.26 1442.8c-1.7,89.26 106.61,0.28 29.71,283.88 -20.26,74.71 61.17,233.37 139.43,242.3 27.37,3.12 58.58,29.4 68.92,61.17 10.4,31.95 53.2,-10.23 58.36,27.62 9.34,68.53 144.06,109.43 190.3,69.99 56.97,-48.59 121.06,26.18 185.74,26.18 9.28,0 18.56,0 27.84,0"/>
  <g id="_2313437937760">
   <path class="fil1" d="M1053.64 2124.2c10.06,18.47 18.79,39.18 26.94,61 -1.93,-9.37 -3.1,-17.68 -4.34,-26.69 2.22,13.25 5.06,25.76 8.39,37.74 5.48,15.24 10.75,30.93 16.05,46.7 14.24,35.23 31.88,68.55 49.09,107.78 37.28,84.97 30.24,100.51 24.59,131.64 0.26,2.81 0.52,5.64 0.8,8.5 1.83,19.09 14.7,110.41 1.19,114.72 -13.12,4.18 -12.21,-24.58 -12.48,-28.01 -3.89,-49.28 -3.36,-55.73 2.99,-91.99 -2.61,-42.74 -4.14,-81.47 -23.17,-120.1 -18.72,-37.99 -32.5,-82.52 -46.31,-126.1 -4.27,-10.73 -7.98,-20.99 -10.83,-30.6 -1.57,-5.31 -2.87,-10.15 -3.97,-14.68 -8.65,-25.13 -17.95,-48.97 -28.95,-69.93zm54.4 140.56c11.75,34.51 24.16,68.66 39.77,98.69 14.64,28.17 20,56.24 23.36,86.01 -0.88,-54.2 -36.77,-124.33 -63.14,-184.7zm-31.79 -106.24c-0.74,-5.4 -1.5,-11.05 -2.46,-17.33 0.16,1.49 0.35,3.12 0.59,4.89 0.56,4.22 1.19,8.36 1.88,12.44zm-2.46 -17.33c-0.38,-2.49 -0.79,-5.08 -1.25,-7.79 -0.92,-5.46 -1.83,-8.08 -3.84,-9.82 4.32,3.08 3.95,7.02 5.09,17.61zm-5.09 -17.61c-1.52,-1.32 -3.67,-2.14 -6.91,-3.32 3.13,1.18 5.34,2.19 6.91,3.32zm-6.91 -3.32c-0.93,-0.34 -1.96,-0.7 -3.08,-1.12 1.12,0.39 2.14,0.76 3.08,1.12zm106.88 475.15c-0.2,0.37 -0.33,0.77 -0.4,1.18 0.14,-0.28 0.28,-0.69 0.4,-1.18z"/>
  </g>
  <path class="fil2" d="M1053.64 2124.2c18.45,23.45 64.25,194.34 98.7,252.43 22.56,38.05 30.95,336.04 14.97,175.27 -8.36,-84.06 27.11,-78.68 -6.72,-168.33 -33.41,-88.52 -76.06,-147.83 -86.48,-237.46 -2.55,-21.91 -0.64,-21.86 -15.4,-26.97"/>
  <path class="fil3" d="M1757.09 235.85c-58.44,-47.14 -104.77,-101.33 -7.3,-149.8 62.39,-31.03 143.54,48.45 191.33,-24.95 36.73,-56.4 230.53,-82.46 289.6,-19.41 64.34,68.67 135.01,-7.97 186.19,-11.54 69.21,-4.82 188.26,78.77 94.48,189.29 -37.25,43.9 146.9,93.89 80.68,202.08 -53.97,88.19 -225.51,-37.53 -292.91,-32.84 -80.87,5.63 -57.6,0.89 -127.21,27.38 -74.15,28.22 -60.41,-160.13 -208.3,-139.16 -42.32,6 -42.67,37.74 -127.08,0.19 -25.02,-11.13 -59.72,-25.31 -79.47,-41.24z"/>
  <g id="_2313437941264">
   <path class="fil1" d="M1752.36 256.3c-41.25,-32.17 -85.47,-78.63 -47.06,-135.86 46.73,-69.64 149.33,-5.85 218.95,-40.02 44.8,-21.99 63.83,-52.87 121.57,-67.14 37.63,-9.3 121.1,-21.97 151.06,2.47 35.41,28.88 31.14,40.37 83.83,53.2 58.87,14.34 118.41,-57.17 207.16,-14.65 66.62,31.91 62.62,105.09 25.18,166.21 -27.64,45.13 96.11,35.7 81.5,171.35 -10.23,94.97 -95.1,60.24 -154.21,40.81 -34.24,-11.26 -41.59,-14.31 -71.06,-32.32 -28.57,-17.46 -65.64,-12.29 -98.77,-9.61 -55.56,4.5 -52.9,16.69 -92.08,23.34 -36.11,6.12 -81.79,-24.67 -101.86,-58.59 2.04,3.29 4.49,6.64 7.49,10.04 29.79,33.77 64.07,58.61 111.97,42.96 40.82,-13.34 25.86,-14.95 74.46,-19 34,-2.84 70.9,-7.91 99.69,9.57 29.4,17.85 36.67,20.83 70.81,31.93 71.04,23.1 153.08,53.58 152.01,-59.28 -0.59,-62.43 -25.31,-79.9 -69.29,-114.19 -28.42,-22.15 -21.13,-25.05 -5.69,-52.35 31.46,-55.61 25.65,-120.88 -31.4,-148.54 -87.6,-42.47 -146.75,28.8 -206.48,14.06 -52.97,-13.08 -48.72,-24.59 -84.25,-53.75 -29.45,-24.17 -112.85,-11.67 -149.96,-2.59 -57.35,14.03 -76.73,44.97 -121.37,66.75 -70.04,34.19 -172.32,-29.84 -219.03,39.49 -38.44,57.06 5.73,103.54 46.81,135.71zm324.2 99.19c-2.05,-3.47 -3.83,-6.97 -5.31,-10.47 1.37,3.41 3.1,6.9 5.31,10.47zm-5.31 -10.47c-1.78,-4.2 -3.12,-8.4 -3.95,-12.52 -7.41,-36.84 -13.02,-41.99 -57.25,-45.04 -45.88,-3.17 -88.8,3.55 -134.35,6.89 -14.96,1.1 -34.43,-3.35 -54.3,-9.81 48.36,14.45 49.91,8.54 110.66,4.06 154.82,-11.41 123.14,16.51 139.19,56.43zm-249.85 -60.49c-25.43,-8.27 -51.53,-19.85 -69.68,-27.36 16.44,6.84 37.02,17.07 52.74,22.1 6.25,2 11.85,3.74 16.94,5.26zm-69.68 -27.36l-0.14 -0.06 -0.06 -0.02 -1.52 -0.63z"/>
  </g>
  <path class="fil2" d="M1752.36 256.3c-40.87,-29.61 -84.59,-77.66 -46.94,-135.78 16,-24.7 50.01,-36.55 85.76,-34.79 31.75,1.56 73.64,10.71 110.75,3.45 15.81,-3.09 29.72,-12.27 43.29,-21.21 34.6,-22.78 66.03,-47.66 100.66,-54.15 203.98,-38.21 119.2,26.28 234.55,56 55.57,14.32 91.77,-41.39 177.53,-23.99 87.13,17.68 101.54,102.71 53.43,173.61 -29.22,43.06 82.89,36.86 82.89,152.17 0,117.02 -82.84,83.15 -169.86,54.89 -84.96,-27.59 -29.87,-48.85 -179.7,-34.03 -43.03,4.26 -80.22,60.88 -160.96,-26.67 -42.78,-46.39 30.59,-89.71 -151.7,-77.03 -86.27,6 -44.45,12.55 -127.62,-9.45 -8.47,-2.24 -36.07,-15.95 -54.44,-22.86"/>
  <g id="_2313437939632">
   <path class="fil1" d="M2207.5 28.38c-83.03,-35.93 -132.25,-42.27 -214.59,15.06 -76.13,53 -107.15,69.08 -193.61,41.66 -76.2,-24.17 -181.28,120.41 6.35,191.25 77.5,29.26 116.77,10.5 192.36,8.31 41.62,-1.21 83.97,10.11 97.22,52.61 15.65,50.16 23.2,82.52 87,76.2 22.21,-2.2 33.74,-8.66 54.15,-11.17 15.41,-1.89 30.79,-3.72 46.22,-5.35 -15.42,1.75 -30.79,3.7 -46.2,5.7 -30.88,4.02 -52.71,18.1 -87.43,10.59 -67.08,-14.52 -29.29,-85 -92.28,-115.79 -53.44,-26.12 -146.56,13.51 -230.72,-8.42 -219.48,-57.19 -120.31,-235.29 -25.05,-207.8l0 0c85.23,28.25 115.24,12.45 190.98,-39.31 83.18,-56.84 132.51,-50.27 215.6,-13.53z"/>
  </g>
  <path class="fil2" d="M2207.5 28.38c-221.27,-103.92 -216.52,123.78 -407.39,54.78 -71.64,-25.9 -194.92,120.43 4.33,195.96 121.38,46.01 212.59,-31.64 278.91,36.39 26.48,27.16 1.85,133.39 145.2,87.96 0.27,-0.09 48.86,-6.17 54.04,-6.53"/>
  <g id="_2313437940160">
   <path class="fil1" d="M139.71 250.49c-16.41,0.74 -35.33,2.61 -53.49,6.87 2.82,-0.04 5.7,-0.01 8.63,0.08 28.62,0.88 38.69,1.12 44.85,-6.95zm-64.12 9.69c-37.38,11.09 -68.47,33.97 -62.49,80.63 5.51,43.02 53.44,76.13 94.21,83.91 4.81,0.92 9.56,1.62 14.24,2.12 16.06,-4.25 64.44,-21.81 86.17,-16.65 1.57,-0.8 3.14,-1.64 4.71,-2.49 13.22,-7.24 10.8,80.12 112.09,81.03 7.87,0.07 13.54,0.11 17.63,0.27 1.42,-0.4 2.84,-0.82 4.26,-1.27 -1.32,0.45 -2.65,0.87 -3.97,1.28 22.72,0.93 -5.36,5.87 21.52,43.19 30.95,42.97 99.5,37.83 141.66,17.04 89.48,-44.14 59.17,-70.65 121.93,-118.38 32.2,-24.49 88.54,-10.46 127.83,-9.83 70.24,1.13 98.49,-14.37 114.14,-83.84 16.24,-72.13 -96.4,-61.03 -138.9,-63.55 -6.43,-0.38 -99.54,-1.03 -84.57,-31.83 11.33,-23.32 58.34,-4.72 41.73,-53.36 -21.74,-63.66 -108.67,-77.94 -165.26,-65.29 -54.1,12.1 -124.81,61.11 -170.81,21.84 -21.74,-18.56 -25.5,-33.85 -63.42,-34.99 -68.5,-2.07 -35.08,76.21 -94.98,80.29 -34.96,2.38 -31.76,6.68 -44.66,48.1 -1.18,3.78 -2.81,6.91 -4.82,9.51 0.01,0.08 0.01,0.15 0.01,0.23 0,1.24 -0.99,2.24 -2.22,2.28 -13.46,13.36 -39.73,9.09 -66.03,9.77zm49.73 167.01c28.45,2.33 54.82,-3.2 80.82,-16.21 -20.33,-3.68 -62.74,10.87 -80.82,16.21zm-69.94 -165.09c-20.7,3.88 -39.22,14.9 -48.7,45.23 -21.77,69.69 28.99,129.96 101.24,121.87 -0.47,-0.09 -0.94,-0.17 -1.41,-0.26 -47.31,-8.98 -101.15,-49.58 -97.91,-101.14 2.15,-34.22 21.3,-54.09 46.77,-65.7zm157.51 150.04c0.55,0.32 1.07,0.68 1.55,1.06 -0.36,-0.44 -0.72,-0.87 -1.09,-1.29l-0.46 0.24zm4.81 5.5c0.2,0.54 0.38,1.1 0.5,1.69 11.49,55.46 59,81.28 110.59,72.63 -14.3,0.62 -33.77,0.93 -56.62,-8.37 -36.72,-14.96 -40.57,-45.18 -54.47,-65.95zm113.47 74.22c-52.64,10.79 -102.21,-16.06 -114.03,-72.33 -0.66,-3.13 -2.58,-5.32 -5.44,-6.78 -32.77,16.62 -62.45,23.02 -99.12,17.25 -58.19,8.75 -109.98,-25.86 -112.46,-86.64 -2.06,-50.49 21.28,-76.09 60.76,-83.61 24.91,-9.92 54.82,-12.82 80.67,-13.9 0.3,0 0.58,0.06 0.84,0.16 2.57,-5.28 4.76,-12.81 8.25,-23.46 10.88,-33.19 15.98,-32.67 42.51,-34.52 57.66,-4.01 25.06,-82.51 95.21,-80.5 38.68,1.11 42.76,16.55 65.01,35.51 63.47,54.06 148.74,-60.34 267.22,-18.15 31.07,11.06 86.51,52.15 71.29,91.14 -6.68,17.12 -52.98,15.25 -42.63,35.44 14.77,28.83 146.41,12.33 192.03,29.76 41.58,15.89 36.27,44.95 25.32,79.68 -32.62,103.46 -149.49,46.02 -217.99,62.54 -26.34,6.35 -57.23,49.27 -69.23,70.16 -16.13,28.09 -43.37,44.91 -72.07,59.09 -61.81,30.55 -152.97,22.45 -159.69,-60.41 -4.01,-0.99 -9.57,-0.74 -16.46,-0.43zm16.37 -0.54l-0.02 -0.17c0,0.06 0.01,0.12 0.02,0.17zm-132.97 -80.05c0.08,-0.04 0.17,-0.08 0.25,-0.13l-0.25 0.13z"/>
  </g>
  <path class="fil2" d="M141.56 248.13c-65.06,0 -135.72,20.14 -130.66,92.83 0.71,10.26 12.97,36.94 31.55,54.48 47.99,45.29 130.29,40.75 171.18,13.97 1.76,-1.15 20.07,36.69 27.84,47.42 34.7,47.88 108.09,29.4 108.09,34.32 0,68.63 76.02,86.51 132.17,70.02 26.18,-7.69 86.68,-41.91 95.87,-68.18 5.93,-16.95 48.42,-66.81 70.65,-71.34 65.3,-13.32 191.37,36.63 216.68,-61.16 3.26,-12.59 10.66,-33.81 8.14,-44.07 -8.01,-32.64 -49.24,-42.76 -87.64,-42.76 -35.72,0 -73.93,-2.25 -108.88,-6.42 -31.64,-3.77 -48.99,-30.84 3.25,-42 26.71,-5.71 14.41,-81.21 -75.68,-103.79 -117.52,-29.46 -200.68,89.67 -263.62,9.85 -16.35,-20.74 -62.46,-31.06 -83.64,-13.98 -38.57,31.11 -12.23,74 -74.27,71.98 -23.42,-0.76 -30.48,30.99 -34.99,48.83 -9.53,37.69 -59.16,9.7 -99.46,25.06 -18.34,6.99 -38.67,18.5 -45.51,57.14 -11.48,64.83 37.29,101.77 67.49,108.6 45.09,10.19 87.15,-16.24 113.65,-17.76 35.98,-2.07 32.32,2.02 34.54,11.61 17.61,75.84 99.34,78.78 128.08,64.94"/>
  <g id="_2313437943136">
   <path class="fil1" d="M104.05 247.12c70.03,-2.87 7.23,-37.33 89.98,-60.73 56.14,-15.87 10.4,-75.1 100.85,-80.49 39.92,-2.38 72.72,62.59 126.22,49.53 16.06,-3.92 38.88,-13.47 56.89,-18.48 37.13,-10.33 112.83,-29.2 150.33,-13 36.51,15.77 90.21,31.89 74.74,83.83 -10.29,34.57 -49.59,7.56 -53.1,38.77 -1.65,14.63 57.3,23.22 69.04,23.83 57.95,2.98 193.96,-3.74 146.01,94.56 -52.21,107.03 -193.18,13.92 -268.29,95.68 -5.04,5.48 -6.36,8.86 -7.59,15.96 0.56,-7.31 1.94,-10.82 6.94,-16.52 73.24,-83.56 215.28,8.22 265.7,-96.68 45.65,-94.96 -87.79,-85.72 -142.9,-88.34 -13.76,-0.65 -75.86,-10.07 -73.9,-28.74 3.7,-35.25 44.44,-10.74 53.02,-40.01 14.2,-48.44 -38.74,-62.92 -72.32,-77.26 -35.23,-15.04 -111.18,4.12 -145.99,13.94 -17.9,5.04 -41.01,14.76 -57,18.71 -56.73,14.01 -91.72,-51.19 -127.3,-48.92 -86.37,5.51 -37.42,62.91 -99.75,80.73 -77.41,22.13 -15.02,57.87 -91.57,61.23 -2.1,0 -3.8,-1.7 -3.8,-3.8 0,-2.1 1.7,-3.8 3.8,-3.8z"/>
  </g>
  <path class="fil2" d="M104.05 250.92c70.14,0 15.22,-44.02 90.78,-60.98 54.62,-12.26 15.59,-60.95 76.44,-76.1 41.95,-10.45 36.06,-2.53 69.96,16.78 38.48,21.92 48.24,41.87 97.37,22.41 37.61,-14.89 152.34,-45.33 188.39,-26.54 40.64,21.17 80.09,22.34 74.57,75.19 -1.54,14.72 -13.05,26.3 -35.2,24.99 -11.71,-0.69 -25.1,21.49 -15.82,25.58 57.58,25.35 38.25,18.27 104.64,21.78 37.28,1.97 95.15,4.08 112.87,33.5 9.96,16.53 2.33,53.8 -16.73,74.93 -25.16,27.89 -13.54,19.81 -59.65,33.83 -48.49,14.75 -125.46,-12.18 -181.46,31.73 -8.74,6.85 -21.09,16.48 -21.09,28.56"/>
  <g id="_2313437912080">
   <path class="fil1" d="M1832.48 92.09c13,0.38 24.66,1.72 35.62,1.82 -11.13,-0.08 -22.88,-1.4 -35.62,-1.82zm35.62 1.82c5.17,0.05 10.18,-0.18 15.1,-0.91 -4.93,0.71 -9.95,0.94 -15.1,0.91zm15.1 -0.91c8.13,-1.21 16.02,-3.79 23.95,-8.79 0.28,-0.07 0.57,-0.14 0.86,-0.23 -8.13,5.15 -16.34,7.79 -24.82,9.02zm23.95 -8.79c0.34,-0.21 0.68,-0.43 1.02,-0.65 -1.28,0.42 -2.37,0.75 -3.25,0.98 0.66,-0.02 1.4,-0.13 2.23,-0.33zm1.02 -0.65c2.31,-1.51 4.63,-3.23 6.95,-5.19 0,0 3.32,-2.81 7.15,-5.91 -1.5,1.47 -3.66,3.44 -6.93,6.17 -2.04,1.7 -4.09,3.23 -6.14,4.59 -0.36,0.12 -0.7,0.24 -1.04,0.34zm14.1 -11.1c0.78,-0.63 1.58,-1.28 2.38,-1.91l-1.08 0.59c-0.37,0.39 -0.8,0.83 -1.31,1.32zm2.38 -1.91c1.58,-1.26 3.16,-2.48 4.54,-3.5l2.17 -1.2c-0.4,0.16 -0.77,0.3 -1.11,0.43 2.55,-1.81 4.12,-2.65 3.24,-1.16 -0.4,0.67 -4.11,2.81 -8.83,5.42zm4.54 -3.5c0.37,-0.27 0.72,-0.52 1.05,-0.76 -3.11,1.22 -3.68,1.62 -4.84,2.88 1.4,-0.79 2.69,-1.5 3.79,-2.12zm-5.61 4.09c-9.09,5 -21.13,11.39 -21.14,12.66 0.53,0.54 1.38,0.77 2.48,0.74 -11.35,2.99 8.68,-8.74 20.48,-15.37 -0.46,0.49 -1,1.12 -1.82,1.98zm-15.56 12.84c2.1,-0.6 4.65,-1.66 7.48,-3.06 -0.71,0.28 -1.42,0.55 -2.15,0.82 -1.56,0.57 -2.93,1.06 -4.15,1.47 -0.4,0.26 -0.79,0.52 -1.19,0.77zm7.48 -3.06c17.33,-8.52 45.64,-29.38 51.82,-32.86 70.31,-39.59 130.44,-48.67 209.24,-31.52 52.17,11.35 60,51.31 118.56,54.38 27.68,1.45 76.39,-15.83 109.73,-20.45 46.06,-6.4 71.59,-12.57 106.49,24.89 32.73,35.13 29.8,95.89 13.91,137.72 -11.49,30.24 -6.05,39.54 20.03,66.76 30.32,31.66 62.74,39.56 60.06,92.92 -1.62,32.21 -22.64,66.53 -55.03,73.87 -89.03,20.17 -124.85,-39.1 -209.2,-45.35 -56.16,-4.16 -87.3,-5.51 -143.52,3.35 -37.68,5.94 -85.95,14.16 -98.09,-30.94 -13.27,-49.33 -30.02,-83.3 -82.11,-87.52 -63.08,-5.11 -109.98,13.64 -176.1,-4.33 -34.29,-9.31 -54.28,-12.6 -85.03,-29.68 -18.42,-10.23 -10.05,-6.15 -27.11,-13.5 17.1,7.29 8.7,3.24 27.17,13.4 30.8,16.95 50.84,20.17 85.15,29.34 65.87,17.62 113.06,-1.28 176.01,3.53 52.91,4.05 70.17,38.55 83.86,88.46 11.92,43.49 59.67,34.73 95.76,28.84 56.49,-9.22 87.76,-8.07 144.26,-4.25 66.6,4.5 106.54,43.77 158.58,47.1 48.53,3.11 82.42,-4.27 96.75,-56.35 15.19,-55.21 -25.15,-70.8 -56.25,-104.6 -26.82,-29.14 -32.96,-40.47 -20.15,-73.09 15.68,-39.94 19.26,-98.93 -11.92,-132.91 -33.67,-36.69 -58.4,-30.31 -103.23,-24.39 -33.83,4.47 -81.71,21.44 -110.11,19.79 -59.6,-3.46 -67.16,-43.61 -118.84,-55.12 -72.85,-16.23 -124.06,-10.34 -191.02,21.6 -29.55,14.1 -43.12,30.55 -69.64,40.91z"/>
  </g>
  <path class="fil2" d="M1832.48 92.09c55.67,0 59.47,10.09 94.63,-24.61 0.1,-0.09 21.87,-10.27 -16.69,10.64 -28.34,15.37 24.36,-1.88 34.53,-13.8 15.11,-17.71 101.36,-53.66 125.42,-53.42 45.47,0.45 29.59,-6 81.71,2.2 77.64,12.21 43.35,19.11 105.36,49.29 52.82,25.71 92.66,-5.97 147.54,-10.27 34.93,-2.74 53.53,-15.76 91.38,12.56 40.77,30.51 41.65,75 34.11,121.18 -7.23,44.23 -34.51,43.05 12.38,96.14 26.99,30.56 59.41,34.19 59.41,90.78 0,20.97 -16.34,49.79 -30.07,61.94 -18.78,16.63 -90.61,17.21 -113.25,2.83 -8.63,-5.48 -87.04,-35.66 -97.1,-36.39 -54.97,-3.99 -109.94,-9.04 -164.5,2.29 -31.44,6.53 -89.93,12.83 -96.92,-29.89 -3.55,-21.71 -23.6,-60.6 -40.25,-74.69 -38.87,-32.89 -162.96,5.99 -218.79,-17.23 -0.72,-0.3 -55.25,-15.51 -59.5,-16.6 -10.8,-2.78 -39.85,-22.86 -52.72,-26.36"/>
 </g>
</svg>
