<?xml version="1.0" encoding="UTF-8"?>
<!DOCTYPE svg PUBLIC "-//W3C//DTD SVG 1.1//EN" "http://www.w3.org/Graphics/SVG/1.1/DTD/svg11.dtd">
<!-- Creator: CorelDRAW 2020 (64-Bit) -->
<svg xmlns="http://www.w3.org/2000/svg" xml:space="preserve" width="14.3447in" height="14.1628in" version="1.1" style="shape-rendering:geometricPrecision; text-rendering:geometricPrecision; image-rendering:optimizeQuality; fill-rule:evenodd; clip-rule:evenodd"
viewBox="0 0 1321.35 1304.6"
 xmlns:xlink="http://www.w3.org/1999/xlink"
 xmlns:xodm="http://www.corel.com/coreldraw/odm/2003">
 <defs>
  <style type="text/css">
   <![CDATA[
    .fil2 {fill:none}
    .fil1 {fill:#373435}
    .fil0 {fill:#ABA994}
    .fil3 {fill:#9ACA48}
   ]]>
  </style>
 </defs>
 <g id="Layer_x0020_1">
  <metadata id="CorelCorpID_0Corel-Layer"/>
  <path class="fil0" d="M513.46 973.44c30.48,33.73 53.52,155.31 51.43,204.19 -0.39,9.04 10.56,117.8 21.23,120.01 3.99,19.31 89.62,-12.59 125.89,-0.66 0.21,0.07 47.23,0.28 46.32,-21.1 -2.37,-55.37 2.23,-98.43 -4.74,-155.06 -6.23,-50.65 43.95,-91.84 53.73,-139.84 4.67,-22.9 -31.71,24.93 -42.72,24.7 -66.16,-1.42 -23.74,15 -61.94,59.87 -11.43,13.43 -6.28,-31.2 -25.7,-45.66 -6.99,-5.2 -14.24,-68.89 -52.2,-29.43 -17.53,18.23 -56.8,-24.29 -56.8,41.32 0,99.55 -3.03,9.51 -22.77,-29.17 -7.17,-14.04 3.73,-17.73 -18.55,-31.1 -2.31,-20.06 -23.63,-1.55 -10.94,4.12l-2.24 -2.19z"/>
  <g id="_1494224048256">
   <path class="fil1" d="M582.36 1011.83c-0.77,24.34 -13.17,296.09 3.82,289.06 57.76,-23.89 81.01,-11.88 137.12,-12.64 33.18,-0.45 29.85,-9.19 30.99,-37.79 0.94,-23.48 9.88,-264.33 -6.13,-265.35 -37.51,-2.38 -95.21,3.48 -131.44,14.08 -15.51,4.54 -18.76,6.04 -35.13,8.41 16.34,-2.52 19.55,-4.05 35.02,-8.75 36.44,-11.07 93.65,-17.44 131.55,-15.58 8.24,0.4 9.97,38.68 10.22,41.73 5.81,71.14 2.84,153.5 2.76,225.61 -0.02,17.93 4.9,35.67 -14.98,42.13 -22.19,7.21 -87.27,-7.22 -129.87,1.93 -6.28,1.35 -29.84,9.89 -30.2,9.91 -23.17,1.73 -4.98,-262.77 -3.74,-292.76z"/>
  </g>
  <path class="fil2" d="M582.36 1011.83c-0.35,21.05 -17.59,301.37 4.61,290.69 75.12,-36.16 170.41,14.46 170.41,-31.71 0,-27.68 8.77,-286.61 -9.21,-286.61 -123.56,0 -132.56,20.75 -166.57,23.41"/>
  <g id="_1494224049552">
   <path class="fil1" d="M519.6 982.65c0.24,2.3 0.62,4.9 1.1,7.75 1.68,3.45 3.2,7.54 4.21,12.44l1.16 12.19c8.3,33.48 22,77.63 28.17,100.72 12.82,47.98 26.03,96.75 27.79,146.6 1.21,34.4 26.38,26.13 57.2,25.62 23.4,-0.39 34.2,1.04 57.11,5.52 52.13,10.19 60.04,-14.07 57.44,-63.45 -3.02,-57.3 -21.06,-146.13 20.06,-194.15 15.18,-17.73 26.58,-21.21 34.89,-45.41 0.2,-0.59 0.39,-1.26 0.57,-1.97 -16.37,7.29 -41.51,14.84 -42.05,15.03 -10.73,3.82 -39.65,15.38 -48.88,16.12 -0.68,3.3 -6.97,53.81 -18.94,49.89 -20.63,-6.75 -30.83,-117.66 -104.97,-81.99 -29.5,14.19 -13.03,122.86 -20.54,113.86 -2.17,-2.6 -23.75,-56.45 -24.6,-60.6 -2.23,-10.81 -18.73,-109.97 -38.9,-68.08 -1.32,2.75 5.17,7.22 10.23,17.5 -0.46,-2.78 -0.81,-5.33 -1.03,-7.59zm1.23 8.48c1.19,6.76 3,14.85 5.18,23.69l-1.21 -11.97c-0.97,-4.57 -2.39,-8.43 -3.97,-11.73zm290.59 -10.38c1.46,-3.55 3.9,-6.01 9.02,-4.21 4.96,1.75 2.5,4.76 -3.47,8.17 -8.13,30.15 -14.52,31.86 -36.49,56.92 -41.59,47.44 -24.64,130.9 -22.32,188.2 2.09,51.7 -7.7,78.05 -62.63,66.77 -22.55,-4.63 -33.18,-6.12 -56.27,-5.95 -31.67,0.24 -58.27,8.18 -59.27,-28.36 -1.36,-49.68 -14.2,-98.41 -26.64,-146.31 -5.93,-22.83 -19.04,-66.13 -27.15,-99.47l0.3 3.17 -0.34 -3.31c-2.32,-9.53 -4.22,-18.24 -5.43,-25.42 -5.2,-10.72 -12.09,-15.31 -10.64,-18.36 12.9,-27.27 24.12,5 28.88,19.75 5.42,16.82 8.15,40.93 12.59,54.03 0.93,2.74 19.25,44.92 22.85,52.8 0.01,-0.32 0,-0.77 -0,-1.79 -0.05,-26.15 -2.14,-69.93 5.4,-94.49 7.9,-25.73 42.95,-29.21 63.45,-19.58 31.32,14.71 38.22,64.69 55.41,81.27 8.13,7.84 15.18,-45.79 15.18,-45.79 25.84,-14.11 68.27,-23.95 97.55,-38.04z"/>
  </g>
  <path class="fil2" d="M519.6 982.65c-0.71,21.33 63.59,211.2 61.41,279.68 -1.5,46.93 47.82,15.58 114.92,32.72 87.81,22.43 53.95,-80.18 53.95,-146.59 0,-134.85 51.05,-101.55 65.01,-168.35 30.96,-6.41 -98.69,38.67 -98.78,39.13 -5.57,28.42 -8.99,45.58 -13.66,48.16 -6.47,3.57 -14.27,-16.58 -24.04,-35.58 -6.42,-12.49 -13.2,-29.1 -23.61,-38.89 -14.11,-13.28 -37.39,-18.34 -60.92,-6.44 -9.25,4.68 -19.03,10.31 -19.03,89.09 0,42.21 4.9,31.79 -23.77,-28.95 -1.61,-3.41 -18.25,-115.78 -39.92,-75.71 -3.1,5.74 -0.89,2.84 1,5.7 4.19,6.37 14.33,17.02 14.33,43.1"/>
  <path class="fil3" d="M170.74 205.74c6.67,-35.72 47.33,-40.38 65.3,-54 18.89,4.46 74.53,-55.26 88.07,-73.95 41.8,-57.71 193.74,-91.48 252.39,-50.14 18.18,12.82 91.43,13.64 114.73,-11.27 16.73,-17.88 93.67,-22.07 123.27,4.08 37.7,33.31 66.76,-18.91 119.1,-18.91 66.29,0 74.06,13.26 136.02,39.52 12.52,5.31 59.86,104.89 60.08,122.07 0.28,20.83 0.59,53.21 24.49,60.49 2.41,6.11 60.36,28.55 35.94,77.67 -5.19,10.44 14.66,20.82 16.93,32.04 2.99,14.77 -21.26,34.58 -7.18,38.97 34.55,10.75 79.97,13.67 100.01,49.92 14.04,25.4 9.43,72.81 11.26,109.09 1.21,23.88 12.98,38.59 7.22,54.41 -5.54,15.21 -13.97,17.57 -18.4,27.29 -14.69,32.25 15.84,62.23 14.09,111.69 -0.37,10.43 -8.83,26.67 -10.47,39.85 -2.76,22.15 -4.31,54.79 -103.49,78.17 -3.83,0.9 -7.86,23.67 -22.03,34.08 -9.58,7.04 -24.99,2.75 -31.05,13.53 -5.06,9 6.09,16.36 6.84,27.04 0.91,12.93 -8.1,28.6 -10.7,30.27 -29.74,19.06 -19.61,34.53 -77.72,33.38 -34.36,-0.68 -89.81,26.56 -147.49,2.06 -93.24,-39.61 -73.71,0.63 -167,25.97 -90.27,24.51 -19.48,21.74 -109.35,-6.54 -34.16,-10.75 -67.24,39.23 -119.58,-7.28 -37.49,-33.32 -5.16,-18.44 -66.2,-3.73 -107.45,25.9 -60.96,-61.28 -129.37,-30.97 -24.56,10.89 -112.25,40.41 -124.16,5 -5.15,-15.31 -44.62,-57.68 -61.06,-59.74 -23.26,-2.92 -87.92,-60.86 -88.23,-84.31 -0.88,-66.54 -54.66,-68.82 -12.67,-174 1.96,-4.9 11.66,3.88 9.88,-30.08 -0.35,-6.71 -10.57,-1.07 -13.2,-19.04 -2.59,-17.68 -88.37,-116.36 19.03,-158.15 73.82,-28.73 41.55,-36.85 90.38,-90.97 43.87,-48.63 48.5,-28.01 17.62,-100.54 -0.64,-1.5 -4.87,-43.9 6.71,-42.99z"/>
  <g id="_1494224055264">
   <path class="fil1" d="M296.86 136.27c27.26,-50.84 29.94,-64.18 82.12,-92.5 39.9,-21.65 115.85,-35.34 161.26,-25.27 22.89,5.07 -0.23,20.39 70.82,14.49 43.97,-3.65 33.99,29.14 82.58,-4.88 20.63,-14.45 25.58,-15.71 52.67,-17.73 63.59,-4.75 60.95,28.99 99.16,28.23 32.34,-0.64 36.34,-65.7 158,-25.5 68.06,22.49 99.64,67.96 117.38,135.26 8.46,32.09 4.56,31.07 0.47,60.28 -2.8,19.98 56.39,16.42 66.62,51.35 5.92,20.21 -1.37,39.12 -10.47,56.61 -0.1,0.2 -0.57,0.94 -0.55,1.32 3.14,2.92 39.59,-3.1 25.7,41.43 -1.86,5.96 -6.05,7.55 -7.57,9.61 30.15,12.23 55.7,-2.34 84.7,29.7 25.13,27.75 44.84,84.51 36.99,121.28 -4.12,19.26 -4.26,9.75 0.35,32.14 11.86,57.63 -2.45,38.77 -25.01,79.66 -10.88,19.71 -2.17,16.82 10.37,37.38 38.6,63.31 2.22,131.02 -54.97,165.88 -24.33,14.83 -35.67,-0.19 -43.32,6.03 -7.17,5.83 4.35,46.4 -53.41,57.14 1.34,18.85 10.03,29.12 -6.16,48.65 -39.75,47.96 -110.06,56.87 -167.02,37.73 -17.64,-5.93 -17.71,-8.88 -36.51,-7.72 -28.68,1.76 -50.68,-11.47 -75.34,-24.81 -4.07,-0.54 -64.61,39.8 -73.87,44.74 -31.83,17 -80.58,33.26 -115.99,17.26 -32.9,-14.87 -3.72,-44.43 -66.26,-16.7 -36.14,16.02 -54.25,28.09 -83.02,-8.63 -36.06,-46.03 -15.54,-7.08 -83.94,2.65 -20.57,2.93 -70.86,6.27 -75.23,-22.87l0.01 0.1c-3.79,-9.17 -26.97,-12.56 -38.35,-7.32 -21.47,9.89 -6.44,18.39 -49.74,16.87 -28.76,-1.01 -87.64,-7 -91.52,-45 -1.57,-15.39 3.6,-16 -16.43,-18.52 -24.44,-3.07 -31.35,-37.98 -80.46,-54.04 -18.02,-5.89 -18.55,-3.89 -29.14,-22.9 -24.45,-43.92 -49.7,-150.55 -28.11,-197.43 11.37,-24.7 17.6,-13.85 -7.07,-45.77 -26.81,-34.68 -30.24,-63.64 -23.77,-106.03 10.76,-70.48 59.03,-55.2 112.54,-69.56 11.22,-3.01 18.43,-40.15 24.63,-53.96 10.64,-23.75 19.74,-32.98 38.93,-49.75 7.27,-6.35 -5.27,-50.35 -6.69,-62.26 -4.78,-40.07 4.63,-67.07 44.3,-81.84 13.45,-5 83.88,-26.15 84.87,-40.89 -0.96,14.76 -71.35,36.06 -84.79,41.1 -39.49,14.8 -48.79,41.67 -43.93,81.59 1.52,12.47 14.33,56.01 6.61,62.8 -19.05,16.73 -28.07,25.94 -38.61,49.59 -6.38,14.33 -13.12,51.28 -25.1,54.53 -53.34,14.46 -101.04,-0.8 -111.49,68.88 -15.9,105.99 56.15,112.39 37.45,141.66 -30.31,47.44 -6.15,145.32 16.28,194.36 18.68,40.83 18.65,23.99 53.41,41.65 29.8,15.13 40.58,43.21 60.26,45.62 21.99,2.69 17.36,4.33 19.1,21.04 4.11,39.24 76.47,43.58 104.29,41.82 20.7,-1.32 14.45,-4.96 27.89,-13.82 16.52,-10.89 46.39,-3.83 48.13,7.36 4.32,27.83 62.53,21.39 81.02,17.54 54.5,-11.37 40.89,-46.62 77.96,0.31 27.32,34.58 43.47,22.38 77.8,6.98 65.7,-29.47 40.8,3.28 70.16,16.36 33.86,15.08 81.09,-1.28 111.32,-17.65 15.97,-8.65 61.97,-41.66 72.27,-45.16 13.07,-4.44 39.04,26.25 78.91,23.48 20.27,-1.41 20.59,1.59 39.38,7.71 53.7,17.5 115.15,8.33 155.53,-32.24 25.52,-25.65 -0.91,-52.13 12.14,-54.04 57.74,-8.44 41.02,-48.85 54.05,-56.43 12.75,-7.42 19.94,8.41 42.86,-5.35 52.16,-31.32 87.84,-91.13 57.82,-151 -13.44,-26.8 -27.98,-24.7 -14.18,-49.48 22.84,-41 36.03,-21.05 24.88,-76.39 -4.53,-22.48 -4.56,-14 -0.22,-33.93 6.57,-30.16 -6.65,-73.45 -22.33,-99.56 -20.93,-34.86 -32.72,-35.77 -68.68,-41.45 -47.99,-7.59 -25.61,-8.76 -22.19,-19.56 13.71,-43.32 -21.98,-32.59 -25.27,-39.08 -1.83,-3.62 13.59,-23.5 12.7,-48.17 -1.62,-45.1 -64.47,-36.35 -68.12,-59.29 -1.93,-12.14 9.99,-23.65 -0.23,-62.86 -23.13,-88.83 -74.14,-134.44 -166,-145.7 -43.81,-5.37 -54.65,3.11 -85.13,27.06 -28.52,22.41 -46.88,1.91 -74.11,-12.67 -19.12,-10.23 -52.11,-7.15 -72.44,-2.4 -32.46,7.6 -42.37,40.41 -77.09,24.76 -20.67,-9.31 -21.71,-6.86 -44.23,-5.04 -53.73,4.33 -41.32,-11.82 -59.33,-15.85 -45.27,-10.14 -121.13,3.36 -160.98,24.86 -52.22,28.18 -54.91,41.51 -82.27,92.25zm851.45 762.31c-0.1,0.02 -0.2,0.04 -0.3,0.05 0.1,-0.01 0.2,-0.03 0.3,-0.05z"/>
  </g>
  <path class="fil2" d="M296.86 136.27c28.8,-51.85 23.29,-58.18 82.2,-92.38 15.81,-9.18 34.51,-13.65 52.91,-18.64 35.09,-9.5 72.24,-13.79 108.21,-6.43 18.32,3.75 3.51,22.52 70.93,14.58 44.3,-5.21 31.72,34.85 93.6,-12.81 10.94,-8.43 70.5,-16.08 88.87,-3.47 100.09,68.74 47.35,-47.44 195.67,-7.28 77,20.85 109.96,64.35 130.4,138.83 20.01,72.91 -34.47,56.98 46.09,88.65 30.06,11.82 26.63,52.06 10.38,78.43 -7.3,11.85 39.08,-8.68 24.87,43.12 -3.54,12.89 -31.52,9.69 44.8,20.97 47.01,6.94 83.18,105.2 66.31,148.3 -4.34,11.09 18.18,59 -0.95,74.31 -0.48,0.38 -34.02,36.9 -24.94,48.12 12.43,15.35 63.49,77.43 -6.03,154.4 -0.44,0.49 -19.11,20.09 -43.01,32.28 -11.69,5.96 -36.59,-9.72 -38.12,8.13 -2.06,23.93 -17.92,47.26 -51.36,49.72 -2.85,0.21 5.68,20.72 1.46,36.61 -2.88,10.85 -18.82,24.1 -23.94,28.02 -41.05,31.44 -96.98,41.54 -157.95,17.33 -33.95,-13.48 -24.16,14.45 -100.16,-27.77 -11.13,-6.18 -82,68.21 -154.16,68.21 -91.45,0 -15.59,-66.15 -122.26,-13.82 -66.72,32.74 -66.24,-65.56 -100.82,-31.76 -22.48,21.97 -118.64,30.54 -120.72,-3.55 -0.26,-4.34 -30.95,-25.28 -54.58,2.06 -11.53,13.35 -92.12,3.35 -110.83,-12.41 -30.67,-25.84 2.44,-42.82 -32.31,-44.79 -25.83,-1.46 -24.76,-40.57 -91.99,-57.2 -26.1,-6.46 -78.43,-175.64 -38.57,-226.29 17.72,-22.52 -40.91,-36.9 -39.81,-108.12 1.58,-102.39 41.79,-85.81 114.4,-102.33 18.41,-4.19 10.18,-63.19 63.63,-103.91 15.48,-11.8 -42.83,-108 28.84,-140.85 16.03,-7.34 93.66,-29.27 93.46,-44.39"/>
  <g id="_1494224062272">
   <path class="fil1" d="M1127.5 164.38c-23.44,-74.58 -76.3,-138.41 -155.17,-155.92 -45.57,-10.12 -75.59,-0.56 -114.49,21.42 -30.19,17.06 -85.26,-42.98 -148.72,-9.92 -30.12,15.7 -30.21,23.62 -70.16,21.11 -64.26,-4.05 -118.6,-34.14 -186.18,-15 -2.12,5.26 -22.85,12.58 -42.21,18.79 -23.17,12.62 -50.48,29.17 -60.06,37.05 -0.01,0.01 -16.77,16.48 -23.85,18.79 -12.06,15.79 -25.71,32.34 -56.62,47.56 -22.21,10.94 -35.97,13.81 -58.67,20.92 -39.07,12.24 -54.55,66.75 -34.77,103.44 10.52,19.51 20.88,27.38 5.59,51.06 -19.9,30.82 -58.35,45.81 -58.8,87.72 -0.57,52.85 -121.7,-32.3 -117.12,118.24 0.58,19.18 -1.02,59.83 22.09,66.1 13.45,3.65 15.63,9.65 17.71,24.18 2.58,18.02 -6.33,50.59 -8.54,70.51 -4.23,38.12 2.16,56.36 6.06,93.25 6.5,61.41 30.69,80.63 86.63,106.91 36.19,17 53.57,22.66 80.1,55.47 14.39,17.8 16.6,21.73 41.39,24.36 12.85,1.37 91.43,1.9 99.86,-6.49 4.13,-4.11 3.77,-5.97 10.34,-5.83 -6.57,-0.12 -6.19,1.74 -10.31,5.86 -8.43,8.44 -87.05,8.2 -99.93,6.88 -24.97,-2.56 -27.29,-6.56 -41.86,-24.43 -26.55,-32.58 -43.91,-38.13 -80.03,-54.92 -56.49,-26.26 -81.01,-45.75 -87.84,-107.67 -5.44,-49.36 -11.8,-57.84 -4.3,-110.76 2.45,-17.28 8.6,-35.42 6.02,-52.85 -2.01,-13.57 -3.64,-18.72 -15.9,-21.99 -20.76,-5.53 -21.71,-30.1 -23.35,-49.19 -5.21,-60.66 -2.63,-113.43 70.38,-120.08 17.77,-1.62 44.4,3 44.47,-17.25 0.22,-62.71 88.52,-80.8 58.86,-126.8 -15.66,-24.28 -21.98,-49.35 -11.15,-77.02 12.24,-31.27 25.3,-39.76 54.09,-48.56 108.38,-33.17 92.55,-84.81 158.43,-110.8 5.33,-2.1 52.55,-21.37 68.12,-24.55l0.79 -0.36c-0.09,0.08 -0.17,0.17 -0.24,0.25 1,-0.19 1.85,-0.3 2.53,-0.33 43.86,-13.15 82.15,-5.44 137.46,6.48 39.24,8.46 70.96,17.16 106.98,-3.94 31.27,-18.32 49.55,-23.02 85.98,-13.53 20.85,5.43 58.44,25.95 75.93,16.17 39.28,-21.97 69.58,-31.5 115.44,-21.12 78.98,17.87 131.76,81.93 154.99,156.78zm-736.44 -113.37c-9.71,4.06 -18.41,7.9 -24.19,10.78 -5.76,3.66 -12.37,8.32 -18.5,13.29 -4.82,4.51 -8.91,9.21 -12.77,14.04 1.34,-1.16 2.39,-2.09 2.84,-2.47 22.21,-18.88 34.28,-24.12 56.05,-36.72 -1.18,0.37 -2.33,0.73 -3.43,1.08z"/>
  </g>
  <path class="fil2" d="M1127.5 164.38c-8.76,-30.84 -26.63,-69.81 -57.49,-100.44 -53.25,-52.85 -136.14,-84.7 -212.56,-34.64 -28.43,18.63 -92.88,-51.79 -161.66,-2.35 -65.23,46.9 -176.28,-50.69 -284.82,15.35 -13.12,7.98 -24.08,14.42 -33.12,19.54 -5.76,3.26 -12.46,6.12 -17.92,10.06 -15.19,10.96 -27.29,23.75 -33.16,26.72 -4.28,2.16 6.53,-14.79 23.91,-28.94 15.52,-12.64 36.88,-22.47 48.05,-23.78 7.35,-0.86 50.06,-18.87 51.55,-20.18 1.42,-1.24 -37.27,13.85 -69.64,25.79 -67.45,24.89 -41.32,80.12 -170.17,114.4 -31.7,8.43 -66.66,67.21 -30.2,117.47 32.78,45.19 -63.88,74.39 -58.93,128.17 4.15,45.02 -118.55,-25.83 -116.8,106.72 1.69,128.09 37.61,41.23 41.42,113.59 0.04,0.81 -16.03,75.07 -9.88,103.37 15.72,72.43 -11.04,109.94 104.35,160.52 122.23,53.58 19.84,87.81 203.21,71.83 10.99,-0.96 8.25,-10.27 18.3,-9.47"/>
  <g id="_1494224064624">
   <path class="fil1" d="M979.77 980.73c25.79,0.19 45.92,2.68 71.08,-4.11 28.64,-7.73 58.4,-2.28 79.9,-22.62l7.46 -7.82c-14.95,17.59 -18.01,20.13 -40.49,26.36 -50.71,14.04 -64.11,11.71 -117.95,8.18z"/>
  </g>
  <path class="fil2" d="M979.77 980.73c22.52,0 49.83,4.72 71.88,-1.34 17.26,-4.74 53.91,-6.36 71.48,-18.05 5.87,-3.91 10.06,-10.06 15.09,-15.15"/>
  <g id="_1494224064912">
   <path class="fil1" d="M4.67 557.01c3.28,48.99 45.67,15.55 33.14,106.97 -3.23,23.6 -16.22,66.55 -15.44,84.31 1.9,43.18 38.63,115.82 85.32,123.91 24.27,4.21 35.63,20.58 44.65,41.67 6.01,14.05 28.55,-9.76 34.39,15.93 9.46,41.65 79.91,64.28 112.6,42.02 41.44,-28.22 65.71,13.13 113.29,16.49l16.87 0.11 -16.87 0.11c-47.12,-2.72 -72.37,-43.23 -112.07,-15.27 -22.04,15.53 -52.69,10.74 -76.44,0.55 -55.88,-23.96 -30.73,-53.88 -52.98,-51.34 -22.99,2.63 -19.17,1.27 -27.64,-14.88 -12.83,-24.47 -26.51,-22.66 -46.27,-29.94 -41.82,-15.41 -76.79,-86.93 -77.88,-129.28 -0.47,-18.43 13.21,-60.57 16.88,-84.63 13.8,-90.53 -28.87,-57.59 -31.55,-106.72zm424.81 431.4l0 0 0.01 0z"/>
  </g>
  <path class="fil2" d="M4.67 557.01c-1.03,54.15 64.67,0.17 18.02,172.21 -12.29,45.32 37.11,141.57 84.58,146.99 16.6,1.9 35.53,17.83 41.81,37.11 6.31,19.38 32.27,-6.21 35.4,16.76 5.66,41.57 87.39,66.38 115.44,42.46 34.56,-29.47 73.44,15.88 112.68,15.88 5.63,0 11.26,0 16.89,0"/>
  <g id="_1494224064672">
   <path class="fil1" d="M509.62 970.37c6.1,11.21 11.4,23.77 16.34,37.01 -1.17,-5.68 -1.88,-10.72 -2.63,-16.19 1.35,8.04 3.07,15.62 5.09,22.89 3.33,9.25 6.52,18.76 9.74,28.33 8.64,21.37 19.34,41.59 29.78,65.38 22.62,51.55 18.34,60.97 14.92,79.86 0.16,1.71 0.32,3.42 0.48,5.15 1.11,11.58 8.92,66.98 0.72,69.59 -7.96,2.54 -7.41,-14.91 -7.57,-16.99 -2.36,-29.89 -2.04,-33.81 1.82,-55.8 -1.59,-25.93 -2.51,-49.42 -14.05,-72.85 -11.35,-23.05 -19.71,-50.06 -28.1,-76.49 -2.59,-6.51 -4.84,-12.73 -6.57,-18.56 -0.95,-3.22 -1.74,-6.16 -2.41,-8.9 -5.25,-15.24 -10.89,-29.71 -17.56,-42.42zm33 85.27c7.13,20.94 14.66,41.65 24.13,59.87 8.88,17.09 12.13,34.11 14.17,52.18 -0.53,-32.88 -22.31,-75.42 -38.3,-112.05zm-19.29 -64.45c-0.45,-3.27 -0.91,-6.7 -1.49,-10.51 0.1,0.91 0.21,1.89 0.36,2.97 0.34,2.56 0.72,5.07 1.14,7.54zm-1.49 -10.51c-0.23,-1.51 -0.48,-3.08 -0.76,-4.73 -0.56,-3.31 -1.11,-4.9 -2.33,-5.96 2.62,1.87 2.4,4.26 3.08,10.69zm-3.08 -10.69c-0.92,-0.8 -2.22,-1.3 -4.19,-2.01 1.9,0.72 3.24,1.33 4.19,2.01zm-4.19 -2.01c-0.57,-0.2 -1.19,-0.43 -1.87,-0.68 0.68,0.24 1.3,0.46 1.87,0.68zm64.84 288.24c-0.12,0.22 -0.2,0.46 -0.24,0.71 0.09,-0.17 0.17,-0.42 0.24,-0.71z"/>
  </g>
  <path class="fil2" d="M509.62 970.37c11.19,14.23 38.98,117.89 59.87,153.13 13.69,23.08 18.77,203.85 9.08,106.33 -5.07,-50.99 16.45,-47.73 -4.08,-102.12 -20.27,-53.7 -46.14,-89.68 -52.46,-144.05 -1.55,-13.29 -0.39,-13.26 -9.34,-16.36"/>
 </g>
</svg>
