<?xml version="1.0" encoding="utf-8"?>
<!-- Generator: Adobe Illustrator 16.0.0, SVG Export Plug-In . SVG Version: 6.00 Build 0)  -->
<!DOCTYPE svg PUBLIC "-//W3C//DTD SVG 1.1//EN" "http://www.w3.org/Graphics/SVG/1.1/DTD/svg11.dtd">
<svg version="1.1" id="Layer_1" xmlns="http://www.w3.org/2000/svg" xmlns:xlink="http://www.w3.org/1999/xlink" x="0px" y="0px"
	 width="512px" height="512px" viewBox="0 0 512 512" enable-background="new 0 0 512 512" xml:space="preserve">
<g id="leads_1_">
	<path fill="#FFCE54" d="M226,83.655c0,41.797-33.876,75.672-75.657,75.672c-41.797,0-75.672-33.875-75.672-75.672
		c0-41.781,33.875-75.657,75.672-75.657C192.125,7.998,226,41.874,226,83.655z"/>
	<polygon fill="#EAC6BB" points="170,63.998 152.17,54.672 131.343,58.671 128,70 122.67,91.342 146.67,114 173.999,87.999 	"/>
	<polygon fill="#ED5564" points="161.999,114 122.67,118.67 102.671,140 138.673,158.391 186.671,147.998 197.344,133.342 	"/>
	<path fill="#FFCE54" d="M415.327,84.326c0,41.797-33.871,75.673-75.657,75.673c-41.792,0-75.672-33.876-75.672-75.673
		c0-41.781,33.88-75.657,75.672-75.657C381.456,8.669,415.327,42.545,415.327,84.326z"/>
	<polygon fill="#EAC6BB" points="359.327,64.669 341.497,55.344 320.674,59.343 317.327,70.672 312,92.013 336.002,114.671 
		363.326,88.671 	"/>
	<polygon fill="#ED5564" points="351.329,114.671 312,119.342 291.998,140.672 328.004,159.062 375.998,148.67 386.675,134.014 	"/>
	<rect x="45.999" y="222.001" fill="#E6E9ED" width="399.002" height="48.997"/>
	<rect x="39.498" y="270.998" fill="#F5F7FA" width="399.002" height="224.499"/>
	<polygon fill="#5D9CEC" points="321.004,413.002 85.344,413.002 85.344,305.998 400.997,305.998 321.004,361.998 	"/>
	<polygon fill="#A0D468" points="351.498,500.004 266.5,500.004 266.5,459.998 331.504,459.998 	"/>
	<rect x="85.344" y="459.998" fill="#A0D468" width="133.657" height="36.506"/>
	<path fill="#F6BB42" d="M476.501,423.003c0,41.701-33.795,75.496-75.504,75.496c-41.7,0-75.495-33.795-75.495-75.496
		c0-41.709,33.795-75.504,75.495-75.504C442.706,347.499,476.501,381.294,476.501,423.003z"/>
	<path fill="#FFCE54" d="M472.502,392.501c0,41.7-33.795,75.504-75.504,75.504c-41.7,0-75.495-33.804-75.495-75.504
		c0-41.701,33.795-75.504,75.495-75.504C438.707,316.997,472.502,350.8,472.502,392.501z"/>
	<g>
		<path d="M63.998,245.342c0,5.876,4.782,10.658,10.673,10.658c5.891,0,10.673-4.782,10.673-10.658
			c0-5.906-4.782-10.688-10.673-10.688C68.78,234.654,63.998,239.436,63.998,245.342z"/>
		<path d="M96.001,245.342c0,5.876,4.778,10.658,10.668,10.658c5.891,0,10.673-4.782,10.673-10.658
			c0-5.906-4.782-10.688-10.673-10.688C100.779,234.654,96.001,239.436,96.001,245.342z"/>
		<path d="M128,245.342c0,5.876,4.782,10.658,10.673,10.658s10.668-4.782,10.668-10.658c0-5.906-4.777-10.688-10.668-10.688
			S128,239.436,128,245.342z"/>
		<path d="M458.671,338.235v-18.237v-31.999V256v-21.346c0-11.778-9.549-21.311-21.331-21.311H279.472l41.808-45.063
			c6.44,1.562,13.156,2.375,20.064,2.375c47.128,0,85.328-38.189,85.328-85.312c0-47.143-38.2-85.344-85.328-85.344
			S256,38.201,256,85.344c0,32.095,17.715,60.029,43.903,74.594l-49.56,53.406h-10.017l-49.561-53.406
			c26.189-14.564,43.903-42.499,43.903-74.594c0-47.143-38.2-85.344-85.328-85.344c-47.124,0-85.343,38.201-85.343,85.344
			c0,47.123,38.22,85.312,85.343,85.312c6.908,0,13.628-0.813,20.064-2.375l41.812,45.063H53.345
			c-11.782,0-21.346,9.533-21.346,21.311V256v31.999V512h42.672h159.999H256h138.673c46.015,0,83.502-36.404,85.267-81.981h0.062
			v-35.361C480.001,373.036,471.958,353.278,458.671,338.235z M341.344,149.341c-13.064,0-25.223-3.938-35.346-10.684
			c0.538-0.254,1.021-0.473,1.474-0.691c0.423-0.219,1.014-0.499,1.197-0.56c11.391-4.344,18.598-8.827,23.05-14.499
			c3.408,1.781,6.7,2.778,9.625,2.778c2.909,0,6.217-0.998,9.625-2.763c4.437,5.637,11.659,10.139,23.034,14.483
			c0.184,0.062,0.783,0.341,1.212,0.56c0.446,0.219,0.945,0.438,1.475,0.691C366.565,145.404,354.407,149.341,341.344,149.341z
			 M326.982,81.157c0-10.423,5.642-17.159,14.361-17.159c8.719,0,14.346,6.735,14.346,17.159c0,4.686-2.219,10.233-6.079,15.216
			c-3.108,4.003-6.363,6.44-8.267,7.503c-1.919-1.063-5.174-3.5-8.282-7.503C329.201,91.39,326.982,85.842,326.982,81.157z
			 M289.036,122.186c-7.361-10.435-11.69-23.157-11.69-36.842c0-35.299,28.698-64.002,63.998-64.002
			c35.284,0,63.998,28.704,63.998,64.002c0,13.685-4.345,26.407-11.697,36.842c-6.709-1.827-9.019-3.577-12.051-4.716
			c-10.846-4.141-13.654-7.127-14.376-8.531c-0.031-0.031-0.046-0.096-0.062-0.157v-0.219c5.749-7.749,9.879-17.408,9.879-27.405
			c0-23.188-15.988-38.5-35.691-38.5c-19.719,0-35.683,15.313-35.683,38.5c0,9.997,4.105,19.657,9.87,27.405v0.219
			c-0.031,0.061-0.031,0.126-0.062,0.157c-0.722,1.404-3.546,4.39-14.392,8.531C298.046,118.609,295.751,120.359,289.036,122.186z
			 M149.341,149.341c-13.06,0-25.218-3.938-35.341-10.684c0.529-0.254,1.015-0.473,1.47-0.691c0.438-0.219,1.013-0.499,1.201-0.56
			c11.391-4.344,18.609-8.846,23.045-14.483c3.408,1.765,6.72,2.763,9.625,2.763c2.91,0,6.221-0.998,9.625-2.778
			c4.441,5.672,11.66,10.155,23.035,14.499c0.203,0.062,0.779,0.341,1.216,0.56s0.94,0.438,1.47,0.691
			C174.563,145.404,162.405,149.341,149.341,149.341z M134.985,81.157c0-10.423,5.642-17.159,14.356-17.159
			c8.72,0,14.346,6.735,14.346,17.159c0,4.686-2.218,10.233-6.064,15.216c-3.124,4.003-6.374,6.44-8.282,7.503
			c-1.918-1.063-5.169-3.5-8.277-7.503C137.203,91.39,134.985,85.842,134.985,81.157z M175.22,108.938
			c-0.031-0.031-0.05-0.096-0.066-0.157v-0.219c5.753-7.749,9.879-17.408,9.879-27.405c0-23.188-15.988-38.5-35.691-38.5
			c-19.718,0-35.687,15.313-35.687,38.5c0,9.997,4.11,19.657,9.875,27.405v0.219c-0.031,0.061-0.031,0.126-0.062,0.157
			c-0.717,1.404-3.546,4.39-14.392,8.531c-3.012,1.14-5.326,2.89-12.046,4.716c-7.356-10.435-11.686-23.157-11.686-36.842
			c0-35.299,28.702-64.002,63.998-64.002c35.285,0,64.002,28.704,64.002,64.002c0,13.685-4.345,26.407-11.701,36.842
			c-6.705-1.827-9.019-3.577-12.036-4.716C178.75,113.328,175.937,110.342,175.22,108.938z M394.673,458.655
			c-35.3,0-63.998-28.698-63.998-63.998c0-35.284,28.698-63.997,63.998-63.997s63.998,28.713,63.998,63.997
			C458.671,429.957,429.973,458.655,394.673,458.655z M320.75,351.997H149.341c-5.887,0-10.668,4.781-10.668,10.661
			c0,5.902,4.782,10.685,10.668,10.685h162.69c-1.75,6.815-2.687,13.954-2.687,21.314c0,1.129,0.03,2.249,0.062,3.347v7.338H96.001
			v-85.344H353.34C339.801,327.512,328.503,338.596,320.75,351.997z M384.004,489.764c-3.631-0.605-7.207-1.512-10.661-2.732v-9.717
			c3.469,0.891,7.03,1.558,10.661,2.026V489.764z M351.997,474.344c-0.575-0.529-1.166-1.043-1.75-1.597
			c-3.837-3.714-7.153-7.859-9.932-12.296c3.653,3.017,7.56,5.733,11.682,8.129V474.344z M405.342,479.341
			c3.631-0.469,7.192-1.136,10.661-2.026v9.717c-3.438,1.221-7.015,2.127-10.661,2.732V479.341z M74.671,234.654h31.999h32.003
			H437.34V256H138.673h-32.003H74.671H53.345v-21.346H74.671z M213.344,490.654H96.001v-21.307h117.343V490.654z M256,490.654
			h-21.331v-42.652H74.671v42.652H53.345V277.346H437.34v42.652v0.752c-6.608-3.814-13.762-6.785-21.337-8.719v-13.37H74.671
			v127.995h234.674c0,1.129,0.03,2.249,0.062,3.362l0,0c0.253,6.187,1.159,12.204,2.625,17.983H256V490.654z M277.346,490.654
			v-21.307h43.42c4.645,8.028,10.562,15.212,17.47,21.307H277.346z M437.34,474.344v-5.764c4.131-2.396,8.037-5.112,11.69-8.129
			c-2.778,4.437-6.095,8.582-9.94,12.296C438.515,473.301,437.939,473.814,437.34,474.344z"/>
		<path d="M394.673,351.997c-5.887,0-10.669,4.781-10.669,10.661v63.998c0,5.911,4.782,10.684,10.669,10.684
			s10.669-4.772,10.669-10.684v-63.998C405.342,356.778,400.56,351.997,394.673,351.997z"/>
	</g>
</g>
</svg>
