<?xml version="1.0" encoding="utf-8"?>
<!-- Generator: Adobe Illustrator 16.0.0, SVG Export Plug-In . SVG Version: 6.00 Build 0)  -->
<!DOCTYPE svg PUBLIC "-//W3C//DTD SVG 1.1//EN" "http://www.w3.org/Graphics/SVG/1.1/DTD/svg11.dtd">
<svg version="1.1" id="Layer_1" xmlns="http://www.w3.org/2000/svg" xmlns:xlink="http://www.w3.org/1999/xlink" x="0px" y="0px"
	 width="512px" height="512px" viewBox="0 0 512 512" enable-background="new 0 0 512 512" xml:space="preserve">
<g id="phone_1_1_">
	<rect x="121" y="77" fill="#F5F7FA" width="267.344" height="338.5"/>
	<rect x="122.664" y="15.344" fill="#434A54" width="264.68" height="58"/>
	<rect x="123.664" y="412.016" fill="#434A54" width="264.68" height="81.328"/>
	<g>
		<path d="M288,458.672c0-17.672-14.328-32-32-32s-32,14.328-32,32s14.328,32,32,32S288,476.344,288,458.672z M256,469.328
			c-5.883,0-10.664-4.781-10.664-10.656c0-5.891,4.781-10.672,10.664-10.672s10.664,4.781,10.664,10.672
			C266.664,464.547,261.883,469.328,256,469.328z"/>
		<path d="M234.664,53.328h42.68c5.875,0,10.656-4.766,10.656-10.656S283.219,32,277.344,32h-42.68
			C228.773,32,224,36.781,224,42.672S228.773,53.328,234.664,53.328z"/>
		<path d="M202.664,53.328c5.891,0,10.672-4.766,10.672-10.656S208.555,32,202.664,32S192,36.781,192,42.672
			S196.773,53.328,202.664,53.328z"/>
		<path d="M405.344,128V42.672C405.344,19.109,386.219,0,362.656,0h-213.32c-23.57,0-42.672,19.109-42.672,42.672V64
			C100.773,64,96,68.781,96,74.672V96c0,5.891,4.773,10.672,10.664,10.672v10.656C100.773,117.328,96,122.109,96,128v42.672
			c0,5.891,4.773,10.656,10.664,10.656V192C100.773,192,96,196.781,96,202.672v42.656c0,5.891,4.773,10.672,10.664,10.672v213.328
			c0,23.562,19.102,42.672,42.672,42.672h213.32c23.562,0,42.688-19.109,42.688-42.672V192c5.875,0,10.656-4.781,10.656-10.672
			v-42.656C416,132.781,411.219,128,405.344,128z M149.336,21.328h213.32c11.781,0,21.344,9.578,21.344,21.344V64H128V42.672
			C128,30.906,137.57,21.328,149.336,21.328z M128,405.328v-320h256v320H128z M362.656,490.672H256H149.336
			c-11.766,0-21.336-9.578-21.336-21.344v-42.656h128h128v42.656C384,481.094,374.438,490.672,362.656,490.672z"/>
	</g>
</g>
</svg>
