<?xml version="1.0" encoding="utf-8"?>
<!-- Generator: Adobe Illustrator 16.0.0, SVG Export Plug-In . SVG Version: 6.00 Build 0)  -->
<!DOCTYPE svg PUBLIC "-//W3C//DTD SVG 1.1//EN" "http://www.w3.org/Graphics/SVG/1.1/DTD/svg11.dtd">
<svg version="1.1" id="Layer_1" xmlns="http://www.w3.org/2000/svg" xmlns:xlink="http://www.w3.org/1999/xlink" x="0px" y="0px"
	 width="512px" height="512px" viewBox="0 0 512 512" enable-background="new 0 0 512 512" xml:space="preserve">
<g id="book_1_">
	<polygon fill="#F5F7FA" points="188.685,399.998 124.015,399.998 80.015,402.67 64.016,421.997 67.344,443.996 88.687,459.324 
		440.688,455.324 440.688,399.998 	"/>
	<polygon fill="#434A54" points="118.015,14.677 118.015,388.67 444,388.67 444,12.021 	"/>
	<polygon fill="#5D9CEC" points="109.015,12.021 85.015,15.005 59.516,37.504 64.516,405.498 75.016,396.998 111.015,396.998 	"/>
	<polygon fill="#A0D468" points="118.015,423.497 118.015,502.496 149.514,487.496 179.513,499.496 179.513,426.997 	"/>
	<rect x="159.514" y="77.503" fill="#A0D468" width="243.488" height="120.498"/>
	<g>
		<path fill="#080808" d="M448,405.342c5.906,0,10.656-4.781,10.656-10.672V10.677c0-5.891-4.75-10.672-10.656-10.672H96.015
			c-23.531,0-42.671,19.141-42.671,42.671v383.993c0,23.515,19.141,42.671,42.671,42.671h10.656v32c0,3.422,1.656,6.641,4.438,8.655
			c2.781,2,6.344,2.531,9.594,1.453l28.64-9.546l28.625,9.546c1.109,0.359,2.234,0.547,3.375,0.547c2.203,0,4.391-0.688,6.234-2
			c2.781-2.015,4.438-5.233,4.438-8.655v-32h234.644h10.687H448c5.906,0,10.656-4.781,10.656-10.672s-4.75-10.672-10.656-10.672
			V405.342z M437.344,383.998h-10.687H128.014V21.349h309.33V383.998z M74.672,42.676c0-11.766,9.562-21.328,21.343-21.328h10.656
			v362.649H96.015c-7.781,0-15.062,2.094-21.343,5.75v-48.406c5.89,0,10.671-4.781,10.671-10.671
			c0-5.891-4.781-10.672-10.671-10.672v-42.655c5.89,0,10.671-4.781,10.671-10.672S80.562,256,74.672,256v-42.655
			c5.89,0,10.671-4.781,10.671-10.671c0-5.891-4.781-10.672-10.671-10.672v-42.655c5.89,0,10.671-4.781,10.671-10.672
			s-4.781-10.672-10.671-10.672V85.347c5.89,0,10.671-4.781,10.671-10.671c0-5.891-4.781-10.672-10.671-10.672V42.676z
			 M170.67,486.527l-17.969-5.969c-2.187-0.75-4.546-0.75-6.734,0l-17.953,5.969V437.34h42.656V486.527z M192.013,447.996V437.34
			c5.875,0,10.656-4.781,10.656-10.671c0-5.891-4.781-10.672-10.656-10.672h-85.342c-5.89,0-10.656,4.781-10.656,10.672
			c0,5.89,4.766,10.671,10.656,10.671v10.656H96.015c-11.781,0-21.343-9.562-21.343-21.327c0-11.766,9.562-21.327,21.343-21.327
			h330.642v10.655h-74.655c-5.906,0-10.656,4.781-10.656,10.672c0,5.89,4.75,10.671,10.656,10.671h74.655v10.656H192.013z"/>
		<path fill="#080808" d="M160.014,213.345h245.332c5.874,0,10.655-4.781,10.655-10.671V74.676c0-5.891-4.781-10.672-10.655-10.672
			H160.014c-5.906,0-10.671,4.781-10.671,10.672v127.998C149.342,208.563,154.107,213.345,160.014,213.345z M170.67,85.347h223.988
			v106.654H170.67V85.347z"/>
		<path fill="#080808" d="M362.658,128.002H202.669c-5.891,0-10.656,4.781-10.656,10.672s4.766,10.672,10.656,10.672h159.989
			c5.906,0,10.688-4.781,10.688-10.672S368.564,128.002,362.658,128.002z"/>
	</g>
</g>
</svg>
