<?xml version="1.0" encoding="utf-8"?>
<!-- Generator: Adobe Illustrator 16.0.0, SVG Export Plug-In . SVG Version: 6.00 Build 0)  -->
<!DOCTYPE svg PUBLIC "-//W3C//DTD SVG 1.1//EN" "http://www.w3.org/Graphics/SVG/1.1/DTD/svg11.dtd">
<svg version="1.1" id="Layer_1" xmlns="http://www.w3.org/2000/svg" xmlns:xlink="http://www.w3.org/1999/xlink" x="0px" y="0px"
	 width="512px" height="512px" viewBox="0 0 512 512" enable-background="new 0 0 512 512" xml:space="preserve">
<g id="pedestal_1_">
	<rect x="205.672" y="202" fill="#656D78" width="101" height="36.672"/>
	<polygon fill="#FFCE54" points="193,35 193,90.672 201,126 223,155 266.672,155 300,138.672 324,102 324,35 	"/>
	<rect x="31" y="330" fill="#5D9CEC" width="152" height="147"/>
	<rect x="332" y="374" fill="#5D9CEC" width="152" height="105"/>
	<rect x="180" y="244" fill="#5D9CEC" width="152" height="235"/>
	<g>
		<path fill="#080808" d="M501.344,469.344h-10.672v-96c0-5.906-4.766-10.688-10.672-10.688H341.344V245.344
			c0-5.906-4.781-10.688-10.672-10.688H320v-32c0-5.875-4.766-10.656-10.656-10.656h-42.672v-22.094
			c21.766-3.125,40.516-15.656,51.984-33.344c43.797-19.25,54.125-78.906,54.547-81.5c0.516-3.094-0.359-6.25-2.391-8.625
			c-2.031-2.391-5-3.781-8.141-3.781h-32V32c0-5.891-4.766-10.656-10.672-10.656H192c-5.875,0-10.656,4.766-10.656,10.656v10.656
			h-32c-3.125,0-6.109,1.391-8.125,3.781c-2.031,2.375-2.906,5.531-2.406,8.625c0.438,2.594,10.75,62.25,54.531,81.5
			c11.5,17.688,30.25,30.219,52,33.344V192h-42.672c-5.891,0-10.672,4.781-10.672,10.656v32h-10.656
			c-5.891,0-10.672,4.781-10.672,10.688V320H32c-5.875,0-10.656,4.781-10.656,10.656v138.688H10.672C4.781,469.344,0,474.109,0,480
			s4.781,10.656,10.672,10.656H32h149.344h149.328H480h21.344c5.891,0,10.656-4.766,10.656-10.656S507.234,469.344,501.344,469.344z
			 M349.094,64C346,74.25,340.266,89,330.5,100.938c0.125-1.625,0.172-3.281,0.172-4.938V64H349.094z M162.969,64h18.375v32
			c0,1.625,0.062,3.25,0.156,4.875C171.812,88.953,166.062,74.234,162.969,64z M202.672,96V42.656h106.672V96
			c0,29.406-23.938,53.344-53.344,53.344S202.672,125.406,202.672,96z M213.344,213.344h85.328v21.312h-85.328V213.344z
			 M42.672,341.344h128v128h-128V341.344z M192,330.656V256h10.672h106.672H320v117.344v96H192V330.656z M341.344,469.344V384h128
			v85.344H341.344z"/>
		<path fill="#080808" d="M266.672,106.656v-32C266.672,68.781,261.906,64,256,64c-5.875,0-10.656,4.781-10.656,10.656v32
			c0,5.906,4.781,10.688,10.656,10.688C261.906,117.344,266.672,112.562,266.672,106.656z"/>
	</g>
</g>
</svg>
