<?xml version="1.0" encoding="utf-8"?>
<!-- Generator: Adobe Illustrator 16.0.0, SVG Export Plug-In . SVG Version: 6.00 Build 0)  -->
<!DOCTYPE svg PUBLIC "-//W3C//DTD SVG 1.1//EN" "http://www.w3.org/Graphics/SVG/1.1/DTD/svg11.dtd">
<svg version="1.1" id="Layer_1" xmlns="http://www.w3.org/2000/svg" xmlns:xlink="http://www.w3.org/1999/xlink" x="0px" y="0px"
	 width="512px" height="512px" viewBox="0 0 512 512" enable-background="new 0 0 512 512" xml:space="preserve">
<g id="game_magazine_1_">
	<rect x="82.675" y="10.583" fill="#48CFAD" width="384.649" height="453.32"/>
	<rect x="46.02" y="471.23" fill="#F5F7FA" width="411.32" height="28"/>
	<rect x="37.348" y="10.583" fill="#5D9CEC" width="45.327" height="453.32"/>
	<path fill="#FFCE54" d="M282,181.314l84.498-53.312l-10-20.938c0,0-26.5-19-28-21s-45.498-9.5-51.154-12l-52.843,9.5l-33.5,31.5
		l-18,41.5l6,71.999l42.999,45l39.5,13.5l70.998-16l37.5-38.5L282,181.314z"/>
	<g>
		<path d="M277.359,298.64c31.327,0,60.795-12.202,82.967-34.358c7.656-7.672,14.219-16.328,19.469-25.719l5.219-9.312
			l-85.796-47.937l85.796-47.937l-5.219-9.312c-5.25-9.406-11.797-18.047-19.469-25.718c-22.172-22.156-51.64-34.375-82.967-34.375
			c-31.344,0-60.812,12.219-82.968,34.375c-45.749,45.749-45.749,120.185,0,165.935C216.547,286.438,246.016,298.64,277.359,298.64z
			 M209.47,113.424c18.14-18.125,42.249-28.109,67.89-28.109c25.64,0,49.748,9.984,67.873,28.109
			c3.734,3.734,7.156,7.766,10.219,12.016l-99.967,55.874l99.967,55.858c-3.062,4.265-6.484,8.281-10.219,12.015
			c-18.125,18.125-42.233,28.125-67.873,28.125c-25.641,0-49.75-10-67.89-28.125C172.048,211.75,172.048,150.861,209.47,113.424z"/>
		<path d="M295.546,135.533c4.172-4.156,4.172-10.906,0-15.078s-10.921-4.172-15.077,0c-4.172,4.172-4.172,10.922,0,15.078
			C284.625,139.705,291.374,139.705,295.546,135.533z"/>
		<path d="M148.564,362.654H404.56c5.891,0,10.672-4.781,10.672-10.656c0-5.906-4.781-10.672-10.672-10.672H148.564
			c-5.891,0-10.656,4.766-10.656,10.672C137.908,357.873,142.674,362.654,148.564,362.654z"/>
		<path d="M340.561,383.998H212.563c-5.89,0-10.656,4.766-10.656,10.656c0,5.89,4.766,10.671,10.656,10.671h127.998
			c5.891,0,10.672-4.781,10.672-10.671C351.232,388.764,346.451,383.998,340.561,383.998z"/>
		<path d="M479.996,469.324V10.661c0-5.891-4.766-10.656-10.656-10.656H42.676c-5.891,0-10.672,4.765-10.672,10.656v458.664l0,0v32
			c0,5.89,4.781,10.671,10.672,10.671H469.34c5.891,0,10.656-4.781,10.656-10.671c0-5.891-4.766-10.672-10.656-10.672v-10.656
			C475.23,479.996,479.996,475.215,479.996,469.324z M458.668,458.652H96.003V21.333h362.665V458.652z M74.675,21.333v437.32H53.347
			v-32l0,0V21.333H74.675z M447.996,490.652H53.347v-10.656h394.649V490.652z"/>
	</g>
</g>
</svg>
