<?xml version="1.0" encoding="UTF-8"?>
<!DOCTYPE svg PUBLIC "-//W3C//DTD SVG 1.1//EN" "http://www.w3.org/Graphics/SVG/1.1/DTD/svg11.dtd">
<!-- Creator: CorelDRAW 2020 (64-Bit) -->
<svg xmlns="http://www.w3.org/2000/svg" xml:space="preserve" width="0.408516in" height="0.408472in" version="1.1" style="shape-rendering:geometricPrecision; text-rendering:geometricPrecision; image-rendering:optimizeQuality; fill-rule:evenodd; clip-rule:evenodd"
viewBox="0 0 11.62 11.62"
 xmlns:xlink="http://www.w3.org/1999/xlink"
 xmlns:xodm="http://www.corel.com/coreldraw/odm/2003">
 <defs>
  <style type="text/css">
   <![CDATA[
    .fil1 {fill:#219C97;fill-rule:nonzero}
    .fil3 {fill:#2B3D50;fill-rule:nonzero}
    .fil0 {fill:#3FBCBC;fill-rule:nonzero}
    .fil4 {fill:#E67264;fill-rule:nonzero}
    .fil2 {fill:#EBEFEF;fill-rule:nonzero}
   ]]>
  </style>
 </defs>
 <g id="__x0023_Layer_x0020_1">
  <metadata id="CorelCorpID_0Corel-Layer"/>
  <g id="_1494184319440">
   <g>
    <path class="fil0" d="M11.62 5.81c0,3.21 -2.6,5.81 -5.81,5.81 -3.21,0 -5.81,-2.6 -5.81,-5.81 0,-3.21 2.6,-5.81 5.81,-5.81 3.21,0 5.81,2.6 5.81,5.81z"/>
    <path class="fil1" d="M11.61 6.2l-2.37 -2.37c-0.11,-0.17 -0.38,-0.3 -0.69,-0.3l-5.48 0c-0.41,0 -0.75,0.22 -0.75,0.49l0 3.58c0,0.13 0.08,0.25 0.2,0.33l3.68 3.68c2.9,-0.19 5.21,-2.51 5.4,-5.4z"/>
   </g>
   <path class="fil2" d="M8.86 4.02l0 3.58c0,0.11 -0.14,0.2 -0.31,0.2l-5.48 0c-0.17,0 -0.31,-0.09 -0.31,-0.2l0 -3.58c0,-0.11 0.14,-0.2 0.31,-0.2l5.48 0c0.17,0 0.31,0.09 0.31,0.2z"/>
   <path class="fil3" d="M9.3 4.02l0 3.58c0,0.27 -0.33,0.49 -0.75,0.49l-5.48 0c-0.41,0 -0.75,-0.22 -0.75,-0.49l0 -3.58c0,-0.27 0.33,-0.49 0.75,-0.49l5.48 0c0.41,0 0.75,0.22 0.75,0.49zm-0.44 3.58l0 0 0 -3.58c0,-0.11 -0.14,-0.2 -0.31,-0.2l-5.48 0c-0.17,0 -0.31,0.09 -0.31,0.2l0 3.58c0,0.11 0.14,0.2 0.31,0.2l5.48 0c0.17,0 0.31,-0.09 0.31,-0.2z"/>
   <g>
    <polygon class="fil4" points="5.4,6.44 6.49,5.81 5.4,5.18 "/>
    <g>
     <path class="fil4" d="M5.81 7.16c-0.74,0 -1.35,-0.6 -1.35,-1.35 0,-0.74 0.6,-1.35 1.35,-1.35 0.74,0 1.35,0.61 1.35,1.35 0,0.74 -0.61,1.35 -1.35,1.35zm0 -2.4l0 0c-0.58,0 -1.06,0.47 -1.06,1.06 0,0.58 0.47,1.06 1.06,1.06 0.58,0 1.06,-0.47 1.06,-1.06 0,-0.58 -0.47,-1.06 -1.06,-1.06z"/>
    </g>
   </g>
  </g>
 </g>
</svg>
