<?xml version="1.0" encoding="utf-8"?>
<!-- Generator: Adobe Illustrator 16.0.0, SVG Export Plug-In . SVG Version: 6.00 Build 0)  -->
<!DOCTYPE svg PUBLIC "-//W3C//DTD SVG 1.1//EN" "http://www.w3.org/Graphics/SVG/1.1/DTD/svg11.dtd">
<svg version="1.1" id="Layer_1" xmlns="http://www.w3.org/2000/svg" xmlns:xlink="http://www.w3.org/1999/xlink" x="0px" y="0px"
	 width="512px" height="512px" viewBox="0 0 512 512" enable-background="new 0 0 512 512" xml:space="preserve">
<g id="casino_chips_1_">
	<path fill="#FFCE54" d="M497.324,276.328c0,68.295-55.359,123.653-123.654,123.653c-68.296,0-123.654-55.358-123.654-123.653
		c0-68.296,55.358-123.654,123.654-123.654C441.965,152.674,497.324,208.032,497.324,276.328z"/>
	<polygon fill="#AC92EC" points="290,399.997 287,378.498 256,316.499 246,264.5 256,223.188 265.5,194.501 265.5,152.502 
		287,144.502 287,102.503 35.004,102.503 32.504,143.502 9.004,147.502 11.504,187.001 35.004,194.001 33.004,234.5 11.504,236.5 
		11.504,274.672 31.004,274.672 33.504,315.999 11.504,316.999 11.504,359.998 31.004,370.498 31.004,399.997 	"/>
	<polygon fill="#48CFAD" points="248.016,316.015 16.348,321.342 9.004,328.342 12.348,363.67 267.344,358.67 	"/>
	<polygon fill="#ED5565" points="265.344,147.361 10.348,149.033 15.676,187.36 267.344,190.032 	"/>
	<polygon fill="#A0D468" points="10.348,234.704 15.348,275.031 239.016,277.359 250.016,234.704 	"/>
	<polygon fill="#48CFAD" points="30.348,195.032 30.348,228.032 250.016,226.032 273.016,195.032 	"/>
	<path fill="#F5F7FA" d="M373.67,152.674c0,0,2.328,35.577,1.328,38.827s35.249,9.5,39.499,10.25s22.499-29,22.499-29
		L373.67,152.674z"/>
	<path fill="#F5F7FA" d="M485.496,217.75l-31.25,11.75l5.75,50.5c0,0,39.75,2.75,41,3C502.245,283.25,485.496,217.75,485.496,217.75
		z"/>
	<polygon fill="#F5F7FA" points="449.246,319.998 417.747,353.248 443.996,380.998 480.246,344.498 	"/>
	<polygon fill="#F5F7FA" points="324.998,355.248 312.749,387.748 370.498,401.747 375.998,366.498 	"/>
	<polygon fill="#F5F7FA" points="285.75,280 247,277.359 263.25,335.748 295.749,326.154 	"/>
	<polygon fill="#F5F7FA" points="313.749,168.689 298.249,177.22 262.5,213.25 299.499,230 326.248,203.001 	"/>
	<polygon fill="#F5F7FA" points="392.748,265.75 373.67,241.5 358.998,262.75 336.998,265 348.498,281.75 348.498,313.499 
		360.748,302.749 394.998,306.562 409.497,269.25 	"/>
	<g>
		<path d="M373.342,138.658c-37.234,0-71.062,14.75-95.998,38.718v-17.375H288c5.905,0,10.671-4.781,10.671-10.656v-42.687
			c0-5.875-4.766-10.656-10.671-10.656H32.004c-5.89,0-10.656,4.781-10.656,10.656v32H10.676c-5.891,0-10.671,4.781-10.671,10.688
			v42.655c0,5.891,4.781,10.656,10.671,10.656h10.672V224H10.676c-5.891,0-10.671,4.781-10.671,10.656v42.687
			c0,5.875,4.781,10.656,10.671,10.656h10.672v21.343H10.676c-5.891,0-10.671,4.766-10.671,10.655v42.656
			c0,5.906,4.781,10.688,10.671,10.688h10.672v31.999c0,5.875,4.766,10.656,10.656,10.656H288c5.905,0,10.671-4.781,10.671-10.656
			v-11.218c21.562,13.843,47.202,21.874,74.671,21.874c76.451,0,138.653-62.202,138.653-138.653
			C511.995,200.876,449.793,138.658,373.342,138.658z M235.079,288c0.562,7.28,1.688,14.405,3.328,21.343H42.676V288H235.079z
			 M277.938,288c1.078,9.78,3.641,19.124,7.453,27.78l-18.562,10.733c-5.516-11.905-9.094-24.874-10.328-38.514H277.938z
			 M277.938,266.656H256.5c1.234-13.625,4.812-26.594,10.328-38.5l18.562,10.718C281.578,247.547,279.016,256.875,277.938,266.656z
			 M245.344,224H42.676v-21.343h213.855C252.219,209.407,248.469,216.532,245.344,224z M277.516,344.967l18.562-10.719
			c5.734,7.75,12.594,14.609,20.344,20.344l-10.719,18.562C294.78,365.436,285.25,355.873,277.516,344.967z M334.873,365.279
			c8.672,3.812,18.016,6.375,27.797,7.453v21.453c-13.641-1.25-26.609-4.812-38.516-10.344L334.873,365.279z M383.998,372.732
			c9.781-1.078,19.124-3.641,27.796-7.453l10.719,18.562c-11.891,5.531-24.875,9.094-38.515,10.344V372.732z M373.342,351.998
			c-41.172,0-74.671-33.5-74.671-74.654c0-41.187,33.499-74.687,74.671-74.687c41.171,0,74.654,33.5,74.654,74.687
			C447.996,318.498,414.513,351.998,373.342,351.998z M383.998,181.939v-21.438c13.64,1.219,26.624,4.812,38.515,10.312
			l-10.719,18.562C403.122,185.579,393.779,183.017,383.998,181.939z M362.67,181.939c-9.781,1.078-19.109,3.64-27.797,7.437
			l-10.719-18.562c11.906-5.5,24.875-9.094,38.516-10.312V181.939z M468.746,288h21.438c-1.234,13.64-4.812,26.608-10.328,38.498
			l-18.562-10.718C465.09,307.124,467.652,297.78,468.746,288z M468.746,266.656c-1.094-9.781-3.656-19.109-7.453-27.781
			l18.562-10.718c5.516,11.906,9.094,24.875,10.328,38.5H468.746z M469.152,209.688l-18.562,10.718
			c-5.719-7.75-12.578-14.593-20.328-20.328l10.719-18.578C451.887,189.235,461.434,198.782,469.152,209.688z M305.702,181.501
			l10.719,18.578c-7.75,5.734-14.609,12.578-20.328,20.328l-18.577-10.718C285.25,198.782,294.78,189.235,305.702,181.501z
			 M42.676,117.346h234.668v21.312h-10.656h-0.016H42.676V117.346z M21.348,160.001h10.656l0,0H256v21.344H32.004l0,0H21.348
			V160.001z M21.348,245.344h10.656l0,0h206.402c-1.64,6.906-2.765,14.031-3.328,21.312H32.004l0,0H21.348V245.344z M21.348,351.998
			v-21.344h10.656h213.34c3,7.156,6.562,14,10.656,20.5v0.844H32.004H21.348z M277.344,394.654H42.676v-21.312h223.996h6.703
			c1.297,1.344,2.625,2.656,3.969,3.953V394.654z M440.98,373.154l-10.719-18.562c7.75-5.734,14.609-12.594,20.328-20.344
			l18.562,10.719C461.434,355.873,451.887,365.436,440.98,373.154z"/>
		<path d="M426.402,261.734c-1.266-3.859-4.593-6.672-8.608-7.266l-24.108-3.5l-10.781-21.843c-1.797-3.641-5.5-5.938-9.562-5.938
			s-7.766,2.297-9.562,5.938l-10.781,21.843l-24.109,3.5c-4.016,0.594-7.359,3.406-8.609,7.266s-0.203,8.109,2.703,10.938l17.438,17
			l-4.125,24.015c-0.672,3.999,0.969,8.03,4.25,10.437c3.281,2.375,7.641,2.688,11.234,0.797l21.562-11.327l21.562,11.327
			c1.562,0.828,3.265,1.234,4.952,1.234c2.219,0,4.422-0.688,6.281-2.031c3.281-2.406,4.922-6.438,4.234-10.437l-4.109-24.015
			l17.437-17C426.605,269.844,427.652,265.594,426.402,261.734z M387.357,278.312c-2.516,2.438-3.672,5.969-3.078,9.438l1.422,8.233
			l-7.391-3.891c-1.562-0.812-3.266-1.219-4.969-1.219s-3.406,0.406-4.969,1.219l-7.391,3.891l1.406-8.233
			c0.594-3.469-0.547-7-3.062-9.438l-5.984-5.844l8.266-1.188c3.484-0.5,6.484-2.688,8.031-5.844l3.703-7.484l3.688,7.484
			c1.562,3.156,4.562,5.344,8.031,5.844l8.281,1.188L387.357,278.312z"/>
	</g>
</g>
</svg>
