<?xml version="1.0" encoding="UTF-8"?>
<!DOCTYPE svg PUBLIC "-//W3C//DTD SVG 1.1//EN" "http://www.w3.org/Graphics/SVG/1.1/DTD/svg11.dtd">
<!-- Creator: CorelDRAW 2020 (64-Bit) -->
<svg xmlns="http://www.w3.org/2000/svg" xml:space="preserve" width="0.338768in" height="0.340626in" version="1.1" style="shape-rendering:geometricPrecision; text-rendering:geometricPrecision; image-rendering:optimizeQuality; fill-rule:evenodd; clip-rule:evenodd"
viewBox="0 0 7.17 7.21"
 xmlns:xlink="http://www.w3.org/1999/xlink"
 xmlns:xodm="http://www.corel.com/coreldraw/odm/2003">
 <defs>
  <style type="text/css">
   <![CDATA[
    .str0 {stroke:#E5AD36;stroke-width:0.22;stroke-miterlimit:2.61313}
    .fil0 {fill:#FFCC29;fill-rule:nonzero}
    .fil1 {fill:#E5AD36;fill-rule:nonzero}
    .fil4 {fill:#BF8D3C;fill-rule:nonzero}
    .fil2 {fill:#575B6E;fill-rule:nonzero}
    .fil5 {fill:#EBEFEF;fill-rule:nonzero}
    .fil3 {fill:#F0C30F;fill-rule:nonzero}
    .fil6 {fill:#F29A11;fill-rule:nonzero}
   ]]>
  </style>
 </defs>
 <g id="__x0023_Layer_x0020_1">
  <metadata id="CorelCorpID_0Corel-Layer"/>
  <path class="fil0 str0" d="M1.34 1.49l-0 -0 -0 0c-0,-0 -0,-0 -0,-0 -0,0 -0,-0 -0,-0 -0,0 -0,0 -0.01,0 -0.01,0 -0.01,0 -0.02,0.01 -0.01,0 -0.01,0.01 -0.01,0.01 -0,0 -0,0 -0,0 0,0 0,0 0,0 0,0 0,0 0,0 0,0 0,0.01 0.01,0.01 0,0 0.01,0 0.01,0.01 0.01,0 0.03,0 0.04,-0 0.03,-0.01 0.07,-0.01 0.1,-0.03 0.03,-0.01 0.06,-0.03 0.09,-0.05 0.03,-0.02 0.05,-0.04 0.06,-0.07 0.01,-0.03 0.02,-0.06 0.03,-0.09 0,-0.03 0,-0.07 -0,-0.1 -0,-0.02 -0.01,-0.03 -0.01,-0.05 -0,-0.02 -0.01,-0.03 -0.01,-0.05 -0.02,-0.07 -0.05,-0.13 -0.09,-0.19 -0.04,-0.06 -0.09,-0.1 -0.15,-0.14 -0.06,-0.04 -0.12,-0.06 -0.19,-0.08 -0.07,-0.01 -0.14,-0.02 -0.21,-0.02 -0.07,0 -0.14,0.01 -0.21,0.03 -0.07,0.02 -0.14,0.04 -0.2,0.07 -0.06,0.03 -0.12,0.07 -0.17,0.12 -0.05,0.05 -0.09,0.1 -0.12,0.17 -0.03,0.06 -0.05,0.13 -0.06,0.2 -0.01,0.07 -0.02,0.14 -0.01,0.21 0,0.03 0.01,0.07 0.01,0.1 0,0.01 0,0.02 0,0.03l0 0.01 0 0.01c0,0.02 0.01,0.03 0.01,0.05 0.01,0.07 0.03,0.14 0.06,0.2 0.02,0.07 0.06,0.13 0.09,0.19 0.04,0.06 0.08,0.12 0.13,0.16 0.05,0.05 0.1,0.1 0.16,0.14 0.06,0.04 0.12,0.07 0.19,0.1 0.06,0.03 0.13,0.05 0.2,0.07 0.04,0.01 0.07,0.02 0.1,0.02 0.01,0 0.02,0 0.03,0l0.03 0.01 0.06 0.01c0.14,0.03 0.29,0.06 0.43,0.1 0.07,0.02 0.14,0.05 0.21,0.08 0.07,0.03 0.14,0.06 0.2,0.11 0.06,0.04 0.12,0.1 0.17,0.16 0.02,0.03 0.04,0.06 0.06,0.1 0.02,0.04 0.03,0.07 0.04,0.11 0,0.02 0.01,0.04 0.01,0.06 -0,0.02 -0.01,0.04 -0.01,0.06 -0.01,0.02 -0.02,0.04 -0.03,0.06 -0.01,0.02 -0.03,0.04 -0.04,0.05 -0.03,0.03 -0.07,0.05 -0.1,0.07 -0.02,0.01 -0.04,0.02 -0.06,0.02 -0.01,0 -0.02,0.01 -0.03,0.01l-0.01 0c-0.01,0 -0.01,0 -0.01,0 -0.04,0.01 -0.08,0.01 -0.12,0.01 -0.02,-0 -0.04,-0.01 -0.07,-0.02 -0.02,-0.01 -0.04,-0.02 -0.06,-0.04 -0.01,-0.01 -0.02,-0.02 -0.02,-0.03 -0,-0.01 -0,-0.01 -0.01,-0.02l-0 -0 -0 -0c-0,-0 -0,-0 -0,-0.01 -0,-0 -0,-0.01 -0,-0.01 -0,-0.01 -0,-0.03 0,-0.04 0.01,-0.01 0.01,-0.03 0.02,-0.04 0.01,-0.01 0.02,-0.02 0.03,-0.02 0.01,-0.01 0.03,-0.01 0.04,-0.01 0.01,0 0.03,0.01 0.04,0.01 0.01,0.01 0.02,0.02 0.02,0.03 0,0.01 -0,0.02 -0.01,0.02 -0,0 -0.01,0 -0.01,-0l-0 0c-0.01,-0.01 -0.03,-0.01 -0.04,-0.01 -0.01,0 -0.02,0.01 -0.02,0.02 -0,0 -0,0.01 -0,0.01 0,0 0,0.01 0,0.01 0,0 0,0 0,0l0 0c0,0 0,0 0,0 0,-0 0,0 0,0 0,0 0,0.01 0.01,0.01 0,0.01 0.01,0.01 0.01,0.01 0.01,0.01 0.02,0.02 0.03,0.02 0.01,0 0.03,0.01 0.04,0.01 0.03,0 0.06,-0 0.1,-0.01l0.01 -0 0.01 -0c0.01,-0 0.02,-0 0.02,-0.01 0.02,-0.01 0.03,-0.01 0.05,-0.02 0.03,-0.01 0.06,-0.03 0.08,-0.05 0.02,-0.02 0.04,-0.05 0.05,-0.07 0.01,-0.03 0.01,-0.06 0,-0.09 -0.01,-0.03 -0.02,-0.06 -0.03,-0.09 -0.01,-0.03 -0.03,-0.06 -0.05,-0.09 -0.04,-0.05 -0.09,-0.1 -0.15,-0.14 -0.06,-0.04 -0.12,-0.07 -0.19,-0.1 -0.07,-0.03 -0.13,-0.05 -0.2,-0.07 -0.07,-0.02 -0.14,-0.04 -0.21,-0.05 -0.07,-0.02 -0.14,-0.03 -0.21,-0.04l-0.05 -0.01 -0.03 -0.01c-0.01,-0 -0.02,-0 -0.03,-0.01 -0.04,-0.01 -0.07,-0.02 -0.11,-0.03 -0.07,-0.02 -0.14,-0.05 -0.21,-0.08 -0.07,-0.03 -0.14,-0.07 -0.2,-0.11 -0.06,-0.04 -0.12,-0.09 -0.17,-0.15 -0.05,-0.06 -0.1,-0.12 -0.14,-0.18 -0.04,-0.07 -0.07,-0.13 -0.1,-0.2 -0.03,-0.07 -0.05,-0.14 -0.06,-0.22 -0,-0.02 -0.01,-0.04 -0.01,-0.06l-0 -0.01 -0 -0.01c-0,-0.01 -0,-0.02 -0,-0.03 -0,-0.04 -0.01,-0.07 -0.01,-0.11 -0,-0.07 0,-0.15 0.02,-0.22 0.01,-0.07 0.04,-0.15 0.07,-0.22 0.03,-0.07 0.08,-0.13 0.14,-0.19 0.06,-0.05 0.12,-0.1 0.19,-0.13 0.07,-0.03 0.14,-0.06 0.22,-0.08 0.04,-0.01 0.07,-0.02 0.11,-0.02 0.02,-0 0.04,-0 0.06,-0.01 0.02,-0 0.04,-0 0.06,-0 0.08,-0 0.15,0 0.23,0.02 0.08,0.02 0.15,0.05 0.21,0.09 0.07,0.04 0.12,0.1 0.17,0.16 0.04,0.06 0.08,0.13 0.1,0.21 0.01,0.02 0.01,0.04 0.01,0.05 0,0.02 0.01,0.04 0.01,0.06 0,0.04 0.01,0.08 0,0.12 -0,0.04 -0.01,0.08 -0.03,0.12 -0.02,0.04 -0.05,0.07 -0.08,0.09 -0.03,0.02 -0.07,0.04 -0.11,0.06 -0.04,0.01 -0.08,0.02 -0.11,0.03 -0.02,0 -0.04,0 -0.07,-0 -0.01,-0 -0.03,-0.01 -0.04,-0.02 -0,-0.01 -0.01,-0.01 -0.01,-0.02 -0,-0.01 -0.01,-0.01 -0.01,-0.02 0,-0 0,-0.01 0,-0.01 0,-0 0,-0.01 0,-0.01 0,-0.01 0.01,-0.01 0.01,-0.02 0.01,-0.01 0.02,-0.02 0.03,-0.02 0.01,-0 0.02,-0.01 0.04,-0.01 0.01,0 0.01,0 0.02,0 0,0 0.01,0 0.01,0.01 0,0 0,0 0,0 0,0 0,0 0,0 0,0 0,0 0,0 0.01,0.01 0.01,0.02 -0,0.02 -0.01,0 -0.01,0.01 -0.02,0l-0 0z"/>
  <path class="fil1" d="M5.68 0l-4.22 0c-0.04,0 -0.07,0.03 -0.07,0.06 0,0.03 0.03,0.06 0.07,0.06l0.05 0c0.08,1.73 0.65,3.16 1.43,3.68 0.08,0.16 0.22,0.28 0.39,0.34 -0,0.07 -0,0.14 -0,0.21 0,0.05 0,0.11 0,0.16 -0.13,0.07 -0.24,0.18 -0.31,0.33l1.1 0c-0.07,-0.14 -0.18,-0.26 -0.31,-0.33 0,-0.05 0,-0.1 0,-0.16 0,-0.07 -0,-0.14 -0,-0.21 0.17,-0.06 0.3,-0.18 0.39,-0.34 0.77,-0.51 1.35,-1.95 1.43,-3.68l0.05 0c0.04,0 0.07,-0.03 0.07,-0.06 0,-0.03 -0.03,-0.06 -0.07,-0.06z"/>
  <path class="fil2" d="M5.45 5.64l-0.49 0 0 -0.28c0,-0.05 -0.05,-0.09 -0.12,-0.09l-0.29 0 0 -0.35c0,-0.05 -0.05,-0.09 -0.11,-0.09l-0.32 0 -1.1 0 -0.29 0c-0.06,0 -0.11,0.04 -0.11,0.09l0 0.35 -0.29 0c-0.06,0 -0.12,0.04 -0.12,0.09l0 0.28 -0.49 0c-0.06,0 -0.11,0.04 -0.11,0.09l0 0.09 0 0.75 0 0.56c0,0.05 0.05,0.09 0.11,0.09l3.75 0c0.06,0 0.11,-0.04 0.11,-0.09l0 -0.56 0 -0.75 0 -0.09c0,-0.05 -0.05,-0.09 -0.11,-0.09z"/>
  <path class="fil3" d="M4.67 5.95l-0.02 0 -2.15 0 -0.02 0c0,0.12 -0.13,0.22 -0.29,0.22l0 0.48c0.16,0 0.29,0.1 0.29,0.22l0.02 0 2.15 0 0.02 0c0,-0.12 0.13,-0.22 0.29,-0.22l0 -0.48c-0.16,0 -0.29,-0.1 -0.29,-0.22z"/>
  <g id="_1494359928896">
   <path class="fil4" d="M2.65 0.63c-0.24,0.18 -0.38,0.41 -0.45,0.67 -0.08,0.3 -0.07,0.47 0.03,0.76 0.08,0.24 0.24,0.46 0.45,0.62 0.13,0.09 0.2,0.13 0.37,0.18 0.08,0.02 0.13,0.03 0.22,0.04 0.07,0.01 0.15,0 0.24,0.03 0,0 0,0 0,0.01 -0.08,0.03 -0.17,0.02 -0.24,0.01 -0.09,-0.01 -0.14,-0.02 -0.22,-0.05 -0.17,-0.05 -0.25,-0.09 -0.38,-0.19 -0.22,-0.16 -0.38,-0.39 -0.46,-0.64 -0.1,-0.3 -0.11,-0.48 -0.02,-0.78 0.07,-0.26 0.23,-0.49 0.47,-0.66 0,0 0,0 0,0.01z"/>
   <path class="fil4" d="M2.74 2.68c0.04,0.07 0.1,0.09 0.15,0.08 0.05,-0.01 0.07,-0.04 0.03,-0.1 -0.04,-0.06 -0.2,-0.24 -0.2,-0.24 0,0 -0.02,0.19 0.02,0.26z"/>
   <path class="fil4" d="M2.47 2.43c0.01,0.07 0.06,0.1 0.11,0.11 0.05,0.01 0.07,-0.01 0.05,-0.08 -0.02,-0.07 -0.11,-0.27 -0.11,-0.27 0,0 -0.07,0.17 -0.05,0.24z"/>
   <path class="fil4" d="M2.29 2.14c-0.01,0.07 0.03,0.11 0.07,0.13 0.04,0.02 0.07,0.01 0.07,-0.06 0,-0.07 -0.03,-0.27 -0.03,-0.27 0,0 -0.1,0.13 -0.1,0.21z"/>
   <path class="fil4" d="M2.2 1.83c-0.02,0.06 0,0.1 0.03,0.13 0.03,0.03 0.06,0.02 0.08,-0.04 0.02,-0.06 0.03,-0.25 0.03,-0.25 0,0 -0.12,0.1 -0.14,0.16z"/>
   <path class="fil4" d="M2.18 1.54c-0.03,0.05 -0.02,0.09 0,0.12 0.02,0.03 0.05,0.04 0.08,-0.02 0.03,-0.05 0.08,-0.22 0.08,-0.22 0,0 -0.13,0.07 -0.16,0.12z"/>
   <path class="fil4" d="M2.23 1.27c-0.04,0.04 -0.04,0.08 -0.02,0.11 0.01,0.03 0.04,0.04 0.07,0 0.04,-0.04 0.12,-0.19 0.12,-0.19 0,0 -0.13,0.04 -0.17,0.08z"/>
   <path class="fil4" d="M2.33 1.03c-0.04,0.03 -0.05,0.07 -0.04,0.1 0.01,0.03 0.02,0.04 0.06,0.02 0.04,-0.03 0.15,-0.15 0.15,-0.15 0,0 -0.12,0.01 -0.17,0.04z"/>
   <path class="fil4" d="M2.46 0.84c-0.05,0.02 -0.06,0.05 -0.06,0.08 0,0.03 0.01,0.04 0.05,0.02 0.04,-0.02 0.16,-0.11 0.16,-0.11 0,0 -0.12,-0.01 -0.16,0.01z"/>
   <path class="fil4" d="M2.62 0.68c-0.04,0.01 -0.06,0.04 -0.07,0.06 -0.01,0.03 0,0.04 0.04,0.03 0.04,-0.01 0.17,-0.08 0.17,-0.08 0,0 -0.1,-0.02 -0.15,-0.01z"/>
   <path class="fil4" d="M3.11 2.83c0.07,0.06 0.13,0.05 0.18,0.03 0.05,-0.02 0.06,-0.06 -0.01,-0.1 -0.07,-0.05 -0.29,-0.17 -0.29,-0.17 0,0 0.05,0.19 0.11,0.24z"/>
   <path class="fil4" d="M2.68 2.76c0.09,0.01 0.13,0.05 0.16,0.09 0.03,0.05 0.03,0.08 -0.07,0.08 -0.1,-0.01 -0.39,-0.17 -0.39,-0.17 0,0 0.21,-0.02 0.3,-0.01z"/>
   <path class="fil4" d="M2.39 2.49c0.07,0.03 0.1,0.08 0.11,0.13 0.01,0.05 -0,0.08 -0.08,0.05 -0.08,-0.03 -0.29,-0.25 -0.29,-0.25 0,0 0.19,0.04 0.27,0.07z"/>
   <path class="fil4" d="M2.21 2.17c0.06,0.05 0.07,0.09 0.06,0.14 -0,0.05 -0.02,0.07 -0.09,0.03 -0.06,-0.05 -0.2,-0.29 -0.2,-0.29 0,0 0.17,0.08 0.22,0.13z"/>
   <path class="fil4" d="M2.12 1.85c0.04,0.06 0.04,0.1 0.03,0.14 -0.02,0.04 -0.04,0.06 -0.08,0 -0.05,-0.06 -0.11,-0.31 -0.11,-0.31 0,0 0.13,0.11 0.17,0.16z"/>
   <path class="fil4" d="M2.11 1.53c0.02,0.06 0.01,0.1 -0.01,0.13 -0.02,0.03 -0.05,0.04 -0.08,-0.02 -0.03,-0.06 -0.04,-0.3 -0.04,-0.3 0,0 0.1,0.12 0.12,0.18z"/>
   <path class="fil4" d="M2.16 1.25c0.01,0.06 -0.01,0.09 -0.03,0.12 -0.03,0.02 -0.05,0.03 -0.07,-0.03 -0.01,-0.06 0.02,-0.27 0.02,-0.27 0,0 0.06,0.13 0.07,0.19z"/>
   <path class="fil4" d="M2.26 1c-0,0.05 -0.02,0.08 -0.05,0.1 -0.03,0.02 -0.05,0.02 -0.05,-0.04 -0,-0.06 0.08,-0.24 0.08,-0.24 0,0 0.03,0.13 0.03,0.18z"/>
   <path class="fil4" d="M2.41 0.79c-0.01,0.05 -0.04,0.07 -0.07,0.08 -0.03,0.01 -0.05,0.01 -0.04,-0.04 0.01,-0.05 0.11,-0.2 0.11,-0.2 0,0 0,0.12 -0.01,0.17z"/>
   <path class="fil4" d="M2.58 0.63c-0.02,0.04 -0.05,0.06 -0.08,0.06 -0.03,0.01 -0.05,-0 -0.03,-0.04 0.02,-0.04 0.14,-0.17 0.14,-0.17 0,0 -0.02,0.11 -0.04,0.15z"/>
   <path class="fil4" d="M3.08 2.95c0.1,-0.01 0.15,0.01 0.2,0.04 0.05,0.03 0.06,0.07 -0.04,0.1 -0.1,0.02 -0.46,-0.04 -0.46,-0.04 0,0 0.2,-0.08 0.3,-0.1z"/>
   <path class="fil4" d="M2.74 0.52c-0.05,0.03 -0.06,0.05 -0.04,0.07 0.01,0.02 0.03,0.02 0.08,-0.01 0.05,-0.03 0.18,-0.13 0.18,-0.13 0,0 -0.17,0.04 -0.22,0.07z"/>
   <path class="fil4" d="M4.51 0.64c0.24,0.18 0.38,0.41 0.45,0.67 0.08,0.3 0.07,0.47 -0.03,0.76 -0.08,0.24 -0.24,0.46 -0.45,0.62 -0.13,0.09 -0.2,0.13 -0.37,0.18 -0.08,0.02 -0.12,0.03 -0.22,0.04 -0.07,0.01 -0.15,0 -0.24,0.03 0,0 -0,0 -0,0.01 0.08,0.03 0.17,0.02 0.24,0.01 0.09,-0.01 0.14,-0.02 0.22,-0.05 0.17,-0.05 0.25,-0.09 0.38,-0.19 0.22,-0.16 0.38,-0.39 0.46,-0.64 0.1,-0.3 0.11,-0.48 0.02,-0.78 -0.07,-0.26 -0.23,-0.49 -0.47,-0.66 -0,0 -0,0 -0,0z"/>
   <path class="fil4" d="M4.41 2.69c-0.04,0.07 -0.1,0.09 -0.15,0.08 -0.05,-0.01 -0.07,-0.04 -0.03,-0.1 0.04,-0.06 0.2,-0.24 0.2,-0.24 0,0 0.02,0.19 -0.02,0.26z"/>
   <path class="fil4" d="M4.69 2.44c-0.01,0.07 -0.06,0.1 -0.11,0.11 -0.05,0.01 -0.07,-0.01 -0.05,-0.08 0.02,-0.07 0.11,-0.27 0.11,-0.27 0,0 0.07,0.17 0.05,0.24z"/>
   <path class="fil4" d="M4.86 2.15c0.01,0.07 -0.03,0.11 -0.07,0.13 -0.04,0.02 -0.07,0.01 -0.07,-0.06 -0,-0.07 0.03,-0.27 0.03,-0.27 0,0 0.1,0.13 0.11,0.2z"/>
   <path class="fil4" d="M4.96 1.85c0.02,0.06 -0,0.1 -0.03,0.13 -0.03,0.03 -0.06,0.02 -0.08,-0.04 -0.02,-0.06 -0.03,-0.25 -0.03,-0.25 0,0 0.12,0.1 0.14,0.16z"/>
   <path class="fil4" d="M4.97 1.55c0.03,0.05 0.02,0.09 -0,0.12 -0.02,0.03 -0.05,0.03 -0.08,-0.02 -0.03,-0.05 -0.08,-0.22 -0.08,-0.22 0,0 0.13,0.07 0.16,0.12z"/>
   <path class="fil4" d="M4.93 1.28c0.04,0.04 0.04,0.08 0.02,0.11 -0.01,0.03 -0.04,0.04 -0.07,0 -0.04,-0.04 -0.12,-0.19 -0.12,-0.19 0,0 0.13,0.04 0.17,0.08z"/>
   <path class="fil4" d="M4.83 1.05c0.04,0.03 0.05,0.06 0.04,0.1 -0.01,0.03 -0.02,0.04 -0.06,0.01 -0.04,-0.03 -0.15,-0.15 -0.15,-0.15 0,0 0.12,0.01 0.17,0.04z"/>
   <path class="fil4" d="M4.7 0.85c0.04,0.02 0.06,0.05 0.06,0.08 0,0.03 -0.01,0.04 -0.05,0.02 -0.04,-0.02 -0.16,-0.11 -0.16,-0.11 0,0 0.11,-0.01 0.16,0.01z"/>
   <path class="fil4" d="M4.54 0.7c0.04,0.01 0.06,0.04 0.07,0.06 0.01,0.03 -0,0.04 -0.04,0.03 -0.04,-0.01 -0.17,-0.08 -0.17,-0.08 0,0 0.1,-0.02 0.15,-0.01z"/>
   <path class="fil4" d="M4.04 2.84c-0.07,0.05 -0.13,0.05 -0.18,0.03 -0.05,-0.02 -0.06,-0.06 0.01,-0.1 0.07,-0.05 0.29,-0.17 0.29,-0.17 0,0 -0.05,0.19 -0.12,0.24z"/>
   <path class="fil4" d="M4.47 2.78c-0.09,0.01 -0.13,0.05 -0.16,0.09 -0.03,0.05 -0.03,0.09 0.07,0.08 0.1,-0.01 0.39,-0.17 0.39,-0.17 0,0 -0.21,-0.02 -0.3,-0.01z"/>
   <path class="fil4" d="M4.76 2.5c-0.07,0.03 -0.1,0.08 -0.11,0.13 -0.01,0.05 0,0.08 0.08,0.05 0.08,-0.03 0.29,-0.25 0.29,-0.25 0,0 -0.19,0.04 -0.26,0.07z"/>
   <path class="fil4" d="M4.95 2.19c-0.06,0.05 -0.07,0.09 -0.06,0.14 0,0.05 0.02,0.07 0.09,0.03 0.06,-0.05 0.2,-0.29 0.2,-0.29 0,0 -0.17,0.08 -0.22,0.13z"/>
   <path class="fil4" d="M5.04 1.86c-0.04,0.06 -0.04,0.1 -0.03,0.14 0.01,0.04 0.04,0.06 0.08,0 0.05,-0.06 0.11,-0.31 0.11,-0.31 0,0 -0.13,0.11 -0.17,0.16z"/>
   <path class="fil4" d="M5.05 1.54c-0.02,0.06 -0.01,0.1 0.01,0.13 0.02,0.03 0.05,0.04 0.08,-0.02 0.03,-0.06 0.04,-0.3 0.04,-0.3 0,0 -0.1,0.12 -0.12,0.18z"/>
   <path class="fil4" d="M5 1.26c-0.01,0.06 0.01,0.09 0.03,0.12 0.03,0.02 0.05,0.03 0.07,-0.03 0.01,-0.06 -0.02,-0.27 -0.02,-0.27 0,0 -0.06,0.13 -0.07,0.19z"/>
   <path class="fil4" d="M4.89 1.01c0,0.05 0.02,0.08 0.05,0.1 0.03,0.02 0.05,0.02 0.05,-0.04 0,-0.06 -0.08,-0.24 -0.08,-0.24 0,0 -0.03,0.13 -0.03,0.18z"/>
   <path class="fil4" d="M4.75 0.81c0.01,0.05 0.04,0.07 0.07,0.08 0.03,0.01 0.05,0.01 0.04,-0.04 -0.01,-0.05 -0.11,-0.2 -0.11,-0.2 0,0 -0,0.12 0.01,0.17z"/>
   <path class="fil4" d="M4.58 0.64c0.02,0.04 0.05,0.06 0.07,0.06 0.03,0.01 0.05,-0 0.03,-0.04 -0.02,-0.04 -0.14,-0.17 -0.14,-0.17 0,0 0.02,0.11 0.04,0.15z"/>
   <path class="fil4" d="M4.08 2.96c-0.09,-0.02 -0.15,0.01 -0.2,0.04 -0.05,0.03 -0.06,0.07 0.04,0.1 0.1,0.02 0.46,-0.04 0.46,-0.04 0,0 -0.21,-0.08 -0.3,-0.1z"/>
   <path class="fil4" d="M4.42 0.53c0.05,0.03 0.05,0.05 0.04,0.07 -0.01,0.02 -0.03,0.02 -0.08,-0.01 -0.05,-0.03 -0.18,-0.13 -0.18,-0.13 0,0 0.17,0.04 0.22,0.07z"/>
   <path class="fil4" d="M3.8 2.95c0,0.13 -0.1,0.23 -0.23,0.23 -0.13,0 -0.23,-0.1 -0.23,-0.23 0,-0.13 0.1,-0.23 0.23,-0.23 0.13,0 0.23,0.1 0.23,0.23z"/>
  </g>
  <path class="fil5" d="M4.6 1.56c0,0.56 -0.46,1.02 -1.03,1.02 -0.57,0 -1.03,-0.45 -1.03,-1.02 0,-0.56 0.46,-1.02 1.03,-1.02 0.57,0 1.03,0.45 1.03,1.02z"/>
  <path class="fil6" d="M3.99 1.98l-0.23 0 0 -1.03c0,-0.02 -0.02,-0.04 -0.04,-0.04l-0.19 0c-0.01,0 -0.01,0 -0.02,0l-0.35 0.14c-0.02,0.01 -0.03,0.03 -0.03,0.06l0.04 0.13c0.01,0.01 0.01,0.02 0.02,0.03 0.01,0.01 0.02,0.01 0.04,0l0.22 -0.09 0 0.81 -0.24 0c-0.03,0 -0.05,0.02 -0.05,0.04l0 0.16c0,0.02 0.02,0.04 0.05,0.04l0.28 0 0.21 0 0.27 0c0.03,0 0.05,-0.02 0.05,-0.04l0 -0.16c0,-0.03 -0.02,-0.04 -0.05,-0.04z"/>
  <path class="fil0 str0" d="M5.84 1.49l0 -0 0 0c0,-0 0,-0 0,-0 0,0 0,-0 0,-0 0,0 0,0 0.01,0 0.01,0 0.01,0 0.02,0.01 0.01,0 0.01,0.01 0.01,0.01 0,0 0,0 0,0 0,0 -0,0 -0,0 0,0 -0,0 -0,0 -0,0 -0,0.01 -0.01,0.01 -0,0 -0.01,0 -0.01,0.01 -0.01,0 -0.03,0 -0.04,-0 -0.03,-0.01 -0.07,-0.01 -0.1,-0.03 -0.03,-0.01 -0.06,-0.03 -0.09,-0.05 -0.03,-0.02 -0.05,-0.04 -0.06,-0.07 -0.01,-0.03 -0.02,-0.06 -0.03,-0.09 -0,-0.03 -0,-0.07 0,-0.1 0,-0.02 0.01,-0.03 0.01,-0.05 0,-0.02 0.01,-0.03 0.01,-0.05 0.02,-0.07 0.05,-0.13 0.09,-0.19 0.04,-0.06 0.09,-0.1 0.15,-0.14 0.06,-0.04 0.12,-0.06 0.19,-0.08 0.07,-0.01 0.14,-0.02 0.21,-0.02 0.07,0 0.14,0.01 0.21,0.03 0.07,0.02 0.14,0.04 0.2,0.07 0.06,0.03 0.12,0.07 0.17,0.12 0.05,0.05 0.09,0.1 0.12,0.17 0.03,0.06 0.05,0.13 0.06,0.2 0.01,0.07 0.02,0.14 0.01,0.21 -0,0.03 -0.01,0.07 -0.01,0.1 -0,0.01 -0,0.02 -0,0.03l-0 0.01 -0 0.01c-0,0.02 -0.01,0.03 -0.01,0.05 -0.01,0.07 -0.03,0.14 -0.06,0.2 -0.02,0.07 -0.06,0.13 -0.09,0.19 -0.04,0.06 -0.08,0.12 -0.13,0.16 -0.05,0.05 -0.1,0.1 -0.16,0.14 -0.06,0.04 -0.12,0.07 -0.19,0.1 -0.06,0.03 -0.13,0.05 -0.2,0.07 -0.04,0.01 -0.07,0.02 -0.1,0.02 -0.01,0 -0.02,0 -0.03,0l-0.03 0.01 -0.06 0.01c-0.14,0.03 -0.29,0.06 -0.43,0.1 -0.07,0.02 -0.14,0.05 -0.21,0.08 -0.07,0.03 -0.14,0.06 -0.2,0.11 -0.06,0.04 -0.12,0.1 -0.17,0.16 -0.02,0.03 -0.04,0.06 -0.06,0.1 -0.02,0.04 -0.03,0.07 -0.04,0.11 -0,0.02 -0.01,0.04 -0.01,0.06 0,0.02 0.01,0.04 0.01,0.06 0.01,0.02 0.02,0.04 0.03,0.06 0.01,0.02 0.03,0.04 0.04,0.05 0.03,0.03 0.07,0.05 0.1,0.07 0.02,0.01 0.04,0.02 0.06,0.02 0.01,0 0.02,0.01 0.03,0.01l0.01 0c0.01,0 0.01,0 0.01,0 0.04,0.01 0.08,0.01 0.12,0.01 0.02,-0 0.04,-0.01 0.07,-0.02 0.02,-0.01 0.04,-0.02 0.06,-0.04 0.01,-0.01 0.02,-0.02 0.02,-0.03 0,-0.01 0,-0.01 0.01,-0.02l0 -0 0 -0c0,-0 0,-0 0,-0.01 0,-0 0,-0.01 0,-0.01 0,-0.01 0,-0.03 -0,-0.04 -0.01,-0.01 -0.01,-0.03 -0.02,-0.04 -0.01,-0.01 -0.02,-0.02 -0.03,-0.02 -0.01,-0.01 -0.03,-0.01 -0.04,-0.01 -0.01,0 -0.03,0.01 -0.04,0.01 -0.01,0.01 -0.02,0.02 -0.02,0.03 -0,0.01 0,0.02 0.01,0.02 0,0 0.01,0 0.01,-0l0 0c0.01,-0.01 0.03,-0.01 0.04,-0.01 0.01,0 0.02,0.01 0.02,0.02 0,0 0,0.01 0,0.01 0,0 -0,0.01 -0,0.01 -0,0 -0,0 -0,0l-0 0c0,0 -0,0 -0,0 0,-0 0,0 0,0 -0,0 -0,0.01 -0.01,0.01 -0,0.01 -0.01,0.01 -0.01,0.01 -0.01,0.01 -0.02,0.02 -0.03,0.02 -0.01,0 -0.03,0.01 -0.04,0.01 -0.03,0 -0.06,-0 -0.1,-0.01l-0.01 -0 -0.01 -0c-0.01,-0 -0.02,-0 -0.02,-0.01 -0.02,-0.01 -0.03,-0.01 -0.05,-0.02 -0.03,-0.01 -0.06,-0.03 -0.08,-0.05 -0.02,-0.02 -0.04,-0.05 -0.05,-0.07 -0.01,-0.03 -0.01,-0.06 -0,-0.09 0.01,-0.03 0.02,-0.06 0.03,-0.09 0.01,-0.03 0.03,-0.06 0.05,-0.09 0.04,-0.05 0.09,-0.1 0.15,-0.14 0.06,-0.04 0.12,-0.07 0.19,-0.1 0.07,-0.03 0.13,-0.05 0.2,-0.07 0.07,-0.02 0.14,-0.04 0.21,-0.05 0.07,-0.02 0.14,-0.03 0.21,-0.04l0.05 -0.01 0.03 -0.01c0.01,-0 0.02,-0 0.03,-0.01 0.04,-0.01 0.07,-0.02 0.11,-0.03 0.07,-0.02 0.14,-0.05 0.21,-0.08 0.07,-0.03 0.14,-0.07 0.2,-0.11 0.06,-0.04 0.12,-0.09 0.17,-0.15 0.05,-0.06 0.1,-0.12 0.14,-0.18 0.04,-0.07 0.07,-0.13 0.1,-0.2 0.03,-0.07 0.05,-0.14 0.06,-0.22 0,-0.02 0.01,-0.04 0.01,-0.06l0 -0.01 0 -0.01c0,-0.01 0,-0.02 0,-0.03 0,-0.04 0.01,-0.07 0.01,-0.11 0,-0.07 -0,-0.15 -0.02,-0.22 -0.01,-0.07 -0.04,-0.15 -0.07,-0.22 -0.03,-0.07 -0.08,-0.13 -0.14,-0.19 -0.06,-0.05 -0.12,-0.1 -0.19,-0.13 -0.07,-0.03 -0.14,-0.06 -0.22,-0.08 -0.04,-0.01 -0.07,-0.02 -0.11,-0.02 -0.02,-0 -0.04,-0 -0.06,-0.01 -0.02,-0 -0.04,-0 -0.06,-0 -0.08,-0 -0.15,0 -0.23,0.02 -0.08,0.02 -0.15,0.05 -0.21,0.09 -0.07,0.04 -0.12,0.1 -0.17,0.16 -0.04,0.06 -0.08,0.13 -0.1,0.21 -0.01,0.02 -0.01,0.04 -0.01,0.05 -0,0.02 -0.01,0.04 -0.01,0.06 -0,0.04 -0.01,0.08 -0,0.12 0,0.04 0.01,0.08 0.03,0.12 0.02,0.04 0.05,0.07 0.08,0.09 0.03,0.02 0.07,0.04 0.11,0.06 0.04,0.01 0.08,0.02 0.11,0.03 0.02,0 0.04,0 0.07,-0 0.01,-0 0.03,-0.01 0.04,-0.02 0,-0.01 0.01,-0.01 0.01,-0.02 0,-0.01 0.01,-0.01 0.01,-0.02 0,-0 0,-0.01 0,-0.01 0,-0 0,-0.01 -0,-0.01 -0,-0.01 -0.01,-0.01 -0.01,-0.02 -0.01,-0.01 -0.02,-0.02 -0.03,-0.02 -0.01,-0 -0.02,-0.01 -0.04,-0.01 -0.01,0 -0.01,0 -0.02,0 -0,0 -0.01,0 -0.01,0.01 -0,0 -0,0 -0,0 -0,0 -0,0 -0,0 0,0 -0,0 -0,0 -0.01,0.01 -0.01,0.02 0,0.02 0.01,0 0.01,0.01 0.02,0l0 0z"/>
 </g>
</svg>
