<?xml version="1.0" encoding="utf-8"?>
<!-- Generator: Adobe Illustrator 16.0.0, SVG Export Plug-In . SVG Version: 6.00 Build 0)  -->
<!DOCTYPE svg PUBLIC "-//W3C//DTD SVG 1.1//EN" "http://www.w3.org/Graphics/SVG/1.1/DTD/svg11.dtd">
<svg version="1.1" id="Layer_1" xmlns="http://www.w3.org/2000/svg" xmlns:xlink="http://www.w3.org/1999/xlink" x="0px" y="0px"
	 width="512px" height="512px" viewBox="0 0 512 512" enable-background="new 0 0 512 512" xml:space="preserve">
<g id="palette_1_">
	<polygon fill="#AC92EB" points="153.323,35.593 80,82.657 216,215.985 256,202.657 256,5.328 	"/>
	<polygon fill="#A0D468" points="358.677,473.721 432,426.656 296,293.328 256,306.656 256,503.985 	"/>
	<polygon fill="#48CFAD" points="172.441,484.735 257.559,503.313 255.677,312.857 217.971,294 78.441,433.529 	"/>
	<polygon fill="#4FC2E9" points="30.265,358.672 77.313,432 210.637,296 197.323,256 0,256 	"/>
	<polygon fill="#5D9CEC" points="24.529,179.107 5.951,264.235 196.392,262.343 215.265,224.642 75.735,85.107 	"/>
	<polygon fill="#ED5564" points="341.127,25.593 256,7.015 257.893,197.471 295.598,216.328 435.127,76.799 	"/>
	<polygon fill="#FC6E51" points="483.294,151.657 436.255,78.328 302.922,214.328 316.235,254.328 500.677,256 	"/>
	<polygon fill="#FFCE54" points="489.029,331.221 507.607,246.093 317.177,247.985 298.294,285.686 437.823,425.221 	"/>
	<path d="M256,0C114.607,0,0,114.627,0,256c0,141.372,114.607,256,256,256s256-114.628,256-256C512,114.627,397.393,0,256,0z
		 M472.235,164.657c10.862,25.671,16.951,52.75,18.187,80.686h-42.716c-2.471-45-20.422-85.843-48.608-117.343l30.196-30.221
		C447.373,117.529,461.794,140,472.235,164.657z M256,298.656c-23.529,0-42.677-19.127-42.677-42.656s19.147-42.657,42.677-42.657
		s42.677,19.128,42.677,42.657S279.529,298.656,256,298.656z M293.078,203.843c-7.705-5.5-16.686-9.313-26.401-10.951v-43.035
		c20.931,2.064,40.578,10.206,56.843,23.549L293.078,203.843z M245.323,192.892c-9.716,1.637-18.696,5.451-26.402,10.951
		l-30.441-30.436c16.265-13.343,35.912-21.485,56.843-23.549V192.892z M203.823,218.907c-5.48,7.721-9.304,16.701-10.931,26.436
		h-43.029c2.059-20.951,10.196-40.593,23.539-56.843L203.823,218.907z M192.892,266.656c1.627,9.736,5.451,18.716,10.931,26.437
		L173.402,323.5c-13.343-16.25-21.48-35.893-23.539-56.844H192.892z M218.921,308.156c7.706,5.5,16.686,9.314,26.402,10.951v43.035
		c-20.931-2.064-40.578-10.207-56.843-23.55L218.921,308.156z M266.677,319.107c9.716-1.637,18.696-5.451,26.401-10.951
		l30.441,30.437c-16.265,13.343-35.912,21.485-56.843,23.55V319.107z M308.177,293.093c5.479-7.721,9.304-16.7,10.931-26.437h43.029
		c-2.059,20.951-10.195,40.594-23.539,56.858L308.177,293.093z M319.107,245.343c-1.627-9.735-5.451-18.715-10.931-26.436
		l30.421-30.421c13.344,16.265,21.48,35.907,23.539,56.857H319.107z M338.637,158.265c-19.744-16.735-44.637-27.563-71.96-29.829
		V85.671c19.274,1.171,37.979,5.549,55.745,13.064c17.049,7.201,32.637,17.044,46.471,29.279L338.637,158.265z M245.323,128.436
		c-27.323,2.265-52.216,13.093-71.96,29.829l-30.255-30.25c13.834-12.235,29.422-22.079,46.471-29.279
		c17.765-7.515,36.471-11.893,55.745-13.064V128.436z M158.265,173.343c-16.716,19.765-27.559,44.657-29.813,72H85.677
		c1.166-19.279,5.539-38,13.059-55.765c7.216-17.049,17.049-32.642,29.284-46.485L158.265,173.343z M128.451,266.656
		c2.255,27.344,13.098,52.236,29.813,72l-30.245,30.25c-12.235-13.843-22.068-29.436-29.284-46.484
		c-7.52-17.766-11.893-36.486-13.059-55.766H128.451z M173.363,353.735c19.745,16.735,44.637,27.563,71.96,29.828v42.765
		c-19.274-1.172-37.98-5.549-55.745-13.063c-17.049-7.201-32.637-17.044-46.471-29.279L173.363,353.735z M266.677,383.563
		c27.323-2.265,52.216-13.093,71.96-29.828l30.256,30.25c-13.834,12.235-29.422,22.078-46.471,29.279
		c-17.766,7.515-36.471,11.892-55.745,13.063V383.563z M353.735,338.656c16.716-19.764,27.559-44.656,29.813-72h42.774
		c-1.167,19.279-5.539,38-13.059,55.766c-7.216,17.049-17.049,32.642-29.284,46.484L353.735,338.656z M383.549,245.343
		c-2.255-27.343-13.098-52.235-29.813-72l30.245-30.25c12.235,13.843,22.068,29.437,29.284,46.485
		c7.52,17.765,11.892,36.485,13.059,55.765H383.549z M414.216,82.686L384,112.907c-31.48-28.186-72.344-46.142-117.323-48.608
		V21.578c27.901,1.235,55,7.329,80.646,18.187C372.02,50.201,394.451,64.627,414.216,82.686z M245.323,21.578v42.721
		C200.343,66.765,159.48,84.721,128,112.907L97.784,82.686c19.765-18.059,42.196-32.485,66.873-42.921
		C190.323,28.907,217.421,22.813,245.323,21.578z M82.706,97.779L112.902,128c-28.186,31.5-46.137,72.343-48.608,117.343H21.578
		c1.235-27.936,7.324-55.015,18.187-80.686C50.206,140,64.627,117.529,82.706,97.779z M39.765,347.343
		c-10.863-25.671-16.951-52.75-18.187-80.687h42.716c2.471,45,20.422,85.844,48.608,117.344l-30.196,30.221
		C64.627,394.471,50.206,372,39.765,347.343z M97.784,429.313L128,399.093c31.48,28.187,72.343,46.143,117.323,48.608v42.721
		c-27.902-1.235-55-7.329-80.667-18.187C139.98,461.799,117.549,447.372,97.784,429.313z M266.677,490.422v-42.721
		c44.979-2.466,85.843-20.422,117.323-48.608l30.216,30.221c-19.765,18.059-42.196,32.485-66.893,42.922
		C321.677,483.093,294.578,489.187,266.677,490.422z M429.294,414.221L399.098,384c28.187-31.5,46.138-72.344,48.608-117.344h42.716
		c-1.235,27.937-7.324,55.016-18.187,80.687C461.794,372,447.373,394.471,429.294,414.221z"/>
</g>
</svg>
