<?xml version="1.0" encoding="UTF-8"?>
<!DOCTYPE svg PUBLIC "-//W3C//DTD SVG 1.1//EN" "http://www.w3.org/Graphics/SVG/1.1/DTD/svg11.dtd">
<!-- Creator: CorelDRAW 2020 (64-Bit) -->
<svg xmlns="http://www.w3.org/2000/svg" xml:space="preserve" width="4.46257in" height="5.5264in" version="1.1" style="shape-rendering:geometricPrecision; text-rendering:geometricPrecision; image-rendering:optimizeQuality; fill-rule:evenodd; clip-rule:evenodd"
viewBox="0 0 343.12 424.92"
 xmlns:xlink="http://www.w3.org/1999/xlink"
 xmlns:xodm="http://www.corel.com/coreldraw/odm/2003">
 <defs>
  <style type="text/css">
   <![CDATA[
    .str1 {stroke:black;stroke-width:8.54;stroke-miterlimit:2.61313}
    .str0 {stroke:#373435;stroke-width:0.53;stroke-miterlimit:2.61313}
    .fil4 {fill:#FEFEFE}
    .fil3 {fill:#373435;fill-rule:nonzero}
    .fil0 {fill:#CCE7D4;fill-rule:nonzero}
    .fil2 {fill:black;fill-rule:nonzero}
    .fil1 {fill:#CCD1D9;fill-rule:nonzero}
   ]]>
  </style>
 </defs>
 <g id="__x0023_Layer_x0020_1">
  <metadata id="CorelCorpID_0Corel-Layer"/>
  <polygon class="fil0" points="279.57,354.17 3.79,354.17 3.79,8.51 227.62,8.51 279.57,66.12 "/>
  <polygon class="fil1" points="234.7,10.86 228.08,61.86 279.57,61.86 "/>
  <path class="fil2" d="M282.69 49.76l-45.33 -45.33 -4.43 -4.43 -6.26 0 -211.55 0 -15.12 0 0 15.12 0 332.42 0 15.12 15.12 0 256.88 0 15.12 0 0 -15.12 0 -287.09 0 -6.26 -4.43 -4.43zm-48.46 -27.09l30.23 30.21 -30.23 0 0 -30.21zm-219.1 324.88l0 -332.42 204 0 0 52.88 52.88 0 0 279.54 -256.88 0z"/>
  <path class="fil2" d="M234.22 185.12l-181.33 0c-4.17,0 -7.56,3.38 -7.56,7.55 0,4.17 3.39,7.55 7.56,7.55l181.33 0c4.17,0 7.56,-3.38 7.56,-7.55 0,-4.17 -3.39,-7.55 -7.56,-7.55z"/>
  <path class="fil2" d="M234.22 230.45l-181.33 0c-4.17,0 -7.56,3.38 -7.56,7.55 0,4.17 3.39,7.55 7.56,7.55l181.33 0c4.17,0 7.56,-3.38 7.56,-7.55 0,-4.17 -3.39,-7.55 -7.56,-7.55z"/>
  <path class="fil2" d="M151.12 275.78l-98.22 0c-4.17,0 -7.56,3.38 -7.56,7.55 0,4.17 3.39,7.55 7.56,7.55l98.22 0c4.17,0 7.55,-3.38 7.55,-7.55 0,-4.17 -3.38,-7.55 -7.55,-7.55z"/>
  <path class="fil3" d="M74.01 97.53l-2.34 0c-5.86,0 -11.13,-2.4 -15.87,-7.14 -4.74,-4.69 -7.14,-10.28 -7.14,-16.78 0,-6.66 2.4,-12.2 7.14,-16.67 4.74,-4.47 10.55,-6.71 17.42,-6.71 7.83,0 14.22,3.14 19.17,9.37 4.95,6.23 7.4,14.91 7.4,26.04 0,10.23 -2.18,19.81 -6.5,28.81 -4.31,9 -9.64,16.14 -15.93,21.46 -6.34,5.27 -12.04,7.94 -17.15,7.94 -3.2,0 -5.86,-1.01 -7.88,-3.04 -2.02,-2.02 -3.04,-4.53 -3.04,-7.4 0,-4.69 2.13,-8.15 6.39,-10.33 5.54,-3.2 9.85,-6.76 13,-10.6 3.14,-3.83 4.9,-8.84 5.33,-14.97zm68.6 0l-1.86 0c-5.91,0 -11.29,-2.34 -16.14,-7.03 -4.85,-4.69 -7.24,-10.28 -7.24,-16.88 0,-6.55 2.4,-12.09 7.19,-16.62 4.74,-4.53 10.6,-6.76 17.42,-6.76 7.94,0 14.33,3.09 19.17,9.21 4.9,6.13 7.35,14.86 7.35,26.2 0,10.49 -2.13,20.24 -6.44,29.13 -4.31,8.89 -9.64,15.93 -15.93,21.2 -6.28,5.27 -12.04,7.88 -17.2,7.88 -3.36,0 -6.02,-1.01 -7.99,-2.98 -1.97,-1.97 -2.93,-4.47 -2.93,-7.46 0,-4.58 2.13,-8.04 6.39,-10.33 5.91,-3.41 10.33,-6.98 13.26,-10.65 2.88,-3.73 4.53,-8.68 4.95,-14.91z"/>
  <g id="_1494079877232">
   <polygon class="fil4 str0" points="206.84,284.53 335.39,342.09 335.61,347.94 285.62,366.76 265.92,416.11 262.03,416.32 255.75,406.58 202.73,290.8 "/>
   <path class="fil2 str1" d="M211.18 282.19l122.4 55.01c1.58,0.63 2.88,1.7 3.8,3.04 0.94,1.36 1.47,3 1.47,4.73 0,1.4 -0.36,2.76 -1.01,3.97 -0.66,1.21 -1.6,2.26 -2.78,3.03 -0.3,0.2 -0.62,0.34 -0.95,0.42l-47.39 15.93c-0.04,0.03 -0.08,0.07 -0.11,0.1 -0.03,0.03 -0.06,0.06 -0.09,0.1l-15.99 47.59c-0.09,0.27 -0.21,0.52 -0.36,0.74l0 0c-0.77,1.18 -1.82,2.12 -3.03,2.78 -1.21,0.65 -2.57,1.01 -3.97,1.01 -1.72,0 -3.36,-0.53 -4.73,-1.47 -1.34,-0.92 -2.41,-2.23 -3.04,-3.8l-55.07 -122.53c-0.27,-0.54 -0.48,-1.12 -0.63,-1.74 -0.15,-0.64 -0.23,-1.26 -0.23,-1.85 0,-2.2 0.89,-4.2 2.34,-5.65 1.45,-1.45 3.44,-2.34 5.65,-2.34 0.59,0 1.21,0.08 1.85,0.23 0.52,0.12 1.02,0.29 1.48,0.51 0.13,0.05 0.26,0.11 0.38,0.18zm119.83 60.95l-122.61 -55.1c-0.09,-0.03 -0.17,-0.07 -0.25,-0.11 -0.12,-0.06 -0.23,-0.11 -0.33,-0.13 -0.08,-0.02 -0.2,-0.03 -0.35,-0.03 -0.41,0 -0.78,0.17 -1.05,0.44 -0.27,0.27 -0.44,0.64 -0.44,1.05 0,0.16 0.01,0.27 0.03,0.35 0.02,0.1 0.07,0.21 0.13,0.33l-0 0c0.02,0.05 0.05,0.09 0.07,0.14l55.15 122.71c0.02,0.05 0.05,0.11 0.07,0.17 0.14,0.36 0.38,0.66 0.69,0.87 0.31,0.21 0.68,0.33 1.07,0.33 0.33,0 0.64,-0.08 0.9,-0.22 0.18,-0.1 0.34,-0.23 0.49,-0.38l15.95 -47.46c0.06,-0.19 0.14,-0.37 0.24,-0.55 0.35,-0.63 0.79,-1.21 1.29,-1.71 0.47,-0.47 1.01,-0.88 1.6,-1.23 0.2,-0.12 0.41,-0.22 0.64,-0.3l47.46 -15.95c0.16,-0.14 0.29,-0.31 0.39,-0.49 0.14,-0.27 0.22,-0.58 0.22,-0.9 0,-0.4 -0.12,-0.77 -0.33,-1.07 -0.21,-0.31 -0.51,-0.55 -0.87,-0.69 -0.05,-0.02 -0.1,-0.04 -0.15,-0.06z"/>
  </g>
 </g>
</svg>
