<?xml version="1.0" encoding="UTF-8"?>
<!DOCTYPE svg PUBLIC "-//W3C//DTD SVG 1.1//EN" "http://www.w3.org/Graphics/SVG/1.1/DTD/svg11.dtd">
<!-- Creator: CorelDRAW 2020 (64-Bit) -->
<svg xmlns="http://www.w3.org/2000/svg" xml:space="preserve" width="0.408528in" height="0.4085in" version="1.1" style="shape-rendering:geometricPrecision; text-rendering:geometricPrecision; image-rendering:optimizeQuality; fill-rule:evenodd; clip-rule:evenodd"
viewBox="0 0 14.55 14.55"
 xmlns:xlink="http://www.w3.org/1999/xlink"
 xmlns:xodm="http://www.corel.com/coreldraw/odm/2003">
 <defs>
  <style type="text/css">
   <![CDATA[
    .fil1 {fill:#2B3D50;fill-rule:nonzero}
    .fil3 {fill:#3FBCBC;fill-rule:nonzero}
    .fil0 {fill:#575B6E;fill-rule:nonzero}
    .fil4 {fill:#E67264;fill-rule:nonzero}
    .fil2 {fill:#F0C30F;fill-rule:nonzero}
   ]]>
  </style>
 </defs>
 <g id="__x0023_Layer_x0020_1">
  <metadata id="CorelCorpID_0Corel-Layer"/>
  <g id="_2313887639952">
   <g>
    <path class="fil0" d="M14.55 7.27c0,4.02 -3.26,7.28 -7.28,7.28 -4.02,0 -7.28,-3.26 -7.28,-7.28 0,-4.02 3.26,-7.27 7.28,-7.27 4.02,0 7.28,3.26 7.28,7.27z"/>
    <path class="fil1" d="M14.48 8.31l-4.03 -4.03c-0.8,-0.84 -1.92,-1.37 -3.17,-1.37 -0.22,0 -0.44,0.02 -0.66,0.05l0.62 0.61 -0.18 0.2 -0.85 -0.73c-1.9,0.47 -3.3,2.19 -3.3,4.23 0,1.03 0.63,2.28 1.22,3.02l4.18 4.18c3.19,-0.46 5.71,-2.98 6.17,-6.17z"/>
   </g>
   <path class="fil2" d="M4.03 9.15l0.32 0.06 0.57 0.12c-0.48,-0.55 -0.77,-1.27 -0.77,-2.05 0,-1.31 0.81,-2.44 1.96,-2.9l0.7 -0.81 -0.6 -0.52c-1.9,0.47 -3.3,2.19 -3.3,4.23 0,1.03 0.36,1.97 0.95,2.72l0.11 -0.53 0.06 -0.32z"/>
   <path class="fil3" d="M10.83 9.04l-0.31 0.1 -0.1 -0.31 -0.18 -0.56c-0.42,1.23 -1.59,2.12 -2.96,2.12 -0.72,0 -1.38,-0.24 -1.9,-0.65l-1.08 -0.22 -0.16 0.77c0.8,0.83 1.91,1.34 3.15,1.34 1.84,0 3.42,-1.15 4.06,-2.76l-0.51 0.17z"/>
   <path class="fil4" d="M7.27 3.53l-0.21 0.25 -0.37 0.43c0.19,-0.04 0.39,-0.06 0.59,-0.06 1.72,0 3.12,1.4 3.12,3.12 0,0.14 -0.01,0.27 -0.03,0.4l0.35 1.06 0.74 -0.24c0.11,-0.39 0.17,-0.8 0.17,-1.22 0,-2.41 -1.96,-4.36 -4.36,-4.36 -0.22,0 -0.44,0.02 -0.66,0.05l0.41 0.35 0.25 0.21z"/>
  </g>
 </g>
</svg>
