<?xml version="1.0" encoding="UTF-8"?>
<!DOCTYPE svg PUBLIC "-//W3C//DTD SVG 1.1//EN" "http://www.w3.org/Graphics/SVG/1.1/DTD/svg11.dtd">
<!-- Creator: CorelDRAW 2020 (64-Bit) -->
<svg xmlns="http://www.w3.org/2000/svg" xml:space="preserve" width="5.33333in" height="2.88867in" version="1.1" style="shape-rendering:geometricPrecision; text-rendering:geometricPrecision; image-rendering:optimizeQuality; fill-rule:evenodd; clip-rule:evenodd"
viewBox="0 0 1090.17 590.47"
 xmlns:xlink="http://www.w3.org/1999/xlink"
 xmlns:xodm="http://www.corel.com/coreldraw/odm/2003">
 <defs>
  <style type="text/css">
   <![CDATA[
    .fil3 {fill:#201E1E;fill-rule:nonzero}
    .fil2 {fill:black;fill-rule:nonzero}
    .fil0 {fill:#ED5564;fill-rule:nonzero}
    .fil1 {fill:#FFCE54;fill-rule:nonzero}
   ]]>
  </style>
 </defs>
 <g id="__x0023_Layer_x0020_1">
  <metadata id="CorelCorpID_0Corel-Layer"/>
  <g id="_1494291464464">
   <g id="coupon_1_">
    <path class="fil0" d="M323.64 102.2l-97.95 -70.96c0,0 -197.32,-11.38 -202.98,-15.64l8.52 550.78 173.17 8.52 62.45 -55.36 85.17 35.5 -28.38 -452.83z"/>
    <polygon class="fil1" points="325.77,559.26 1053.98,559.26 1053.98,22.69 325.77,22.69 272.54,109.66 272.54,495.38 "/>
    <g>
     <path class="fil2" d="M1067.48 0l-749.49 0 -45.45 45.38 -45.41 -45.38 -204.41 0c-12.54,0 -22.72,10.15 -22.72,22.69l0 545.09c0,12.54 10.18,22.69 22.72,22.69l204.41 0 45.41 -45.38 45.45 45.38 749.49 0c12.54,0 22.69,-10.15 22.69,-22.69l0 -545.09c0,-12.54 -10.15,-22.69 -22.69,-22.69zm-22.72 545.09l-707.97 0 -32.1 -32.14 -32.14 -32.14 -32.1 32.14 -32.1 32.14 -162.89 0 0 -499.71 162.89 0 32.1 32.14 32.1 32.14 32.14 -32.14 32.1 -32.14 707.97 -0 0 499.71z"/>
     <path class="fil2" d="M272.54 136.27c-12.51,0 -22.69,10.15 -22.69,22.69 0,12.54 10.18,22.69 22.69,22.69 12.58,0 22.72,-10.15 22.72,-22.69 0,-12.54 -10.15,-22.69 -22.72,-22.69z"/>
     <path class="fil2" d="M272.54 227.1c-12.51,0 -22.69,10.18 -22.69,22.69 0,12.58 10.18,22.76 22.69,22.76 12.58,0 22.72,-10.18 22.72,-22.76 0,-12.51 -10.15,-22.69 -22.72,-22.69z"/>
     <path class="fil2" d="M272.54 317.92c-12.51,0 -22.69,10.18 -22.69,22.76 0,12.51 10.18,22.69 22.69,22.69 12.58,0 22.72,-10.18 22.72,-22.69 0,-12.58 -10.15,-22.76 -22.72,-22.76z"/>
     <path class="fil2" d="M272.54 408.82c-12.51,0 -22.69,10.15 -22.69,22.69 0,12.54 10.18,22.69 22.69,22.69 12.58,0 22.72,-10.15 22.72,-22.69 0,-12.54 -10.15,-22.69 -22.72,-22.69z"/>
    </g>
   </g>
  </g>
  <path class="fil3" d="M804.03 137.76l-5.58 -3.49c-7.36,-4.65 -17.03,-2.81 -22.16,4.18l-133.81 182.12 -35.22 -64.13c-0.18,-0.36 -0.36,-0.68 -0.56,-1.01 -2.89,-4.43 -9.85,-11.81 -24.27,-11.81 -10.74,0 -23.64,4.32 -35.43,11.96 -24.82,16.06 -34.97,38.38 -24.68,54.29 0.18,0.32 0.45,0.65 0.67,0.97l101.25 139.24c3.11,4.35 8.19,6.98 13.54,6.98 0.25,0 0.5,0 0.75,0 5.65,-0.32 10.8,-3.45 13.6,-8.35l157.73 -289.08c4.11,-7.63 1.58,-17.21 -5.83,-21.86z"/>
 </g>
</svg>
