<?xml version="1.0" encoding="UTF-8"?>
<!DOCTYPE svg PUBLIC "-//W3C//DTD SVG 1.1//EN" "http://www.w3.org/Graphics/SVG/1.1/DTD/svg11.dtd">
<!-- Creator: CorelDRAW 2020 (64-Bit) -->
<svg xmlns="http://www.w3.org/2000/svg" xml:space="preserve" width="0.408504in" height="0.408516in" version="1.1" style="shape-rendering:geometricPrecision; text-rendering:geometricPrecision; image-rendering:optimizeQuality; fill-rule:evenodd; clip-rule:evenodd"
viewBox="0 0 155.53 155.54"
 xmlns:xlink="http://www.w3.org/1999/xlink"
 xmlns:xodm="http://www.corel.com/coreldraw/odm/2003">
 <defs>
  <style type="text/css">
   <![CDATA[
    .fil2 {fill:none;fill-rule:nonzero}
    .fil6 {fill:#575B6E;fill-rule:nonzero}
    .fil5 {fill:#95A5A5;fill-rule:nonzero}
    .fil4 {fill:#C6CACF;fill-rule:nonzero}
    .fil1 {fill:#CD6259;fill-rule:nonzero}
    .fil0 {fill:#E67264;fill-rule:nonzero}
    .fil3 {fill:#EBEFEF;fill-rule:nonzero}
   ]]>
  </style>
 </defs>
 <g id="__x0023_Layer_x0020_1">
  <metadata id="CorelCorpID_0Corel-Layer"/>
  <g id="_1494478641808">
   <g>
    <path class="fil0" d="M77.77 0c-42.94,0 -77.77,34.81 -77.77,77.77 0,42.95 34.83,77.77 77.77,77.77 0.3,0 0.6,-0.01 0.89,-0.01 -0.04,-0.04 -0.07,-0.07 -0.1,-0.1l-38.6 -38.54c-10.24,-9.89 -16.62,-23.78 -16.62,-39.11 0,-30.02 24.43,-54.44 54.44,-54.44 15.32,0 29.17,6.36 39.07,16.57l38.6 38.53c0.02,0.04 0.06,0.08 0.09,0.1 0,-0.26 0,-0.5 0,-0.76 0,-42.96 -34.81,-77.77 -77.76,-77.77z"/>
    <g>
     <path class="fil1" d="M155.53 78.53c-0.03,-0.03 -0.07,-0.07 -0.09,-0.1l-38.6 -38.53c-9.91,-10.21 -23.76,-16.57 -39.07,-16.57 -30.01,0 -54.44,24.42 -54.44,54.44 0,15.33 6.38,29.22 16.62,39.11l38.6 38.54c0.03,0.04 0.07,0.07 0.1,0.1 42.28,-0.46 76.47,-34.69 76.87,-77z"/>
    </g>
   </g>
   <g>
    <path class="fil2" d="M77.77 29.89c-26.4,0 -47.88,21.47 -47.88,47.88 0,26.39 21.48,47.87 47.88,47.87 26.4,0 47.88,-21.48 47.88,-47.87 0,-26.41 -21.47,-47.88 -47.88,-47.88zm31.44 26.34l0 0c1.4,-0.81 3.2,-0.33 4.01,1.07 0.8,1.4 0.33,3.2 -1.07,4.01 -1.4,0.8 -3.2,0.33 -4.02,-1.07 -0.8,-1.4 -0.32,-3.19 1.08,-4.01zm-14.98 -12.83l0 0c0.82,-1.4 2.6,-1.88 4.01,-1.08 1.4,0.82 1.89,2.61 1.07,4.01 -0.8,1.4 -2.6,1.88 -4.01,1.07 -1.4,-0.81 -1.88,-2.61 -1.07,-4.01zm-16.45 -9.22l0 0c3.09,0 5.61,2.49 5.61,5.6 0,3.08 -2.52,5.59 -5.61,5.59 -3.09,0 -5.6,-2.51 -5.6,-5.59 0,-3.1 2.51,-5.6 5.6,-5.6zm-20.46 8.14l0 0c1.4,-0.8 3.19,-0.33 4,1.08 0.81,1.4 0.33,3.2 -1.07,4.01 -1.41,0.81 -3.21,0.33 -4.01,-1.07 -0.8,-1.4 -0.32,-3.19 1.08,-4.01zm-14.98 14.99l0 0c0.81,-1.4 2.6,-1.88 4,-1.07 1.42,0.82 1.89,2.6 1.07,4.01 -0.8,1.4 -2.59,1.88 -4,1.07 -1.4,-0.81 -1.89,-2.6 -1.07,-4.01zm-8.16 20.47l0 0c0,-3.1 2.51,-5.6 5.6,-5.6 3.09,0 5.6,2.5 5.6,5.6 0,3.09 -2.51,5.6 -5.6,5.6 -3.09,0 -5.6,-2.51 -5.6,-5.6zm12.16 21.53l0 0c-1.4,0.82 -3.19,0.33 -4,-1.07 -0.81,-1.42 -0.33,-3.2 1.07,-4.01 1.4,-0.81 3.19,-0.33 4,1.08 0.82,1.4 0.34,3.2 -1.07,4zm14.99 12.83l0 0c-0.82,1.4 -2.6,1.88 -4,1.07 -1.4,-0.8 -1.88,-2.6 -1.08,-4 0.81,-1.41 2.6,-1.89 4.01,-1.07 1.39,0.81 1.88,2.6 1.07,4zm16.45 9.24l0 0c-3.09,0 -5.6,-2.52 -5.6,-5.61 0,-3.09 2.51,-5.6 5.6,-5.6 3.09,0 5.61,2.52 5.61,5.6 0,3.09 -2.52,5.61 -5.61,5.61zm20.46 -8.17l0 0c-1.4,0.81 -3.19,0.33 -4.01,-1.07 -0.81,-1.4 -0.33,-3.19 1.07,-4 1.4,-0.81 3.2,-0.33 4.01,1.07 0.82,1.39 0.33,3.2 -1.07,4zm-3.25 -47.1l0 0 -10 9.33c0.1,0.5 0.15,1.02 0.15,1.56 0,2.07 -0.78,3.95 -2.08,5.35 -1.43,1.61 -3.51,2.6 -5.83,2.6 0,0 -0.01,0 -0.02,0 0,0 -0.01,0 -0.02,0 -4.39,0 -7.95,-3.55 -7.95,-7.95 0,-0.1 0,-0.19 0.01,-0.28l-6.34 -7.04 -6.79 -7.53 9.35 3.94 8.59 3.61c0.97,-0.42 2.03,-0.66 3.14,-0.66 1.62,0 3.12,0.49 4.38,1.33l11.51 -6.82 12.71 -7.52 -10.82 10.07zm18.24 32.13l0 0c-0.81,1.39 -2.61,1.88 -4.01,1.07 -1.4,-0.8 -1.88,-2.6 -1.08,-4 0.82,-1.4 2.61,-1.89 4.02,-1.08 1.4,0.82 1.87,2.61 1.07,4.01zm2.55 -14.86l0 0c-3.09,0 -5.6,-2.51 -5.6,-5.6 0,-3.1 2.51,-5.6 5.6,-5.6 3.1,0 5.6,2.5 5.6,5.6 0,3.09 -2.5,5.6 -5.6,5.6z"/>
   </g>
   <path class="fil3" d="M77.77 29.89c26.4,0 47.88,21.47 47.88,47.88 0,26.39 -21.47,47.87 -47.88,47.87 -26.4,0 -47.88,-21.48 -47.88,-47.87 0,-26.41 21.48,-47.88 47.88,-47.88z"/>
   <path class="fil4" d="M77.77 23.33c30.01,0 54.44,24.42 54.44,54.44 0,30.02 -24.43,54.44 -54.44,54.44 -30.01,0 -54.44,-24.42 -54.44,-54.44 0,-30.02 24.43,-54.44 54.44,-54.44zm47.88 54.44l0 0c0,-26.41 -21.47,-47.88 -47.88,-47.88 -26.4,0 -47.88,21.47 -47.88,47.88 0,26.39 21.48,47.87 47.88,47.87 26.4,0 47.88,-21.48 47.88,-47.87z"/>
   <path class="fil5" d="M60.25 47.41c1.39,-0.81 1.88,-2.61 1.07,-4.01 -0.82,-1.4 -2.6,-1.88 -4,-1.08 -1.4,0.82 -1.88,2.61 -1.08,4.01 0.81,1.4 2.6,1.88 4.01,1.07z"/>
   <path class="fil5" d="M95.3 108.13c-1.4,0.81 -1.88,2.6 -1.07,4 0.82,1.4 2.6,1.88 4.01,1.07 1.4,-0.8 1.89,-2.6 1.07,-4 -0.8,-1.41 -2.6,-1.89 -4.01,-1.07z"/>
   <path class="fil5" d="M43.41 61.31c1.4,0.8 3.19,0.33 4,-1.07 0.82,-1.4 0.34,-3.19 -1.07,-4.01 -1.4,-0.81 -3.19,-0.33 -4,1.07 -0.81,1.4 -0.33,3.2 1.07,4.01z"/>
   <path class="fil5" d="M112.14 94.22c-1.4,-0.81 -3.2,-0.33 -4.02,1.08 -0.8,1.4 -0.32,3.2 1.08,4 1.4,0.82 3.2,0.33 4.01,-1.07 0.8,-1.4 0.33,-3.2 -1.07,-4.01z"/>
   <path class="fil5" d="M43.41 94.22c-1.4,0.82 -1.89,2.6 -1.07,4.01 0.81,1.39 2.6,1.88 4,1.07 1.42,-0.8 1.89,-2.6 1.07,-4 -0.8,-1.4 -2.59,-1.89 -4,-1.08z"/>
   <path class="fil5" d="M112.14 61.31c1.4,-0.81 1.87,-2.6 1.07,-4.01 -0.81,-1.4 -2.61,-1.88 -4.01,-1.07 -1.4,0.82 -1.88,2.6 -1.08,4.01 0.82,1.4 2.61,1.88 4.02,1.07z"/>
   <path class="fil5" d="M60.25 108.13c-1.41,-0.81 -3.21,-0.33 -4.01,1.07 -0.8,1.39 -0.32,3.2 1.08,4 1.4,0.81 3.19,0.33 4,-1.07 0.81,-1.4 0.33,-3.19 -1.07,-4z"/>
   <path class="fil5" d="M95.3 47.41c1.4,0.81 3.2,0.33 4.01,-1.07 0.82,-1.4 0.33,-3.19 -1.07,-4.01 -1.4,-0.8 -3.19,-0.33 -4.01,1.08 -0.81,1.4 -0.33,3.2 1.07,4.01z"/>
   <path class="fil0" d="M45.38 77.77c0,-3.1 -2.51,-5.6 -5.6,-5.6 -3.09,0 -5.6,2.5 -5.6,5.6 0,3.09 2.51,5.6 5.6,5.6 3.09,0 5.6,-2.51 5.6,-5.6z"/>
   <path class="fil0" d="M115.77 72.17c-3.09,0 -5.6,2.5 -5.6,5.6 0,3.09 2.51,5.6 5.6,5.6 3.1,0 5.6,-2.51 5.6,-5.6 0,-3.1 -2.5,-5.6 -5.6,-5.6z"/>
   <path class="fil0" d="M77.77 110.16c-3.09,0 -5.6,2.52 -5.6,5.6 0,3.09 2.51,5.61 5.6,5.61 3.09,0 5.61,-2.52 5.61,-5.61 0,-3.09 -2.52,-5.6 -5.61,-5.6z"/>
   <path class="fil0" d="M77.77 45.37c3.09,0 5.61,-2.51 5.61,-5.59 0,-3.1 -2.52,-5.6 -5.61,-5.6 -3.09,0 -5.6,2.49 -5.6,5.6 0,3.08 2.51,5.59 5.6,5.59z"/>
   <path class="fil6" d="M81.57 70.37c1.73,1.15 2.99,2.95 3.41,5.07l10 -9.33 10.82 -10.07 -12.71 7.52 -11.51 6.82z"/>
   <path class="fil6" d="M74.05 69.7l-8.59 -3.61 -9.35 -3.94 6.79 7.53 6.34 7.04c0.11,-3.16 2.06,-5.85 4.8,-7.02z"/>
   <path class="fil6" d="M81.57 70.37l-0.13 0.07c-1.22,-0.79 -2.66,-1.24 -4.22,-1.24 -1.04,0 -2.04,0.21 -2.94,0.58l-0.23 -0.09c-2.74,1.17 -4.69,3.86 -4.8,7.02l0.12 0.12c0,0.07 -0.01,0.15 -0.01,0.24 0,4.33 3.52,7.85 7.85,7.87 2.32,-0.01 4.4,-1 5.85,-2.6 1.27,-1.39 2.05,-3.24 2.05,-5.27 0,-0.55 -0.06,-1.09 -0.17,-1.6l0.05 -0.04c-0.42,-2.11 -1.68,-3.91 -3.41,-5.07zm-4.46 11.52l0 0c-2.61,0 -4.75,-2.13 -4.75,-4.75 0,-2.63 2.14,-4.76 4.75,-4.76 2.62,0 4.76,2.13 4.76,4.76 0,2.62 -2.13,4.75 -4.76,4.75z"/>
   <path class="fil0" d="M58.67 101.67l17.77 -22.7c0.89,0.34 1.94,0.07 2.56,-0.72 0.77,-0.98 0.59,-2.38 -0.38,-3.15 -0.98,-0.77 -2.4,-0.59 -3.17,0.38 -0.61,0.79 -0.61,1.87 -0.08,2.66l-17.76 22.7c-0.31,0.39 -0.31,0.9 -0.02,1.12 0.29,0.24 0.77,0.1 1.08,-0.29z"/>
  </g>
 </g>
</svg>
