<?xml version="1.0" encoding="UTF-8"?>
<!DOCTYPE svg PUBLIC "-//W3C//DTD SVG 1.1//EN" "http://www.w3.org/Graphics/SVG/1.1/DTD/svg11.dtd">
<!-- Creator: CorelDRAW 2020 (64-Bit) -->
<svg xmlns="http://www.w3.org/2000/svg" xml:space="preserve" width="5.20521in" height="5.20521in" version="1.1" style="shape-rendering:geometricPrecision; text-rendering:geometricPrecision; image-rendering:optimizeQuality; fill-rule:evenodd; clip-rule:evenodd"
viewBox="0 0 301.77 301.77"
 xmlns:xlink="http://www.w3.org/1999/xlink"
 xmlns:xodm="http://www.corel.com/coreldraw/odm/2003">
 <defs>
  <style type="text/css">
   <![CDATA[
    .fil5 {fill:black;fill-rule:nonzero}
    .fil2 {fill:#434A54;fill-rule:nonzero}
    .fil0 {fill:#4FC2E9;fill-rule:nonzero}
    .fil1 {fill:#656D78;fill-rule:nonzero}
    .fil4 {fill:#A0D468;fill-rule:nonzero}
    .fil3 {fill:#CCD1D9;fill-rule:nonzero}
   ]]>
  </style>
 </defs>
 <g id="__x0023_Layer_x0020_1">
  <metadata id="CorelCorpID_0Corel-Layer"/>
  <g id="_1494193849920">
   <g id="cloud_server_1_">
    <polygon class="fil0" points="289.2,57.36 264.84,28.29 232.22,8.25 207.46,8.25 185.86,8.25 165.27,24.28 144.59,28.29 139.88,33.01 112.38,22 94.3,22 73.08,28.29 55.8,42.44 43.61,66.01 47.15,85.65 47.15,94.7 26.72,104.86 11.01,117.48 11.01,142.24 14.93,163.46 43.61,180.74 258.15,180.74 284.48,150.88 293.91,117.48 293.91,88.8 "/>
    <rect class="fil1" x="64.44" y="117.48" width="172.89" height="126.52"/>
    <polygon class="fil2" points="202.75,92.24 94.3,95.19 67.19,117.48 232.22,114.64 "/>
    <rect class="fil2" x="43.61" y="268.36" width="214.54" height="27.9"/>
    <polygon class="fil3" points="164.24,268.36 164.24,247.54 139.49,247.54 139.49,268.36 119.45,268.36 119.45,296.27 185.86,296.27 185.86,268.36 "/>
    <path class="fil4" d="M219.17 150.01c0,6.46 -5.24,11.7 -11.71,11.7 -6.47,0 -11.71,-5.24 -11.71,-11.7 0,-6.46 5.24,-11.7 11.71,-11.7 6.47,0 11.71,5.25 11.71,11.7z"/>
    <path class="fil4" d="M219.17 213.75c0,6.46 -5.24,11.71 -11.71,11.71 -6.47,0 -11.71,-5.24 -11.71,-11.71 0,-6.46 5.24,-11.71 11.71,-11.71 6.47,0 11.71,5.25 11.71,11.71z"/>
    <g>
     <path class="fil5" d="M207.46 132.02c-10.42,0 -18.86,8.44 -18.86,18.86 0,10.42 8.44,18.86 18.86,18.86 10.42,0 18.86,-8.45 18.86,-18.86 0,-10.41 -8.44,-18.86 -18.86,-18.86zm0 25.14c-3.46,0 -6.28,-2.82 -6.28,-6.28 0,-3.46 2.82,-6.28 6.28,-6.28 3.46,0 6.28,2.82 6.28,6.28 0,3.46 -2.82,6.28 -6.28,6.28z"/>
     <path class="fil5" d="M106.88 144.6c0,-3.48 -2.82,-6.3 -6.29,-6.3 -1.74,0 -3.31,0.71 -4.44,1.84l0 0 -12.58 12.58 0 0c-1.14,1.14 -1.84,2.71 -1.84,4.44 0,3.48 2.82,6.3 6.29,6.3 1.74,0 3.31,-0.71 4.44,-1.84l0 0 12.58 -12.58 0 0c1.14,-1.14 1.84,-2.71 1.84,-4.44z"/>
     <path class="fil5" d="M132.02 144.6c0,-3.48 -2.81,-6.3 -6.29,-6.3 -1.74,0 -3.31,0.71 -4.45,1.84l0 0 -12.57 12.58 0 0c-1.14,1.14 -1.84,2.71 -1.84,4.44 0,3.48 2.81,6.3 6.29,6.3 1.74,0 3.31,-0.71 4.44,-1.84l0 0 12.58 -12.58 0 0c1.14,-1.14 1.84,-2.71 1.84,-4.44z"/>
     <path class="fil5" d="M150.88 138.3c-1.74,0 -3.31,0.71 -4.44,1.84l0 0 -12.58 12.58 0 0c-1.14,1.14 -1.84,2.71 -1.84,4.44 0,3.48 2.81,6.3 6.29,6.3 1.74,0 3.31,-0.71 4.45,-1.84l0 0 12.57 -12.58 0 0c1.14,-1.14 1.84,-2.71 1.84,-4.44 -0,-3.48 -2.81,-6.3 -6.29,-6.3z"/>
     <path class="fil5" d="M245.18 251.47l0 -62.86c15.56,0 56.58,-18.86 56.58,-94.3 0,-52.09 -42.21,-94.3 -94.3,-94.3 -25.9,0 -49.35,10.44 -66.4,27.34 -10.94,-9.22 -25.06,-14.76 -40.48,-14.76 -34.72,0 -62.87,28.14 -62.87,62.86 0,4.73 0.53,9.36 1.52,13.79 -22.46,5.04 -39.24,25.1 -39.24,49.07 0,27.78 22.52,50.3 50.3,50.3l6.29 0 0 62.86 75.44 0 0 12.58 -94.3 0 0 37.72 226.33 0 0 -37.72 -94.3 0 0 -12.58 75.44 0zm-176.03 -125.72l163.45 0 0 50.28 -163.45 0 0 -50.28zm10.09 -12.58l18.86 -12.58 105.54 0 18.86 12.58 -143.26 0zm-28.95 62.86c-20.8,0 -37.72,-16.92 -37.72,-37.72 0,-8.74 2.9,-16.94 8.39,-23.72 5.34,-6.59 12.81,-11.24 21.02,-13.08l12.26 -2.74 -2.74 -12.27c-0.81,-3.61 -1.22,-7.33 -1.22,-11.05 0,-13.44 5.23,-26.06 14.73,-35.57 9.5,-9.5 22.13,-14.73 35.56,-14.73 11.84,0 23.34,4.2 32.38,11.82l8.79 7.4 8.16 -8.1c15.41,-15.28 35.85,-23.69 57.54,-23.69 11.03,0 21.74,2.16 31.81,6.41 9.72,4.12 18.47,10.01 25.99,17.52 7.51,7.51 13.4,16.26 17.52,25.99 4.25,10.07 6.41,20.78 6.41,31.81 0,16.19 -2.02,30.53 -6,42.62 -3.24,9.78 -7.74,18.06 -13.39,24.61 -4.35,5.05 -9.44,9.07 -14.72,11.65 -4.31,2.11 -7.93,2.85 -9.89,2.85l-0 -62.86 -37.72 -25.14 -113.16 0 -37.72 25.14 0 62.86 -6.28 0zm18.86 12.58l163.45 0 0 50.3 -163.45 0 0 -50.3zm-18.86 88.02l62.87 0 0 12.56 -62.87 -0 0 -12.56zm201.17 12.56l-62.86 0 0 -12.56 62.86 0 0 12.56zm-75.44 -12.56l0 12.56 -50.29 -0 0 -12.56 18.86 0 0 -25.16 12.57 0 0 25.16 18.86 0z"/>
     <path class="fil5" d="M207.46 194.88c-10.42,0 -18.86,8.45 -18.86,18.86 0,10.42 8.44,18.86 18.86,18.86 10.42,0 18.86,-8.44 18.86,-18.86 0,-10.41 -8.44,-18.86 -18.86,-18.86zm0 25.16c-3.46,0 -6.28,-2.83 -6.28,-6.3 0,-3.46 2.82,-6.28 6.28,-6.28 3.46,0 6.28,2.82 6.28,6.28 -0,3.47 -2.82,6.3 -6.28,6.3z"/>
     <path class="fil5" d="M106.88 207.46c0,-3.47 -2.82,-6.28 -6.29,-6.28 -1.74,0 -3.31,0.7 -4.44,1.84l-12.57 12.56c-1.14,1.14 -1.85,2.71 -1.85,4.46 0,3.46 2.82,6.28 6.29,6.28 1.74,0 3.31,-0.7 4.44,-1.84l0 0 12.58 -12.58 0 0c1.14,-1.13 1.84,-2.71 1.84,-4.44z"/>
     <path class="fil5" d="M132.02 207.46c0,-3.47 -2.81,-6.28 -6.29,-6.28 -1.74,0 -3.31,0.7 -4.45,1.84l-12.57 12.56c-1.14,1.14 -1.84,2.71 -1.84,4.46 0,3.46 2.81,6.28 6.29,6.28 1.74,0 3.31,-0.7 4.44,-1.84l0 0 12.58 -12.58 0 0c1.14,-1.13 1.84,-2.71 1.84,-4.44z"/>
     <path class="fil5" d="M150.88 201.18c-1.74,0 -3.31,0.7 -4.45,1.84l-12.57 12.56c-1.14,1.14 -1.84,2.71 -1.84,4.46 0,3.46 2.81,6.28 6.29,6.28 1.74,0 3.31,-0.7 4.45,-1.84l0 0 12.57 -12.58 0 0c1.14,-1.13 1.84,-2.71 1.84,-4.44 0,-3.47 -2.81,-6.28 -6.29,-6.28z"/>
    </g>
   </g>
  </g>
 </g>
</svg>
