<?xml version="1.0" encoding="UTF-8"?>
<!DOCTYPE svg PUBLIC "-//W3C//DTD SVG 1.1//EN" "http://www.w3.org/Graphics/SVG/1.1/DTD/svg11.dtd">
<!-- Creator: CorelDRAW 2020 (64-Bit) -->
<svg xmlns="http://www.w3.org/2000/svg" xml:space="preserve" width="0.408472in" height="0.408516in" version="1.1" style="shape-rendering:geometricPrecision; text-rendering:geometricPrecision; image-rendering:optimizeQuality; fill-rule:evenodd; clip-rule:evenodd"
viewBox="0 0 13.21 13.21"
 xmlns:xlink="http://www.w3.org/1999/xlink"
 xmlns:xodm="http://www.corel.com/coreldraw/odm/2003">
 <defs>
  <style type="text/css">
   <![CDATA[
    .fil9 {fill:#FEFEFE;fill-rule:nonzero}
    .fil7 {fill:#FFFBD6;fill-rule:nonzero}
    .fil3 {fill:#F58634;fill-rule:nonzero}
    .fil4 {fill:#4A3D56;fill-rule:nonzero}
    .fil8 {fill:#00A859;fill-rule:nonzero}
    .fil1 {fill:#3397DB;fill-rule:nonzero}
    .fil0 {fill:#97CCF6;fill-rule:nonzero}
    .fil2 {fill:#C8CDD1;fill-rule:nonzero}
    .fil5 {fill:#DF5B49;fill-rule:nonzero}
    .fil6 {fill:#EBEFEF;fill-rule:nonzero}
   ]]>
  </style>
 </defs>
 <g id="__x0023_Layer_x0020_1">
  <metadata id="CorelCorpID_0Corel-Layer"/>
  <g id="_1494357755824">
   <path class="fil0" d="M6.06 13.18l-2.81 -2.89c-0.04,-0.02 -0.07,-0.06 -0.07,-0.11l0 -0.18 -0.56 -0.57c-0.04,-0.02 -0.07,-0.06 -0.07,-0.11 0,-0.07 0.06,-0.13 0.13,-0.13l0.5 0 0.1 0.01 -0.1 -0.09 0 -0.07 -0.56 -0.57c-0.04,-0.02 -0.07,-0.06 -0.07,-0.11 0,-0.07 0.06,-0.13 0.13,-0.13l0.5 0 0.09 0.01 -0.09 -0.09 0 -0.07 -0.56 -0.57c-0.04,-0.02 -0.07,-0.06 -0.07,-0.11 0,-0.07 0.06,-0.13 0.13,-0.13l0.5 0 0.08 0.01 -0.08 -0.09 0 -0.07 -0.56 -0.57c-0.04,-0.02 -0.07,-0.06 -0.07,-0.11 0,-0.07 0.06,-0.13 0.13,-0.13l0.5 0 0.08 0.01 -0.08 -0.09 0 -0.07 -0.56 -0.57c-0.04,-0.02 -0.07,-0.06 -0.07,-0.11 0,-0.07 0.06,-0.13 0.13,-0.13l0.5 0 0.09 0.01 -0.09 -0.09 0 -0.07 -0.56 -0.57c-0.04,-0.02 -0.07,-0.06 -0.07,-0.11 0,-0.07 0.06,-0.13 0.13,-0.13l0.5 0 0.09 0.01 -0.09 -0.1 0 -0.07 -0.56 -0.57c-0.04,-0.02 -0.07,-0.06 -0.07,-0.11 0,-0.07 0.06,-0.13 0.13,-0.13l0.5 0 0.09 0.01 -0.09 -0.1 0 -0.66c0,-0.07 0.05,-0.12 0.12,-0.12l0.8 0c0.05,0 0.09,0.03 0.11,0.07l0.14 0.13 0 -0.08c0,-0.07 0.07,-0.12 0.15,-0.12l4.26 0c0.16,-0.34 0.51,-0.57 0.9,-0.57 0.29,0 0.56,0.13 0.74,0.33l2.59 2.61c-0.74,-2.83 -3.32,-4.92 -6.39,-4.92 -3.65,0 -6.6,2.96 -6.6,6.6 0,3.46 2.67,6.3 6.06,6.58z"/>
   <path class="fil1" d="M10.4 2.31c-0.18,-0.2 -0.45,-0.33 -0.74,-0.33 -0.4,0 -0.74,0.23 -0.9,0.57l-4.26 0c-0.08,0 -0.15,0.05 -0.15,0.12l0 0.08 -0.14 -0.13c-0.02,-0.04 -0.06,-0.07 -0.11,-0.07l-0.8 0c-0.07,0 -0.12,0.05 -0.12,0.12l0 0.66 0.09 0.1 -0.09 -0.01 -0.5 0c-0.07,0 -0.13,0.06 -0.13,0.13 0,0.05 0.03,0.09 0.07,0.11l0.56 0.57 0 0.07 0.09 0.1 -0.09 -0.01 -0.5 0c-0.07,0 -0.13,0.06 -0.13,0.13 0,0.05 0.03,0.09 0.07,0.11l0.56 0.57 0 0.07 0.09 0.09 -0.09 -0.01 -0.5 0c-0.07,0 -0.13,0.06 -0.13,0.13 0,0.05 0.03,0.09 0.07,0.11l0.56 0.57 0 0.07 0.08 0.09 -0.08 -0.01 -0.5 0c-0.07,0 -0.13,0.06 -0.13,0.13 0,0.05 0.03,0.09 0.07,0.11l0.56 0.57 0 0.07 0.08 0.09 -0.08 -0.01 -0.5 0c-0.07,0 -0.13,0.06 -0.13,0.13 0,0.05 0.03,0.09 0.07,0.11l0.56 0.57 0 0.07 0.09 0.09 -0.09 -0.01 -0.5 0c-0.07,0 -0.13,0.06 -0.13,0.13 0,0.05 0.03,0.09 0.07,0.11l0.56 0.57 0 0.07 0.1 0.09 -0.1 -0.01 -0.5 0c-0.07,0 -0.13,0.06 -0.13,0.13 0,0.05 0.03,0.09 0.07,0.11l0.56 0.57 0 0.18c0,0.05 0.03,0.09 0.07,0.11l2.81 2.89c0.18,0.01 0.36,0.02 0.54,0.02 3.65,0 6.6,-2.96 6.6,-6.6 0,-0.58 -0.07,-1.14 -0.21,-1.68l-2.59 -2.61z"/>
  </g>
  <path class="fil2" d="M10.57 3.37c-0.01,-0.01 -0.03,-0.01 -0.04,-0.01 -0.05,0 -0.09,0.04 -0.09,0.09l0 0.05c-0.04,0.05 -0.08,0.09 -0.13,0.13 -0.05,0.05 -0.12,0.09 -0.18,0.13 -0.04,0.02 -0.08,0.04 -0.13,0.06 -0.06,0.02 -0.12,0.04 -0.18,0.05 -0.03,0.01 -0.06,0.01 -0.1,0.01l0 6.21c0,0.07 -0.07,0.12 -0.15,0.12l-5.09 0c-0.03,0 -0.05,-0.01 -0.07,-0.02 -0.02,0.01 -0.05,0.01 -0.07,0.02 0,0.03 0.01,0.05 0.01,0.07 -0,0.02 -0,0.03 -0,0.05l-0.81 0c-0.05,0 -0.09,0.04 -0.09,0.09 0,0.01 0,0.01 0,0.02 0,0.01 0.01,0.02 0.01,0.03 0.01,0.02 0.04,0.04 0.06,0.04l0.23 0.24c0.01,0.04 0.04,0.07 0.07,0.07l0.23 0.23c0.01,0.04 0.04,0.07 0.07,0.07l0.09 0.09 2.83 0c0.2,0.03 0.41,0.02 0.61,0l2.86 0c0.05,0 0.09,-0.04 0.09,-0.09l0 -7.67c0,-0.03 -0.02,-0.06 -0.05,-0.08z"/>
  <path class="fil3" d="M4.1 2.55l-0.8 0c-0.07,0 -0.12,0.05 -0.12,0.12l0 0.66 0.24 0c0.05,-0.04 0.1,-0.06 0.17,-0.06 0.15,0 0.27,0.12 0.27,0.27 0,0.15 -0.12,0.27 -0.27,0.27 -0.06,0 -0.12,-0.02 -0.17,-0.06l-0.24 0 0 0.54 0.24 0c0.05,-0.04 0.1,-0.06 0.17,-0.06 0.15,0 0.27,0.12 0.27,0.27 0,0.15 -0.12,0.27 -0.27,0.27 -0.06,0 -0.12,-0.02 -0.17,-0.06l-0.24 0 0 0.54 0.24 0c0.05,-0.04 0.1,-0.06 0.17,-0.06 0.15,0 0.27,0.12 0.27,0.27 0,0.15 -0.12,0.27 -0.27,0.27 -0.06,0 -0.12,-0.02 -0.17,-0.06l-0.24 0 0 0.54 0.24 0c0.05,-0.04 0.1,-0.06 0.17,-0.06 0.15,0 0.27,0.12 0.27,0.27 0,0.15 -0.12,0.27 -0.27,0.27 -0.06,0 -0.12,-0.02 -0.17,-0.06l-0.24 0 0 0.54 0.24 0c0.05,-0.04 0.1,-0.06 0.17,-0.06 0.15,0 0.27,0.12 0.27,0.27 0,0.15 -0.12,0.27 -0.27,0.27 -0.06,0 -0.12,-0.02 -0.17,-0.06l-0.24 0 0 0.54 0.24 0c0.05,-0.04 0.1,-0.06 0.17,-0.06 0.15,0 0.27,0.12 0.27,0.27 0,0.15 -0.12,0.27 -0.27,0.27 -0.06,0 -0.12,-0.02 -0.17,-0.06l-0.24 0 0 0.54 0.24 0c0.05,-0.04 0.1,-0.06 0.17,-0.06 0.15,0 0.27,0.12 0.27,0.27 0,0.15 -0.12,0.27 -0.27,0.27 -0.06,0 -0.12,-0.02 -0.17,-0.06l-0.24 0 0 0.65c0,0.07 0.05,0.12 0.12,0.12l0.8 0c0.07,0 0.12,-0.05 0.12,-0.12l0 -7.52c0,-0.07 -0.05,-0.12 -0.12,-0.12z"/>
  <g id="_1494357755536">
   <path class="fil4" d="M3.57 6.3l-0.22 0 -0.17 0 -0.5 0c-0.07,0 -0.13,0.06 -0.13,0.13 0,0.07 0.06,0.13 0.13,0.13l0.5 0 0.17 0 0.22 0c0.07,0 0.13,-0.06 0.13,-0.13 0,-0.07 -0.06,-0.13 -0.13,-0.13z"/>
   <g>
    <path class="fil4" d="M3.57 9.19l-0.22 0 -0.17 0 -0.5 0c-0.07,0 -0.13,0.06 -0.13,0.13 0,0.07 0.06,0.13 0.13,0.13l0.5 0 0.17 0 0.22 0c0.07,0 0.13,-0.06 0.13,-0.13 0,-0.07 -0.06,-0.13 -0.13,-0.13z"/>
    <path class="fil4" d="M2.68 8.48l0.5 0 0.17 0 0.22 0c0.07,0 0.13,-0.06 0.13,-0.13 0,-0.07 -0.06,-0.13 -0.13,-0.13l-0.22 0 -0.17 0 -0.5 0c-0.07,0 -0.13,0.06 -0.13,0.13 0,0.07 0.06,0.13 0.13,0.13z"/>
    <path class="fil4" d="M3.57 7.27l-0.22 0 -0.17 0 -0.5 0c-0.07,0 -0.13,0.06 -0.13,0.13 0,0.07 0.06,0.13 0.13,0.13l0.5 0 0.17 0 0.22 0c0.07,0 0.13,-0.06 0.13,-0.13 0,-0.07 -0.06,-0.13 -0.13,-0.13z"/>
    <path class="fil4" d="M3.57 5.34l-0.22 0 -0.17 0 -0.5 0c-0.07,0 -0.13,0.06 -0.13,0.13 0,0.07 0.06,0.13 0.13,0.13l0.5 0 0.17 0 0.22 0c0.07,0 0.13,-0.06 0.13,-0.13 0,-0.07 -0.06,-0.13 -0.13,-0.13z"/>
    <path class="fil4" d="M2.68 4.63l0.5 0 0.17 0 0.22 0c0.07,0 0.13,-0.06 0.13,-0.13 0,-0.07 -0.06,-0.13 -0.13,-0.13l-0.22 0 -0.17 0 -0.5 0c-0.07,0 -0.13,0.06 -0.13,0.13 0,0.07 0.06,0.13 0.13,0.13z"/>
    <path class="fil4" d="M3.57 3.41l-0.22 0 -0.17 0 -0.5 0c-0.07,0 -0.13,0.06 -0.13,0.13 0,0.07 0.06,0.13 0.13,0.13l0.5 0 0.17 0 0.22 0c0.07,0 0.13,-0.06 0.13,-0.13 0,-0.07 -0.06,-0.13 -0.13,-0.13z"/>
   </g>
  </g>
  <path class="fil5" d="M4.34 10.19c0,0.07 0.07,0.12 0.15,0.12l5.09 0c0.08,0 0.15,-0.05 0.15,-0.12l0 -7.52c0,-0.07 -0.07,-0.12 -0.15,-0.12l-5.09 0c-0.08,0 -0.15,0.05 -0.15,0.12l0 7.52z"/>
  <path class="fil6" d="M9.91 10.61l-6.37 0c-0.05,0 -0.09,-0.04 -0.09,-0.09 0,-0.05 0.04,-0.09 0.09,-0.09l6.28 0 0 -7.49c0,-0.05 0.04,-0.09 0.09,-0.09 0.05,0 0.09,0.04 0.09,0.09l0 7.58c0,0.05 -0.04,0.09 -0.09,0.09z"/>
  <path class="fil6" d="M10.22 10.92l-6.37 0c-0.05,0 -0.09,-0.04 -0.09,-0.09 0,-0.05 0.04,-0.09 0.09,-0.09l6.28 0 0 -7.49c0,-0.05 0.04,-0.09 0.09,-0.09 0.05,0 0.09,0.04 0.09,0.09l0 7.58c0,0.05 -0.04,0.09 -0.09,0.09z"/>
  <path class="fil6" d="M10.53 11.23l-6.37 0c-0.05,0 -0.09,-0.04 -0.09,-0.09 0,-0.05 0.04,-0.09 0.09,-0.09l6.28 0 0 -7.49c0,-0.05 0.04,-0.09 0.09,-0.09 0.05,0 0.09,0.04 0.09,0.09l0 7.58c0,0.05 -0.04,0.09 -0.09,0.09z"/>
  <path class="fil6" d="M10.66 2.98c0,0.55 -0.45,1 -1,1 -0.55,0 -1,-0.45 -1,-1 0,-0.55 0.45,-1 1,-1 0.55,0 1,0.45 1,1z"/>
  <path class="fil7" d="M5.53 6.78c0,0 -0,0.01 -0,0.01 -0,0 -0,0 -0.01,0.01 -0,0 -0.01,0 -0.02,0 -0.01,0 -0.02,0 -0.03,0 -0.01,0 -0.02,-0 -0.03,-0 -0.01,-0 -0.01,-0 -0.02,-0 -0,-0 -0.01,-0 -0.01,-0.01 -0,-0 -0,-0.01 -0,-0.01l0 -0.16 -0.45 0 0 0.16c0,0 -0,0.01 -0,0.01 -0,0 -0.01,0 -0.01,0.01 -0,0 -0.01,0 -0.02,0 -0.01,0 -0.02,0 -0.03,0 -0.01,0 -0.02,-0 -0.03,-0 -0.01,-0 -0.01,-0 -0.02,-0 -0,-0 -0.01,-0 -0.01,-0.01 -0,-0 -0,-0.01 -0,-0.01l0 -0.24c-0,-0.01 0,-0.02 0.01,-0.02 0,-0 0.01,-0.01 0.02,-0.01l0.03 0c0.01,-0.01 0.02,-0.02 0.02,-0.04 0.01,-0.01 0.01,-0.03 0.02,-0.04 0.01,-0.02 0.01,-0.04 0.02,-0.06 0.01,-0.02 0.01,-0.05 0.02,-0.09 0.01,-0.03 0.01,-0.07 0.02,-0.12 0.01,-0.05 0.01,-0.1 0.02,-0.16 0,-0.02 0.01,-0.03 0.01,-0.03 0.01,-0.01 0.02,-0.01 0.03,-0.01l0.34 0c0.01,0 0.02,0 0.03,0.01 0.01,0.01 0.01,0.02 0.01,0.03l0 0.52 0.06 0c0.01,0 0.02,0 0.02,0.01 0,0.01 0.01,0.01 0.01,0.02l0 0.24zm-0.22 -0.72l-0.16 0c-0.01,0.05 -0.01,0.1 -0.02,0.14 -0.01,0.04 -0.01,0.07 -0.02,0.1 -0.01,0.03 -0.01,0.06 -0.02,0.08 -0.01,0.02 -0.01,0.04 -0.02,0.06 -0.01,0.02 -0.01,0.03 -0.02,0.04 -0.01,0.01 -0.01,0.02 -0.02,0.03l0.27 0 0 -0.45z"/>
  <path id="1" class="fil7" d="M6.14 6.6c0,0 -0,0.01 -0,0.01 -0,0 -0.01,0 -0.01,0.01 -0.01,0 -0.01,0 -0.02,0 -0.01,0 -0.02,0 -0.03,0 -0.01,0 -0.02,-0 -0.03,-0 -0.01,-0 -0.02,-0 -0.02,-0 -0,-0 -0.01,-0 -0.01,-0.01 -0,-0 -0,-0.01 -0,-0.01l0 -0.27 -0.25 0 0 0.27c0,0 -0,0.01 -0,0.01 -0,0 -0.01,0 -0.01,0.01 -0.01,0 -0.01,0 -0.02,0 -0.01,0 -0.02,0 -0.03,0 -0.01,0 -0.02,-0 -0.03,-0 -0.01,-0 -0.02,-0 -0.02,-0 -0.01,-0 -0.01,-0 -0.01,-0.01 -0,-0 -0,-0.01 -0,-0.01l0 -0.63c0,-0 0,-0.01 0,-0.01 0,-0 0.01,-0 0.01,-0.01 0.01,-0 0.01,-0 0.02,-0 0.01,-0 0.02,-0 0.03,-0 0.01,0 0.02,0 0.03,0 0.01,0 0.02,0 0.02,0 0.01,0 0.01,0 0.01,0.01 0,0 0,0.01 0,0.01l0 0.25 0.25 0 0 -0.25c0,-0 0,-0.01 0,-0.01 0,-0 0.01,-0 0.01,-0.01 0.01,-0 0.01,-0 0.02,-0 0.01,-0 0.02,-0 0.03,-0 0.01,0 0.02,0 0.03,0 0.01,0 0.02,0 0.02,0 0.01,0 0.01,0 0.01,0.01 0,0 0,0.01 0,0.01l0 0.63z"/>
  <path id="2" class="fil7" d="M6.69 6.57c0,0.01 -0,0.02 -0,0.03 -0,0.01 -0,0.01 -0,0.02 -0,0 -0,0.01 -0.01,0.01 -0,0 -0.01,0 -0.01,0l-0.34 0c-0.01,0 -0.02,-0 -0.03,-0.01 -0.01,-0.01 -0.01,-0.02 -0.01,-0.03l0 -0.58c0,-0.02 0,-0.03 0.01,-0.03 0.01,-0.01 0.02,-0.01 0.03,-0.01l0.33 0c0,0 0.01,0 0.01,0 0,0 0,0 0.01,0.01 0,0 0,0.01 0,0.02 0,0.01 0,0.02 0,0.03 0,0.01 -0,0.02 -0,0.02 -0,0.01 -0,0.01 -0,0.02 -0,0 -0,0.01 -0.01,0.01 -0,0 -0.01,0 -0.01,0l-0.24 0 0 0.16 0.2 0c0,0 0.01,0 0.01,0 0,0 0,0 0.01,0.01 0,0 0,0.01 0,0.02 0,0.01 0,0.01 0,0.02 0,0.01 -0,0.02 -0,0.02 -0,0.01 -0,0.01 -0,0.02 -0,0 -0,0.01 -0.01,0.01 -0,0 -0.01,0 -0.01,0l-0.2 0 0 0.19 0.24 0c0,0 0.01,0 0.01,0 0,0 0,0 0.01,0.01 0,0 0,0.01 0,0.02 0,0.01 0,0.02 0,0.03z"/>
  <path id="3" class="fil7" d="M7.29 6.42c0,0.02 -0,0.05 -0.01,0.06 -0.01,0.02 -0.02,0.04 -0.03,0.05 -0.01,0.01 -0.03,0.03 -0.04,0.04 -0.02,0.01 -0.03,0.02 -0.05,0.03 -0.02,0.01 -0.04,0.01 -0.06,0.02 -0.02,0 -0.05,0 -0.07,0l-0.18 0c-0.01,0 -0.02,-0 -0.03,-0.01 -0.01,-0.01 -0.01,-0.02 -0.01,-0.03l0 -0.58c0,-0.02 0,-0.03 0.01,-0.03 0.01,-0.01 0.02,-0.01 0.03,-0.01l0.17 0c0.04,0 0.08,0 0.1,0.01 0.03,0.01 0.05,0.02 0.07,0.03 0.02,0.01 0.03,0.03 0.04,0.05 0.01,0.02 0.02,0.05 0.02,0.08 0,0.02 -0,0.03 -0.01,0.05 -0,0.01 -0.01,0.03 -0.02,0.04 -0.01,0.01 -0.02,0.02 -0.03,0.03 -0.01,0.01 -0.02,0.02 -0.04,0.02 0.02,0 0.04,0.01 0.05,0.02 0.02,0.01 0.03,0.02 0.04,0.03 0.01,0.01 0.02,0.03 0.03,0.05 0.01,0.02 0.01,0.04 0.01,0.06zm-0.18 -0.28c0,-0.01 -0,-0.03 -0.01,-0.04 -0,-0.01 -0.01,-0.02 -0.02,-0.03 -0.01,-0.01 -0.02,-0.01 -0.03,-0.02 -0.01,-0 -0.03,-0.01 -0.05,-0.01l-0.07 0 0 0.17 0.08 0c0.02,0 0.04,-0 0.05,-0.01 0.01,-0 0.02,-0.01 0.03,-0.02 0.01,-0.01 0.01,-0.02 0.02,-0.03 0,-0.01 0.01,-0.02 0.01,-0.03zm0.04 0.29c0,-0.02 -0,-0.03 -0.01,-0.04 -0.01,-0.01 -0.01,-0.02 -0.02,-0.03 -0.01,-0.01 -0.02,-0.01 -0.04,-0.02 -0.02,-0 -0.04,-0.01 -0.06,-0.01l-0.08 0 0 0.19 0.1 0c0.02,0 0.03,-0 0.05,-0.01 0.01,-0 0.02,-0.01 0.03,-0.02 0.01,-0.01 0.02,-0.02 0.02,-0.03 0.01,-0.01 0.01,-0.02 0.01,-0.04z"/>
  <path id="4" class="fil7" d="M7.92 6.6c0,0 -0,0.01 -0,0.01 -0,0 -0.01,0 -0.01,0.01 -0.01,0 -0.01,0 -0.02,0 -0.01,0 -0.02,0 -0.03,0 -0.01,0 -0.02,-0 -0.03,-0 -0.01,-0 -0.02,-0 -0.02,-0 -0,-0 -0.01,-0 -0.01,-0.01 -0,-0 -0,-0.01 -0,-0.01l0 -0.27 -0.25 0 0 0.27c0,0 -0,0.01 -0,0.01 -0,0 -0.01,0 -0.01,0.01 -0.01,0 -0.01,0 -0.02,0 -0.01,0 -0.02,0 -0.03,0 -0.01,0 -0.02,-0 -0.03,-0 -0.01,-0 -0.02,-0 -0.02,-0 -0.01,-0 -0.01,-0 -0.01,-0.01 -0,-0 -0,-0.01 -0,-0.01l0 -0.63c0,-0 0,-0.01 0,-0.01 0,-0 0.01,-0 0.01,-0.01 0.01,-0 0.01,-0 0.02,-0 0.01,-0 0.02,-0 0.03,-0 0.01,0 0.02,0 0.03,0 0.01,0 0.02,0 0.02,0 0.01,0 0.01,0 0.01,0.01 0,0 0,0.01 0,0.01l0 0.25 0.25 0 0 -0.25c0,-0 0,-0.01 0,-0.01 0,-0 0.01,-0 0.01,-0.01 0.01,-0 0.01,-0 0.02,-0 0.01,-0 0.02,-0 0.03,-0 0.01,0 0.02,0 0.03,0 0.01,0 0.02,0 0.02,0 0.01,0 0.01,0 0.01,0.01 0,0 0,0.01 0,0.01l0 0.63z"/>
  <path id="5" class="fil7" d="M8.61 6.6c0,0 -0,0.01 -0,0.01 -0,0 -0.01,0 -0.01,0.01 -0.01,0 -0.01,0 -0.02,0 -0.01,0 -0.02,0 -0.03,0 -0.01,0 -0.02,-0 -0.03,-0 -0.01,-0 -0.02,-0 -0.02,-0 -0.01,-0 -0.01,-0 -0.01,-0.01 -0,-0 -0,-0.01 -0,-0.01l0 -0.35c0,-0.01 0,-0.03 0,-0.04 0,-0.01 0,-0.02 0,-0.03l-0 0c-0,0 -0.01,0.01 -0.01,0.02 -0,0.01 -0.01,0.01 -0.01,0.02 -0,0.01 -0.01,0.01 -0.01,0.02 -0,0.01 -0.01,0.01 -0.01,0.02l-0.23 0.35c-0,0 -0.01,0.01 -0.01,0.01 -0,0 -0.01,0 -0.01,0.01 -0,0 -0.01,0 -0.02,0 -0.01,0 -0.02,0 -0.03,0 -0.01,0 -0.02,-0 -0.03,-0 -0.01,-0 -0.01,-0 -0.02,-0 -0,-0 -0.01,-0 -0.01,-0.01 -0,-0 -0,-0.01 -0,-0.01l0 -0.63c0,-0 0,-0.01 0,-0.01 0,-0 0.01,-0 0.01,-0.01 0.01,-0 0.01,-0 0.02,-0 0.01,-0 0.02,-0 0.03,-0 0.01,0 0.02,0 0.03,0 0.01,0 0.02,0 0.02,0 0.01,0 0.01,0 0.01,0.01 0,0 0,0.01 0,0.01l0 0.35c0,0.01 -0,0.02 -0,0.04 -0,0.01 -0,0.02 -0,0.04l0 0c0.01,-0.01 0.01,-0.02 0.02,-0.04 0.01,-0.01 0.02,-0.03 0.03,-0.04l0.23 -0.35c0,-0 0,-0.01 0.01,-0.01 0,-0 0.01,-0 0.01,-0.01 0,-0 0.01,-0 0.02,-0 0.01,-0 0.02,-0 0.03,-0 0.01,0 0.02,0 0.03,0 0.01,0 0.01,0 0.02,0 0,0 0.01,0 0.01,0.01 0,0 0,0.01 0,0.01l0 0.63z"/>
  <path id="6" class="fil7" d="M9.25 6.6c0,0 -0,0.01 -0,0.01 -0,0 -0.01,0 -0.01,0.01 -0.01,0 -0.01,0 -0.02,0 -0.01,0 -0.02,0 -0.03,0 -0.02,0 -0.03,-0 -0.04,-0 -0.01,-0 -0.02,-0 -0.02,-0 -0.01,-0 -0.01,-0 -0.01,-0.01 -0,-0 -0,-0.01 -0.01,-0.01l-0.05 -0.15c-0.01,-0.02 -0.02,-0.04 -0.02,-0.05 -0.01,-0.01 -0.02,-0.03 -0.03,-0.04 -0.01,-0.01 -0.02,-0.02 -0.03,-0.02 -0.01,-0 -0.03,-0.01 -0.04,-0.01l-0.03 0 0 0.27c0,0 -0,0.01 -0,0.01 -0,0 -0.01,0 -0.01,0.01 -0.01,0 -0.01,0 -0.02,0 -0.01,0 -0.02,0 -0.03,0 -0.01,0 -0.02,-0 -0.03,-0 -0.01,-0 -0.02,-0 -0.02,-0 -0.01,-0 -0.01,-0 -0.01,-0.01 -0,-0 -0,-0.01 -0,-0.01l0 -0.63c0,-0 0,-0.01 0,-0.01 0,-0 0.01,-0 0.01,-0.01 0.01,-0 0.01,-0 0.02,-0 0.01,-0 0.02,-0 0.03,-0 0.01,0 0.02,0 0.03,0 0.01,0 0.02,0 0.02,0 0.01,0 0.01,0 0.01,0.01 0,0 0,0.01 0,0.01l0 0.25 0.03 0c0.02,0 0.03,-0 0.04,-0.01 0.01,-0 0.02,-0.01 0.03,-0.02 0.01,-0.01 0.02,-0.02 0.03,-0.03 0.01,-0.01 0.02,-0.03 0.02,-0.05l0.05 -0.13c0,-0 0,-0.01 0.01,-0.01 0,-0 0.01,-0.01 0.01,-0.01 0.01,-0 0.01,-0 0.02,-0 0.01,-0 0.02,-0 0.04,-0 0.01,0 0.02,0 0.03,0 0.01,0 0.02,0 0.02,0 0.01,0 0.01,0 0.01,0.01 0,0 0,0.01 0,0.01 0,0 -0,0.01 -0,0.02 -0,0.01 -0,0.02 -0.01,0.03l-0.04 0.12c-0.01,0.02 -0.02,0.04 -0.02,0.06 -0.01,0.02 -0.02,0.03 -0.03,0.04 -0.01,0.01 -0.02,0.02 -0.03,0.03 -0.01,0.01 -0.02,0.01 -0.03,0.02l0 0c0.01,0.01 0.03,0.01 0.04,0.02 0.01,0.01 0.02,0.02 0.03,0.03 0.01,0.01 0.02,0.03 0.03,0.04 0.01,0.02 0.02,0.04 0.03,0.06l0.05 0.14c0.01,0.01 0.01,0.02 0.01,0.03 0,0.01 0,0.01 0,0.01z"/>
  <path class="fil8" d="M10.47 2.98c0,0.45 -0.36,0.81 -0.81,0.81 -0.45,0 -0.81,-0.36 -0.81,-0.81 0,-0.45 0.36,-0.81 0.81,-0.81 0.45,0 0.81,0.36 0.81,0.81z"/>
  <path class="fil9" d="M10.19 2.56c-0.01,-0.04 -0.03,-0.08 -0.06,-0.1 -0.03,-0.02 -0.06,-0.03 -0.09,-0.03 -0.05,0 -0.1,0.02 -0.13,0.06l-0.38 0.55 -0.06 -0.14c-0.02,-0.05 -0.08,-0.09 -0.14,-0.09 -0.02,0 -0.04,0 -0.06,0.01 -0.04,0.02 -0.07,0.05 -0.08,0.09 -0.01,0.04 -0.01,0.08 0,0.12l0.17 0.38c0.02,0.05 0.07,0.09 0.13,0.09 0,0 0.01,0 0.01,0 0.05,0 0.1,-0.02 0.13,-0.06l0.54 -0.77c0.02,-0.03 0.03,-0.07 0.03,-0.11z"/>
 </g>
</svg>
