<?xml version="1.0" encoding="UTF-8"?>
<!DOCTYPE svg PUBLIC "-//W3C//DTD SVG 1.1//EN" "http://www.w3.org/Graphics/SVG/1.1/DTD/svg11.dtd">
<!-- Creator: CorelDRAW 2020 (64-Bit) -->
<svg xmlns="http://www.w3.org/2000/svg" xml:space="preserve" width="0.408504in" height="0.408488in" version="1.1" style="shape-rendering:geometricPrecision; text-rendering:geometricPrecision; image-rendering:optimizeQuality; fill-rule:evenodd; clip-rule:evenodd"
viewBox="0 0 16.24 16.24"
 xmlns:xlink="http://www.w3.org/1999/xlink"
 xmlns:xodm="http://www.corel.com/coreldraw/odm/2003">
 <defs>
  <style type="text/css">
   <![CDATA[
    .fil4 {fill:#575B6E;fill-rule:nonzero}
    .fil2 {fill:#9A59B6;fill-rule:nonzero}
    .fil5 {fill:#C8CDD1;fill-rule:nonzero}
    .fil3 {fill:#EBEFEF;fill-rule:nonzero}
    .fil0 {fill:#F0C30F;fill-rule:nonzero}
    .fil1 {fill:#F29A11;fill-rule:nonzero}
   ]]>
  </style>
 </defs>
 <g id="__x0023_Layer_x0020_1">
  <metadata id="CorelCorpID_0Corel-Layer"/>
  <g id="_1494039483472">
   <g>
    <path class="fil0" d="M16.24 8.12c0,4.49 -3.64,8.12 -8.12,8.12 -4.49,0 -8.12,-3.64 -8.12,-8.12 0,-4.49 3.64,-8.12 8.12,-8.12 4.49,0 8.12,3.64 8.12,8.12z"/>
    <path class="fil1" d="M16.23 8.62l-3.33 -3.33 -0.05 0 -0.2 -0.19c-0.01,-0.02 -0.03,-0.05 -0.05,-0.06 -1.51,-0.9 -3.02,-0.9 -4.53,0 -1.51,-0.9 -3.02,-0.9 -4.53,0 -0.03,0.02 -0.06,0.07 -0.06,0.11 0,0.04 0,0.09 0,0.14l-0.24 0 0 6.48 4.46 4.47c0.14,0.01 0.27,0.01 0.41,0.01 4.32,0 7.85,-3.37 8.11,-7.62z"/>
   </g>
   <polygon class="fil2" points="12.9,11.77 3.25,11.77 3.25,5.29 12.9,5.29 "/>
   <g>
    <path class="fil3" d="M8.07 5.04c-1.51,-0.9 -3.02,-0.9 -4.53,0 -0.03,0.02 -0.06,0.07 -0.06,0.11 0,1.97 0,3.95 0,5.92 0,0.04 0.03,0.05 0.06,0.02 1.51,-0.9 3.02,-0.9 4.53,0 0.03,0.02 0.06,0.01 0.06,-0.02 -0,-1.97 -0,-3.95 0,-5.92 0,-0.04 -0.03,-0.09 -0.06,-0.11z"/>
    <path class="fil4" d="M7.56 5.56c-1.22,-0.49 -2.25,-0.49 -3.47,-0.01 -0.05,0.02 -0.09,0 -0.09,-0.05 0,-0.05 0.04,-0.11 0.09,-0.14 1.22,-0.48 2.25,-0.48 3.47,0.01 0.05,0.02 0.09,0.09 0.09,0.14 0,0.05 -0.04,0.07 -0.09,0.05z"/>
    <path class="fil4" d="M7.56 6.19c-1.22,-0.49 -2.25,-0.49 -3.47,-0.01 -0.05,0.02 -0.09,0 -0.09,-0.05 0,-0.05 0.04,-0.11 0.09,-0.13 1.22,-0.48 2.26,-0.48 3.47,0.01 0.05,0.02 0.09,0.08 0.09,0.14 0,0.05 -0.04,0.07 -0.09,0.05z"/>
    <path class="fil4" d="M7.56 6.82c-1.22,-0.49 -2.25,-0.49 -3.47,-0.01 -0.05,0.02 -0.09,0 -0.09,-0.05 0,-0.05 0.04,-0.11 0.09,-0.14 1.22,-0.48 2.26,-0.48 3.47,0.01 0.05,0.02 0.09,0.08 0.09,0.13 0,0.05 -0.04,0.07 -0.09,0.05z"/>
    <path class="fil4" d="M7.56 7.46c-1.22,-0.49 -2.25,-0.49 -3.47,-0.01 -0.05,0.02 -0.09,0 -0.09,-0.05 0,-0.05 0.04,-0.11 0.09,-0.14 1.22,-0.48 2.26,-0.48 3.47,0.01 0.05,0.02 0.09,0.09 0.09,0.13 0,0.05 -0.04,0.07 -0.09,0.05z"/>
    <path class="fil4" d="M7.56 8.09c-1.22,-0.49 -2.25,-0.49 -3.47,-0.01 -0.05,0.02 -0.09,0 -0.09,-0.05 0,-0.05 0.04,-0.11 0.09,-0.13 1.22,-0.48 2.26,-0.48 3.47,0.01 0.05,0.02 0.09,0.09 0.09,0.14 0,0.05 -0.04,0.07 -0.09,0.05z"/>
    <path class="fil4" d="M7.56 8.72c-1.22,-0.49 -2.25,-0.49 -3.47,-0.01 -0.05,0.02 -0.09,0 -0.09,-0.05 0,-0.05 0.04,-0.11 0.09,-0.14 1.22,-0.48 2.26,-0.48 3.47,0.01 0.05,0.02 0.09,0.08 0.09,0.14 0,0.05 -0.04,0.07 -0.09,0.05z"/>
    <path class="fil4" d="M7.56 9.35c-1.22,-0.49 -2.25,-0.49 -3.47,-0.01 -0.05,0.02 -0.09,0 -0.09,-0.05 0,-0.05 0.04,-0.11 0.09,-0.14 1.22,-0.48 2.26,-0.48 3.47,0.01 0.05,0.02 0.09,0.09 0.09,0.14 0,0.05 -0.04,0.07 -0.09,0.05z"/>
    <path class="fil4" d="M7.56 9.99c-1.22,-0.49 -2.25,-0.49 -3.47,-0.01 -0.05,0.03 -0.09,0 -0.09,-0.05 0,-0.05 0.04,-0.11 0.09,-0.14 1.22,-0.48 2.26,-0.48 3.47,0.01 0.05,0.02 0.09,0.09 0.09,0.14 0,0.05 -0.04,0.07 -0.09,0.05z"/>
   </g>
   <g>
    <path class="fil3" d="M12.6 5.04c-1.51,-0.9 -3.02,-0.9 -4.53,0 -0.03,0.02 -0.06,0.07 -0.06,0.11 0,1.97 0,3.95 0,5.92 0,0.04 0.03,0.05 0.06,0.02 1.51,-0.9 3.02,-0.9 4.53,0 0.03,0.02 0.06,0.01 0.06,-0.02 0,-1.97 0,-3.95 0,-5.92 0,-0.04 -0.03,-0.09 -0.06,-0.11z"/>
    <path class="fil4" d="M12.08 5.56c-1.22,-0.49 -2.25,-0.49 -3.47,-0.01 -0.05,0.02 -0.09,0 -0.09,-0.05 0,-0.05 0.04,-0.11 0.09,-0.14 1.22,-0.48 2.26,-0.48 3.47,0.01 0.05,0.02 0.09,0.09 0.09,0.14 0,0.05 -0.04,0.07 -0.09,0.05z"/>
    <path class="fil4" d="M12.08 6.19c-1.22,-0.49 -2.25,-0.49 -3.47,-0.01 -0.05,0.02 -0.09,0 -0.09,-0.05 0,-0.05 0.04,-0.11 0.09,-0.13 1.22,-0.48 2.26,-0.48 3.47,0.01 0.05,0.02 0.09,0.08 0.09,0.14 0,0.05 -0.04,0.07 -0.09,0.05z"/>
    <path class="fil4" d="M12.08 6.82c-1.22,-0.49 -2.25,-0.49 -3.47,-0.01 -0.05,0.02 -0.09,0 -0.09,-0.05 0,-0.05 0.04,-0.11 0.09,-0.14 1.22,-0.48 2.26,-0.48 3.47,0.01 0.05,0.02 0.09,0.08 0.09,0.13 0,0.05 -0.04,0.07 -0.09,0.05z"/>
    <path class="fil4" d="M12.08 7.46c-1.22,-0.49 -2.25,-0.49 -3.47,-0.01 -0.05,0.02 -0.09,0 -0.09,-0.05 0,-0.05 0.04,-0.11 0.09,-0.14 1.22,-0.48 2.26,-0.48 3.47,0.01 0.05,0.02 0.09,0.09 0.09,0.13 0,0.05 -0.04,0.07 -0.09,0.05z"/>
    <path class="fil4" d="M12.08 8.09c-1.22,-0.49 -2.25,-0.49 -3.47,-0.01 -0.05,0.02 -0.09,0 -0.09,-0.05 0,-0.05 0.04,-0.11 0.09,-0.13 1.22,-0.48 2.26,-0.48 3.47,0.01 0.05,0.02 0.09,0.09 0.09,0.14 0,0.05 -0.04,0.07 -0.09,0.05z"/>
    <path class="fil4" d="M12.08 8.72c-1.22,-0.49 -2.25,-0.49 -3.47,-0.01 -0.05,0.02 -0.09,0 -0.09,-0.05 0,-0.05 0.04,-0.11 0.09,-0.14 1.22,-0.48 2.26,-0.48 3.47,0.01 0.05,0.02 0.09,0.08 0.09,0.14 0,0.05 -0.04,0.07 -0.09,0.05z"/>
    <path class="fil4" d="M12.08 9.35c-1.22,-0.49 -2.25,-0.49 -3.47,-0.01 -0.05,0.02 -0.09,0 -0.09,-0.05 0,-0.05 0.04,-0.11 0.09,-0.14 1.22,-0.48 2.26,-0.48 3.47,0.01 0.05,0.02 0.09,0.09 0.09,0.14 0,0.05 -0.04,0.07 -0.09,0.05z"/>
    <path class="fil4" d="M12.08 9.99c-1.22,-0.49 -2.25,-0.49 -3.47,-0.01 -0.05,0.03 -0.09,0 -0.09,-0.05 0,-0.05 0.04,-0.11 0.09,-0.14 1.22,-0.48 2.26,-0.48 3.47,0.01 0.05,0.02 0.09,0.09 0.09,0.14 0,0.05 -0.04,0.07 -0.09,0.05z"/>
   </g>
   <g>
    <path class="fil5" d="M8.28 11.25c0,0.13 -0.08,0.16 -0.18,0.16 -0.1,0 -0.18,-0.03 -0.18,-0.16 0,-0.13 0.18,-0.24 0.18,-0.24 0,0 0.18,0.11 0.18,0.24z"/>
    <g>
     <path class="fil5" d="M7.82 11.17c0,0 0,0 0,-0l-0 -0c-0.01,-0.01 -0.02,-0.02 -0.03,-0.03 -0,0 -0,0 -0,0 -0.02,-0.02 -0.04,-0.03 -0.06,-0.04 -0.28,-0.23 -0.57,-0.35 -0.87,-0.45 -0.33,-0.11 -0.67,-0.17 -0.99,-0.18 -0.33,-0.01 -0.65,0.03 -0.96,0.12 -0.15,0.04 -0.3,0.1 -0.44,0.17 -0.14,0.07 -0.28,0.15 -0.41,0.24 0,0 0,0 0,0.01 0.13,-0.08 0.27,-0.15 0.41,-0.21 0.14,-0.06 0.29,-0.11 0.44,-0.15 0.3,-0.08 0.63,-0.11 0.96,-0.09 0.01,0 0.02,0 0.03,0 -0.02,0 -0.05,0 -0.07,0 -0.33,0.01 -0.65,0.08 -0.95,0.19 -0.15,0.06 -0.3,0.13 -0.44,0.21 -0.14,0.08 -0.27,0.18 -0.4,0.28 0,0 0,0 0,0 0.13,-0.09 0.26,-0.18 0.4,-0.25 0.14,-0.07 0.29,-0.13 0.44,-0.18 0.3,-0.1 0.62,-0.16 0.95,-0.16 0,0 0.01,0 0.01,0l-0 0c-0.33,0.03 -0.65,0.11 -0.95,0.24 -0.15,0.06 -0.3,0.14 -0.44,0.24 -0.14,0.09 -0.27,0.19 -0.4,0.31 0,0 0,0 0,0.01 0.13,-0.1 0.26,-0.2 0.4,-0.28 0.14,-0.08 0.29,-0.15 0.44,-0.21 0.22,-0.09 0.45,-0.15 0.68,-0.18 -0.23,0.05 -0.46,0.12 -0.68,0.22 -0.15,0.07 -0.3,0.15 -0.43,0.24 -0.14,0.09 -0.27,0.2 -0.4,0.32 0,0 0,0 0,0 0.13,-0.11 0.26,-0.2 0.4,-0.29 0.14,-0.08 0.29,-0.16 0.44,-0.22 0.3,-0.12 0.62,-0.2 0.95,-0.23 0.18,-0.02 0.35,-0.02 0.53,-0.01 -0.18,-0 -0.35,0.01 -0.52,0.04 -0.32,0.05 -0.64,0.15 -0.94,0.31 -0.15,0.07 -0.29,0.17 -0.43,0.27 -0.14,0.1 -0.27,0.21 -0.39,0.34 0,0 0,0 0,0 0.12,-0.11 0.26,-0.22 0.4,-0.31 0.14,-0.09 0.29,-0.17 0.43,-0.24 0.3,-0.14 0.62,-0.23 0.94,-0.28 0.33,-0.04 0.66,-0.04 0.99,0.01 0.31,0.05 0.62,0.17 0.9,0.25 0,0 0.01,0 0.01,0.01 0.04,0.02 0.07,0.02 0.07,-0.01 -0,-0.01 -0.01,-0.02 -0.01,-0.03z"/>
    </g>
    <g>
     <path class="fil5" d="M8.38 11.14l0 0 0 -0c0.01,0 0.02,0 0.03,-0 0,0 0,0 0,0 0.02,-0.01 0.04,-0.02 0.06,-0.02 0.27,-0.08 0.57,-0.18 0.86,-0.22 0.33,-0.04 0.66,-0.04 0.99,0.01 0.32,0.05 0.64,0.15 0.94,0.3 0.15,0.07 0.29,0.16 0.43,0.25 0.14,0.1 0.27,0.2 0.39,0.32 0,-0 0,-0 0,-0 -0.12,-0.13 -0.25,-0.25 -0.39,-0.35 -0.14,-0.11 -0.28,-0.2 -0.43,-0.28 -0.29,-0.16 -0.61,-0.27 -0.93,-0.33 -0.01,-0 -0.02,-0 -0.03,-0 0.02,0 0.05,0.01 0.07,0.01 0.33,0.04 0.65,0.13 0.94,0.26 0.15,0.07 0.29,0.14 0.43,0.23 0.14,0.09 0.27,0.19 0.39,0.3 0,-0 0,-0 0,-0 -0.12,-0.12 -0.25,-0.23 -0.39,-0.33 -0.14,-0.1 -0.28,-0.18 -0.43,-0.26 -0.3,-0.14 -0.61,-0.24 -0.94,-0.29 -0,-0 -0.01,-0 -0.01,-0 0,0 0,0 0,0 0.32,0.03 0.65,0.09 0.95,0.21 0.15,0.06 0.3,0.12 0.43,0.2 0.14,0.08 0.27,0.17 0.4,0.27 0,-0 0,-0 0,-0.01 -0.12,-0.11 -0.26,-0.21 -0.39,-0.3 -0.14,-0.09 -0.28,-0.17 -0.43,-0.23 -0.22,-0.09 -0.45,-0.16 -0.68,-0.2 0.23,0.03 0.46,0.09 0.68,0.16 0.15,0.05 0.3,0.12 0.44,0.19 0.14,0.08 0.27,0.16 0.4,0.26 0,-0 0,-0 0,-0 -0.12,-0.11 -0.26,-0.21 -0.39,-0.29 -0.14,-0.08 -0.29,-0.16 -0.43,-0.22 -0.3,-0.12 -0.62,-0.19 -0.95,-0.22 -0.18,-0.01 -0.36,-0.01 -0.54,0.01 0.18,-0.03 0.35,-0.04 0.53,-0.04 0.33,-0 0.65,0.04 0.95,0.13 0.15,0.05 0.3,0.1 0.44,0.17 0.14,0.07 0.27,0.14 0.4,0.23 0,-0 0,-0 0,-0.01 -0.13,-0.1 -0.26,-0.19 -0.4,-0.26 -0.14,-0.07 -0.29,-0.14 -0.44,-0.19 -0.3,-0.1 -0.63,-0.16 -0.95,-0.16 -0.33,-0 -0.67,0.04 -1,0.14 -0.31,0.09 -0.63,0.22 -0.93,0.45 -0,0 -0.01,0 -0.01,0 -0.04,0.03 -0.07,0.07 -0.07,0.09 0,0.01 0,0.01 0.01,0.02z"/>
    </g>
   </g>
  </g>
 </g>
</svg>
