<?xml version="1.0" encoding="utf-8"?>
<!-- Generator: Adobe Illustrator 16.0.0, SVG Export Plug-In . SVG Version: 6.00 Build 0)  -->
<!DOCTYPE svg PUBLIC "-//W3C//DTD SVG 1.1//EN" "http://www.w3.org/Graphics/SVG/1.1/DTD/svg11.dtd">
<svg version="1.1" id="Слой_1" xmlns="http://www.w3.org/2000/svg" xmlns:xlink="http://www.w3.org/1999/xlink" x="0px" y="0px"
	 width="512px" height="512px" viewBox="0 0 512 512" enable-background="new 0 0 512 512" xml:space="preserve">
<g id="extraterrestrial_1_1_">
	<polygon fill="#9ED36A" points="440,101 357,33 288.063,13 200,13 144,40 97,78 44,155 44,224 70,309.328 165.266,443 256,502 
		275,493 346.734,449 403,379 451,298 466,237.547 466,177 	"/>
	<polygon fill="#424953" points="147.609,180 194.281,202.664 224.891,242.664 234.938,300 172.938,295.328 108.938,245.328 
		95.609,180 	"/>
	<polygon fill="#424953" points="365.344,180 318.672,202.664 288.063,242.664 278.016,300 340.016,295.328 404.016,245.328 
		417.344,180 	"/>
	<g id="extraterrestrial_1">
		<path d="M256.109,0L256.109,0c-0.031,0-0.063,0-0.109,0s-0.078,0-0.109,0l0,0C132.219,0.133,32,82.938,32,211.391
			C32,373.984,216.953,511.547,255.891,512h0.219C295.047,511.547,480,373.984,480,211.391C480,82.938,379.781,0.133,256.109,0z
			 M368.578,406.297c-21.922,23.734-47.156,45.875-71.031,62.375c-24.203,16.719-38.063,21.484-41.547,21.969
			c-3.484-0.484-17.344-5.25-41.547-21.969c-23.875-16.5-49.109-38.641-71.031-62.375c-26.734-28.922-48.063-59.219-63.375-90.016
			c-17.719-35.672-26.719-70.953-26.719-104.891c0-28.281,5.313-54.734,15.797-78.633c9.938-22.664,24.328-42.641,42.781-59.383
			c36.906-33.5,88.047-51.984,144-52.039h0.078h0.109c55.953,0.055,107.109,18.539,144,52.039
			c18.453,16.742,32.844,36.719,42.781,59.383c10.484,23.898,15.797,50.352,15.797,78.633c0,33.938-9,69.219-26.719,104.891
			C416.641,347.078,395.313,377.375,368.578,406.297z"/>
		<path d="M407.281,167.008c-5.875-0.836-11.703-1.242-17.469-1.242c-60.328,0-113.031,44.375-121.766,105.828
			c-1.563,11.016-1.609,21.891-0.313,32.422c5.953,1.813,12.109,3.172,18.453,4.078c5.875,0.828,11.719,1.234,17.484,1.234
			c60.328,0,113.016-44.375,121.75-105.828c1.563-11.008,1.609-21.891,0.313-32.422
			C419.797,169.273,413.625,167.906,407.281,167.008z M404.297,200.5c-3.469,24.422-15.656,46.734-34.313,62.797
			C351.469,279.234,327.922,288,303.672,288c-4.813,0-9.672-0.344-14.469-1.031c-0.344-0.047-0.688-0.094-1.031-0.141
			c0.094-4.094,0.422-8.172,1-12.234c3.469-24.422,15.656-46.719,34.328-62.797c18.5-15.922,42.047-24.695,66.313-24.695
			c4.797,0,9.672,0.344,14.469,1.023c0.344,0.047,0.672,0.102,1.016,0.148C405.219,192.359,404.875,196.438,404.297,200.5z"/>
		<path d="M244.266,304.016c1.297-10.531,1.25-21.406-0.313-32.422c-8.734-61.453-61.438-105.828-121.766-105.828
			c-5.766,0-11.594,0.406-17.469,1.242c-6.344,0.898-12.516,2.266-18.453,4.07c-1.297,10.531-1.25,21.414,0.313,32.422
			c8.734,61.453,61.422,105.828,121.75,105.828c5.766,0,11.609-0.406,17.484-1.234C232.156,307.188,238.313,305.828,244.266,304.016
			z M222.813,286.969c-4.797,0.688-9.672,1.031-14.484,1.031c-24.25,0-47.797-8.766-66.297-24.703
			c-18.672-16.063-30.859-38.375-34.328-62.797c-0.578-4.063-0.906-8.141-1-12.227c0.344-0.047,0.672-0.102,1.016-0.148
			c4.797-0.68,9.672-1.023,14.469-1.023h0.016c24.25,0,47.797,8.773,66.297,24.703c18.672,16.07,30.859,38.367,34.328,62.805
			c0.578,4.047,0.906,8.125,1,12.219C223.484,286.875,223.141,286.922,222.813,286.969z"/>
		<path d="M277.391,384h-42.781c-5.891,0-10.672,4.766-10.672,10.672c0,5.875,4.781,10.656,10.672,10.656h42.781
			c5.891,0,10.672-4.781,10.672-10.656C288.063,388.766,283.281,384,277.391,384z"/>
	</g>
</g>
</svg>
