<?xml version="1.0" encoding="utf-8"?>
<!-- Generator: Adobe Illustrator 16.0.0, SVG Export Plug-In . SVG Version: 6.00 Build 0)  -->
<!DOCTYPE svg PUBLIC "-//W3C//DTD SVG 1.1//EN" "http://www.w3.org/Graphics/SVG/1.1/DTD/svg11.dtd">
<svg version="1.1" id="Слой_1" xmlns="http://www.w3.org/2000/svg" xmlns:xlink="http://www.w3.org/1999/xlink" x="0px" y="0px"
	 width="512px" height="512px" viewBox="0 0 512 512" enable-background="new 0 0 512 512" xml:space="preserve">
<g id="microphone_2_1_">
	<polygon fill="#E6E9ED" points="338.668,34.681 308.014,15.353 237.345,9.354 187.347,21.353 162.02,52.023 162.02,240.017 
		170.676,281.343 208.018,311.342 237.345,311.342 306.014,306.014 333.341,289.343 350.668,249.345 	"/>
	<rect x="232.017" y="344.013" fill="#656D78" width="50.654" height="112.651"/>
	<rect x="140.021" y="460.008" fill="#5D9CEC" width="233.319" height="41.998"/>
	<path fill="#656D78" d="M277.327,158.004c0,10.671-8.655,19.327-19.327,19.327c-10.671,0-19.327-8.656-19.327-19.327
		c0-10.672,8.656-19.328,19.327-19.328C268.672,138.676,277.327,147.332,277.327,158.004z"/>
	<path d="M309.326,351.996c48.654,0,85.34-36.687,85.34-85.341V138.66c0-5.874-4.781-10.655-10.671-10.655h-21.327V74.663
		c0-41.154-33.499-74.653-74.669-74.653h-63.997c-41.171,0-74.669,33.499-74.669,74.653v53.342h-21.328
		c-5.89,0-10.671,4.781-10.671,10.655v127.995c0,48.654,36.686,85.341,85.34,85.341h21.328v95.997h-85.56
		c-5.891,0-10.656,4.78-10.656,10.655v42.686c0,5.875,4.766,10.656,10.656,10.656h235.116c5.89,0,10.655-4.781,10.655-10.656
		v-42.686c0-5.875-4.766-10.655-10.655-10.655h-85.56v-95.997H309.326z M287.999,277.343c-5.891,0-10.672,4.766-10.672,10.656
		v10.656h-10.655v-10.656c0-5.891-4.781-10.656-10.672-10.656c-5.89,0-10.671,4.766-10.671,10.656v10.656h-10.656v-10.656
		c0-5.891-4.781-10.656-10.671-10.656c-5.891,0-10.672,4.766-10.672,10.656v9.594c-20.858-4.25-37.327-20.719-41.592-41.593h168.523
		c-4.249,20.874-20.732,37.343-41.592,41.593v-9.594C298.67,282.108,293.889,277.343,287.999,277.343z M245.329,85.351v21.312
		h-74.653V85.351H245.329z M341.324,85.351v21.312h-74.652V85.351H341.324z M266.672,234.657v-21.313h74.652v21.313H266.672z
		 M170.676,234.657v-21.313h74.653v21.313H170.676z M225.829,170.659c3.219,9.094,10.438,16.281,19.5,19.499v1.844h-74.653v-21.343
		H225.829z M286.171,170.659h55.153v21.343h-74.652v-1.844C275.749,186.94,282.952,179.753,286.171,170.659z M256,149.348
		c5.875,0,10.672,4.781,10.672,10.656c0,5.874-4.797,10.655-10.672,10.655c-5.874,0-10.671-4.781-10.671-10.655
		C245.329,154.129,250.126,149.348,256,149.348z M341.324,149.348h-55.153c-3.219-9.094-10.422-16.28-19.499-19.499v-1.844h74.652
		V149.348z M245.329,128.005v1.844c-9.063,3.219-16.281,10.405-19.5,19.499h-55.153v-21.343H245.329z M213.33,22.415v9.594
		c0,5.89,4.781,10.655,10.672,10.655c5.89,0,10.671-4.766,10.671-10.655V21.353h10.656v10.656c0,5.89,4.781,10.655,10.671,10.655
		c5.891,0,10.672-4.766,10.672-10.655V21.353h10.655v10.656c0,5.89,4.781,10.655,10.672,10.655c5.89,0,10.671-4.766,10.671-10.655
		v-9.594c20.859,4.25,37.343,20.718,41.592,41.592H171.738C176.003,43.133,192.472,26.665,213.33,22.415z M156.879,312.467
		c-11.733-11.75-18.202-28.015-18.202-45.812V149.348h10.656v95.997c0,41.154,33.498,74.652,74.669,74.652h63.997
		c41.17,0,74.669-33.498,74.669-74.652v-95.997h10.656v117.308c0,17.797-6.469,34.062-18.203,45.812
		c-11.734,11.733-27.999,18.187-45.795,18.187h-31.999h-42.654h-31.999C184.878,330.653,168.629,324.2,156.879,312.467z
		 M362.887,490.647h-11.109c0-5.875-4.781-10.656-10.672-10.656c-5.89,0-10.671,4.781-10.671,10.656h-21.327
		c0-5.875-4.781-10.656-10.672-10.656s-10.655,4.781-10.655,10.656h-21.343c0-5.875-4.766-10.656-10.656-10.656
		c-5.89,0-10.671,4.781-10.671,10.656h-21.327c0-5.875-4.781-10.656-10.672-10.656s-10.672,4.781-10.672,10.656h-21.327
		c0-5.875-4.781-10.656-10.671-10.656c-5.891,0-10.656,4.781-10.656,10.656h-10.671v-21.313h85.559h42.654h85.56V490.647z
		 M266.672,447.993h-21.343v-95.997h21.343V447.993z"/>
</g>
</svg>
