<?xml version="1.0" encoding="UTF-8"?>
<!DOCTYPE svg PUBLIC "-//W3C//DTD SVG 1.1//EN" "http://www.w3.org/Graphics/SVG/1.1/DTD/svg11.dtd">
<!-- Creator: CorelDRAW 2020 (64-Bit) -->
<svg xmlns="http://www.w3.org/2000/svg" xml:space="preserve" width="17.0409in" height="18.57in" version="1.1" style="shape-rendering:geometricPrecision; text-rendering:geometricPrecision; image-rendering:optimizeQuality; fill-rule:evenodd; clip-rule:evenodd"
viewBox="0 0 1897.92 2068.23"
 xmlns:xlink="http://www.w3.org/1999/xlink"
 xmlns:xodm="http://www.corel.com/coreldraw/odm/2003">
 <defs>
  <style type="text/css">
   <![CDATA[
    .fil2 {fill:none}
    .fil3 {fill:#FEFEFE}
    .fil1 {fill:#373435}
    .fil0 {fill:#ABA994}
   ]]>
  </style>
 </defs>
 <g id="Layer_x0020_1">
  <metadata id="CorelCorpID_0Corel-Layer"/>
  <path class="fil0" d="M763.53 1667.83c36.85,40.78 64.71,187.79 62.18,246.88 -0.47,10.93 12.76,142.44 25.67,145.11 4.83,23.35 108.36,-15.23 152.21,-0.8 0.26,0.08 57.11,0.34 56.01,-25.51 -2.86,-66.95 2.69,-119.01 -5.73,-187.48 -7.53,-61.25 53.14,-111.04 64.97,-169.08 5.64,-27.69 -38.34,30.14 -51.66,29.86 -80,-1.71 -28.7,18.14 -74.89,72.39 -13.82,16.24 -7.59,-37.73 -31.08,-55.21 -8.45,-6.29 -17.22,-83.3 -63.11,-35.59 -21.2,22.04 -68.68,-29.37 -68.68,49.96 0,120.37 -3.66,11.5 -27.53,-35.27 -8.66,-16.98 4.51,-21.44 -22.43,-37.6 -2.8,-24.25 -28.56,-1.88 -13.23,4.99l-2.7 -2.65z"/>
  <g id="_2313629206256">
   <path class="fil1" d="M846.85 1714.24c-0.93,29.43 -15.93,358.01 4.62,349.5 69.84,-28.89 97.95,-14.36 165.79,-15.28 40.11,-0.54 36.09,-11.11 37.47,-45.69 1.13,-28.39 11.94,-319.6 -7.41,-320.83 -45.35,-2.88 -115.11,4.21 -158.93,17.03 -18.76,5.49 -22.68,7.31 -42.47,10.16 19.76,-3.05 23.64,-4.9 42.34,-10.58 44.06,-13.38 113.23,-21.08 159.06,-18.84 9.96,0.49 12.06,46.76 12.36,50.46 7.03,86.01 3.43,185.6 3.33,272.78 -0.02,21.68 5.92,43.13 -18.11,50.94 -26.82,8.72 -105.52,-8.73 -157.02,2.34 -7.59,1.63 -36.08,11.96 -36.52,11.99 -28.01,2.09 -6.02,-317.72 -4.52,-353.98z"/>
  </g>
  <path class="fil2" d="M846.85 1714.24c-0.42,25.45 -21.27,364.39 5.57,351.47 90.83,-43.72 206.04,17.49 206.04,-38.34 0,-33.47 10.6,-346.53 -11.14,-346.53 -149.39,0 -160.27,25.09 -201.4,28.31"/>
  <g id="_2313629205296">
   <path class="fil1" d="M770.96 1678.97c0.29,2.78 0.74,5.93 1.34,9.37 2.03,4.17 3.87,9.12 5.09,15.04l1.4 14.74c10.03,40.48 26.6,93.86 34.06,121.79 15.5,58.01 31.47,116.99 33.6,177.26 1.47,41.6 31.89,31.6 69.16,30.98 28.3,-0.47 41.35,1.26 69.05,6.67 63.03,12.31 72.59,-17.02 69.45,-76.72 -3.65,-69.28 -25.46,-176.68 24.25,-234.74 18.35,-21.43 32.14,-25.65 42.19,-54.91 0.25,-0.72 0.47,-1.52 0.68,-2.38 -19.79,8.82 -50.19,17.94 -50.84,18.17 -12.98,4.62 -47.94,18.6 -59.1,19.5 -0.82,3.99 -8.43,65.06 -22.9,60.32 -24.94,-8.16 -37.27,-142.26 -126.91,-99.14 -35.66,17.16 -15.75,148.55 -24.84,137.67 -2.63,-3.14 -28.71,-68.25 -29.75,-73.27 -2.69,-13.07 -22.64,-132.96 -47.04,-82.32 -1.6,3.33 6.25,8.73 12.36,21.16 -0.55,-3.37 -0.97,-6.45 -1.24,-9.18zm1.49 10.25c1.44,8.17 3.62,17.95 6.27,28.65l-1.46 -14.47c-1.18,-5.52 -2.89,-10.2 -4.8,-14.18zm351.35 -12.55c1.76,-4.29 4.72,-7.27 10.91,-5.09 6,2.11 3.03,5.76 -4.19,9.88 -9.82,36.45 -17.56,38.52 -44.12,68.82 -50.28,57.36 -29.79,158.27 -26.98,227.55 2.53,62.51 -9.31,94.37 -75.73,80.74 -27.27,-5.6 -40.12,-7.4 -68.04,-7.19 -38.3,0.3 -70.45,9.89 -71.66,-34.29 -1.65,-60.07 -17.17,-118.98 -32.21,-176.9 -7.17,-27.6 -23.02,-79.95 -32.82,-120.27l0.36 3.83 -0.41 -4c-2.8,-11.52 -5.1,-22.05 -6.56,-30.74 -6.29,-12.96 -14.62,-18.51 -12.87,-22.2 15.6,-32.97 29.17,6.05 34.92,23.88 6.56,20.34 9.86,49.49 15.23,65.33 1.12,3.32 23.27,54.31 27.62,63.83 0.01,-0.39 0,-0.93 -0,-2.17 -0.06,-31.62 -2.59,-84.55 6.53,-114.25 9.55,-31.11 51.93,-35.32 76.72,-23.67 37.87,17.79 46.21,78.21 67,98.26 9.83,9.48 18.36,-55.36 18.36,-55.36 31.24,-17.06 82.55,-28.96 117.95,-46z"/>
  </g>
  <path class="fil2" d="M770.96 1678.97c-0.86,25.79 76.89,255.36 74.25,338.15 -1.81,56.75 57.82,18.84 138.95,39.56 106.17,27.12 65.23,-96.95 65.23,-177.24 0,-163.04 61.72,-122.79 78.6,-203.55 37.44,-7.75 -119.33,46.76 -119.44,47.31 -6.73,34.36 -10.87,55.11 -16.51,58.23 -7.82,4.32 -17.26,-20.05 -29.06,-43.03 -7.76,-15.11 -15.96,-35.19 -28.54,-47.03 -17.06,-16.06 -45.21,-22.18 -73.65,-7.79 -11.18,5.65 -23,12.46 -23,107.72 0,51.03 5.93,38.44 -28.75,-35 -1.95,-4.12 -22.07,-139.99 -48.26,-91.54 -3.75,6.94 -1.07,3.43 1.2,6.89 5.07,7.7 17.33,20.57 17.33,52.11"/>
  <path class="fil3" d="M349.16 739.61c8.07,-43.19 57.23,-48.83 78.96,-65.29 22.84,5.39 90.11,-66.82 106.48,-89.42 50.55,-69.77 234.25,-110.61 305.16,-60.62 21.98,15.5 110.55,16.49 138.72,-13.63 20.22,-21.62 113.26,-26.69 149.04,4.93 45.58,40.28 80.72,-22.86 144.01,-22.86 80.15,0 89.54,16.04 164.46,47.79 15.14,6.42 72.37,126.83 72.65,147.6 0.33,25.18 0.71,64.34 29.61,73.14 2.91,7.39 72.98,34.52 43.46,93.91 -6.27,12.62 17.73,25.17 20.47,38.74 3.61,17.85 -25.7,41.82 -8.68,47.11 41.78,13 96.69,16.53 120.92,60.36 16.98,30.71 11.4,88.04 13.62,131.9 1.46,28.88 15.69,46.66 8.73,65.78 -6.7,18.39 -16.89,21.24 -22.25,33 -17.77,38.99 19.15,75.24 17.03,135.04 -0.45,12.61 -10.68,32.24 -12.66,48.18 -3.34,26.79 -5.21,66.24 -125.13,94.51 -4.63,1.09 -9.5,28.62 -26.64,41.21 -11.59,8.51 -30.21,3.32 -37.55,16.36 -6.12,10.89 7.36,19.78 8.27,32.69 1.1,15.64 -9.79,34.58 -12.94,36.6 -35.96,23.05 -23.71,41.75 -93.98,40.36 -41.54,-0.82 -108.59,32.12 -178.33,2.49 -112.73,-47.89 -89.12,0.77 -201.92,31.4 -109.14,29.64 -23.56,26.29 -132.22,-7.9 -41.31,-13 -81.3,47.43 -144.59,-8.8 -45.33,-40.28 -6.24,-22.29 -80.04,-4.51 -129.91,31.31 -73.71,-74.1 -156.42,-37.44 -29.7,13.16 -135.73,48.86 -150.12,6.05 -6.22,-18.51 -53.95,-69.74 -73.83,-72.23 -28.13,-3.53 -106.3,-73.59 -106.68,-101.93 -1.06,-80.46 -66.09,-83.21 -15.32,-210.38 2.36,-5.92 14.1,4.69 11.94,-36.37 -0.43,-8.12 -12.78,-1.29 -15.96,-23.02 -3.13,-21.37 -106.84,-140.69 23.01,-191.22 89.25,-34.73 50.24,-44.55 109.28,-110 53.05,-58.79 58.64,-33.87 21.3,-121.56 -0.77,-1.81 -5.89,-53.08 8.12,-51.97z"/>
  <g id="_2313629205392">
   <path class="fil1" d="M501.65 655.61c32.96,-61.47 36.2,-77.6 99.29,-111.84 48.24,-26.18 140.08,-42.73 194.98,-30.56 27.68,6.14 -0.28,24.65 85.62,17.52 53.16,-4.42 41.1,35.23 99.85,-5.91 24.95,-17.47 30.93,-18.99 63.68,-21.43 76.88,-5.74 73.7,35.05 119.9,34.14 39.1,-0.77 43.94,-79.43 191.04,-30.83 82.29,27.19 120.47,82.16 141.92,163.55 10.23,38.79 5.52,37.57 0.57,72.88 -3.39,24.16 68.18,19.86 80.55,62.09 7.16,24.44 -1.66,47.3 -12.66,68.45 -0.13,0.24 -0.69,1.14 -0.66,1.59 3.8,3.53 47.87,-3.75 31.07,50.09 -2.25,7.2 -7.31,9.13 -9.15,11.61 36.46,14.79 67.34,-2.82 102.41,35.91 30.38,33.55 54.22,102.18 44.72,146.63 -4.98,23.28 -5.15,11.79 0.42,38.86 14.34,69.68 -2.97,46.87 -30.24,96.31 -13.15,23.84 -2.62,20.33 12.53,45.19 46.67,76.55 2.69,158.42 -66.47,200.57 -29.42,17.93 -43.13,-0.23 -52.38,7.29 -8.67,7.05 5.26,56.1 -64.57,69.09 1.63,22.79 12.13,35.21 -7.44,58.82 -48.06,57.99 -133.07,68.77 -201.95,45.61 -21.32,-7.17 -21.42,-10.74 -44.14,-9.34 -34.67,2.13 -61.28,-13.87 -91.1,-30 -4.92,-0.65 -78.12,48.12 -89.31,54.1 -38.49,20.55 -97.43,40.21 -140.24,20.87 -39.78,-17.98 -4.49,-53.72 -80.12,-20.19 -43.69,19.37 -65.6,33.96 -100.39,-10.44 -43.6,-55.65 -18.79,-8.57 -101.49,3.2 -24.87,3.54 -85.68,7.58 -90.96,-27.65l0.02 0.12c-4.58,-11.08 -32.61,-15.19 -46.37,-8.85 -25.96,11.95 -7.79,22.23 -60.15,20.39 -34.77,-1.22 -105.97,-8.46 -110.66,-54.41 -1.9,-18.6 4.35,-19.35 -19.87,-22.39 -29.55,-3.71 -37.9,-45.92 -97.29,-65.34 -21.79,-7.13 -22.43,-4.7 -35.23,-27.69 -29.56,-53.11 -60.09,-182.03 -33.98,-238.72 13.75,-29.86 21.29,-16.75 -8.55,-55.34 -32.41,-41.93 -36.56,-76.95 -28.74,-128.2 13.01,-85.22 71.37,-66.74 136.07,-84.1 13.57,-3.64 22.29,-48.54 29.77,-65.24 12.87,-28.71 23.86,-39.87 47.07,-60.16 8.78,-7.68 -6.37,-60.88 -8.09,-75.28 -5.78,-48.45 5.6,-81.1 53.57,-98.95 16.26,-6.05 101.42,-31.61 102.62,-49.44 -1.16,17.84 -86.27,43.6 -102.52,49.69 -47.75,17.89 -58.99,50.38 -53.12,98.65 1.83,15.08 17.33,67.73 7.99,75.93 -23.04,20.23 -33.94,31.36 -46.68,59.95 -7.72,17.33 -15.86,62 -30.35,65.93 -64.5,17.48 -122.16,-0.96 -134.8,83.28 -19.22,128.15 67.89,135.89 45.28,171.28 -36.64,57.36 -7.44,175.71 19.69,235 22.59,49.37 22.55,29.01 64.58,50.35 36.03,18.3 49.06,52.24 72.86,55.16 26.59,3.25 20.98,5.24 23.1,25.44 4.97,47.45 92.47,52.7 126.09,50.56 25.03,-1.59 17.47,-6 33.72,-16.71 19.98,-13.16 56.1,-4.63 58.19,8.9 5.22,33.65 75.61,25.87 97.96,21.2 65.9,-13.75 49.44,-56.37 94.27,0.38 33.03,41.81 52.55,27.06 94.06,8.44 79.44,-35.64 49.33,3.96 84.83,19.78 40.94,18.24 98.04,-1.55 134.59,-21.34 19.31,-10.45 74.93,-50.37 87.38,-54.6 15.81,-5.37 47.2,31.74 95.41,28.39 24.51,-1.7 24.89,1.92 47.61,9.33 64.92,21.16 139.23,10.07 188.05,-38.99 30.86,-31.01 -1.1,-63.03 14.67,-65.34 69.81,-10.2 49.6,-59.06 65.35,-68.22 15.42,-8.97 24.11,10.17 51.83,-6.47 63.07,-37.87 106.2,-110.19 69.91,-182.57 -16.25,-32.41 -33.84,-29.86 -17.14,-59.83 27.62,-49.58 43.57,-25.45 30.08,-92.36 -5.48,-27.18 -5.51,-16.92 -0.26,-41.03 7.94,-36.47 -8.05,-88.8 -27,-120.38 -25.3,-42.15 -39.56,-43.25 -83.04,-50.12 -58.03,-9.18 -30.97,-10.59 -26.83,-23.65 16.58,-52.37 -26.58,-39.41 -30.56,-47.26 -2.22,-4.38 16.43,-28.41 15.36,-58.25 -1.96,-54.53 -77.95,-43.94 -82.37,-71.69 -2.33,-14.68 12.07,-28.6 -0.27,-76.01 -27.97,-107.4 -89.64,-162.55 -200.71,-176.16 -52.97,-6.49 -66.08,3.76 -102.93,32.71 -34.49,27.09 -56.68,2.3 -89.61,-15.32 -23.11,-12.37 -63,-8.65 -87.58,-2.9 -39.25,9.19 -51.23,48.85 -93.21,29.93 -24.99,-11.26 -26.24,-8.29 -53.48,-6.1 -64.96,5.23 -49.96,-14.29 -71.74,-19.17 -54.74,-12.27 -146.46,4.06 -194.65,30.06 -63.14,34.07 -66.39,50.19 -99.47,111.54zm1029.49 921.7c-0.12,0.02 -0.24,0.04 -0.36,0.06 0.12,-0.02 0.24,-0.04 0.36,-0.06z"/>
  </g>
  <path class="fil2" d="M501.65 655.61c34.82,-62.69 28.16,-70.34 99.38,-111.69 19.11,-11.1 41.72,-16.5 63.98,-22.53 42.42,-11.49 87.34,-16.68 130.83,-7.78 22.15,4.53 4.25,27.23 85.77,17.63 53.57,-6.31 38.36,42.14 113.17,-15.49 13.23,-10.19 85.25,-19.44 107.45,-4.19 121.02,83.11 57.25,-57.36 236.58,-8.8 93.1,25.21 132.95,77.8 157.67,167.86 24.19,88.15 -41.67,68.9 55.73,107.18 36.34,14.29 32.2,62.94 12.55,94.83 -8.83,14.33 47.25,-10.49 30.07,52.13 -4.27,15.59 -38.11,11.72 54.17,25.35 56.84,8.4 100.57,127.2 80.17,179.31 -5.25,13.4 21.98,71.33 -1.15,89.84 -0.58,0.46 -41.13,44.62 -30.15,58.18 15.03,18.57 76.77,93.62 -7.29,186.69 -0.53,0.59 -23.11,24.29 -52.01,39.03 -14.13,7.21 -44.24,-11.75 -46.1,9.83 -2.49,28.94 -21.67,57.14 -62.1,60.12 -3.45,0.25 6.86,25.06 1.76,44.26 -3.49,13.11 -22.76,29.14 -28.94,33.88 -49.63,38.01 -117.26,50.23 -190.98,20.95 -41.04,-16.3 -29.21,17.47 -121.1,-33.57 -13.45,-7.47 -99.14,82.47 -186.39,82.47 -110.57,0 -18.85,-79.99 -147.82,-16.71 -80.67,39.58 -80.1,-79.26 -121.91,-38.4 -27.18,26.56 -143.45,36.92 -145.96,-4.3 -0.32,-5.24 -37.42,-30.57 -66,2.49 -13.95,16.14 -111.38,4.06 -134.01,-15.01 -37.08,-31.24 2.95,-51.78 -39.06,-54.15 -31.23,-1.76 -29.94,-49.05 -111.23,-69.16 -31.55,-7.81 -94.83,-212.36 -46.63,-273.61 21.43,-27.23 -49.46,-44.61 -48.13,-130.73 1.91,-123.8 50.53,-103.75 138.32,-123.73 22.26,-5.07 12.31,-76.41 76.94,-125.64 18.72,-14.26 -51.79,-130.58 34.87,-170.3 19.38,-8.88 113.24,-35.39 113,-53.67"/>
  <path class="fil3" d="M51.8 187.75c73.03,-1.95 20.59,-28.53 71.15,-45.43 54.18,-18.11 21.48,-73.81 80.56,-60.05 8.39,1.95 19.54,14.41 32.11,19.04 18.03,6.66 11.58,56.5 83.85,-0.46 18.48,-14.56 169.48,-11.96 174.9,20.27 9.94,59.08 -37.27,22.35 -30.08,60.01 5.04,26.39 64.68,10.76 101.27,22.31 42.52,13.42 91.22,8.38 36.77,74.02 -65.81,79.33 -159.64,-34.01 -189.42,80.95 -5.08,19.6 -128.05,111.28 -174.46,3.3 -7.42,-17.26 -57.31,-4.57 -76.57,-47.01 -12.82,-28.25 -53.81,-7.73 -86.75,-2.59 -74.44,11.63 -89.71,-122.58 -23.32,-124.36z"/>
  <g id="_2313629208176">
   <path class="fil1" d="M1505.97 689.6c-28.34,-90.17 -92.25,-167.35 -187.62,-188.53 -55.1,-12.23 -91.4,-0.67 -138.43,25.9 -36.5,20.63 -103.09,-51.97 -179.81,-12 -36.42,18.98 -36.53,28.56 -84.82,25.52 -77.7,-4.9 -143.4,-41.28 -225.11,-18.14 -2.57,6.36 -27.62,15.21 -51.04,22.72 -28.01,15.25 -61.03,35.27 -72.61,44.8 -0.01,0.01 -20.28,19.93 -28.83,22.72 -14.58,19.09 -31.08,39.1 -68.46,57.5 -26.86,13.22 -43.49,16.7 -70.94,25.29 -47.24,14.8 -65.95,80.71 -42.04,125.07 12.71,23.59 25.24,33.11 6.76,61.73 -24.06,37.27 -70.55,55.39 -71.09,106.06 -0.69,63.9 -147.15,-39.05 -141.61,142.97 0.71,23.19 -1.23,72.34 26.7,79.93 16.26,4.42 18.9,11.66 21.42,29.23 3.12,21.78 -7.65,61.17 -10.32,85.25 -5.11,46.09 2.61,68.15 7.32,112.75 7.85,74.25 37.11,97.49 104.74,129.26 43.75,20.56 64.77,27.39 96.85,67.07 17.4,21.52 20.07,26.27 50.05,29.46 15.54,1.65 110.54,2.29 120.74,-7.84 5,-4.97 4.56,-7.22 12.51,-7.05 -7.94,-0.14 -7.49,2.1 -12.47,7.09 -10.19,10.21 -105.25,9.91 -120.82,8.32 -30.19,-3.1 -32.99,-7.93 -50.61,-29.53 -32.11,-39.39 -53.09,-46.1 -96.76,-66.4 -68.3,-31.75 -97.95,-55.32 -106.2,-130.19 -6.58,-59.69 -14.27,-69.94 -5.2,-133.92 2.96,-20.9 10.4,-42.83 7.28,-63.9 -2.43,-16.4 -4.4,-22.64 -19.22,-26.58 -25.1,-6.69 -26.25,-36.4 -28.24,-59.48 -6.3,-73.34 -3.18,-137.15 85.09,-145.18 21.49,-1.95 53.68,3.63 53.77,-20.85 0.26,-75.82 107.03,-97.69 71.16,-153.32 -18.93,-29.36 -26.58,-59.67 -13.48,-93.13 14.8,-37.8 30.59,-48.07 65.4,-58.72 131.05,-40.1 111.9,-102.54 191.55,-133.96 6.44,-2.54 63.53,-25.84 82.36,-29.68l0.96 -0.44c-0.11,0.1 -0.2,0.2 -0.29,0.31 1.21,-0.23 2.24,-0.37 3.06,-0.4 53.02,-15.9 99.33,-6.58 166.21,7.84 47.44,10.23 85.8,20.75 129.35,-4.77 37.81,-22.16 59.9,-27.83 103.95,-16.35 25.21,6.57 70.66,31.38 91.81,19.55 47.49,-26.57 84.13,-38.09 139.58,-25.54 95.5,21.6 159.31,99.06 187.39,189.57zm-890.42 -137.08c-11.74,4.91 -22.26,9.55 -29.25,13.04 -6.96,4.42 -14.95,10.06 -22.36,16.07 -5.82,5.45 -10.77,11.13 -15.45,16.97 1.62,-1.4 2.9,-2.53 3.44,-2.99 26.85,-22.83 41.44,-29.16 67.77,-44.39 -1.43,0.45 -2.81,0.88 -4.15,1.31z"/>
  </g>
  <path class="fil2" d="M1505.97 689.6c-10.6,-37.29 -32.19,-84.4 -69.51,-121.44 -64.38,-63.9 -164.61,-102.41 -257,-41.88 -34.38,22.52 -112.3,-62.62 -195.46,-2.84 -78.87,56.7 -213.13,-61.29 -344.38,18.56 -15.87,9.65 -29.11,17.44 -40.05,23.62 -6.97,3.94 -15.07,7.4 -21.66,12.16 -18.36,13.25 -32.99,28.72 -40.1,32.3 -5.17,2.61 7.89,-17.88 28.91,-35 18.77,-15.28 44.6,-27.17 58.1,-28.75 8.89,-1.04 60.53,-22.82 62.33,-24.4 1.71,-1.5 -45.06,16.75 -84.2,31.19 -81.55,30.09 -49.97,96.87 -205.75,138.32 -38.32,10.2 -80.6,81.26 -36.52,142.03 39.64,54.64 -77.24,89.95 -71.25,154.97 5.02,54.43 -143.34,-31.23 -141.22,129.04 2.05,154.88 45.47,49.85 50.08,137.34 0.05,0.98 -19.38,90.77 -11.95,124.98 19.01,87.58 -13.35,132.92 126.17,194.08 147.78,64.78 23.98,106.17 245.7,86.85 13.29,-1.16 9.98,-12.41 22.12,-11.46"/>
  <g id="_2313629207312">
   <path class="fil1" d="M1327.36 1676.65c31.19,0.23 55.52,3.24 85.94,-4.97 34.63,-9.35 70.61,-2.76 96.61,-27.35l9.02 -9.45c-18.07,21.26 -21.77,24.34 -48.95,31.87 -61.31,16.98 -77.51,14.16 -142.62,9.9z"/>
  </g>
  <path class="fil2" d="M1327.36 1676.65c27.23,0 60.24,5.71 86.9,-1.62 20.86,-5.73 65.19,-7.69 86.42,-21.82 7.1,-4.73 12.16,-12.16 18.24,-18.32"/>
  <g id="_2313629208032">
   <path class="fil1" d="M148.36 1164.33c3.97,59.24 55.22,18.8 40.06,129.34 -3.91,28.53 -19.62,80.46 -18.67,101.93 2.3,52.21 46.71,140.03 103.16,149.82 29.35,5.09 43.08,24.88 53.98,50.38 7.26,16.99 34.52,-11.81 41.58,19.26 11.43,50.36 96.62,77.72 136.14,50.8 50.1,-34.12 79.45,15.88 136.98,19.94l20.4 0.13 -20.4 0.13c-56.97,-3.29 -87.51,-52.27 -135.5,-18.46 -26.65,18.77 -63.7,12.98 -92.42,0.67 -67.56,-28.96 -37.16,-65.15 -64.05,-62.07 -27.8,3.18 -23.18,1.53 -33.42,-17.99 -15.52,-29.59 -32.06,-27.4 -55.94,-36.2 -50.56,-18.63 -92.85,-105.1 -94.16,-156.32 -0.57,-22.28 15.98,-73.24 20.41,-102.33 16.68,-109.46 -34.91,-69.63 -38.15,-129.04zm513.64 521.6l0 0 0.02 0z"/>
  </g>
  <path class="fil2" d="M148.36 1164.33c-1.25,65.47 78.2,0.21 21.79,208.22 -14.86,54.8 44.87,171.17 102.27,177.72 20.07,2.29 42.96,21.56 50.55,44.87 7.63,23.44 39.02,-7.51 42.8,20.26 6.85,50.26 105.66,80.26 139.58,51.34 41.79,-35.64 88.8,19.2 136.24,19.2 6.81,0 13.61,0 20.42,0"/>
  <g id="_2313629208992">
   <path class="fil1" d="M758.89 1664.12c7.38,13.55 13.78,28.73 19.76,44.74 -1.42,-6.87 -2.28,-12.97 -3.18,-19.58 1.63,9.72 3.71,18.89 6.15,27.68 4.02,11.18 7.89,22.68 11.77,34.25 10.44,25.84 23.38,50.28 36.01,79.06 27.35,62.32 22.18,73.72 18.04,96.56 0.19,2.06 0.38,4.14 0.58,6.23 1.34,14 10.78,80.98 0.87,84.14 -9.63,3.07 -8.95,-18.03 -9.15,-20.54 -2.85,-36.14 -2.47,-40.88 2.19,-67.47 -1.92,-31.35 -3.04,-59.76 -16.99,-88.09 -13.73,-27.87 -23.84,-60.53 -33.97,-92.49 -3.13,-7.87 -5.86,-15.4 -7.94,-22.45 -1.15,-3.9 -2.11,-7.45 -2.91,-10.76 -6.35,-18.43 -13.16,-35.92 -21.23,-51.29zm39.9 103.09c8.62,25.31 17.72,50.36 29.17,72.39 10.74,20.66 14.67,41.25 17.14,63.09 -0.64,-39.75 -26.97,-91.19 -46.31,-135.47zm-23.32 -77.93c-0.54,-3.96 -1.1,-8.1 -1.81,-12.71 0.12,1.1 0.26,2.29 0.43,3.59 0.41,3.1 0.87,6.13 1.38,9.12zm-1.81 -12.71c-0.28,-1.83 -0.58,-3.73 -0.92,-5.72 -0.67,-4 -1.34,-5.92 -2.81,-7.2 3.17,2.26 2.9,5.15 3.73,12.92zm-3.73 -12.92c-1.11,-0.97 -2.69,-1.57 -5.07,-2.43 2.3,0.87 3.91,1.61 5.07,2.43zm-5.07 -2.43c-0.68,-0.25 -1.43,-0.52 -2.26,-0.82 0.82,0.29 1.57,0.56 2.26,0.82zm78.39 348.51c-0.14,0.27 -0.24,0.56 -0.29,0.86 0.11,-0.21 0.2,-0.5 0.29,-0.86z"/>
  </g>
  <path class="fil2" d="M758.89 1664.12c13.53,17.2 47.13,142.54 72.39,185.15 16.55,27.91 22.7,246.48 10.98,128.56 -6.13,-61.65 19.89,-57.71 -4.93,-123.47 -24.51,-64.93 -55.79,-108.43 -63.43,-174.17 -1.87,-16.07 -0.47,-16.03 -11.3,-19.78"/>
  <g id="_2313629207456">
   <path class="fil1" d="M9.26 244.32c-0.5,-23.94 -4.01,-53.08 25.39,-55.42 22.08,-1.76 48.3,-0 63.3,-20.37 5.65,-7.67 -5.7,-21.95 36.2,-32.26 38.92,-9.57 6.3,-61.38 62.2,-58.75 53.77,2.53 34.59,59.67 93.64,40.79 47.57,-15.21 69.67,-39.98 127.7,-31.02 31.79,4.91 83.9,17.88 80.13,59.76 -1.59,17.67 -79.62,47.27 69.45,52.75 28.18,1.04 62.68,3.45 58.57,41.95 -5.2,48.58 -50.21,77.93 -98.71,67.37 -31.17,-6.79 -44.27,-22.35 -76.47,7.28 -29,26.69 -13.67,35.64 -64.23,66.45 -40.24,24.52 -104.39,46.09 -131.47,-7.71 -17.65,-35.07 6.93,-12.14 -43.6,-19.26 -33.78,-4.76 -48.73,-32.89 -60.49,-61.04 -59.16,25.51 -143.47,41.61 -147.21,-47.79 -0.19,-4.49 1.44,-5.6 4.75,-8.38 -3.28,2.79 -4.9,3.91 -4.68,8.38 3.1,63.59 44.74,75.11 101.15,61.91 7.41,-1.73 47.05,-15.43 47.14,-15.23 16.72,35.46 29.32,61.03 73.65,60.7 33.71,-0.25 17.69,-7.81 31.73,19.49 23.83,46.32 76.24,32.91 113.9,12.83 64.29,-34.26 49.77,-57.95 86.01,-82.65 30.65,-20.89 42.59,-7.1 71.13,-1.35 43.63,8.79 84.95,-17.7 87.93,-61.66 2.05,-30.26 -28.31,-31.31 -49.5,-32.69 -159.18,-10.34 -76.55,-48.88 -74.98,-61.7 4.63,-37.87 -47.28,-50.3 -75.05,-54.91 -56.29,-9.35 -79.21,15.17 -125.8,29.55 -61.32,18.92 -42.94,-38.74 -94.79,-41.62 -54.1,-3.01 -21.65,48.39 -61.78,57.93 -41.35,9.83 -29.89,23.69 -35.72,31.48 -15.34,20.5 -41.66,18.64 -64.07,20.26 -29.13,2.11 -25.76,31.23 -25.43,54.94z"/>
  </g>
  <path class="fil2" d="M9.26 244.32c-4.67,-93.74 42.95,-28.48 88.48,-74.77 3.69,-3.76 0.72,-8.94 4.51,-14.31 20.64,-29.2 46.66,-5.43 54.62,-42.36 4.09,-19.01 4.7,-28.24 25.88,-33.04 16.53,-3.75 40.17,-0.62 60.04,29.27 31.88,47.96 93.03,-35.35 174.49,-19.56 28.61,5.55 79.95,14.46 77.59,57.33 -0.8,14.6 -88.05,51.67 87.95,57.9 35.86,1.27 46.58,27.38 32.24,59.06 -14.11,31.17 -49.94,58.81 -108,35.74 -35,-13.91 -66.49,16.69 -81,46 -12.84,25.94 -147.31,117.45 -176.53,11.31 -3.14,-11.42 -65.45,26.77 -98.21,-62.9 -0.75,-0.15 -144.87,68.47 -147.63,-46.93 -0.1,-4.25 1.09,-5.5 4.72,-8.38"/>
  <g id="_2313629210672">
   <path class="fil1" d="M167.47 86.97c-8.4,19.93 -10.33,22.18 -14.52,41.66 -2.42,11.23 -23.15,5.7 -41.04,20.19 -7.47,6.05 -12.74,29.4 -13.97,29.86 -38.23,14.42 -93.43,-7.81 -91.52,66.85 2.14,83.54 78.73,65.83 135.53,58.86 25.56,-3.13 19.52,31.54 64.28,46.99 39.5,13.63 36.51,-12.07 44.97,17.29 2.46,8.51 7.85,13.36 14.36,17.5 -0.87,-0.44 -1.79,-0.9 -2.77,-1.37 -16.76,-8.1 -12.97,-26.81 -16.67,-26.84 -55.81,-0.51 -59.91,-11.1 -96.97,-49.58 -1.67,-0.3 -5.06,0.22 -6.57,0.45 -61.6,9.4 -144,31.27 -142.55,-63.28 1.1,-71.84 46.1,-58.64 96.51,-69.08 2.25,-8.12 7.52,-23.81 14.26,-29.01 18,-13.9 39.03,-8.82 41.35,-18.95 4.37,-19.09 6.79,-22.24 15.33,-41.53zm98.09 299.2c3.98,2.53 8.38,4.8 12.78,7.48 10.81,6.59 11.74,6.62 20.94,9.45 -19.83,-6.52 -18.07,-9.01 -33.71,-16.93zm33.71 16.93c1.63,0.5 3.52,1.09 5.77,1.82 -2.11,-0.64 -4.02,-1.25 -5.77,-1.82z"/>
  </g>
  <path class="fil2" d="M167.47 86.97c-33.14,69.78 9.58,29.4 -54.79,60.31 -7.05,3.38 -14.98,26.97 -15.17,30.24 -34,12.21 -103.41,-12.4 -93.3,84.87 8.91,85.67 138.6,38.6 146.12,44.22 17.03,12.73 30.18,54.01 95.73,50.58 4.55,-0.24 1.89,22.26 16.86,27.2 6.75,2.23 19.94,16.23 42.12,20.54"/>
  <path class="fil3" d="M1274.86 173.14c-42.86,-34.58 -76.84,-74.33 -5.36,-109.88 45.76,-22.76 105.28,35.54 140.33,-18.3 26.94,-41.37 169.09,-60.48 212.41,-14.23 47.19,50.37 99.03,-5.85 136.56,-8.46 50.76,-3.53 138.08,57.77 69.3,138.84 -27.32,32.2 107.74,68.86 59.18,148.22 -39.59,64.69 -165.4,-27.53 -214.84,-24.09 -59.31,4.13 -42.25,0.65 -93.31,20.08 -54.38,20.7 -44.31,-117.45 -152.79,-102.07 -31.04,4.4 -31.29,27.68 -93.21,0.14 -18.35,-8.17 -43.8,-18.56 -58.29,-30.25z"/>
  <g id="_2313629212304">
   <path class="fil1" d="M1271.38 188.14c-30.4,-23.59 -62.88,-57.65 -34.73,-99.78 34.29,-51.34 109.82,-4.75 160.53,-29.8 33,-16.3 46.65,-38.91 89.34,-49.58 28.05,-7.01 89.33,-16.44 111.74,1.71 25.86,20.95 22.74,29.36 61.12,38.55 42.28,10.12 88.02,-42.91 152.77,-10.92 49.23,24.33 54.45,86.12 24.26,132.74 -17.94,27.7 65.93,17.5 54.78,116.58 -8.08,71.74 -71.97,45.89 -115.76,31.31 -25.19,-8.38 -30.67,-10.68 -52.33,-24.04 -20.64,-12.72 -47.68,-8.96 -71.66,-7.09 -40.66,3.17 -38.61,12.1 -67.48,16.91 -32.83,5.48 -76.08,-29.96 -82.16,-60.56 -5.31,-26.78 -9.22,-30.45 -41.47,-32.75 -33.62,-2.4 -65.09,2.45 -98.48,4.83 -12.74,0.91 -29.91,-3.66 -46.82,-9.66 42.52,13.19 40.84,8.52 88.15,4.93 132.53,-10.07 79.6,19.76 111.98,56.26 21.68,24.44 46.63,42.57 81.38,31.11 29.95,-9.88 19.12,-11.06 54.85,-14.15 25.34,-2.19 52.38,-5.98 73.91,6.98 21.5,12.95 26.77,15.08 51.73,23.09 31.42,10.09 94.01,36.74 106.3,-15.36 9.23,-39.14 -1.68,-73.38 -32.96,-95.38 -29.17,-20.52 -32.64,-17 -16.1,-47.52 22.56,-41.64 16.23,-91.24 -25.24,-112.56 -61.86,-31.81 -106.66,20.62 -151.01,9.5 -39.09,-9.8 -36,-18.27 -62.15,-39.9 -21.16,-17.5 -82.27,-8.47 -109.04,-1.99 -41.73,10.09 -56.25,32.82 -88.85,48.63 -51.73,25.09 -126.47,-22.08 -160.71,28.51 -28.22,41.7 4.13,75.82 34.12,99.41zm43.65 18.45c-14.94,-5.3 -29.68,-11.73 -41.02,-16.51 11.47,4.91 25.04,11.46 35.61,14.81 1.88,0.6 3.68,1.16 5.41,1.7zm-41.02 -16.51c-1.52,-0.64 -2.98,-1.25 -4.37,-1.82 1.41,0.57 2.87,1.18 4.37,1.82z"/>
  </g>
  <path class="fil2" d="M1271.38 188.14c-29.98,-21.72 -62.05,-56.96 -34.43,-99.59 11.74,-18.12 36.68,-26.81 62.9,-25.52 23.29,1.14 54.01,7.86 81.23,2.53 11.6,-2.27 21.8,-9 31.76,-15.56 25.38,-16.71 48.43,-34.96 73.83,-39.72 149.61,-28.02 87.43,19.28 172.03,41.08 40.76,10.5 67.31,-30.36 130.22,-17.59 63.91,12.97 78.99,82.86 43.7,134.86 -21.43,31.58 56.28,19.51 56.28,104.09 0,85.83 -60.76,60.99 -124.59,40.26 -62.31,-20.24 -21.91,-35.83 -131.8,-24.96 -31.56,3.12 -58.84,44.65 -118.06,-19.56 -31.38,-34.03 22.44,-65.8 -111.27,-56.5 -63.27,4.4 -32.6,9.21 -93.61,-6.93 -6.21,-1.64 -26.45,-11.7 -39.93,-16.77"/>
  <g id="_2313629211152">
   <path class="fil1" d="M1605.21 20.96c-60.89,-26.22 -96.97,-30.82 -157.23,11.3 -57.7,40.34 -77.25,49.98 -142.45,30.95 -56.44,-16.47 -129.51,87.04 5.34,138.68 56.46,21.62 85.48,7.96 140.7,6.5 30.7,-0.81 61.9,7.63 71.61,39.01 11.37,36.73 16.8,60.42 63.49,55.88 16.28,-1.58 24.75,-6.3 39.72,-8.12 11.31,-1.37 22.59,-2.69 33.9,-3.87 -11.31,1.3 -22.58,2.75 -33.88,4.24 -19.97,2.63 -30.04,9.98 -53.02,9.18 -66.46,-2.32 -26.49,-71.29 -89.05,-89.86 -39.57,-11.75 -98.52,13.76 -159.27,-1.81 -163.99,-42.03 -87.1,-175.67 -17.8,-153.97 63.92,20.01 82.31,10.57 139.63,-28.44 61.15,-41.61 97.35,-36.75 158.31,-9.67z"/>
  </g>
  <path class="fil2" d="M1605.21 20.96c-162.3,-76.23 -158.81,90.79 -298.81,40.18 -52.55,-19 -142.97,88.33 3.17,143.73 89.03,33.75 155.93,-23.21 204.57,26.69 19.42,19.92 1.36,97.84 106.5,64.52 0.2,-0.06 35.84,-4.53 39.63,-4.79"/>
 </g>
</svg>
