<?xml version="1.0" encoding="UTF-8"?>
<!DOCTYPE svg PUBLIC "-//W3C//DTD SVG 1.1//EN" "http://www.w3.org/Graphics/SVG/1.1/DTD/svg11.dtd">
<!-- Creator: CorelDRAW 2020 (64-Bit) -->
<svg xmlns="http://www.w3.org/2000/svg" xml:space="preserve" width="0.408516in" height="0.408528in" version="1.1" style="shape-rendering:geometricPrecision; text-rendering:geometricPrecision; image-rendering:optimizeQuality; fill-rule:evenodd; clip-rule:evenodd"
viewBox="0 0 1802.4 1802.45"
 xmlns:xlink="http://www.w3.org/1999/xlink"
 xmlns:xodm="http://www.corel.com/coreldraw/odm/2003">
 <defs>
  <style type="text/css">
   <![CDATA[
    .fil1 {fill:#2880B8;fill-rule:nonzero}
    .fil0 {fill:#3397DB;fill-rule:nonzero}
    .fil2 {fill:#BCC3C6;fill-rule:nonzero}
    .fil3 {fill:#EBEDEF;fill-rule:nonzero}
   ]]>
  </style>
 </defs>
 <g id="__x0023_Layer_x0020_1">
  <metadata id="CorelCorpID_0Corel-Layer"/>
  <g id="_2314211160800">
   <g>
    <path class="fil0" d="M1802.4 901.23c0,497.64 -403.58,901.23 -901.12,901.23 -497.89,0 -901.28,-403.58 -901.28,-901.23 0,-497.78 403.39,-901.23 901.28,-901.23 497.54,0 901.12,403.44 901.12,901.23z"/>
    <path class="fil1" d="M1793.42 1028.32l-352.7 -352.83c-3.84,-11.72 -16.76,-20.34 -32.2,-20.34l-1014.81 0c-18.31,0 -33.14,12.32 -33.14,27.76l0 436.73c0,11.01 7.59,20.48 18.78,24.91l648.82 649.04c396.04,-55.88 709.49,-369.47 765.27,-765.27z"/>
   </g>
   <g>
    <path class="fil2" d="M1408.51 655.16l-1014.81 0c-18.31,0 -33.14,12.32 -33.14,27.76l0 436.73c0,15.22 14.83,27.9 33.14,27.9l1014.81 0c18.43,0 33.4,-12.68 33.4,-27.9l0 -436.73c0,-15.44 -14.97,-27.76 -33.4,-27.76z"/>
   </g>
   <g>
    <g>
     <g>
      <g>
       <path class="fil3" d="M491.25 755.92c0,9.94 -8.03,17.96 -17.89,17.96l-45.84 0c-9.88,0 -18.01,-8.03 -18.01,-17.96l0 -45.84c0,-9.69 8.13,-17.7 18.01,-17.7l45.84 0c9.87,0 17.89,8.01 17.89,17.7l0 45.84z"/>
      </g>
      <g>
       <path class="fil3" d="M603.98 755.92c0,9.94 -8.01,17.96 -17.94,17.96l-45.72 0c-9.94,0 -17.96,-8.03 -17.96,-17.96l0 -45.84c0,-9.69 8.03,-17.7 17.96,-17.7l45.72 0c9.94,0 17.94,8.01 17.94,17.7l0 45.84z"/>
      </g>
      <g>
       <path class="fil3" d="M716.61 755.92c0,9.94 -8.03,17.96 -17.94,17.96l-45.86 0c-9.92,0 -17.89,-8.03 -17.89,-17.96l0 -45.84c0,-9.69 7.97,-17.7 17.89,-17.7l45.86 0c9.92,0 17.94,8.01 17.94,17.7l0 45.84z"/>
      </g>
      <g>
       <path class="fil3" d="M829.36 755.92c0,9.94 -8.03,17.96 -17.96,17.96l-45.72 0c-9.94,0 -17.94,-8.03 -17.94,-17.96l0 -45.84c0,-9.69 8.01,-17.7 17.94,-17.7l45.72 0c9.94,0 17.96,8.01 17.96,17.7l0 45.84z"/>
      </g>
      <g>
       <path class="fil3" d="M941.98 755.92c0,9.94 -8.03,17.96 -17.94,17.96l-45.84 0c-9.81,0 -17.84,-8.03 -17.84,-17.96l0 -45.84c0,-9.69 8.03,-17.7 17.84,-17.7l45.84 0c9.92,0 17.94,8.01 17.94,17.7l0 45.84z"/>
      </g>
      <g>
       <path class="fil3" d="M1054.73 755.92c0,9.94 -8.08,17.96 -17.84,17.96l-45.84 0c-9.94,0 -18.01,-8.03 -18.01,-17.96l0 -45.84c0,-9.69 8.08,-17.7 18.01,-17.7l45.84 0c9.76,0 17.84,8.01 17.84,17.7l0 45.84z"/>
      </g>
      <g>
       <path class="fil3" d="M1167.34 755.92c0,9.94 -8.01,17.96 -17.94,17.96l-45.84 0c-9.94,0 -17.96,-8.03 -17.96,-17.96l0 -45.84c0,-9.69 8.03,-17.7 17.96,-17.7l45.84 0c9.94,0 17.94,8.01 17.94,17.7l0 45.84z"/>
      </g>
      <g>
       <path class="fil3" d="M1280.14 755.92c0,9.94 -8.13,17.96 -18.01,17.96l-45.77 0c-9.94,0 -17.89,-8.03 -17.89,-17.96l0 -45.84c0,-9.69 7.96,-17.7 17.89,-17.7l45.77 0c9.88,0 18.01,8.01 18.01,17.7l0 45.84z"/>
      </g>
      <g>
       <path class="fil3" d="M1392.7 755.92c0,9.94 -8.01,17.96 -17.94,17.96l-45.84 0c-9.81,0 -17.84,-8.03 -17.84,-17.96l0 -45.84c0,-9.69 8.03,-17.7 17.84,-17.7l45.84 0c9.94,0 17.94,8.01 17.94,17.7l0 45.84z"/>
      </g>
      <g>
       <path class="fil3" d="M491.25 865.91c0,9.94 -8.03,18.08 -17.89,18.08l-45.84 0c-9.88,0 -18.01,-8.15 -18.01,-18.08l0 -45.72c0,-9.94 8.13,-17.94 18.01,-17.94l45.84 0c9.87,0 17.89,8.01 17.89,17.94l0 45.72z"/>
      </g>
      <g>
       <path class="fil3" d="M603.98 865.91c0,9.94 -8.01,18.08 -17.94,18.08l-45.72 0c-9.94,0 -17.96,-8.15 -17.96,-18.08l0 -45.72c0,-9.94 8.03,-17.94 17.96,-17.94l45.72 0c9.94,0 17.94,8.01 17.94,17.94l0 45.72z"/>
      </g>
      <g>
       <path class="fil3" d="M716.61 865.91c0,9.94 -8.03,18.08 -17.94,18.08l-45.86 0c-9.92,0 -17.89,-8.15 -17.89,-18.08l0 -45.72c0,-9.94 7.97,-17.94 17.89,-17.94l45.86 0c9.92,0 17.94,8.01 17.94,17.94l0 45.72z"/>
      </g>
      <g>
       <path class="fil3" d="M829.36 865.91c0,9.94 -8.03,18.08 -17.96,18.08l-45.72 0c-9.94,0 -17.94,-8.15 -17.94,-18.08l0 -45.72c0,-9.94 8.01,-17.94 17.94,-17.94l45.72 0c9.94,0 17.96,8.01 17.96,17.94l0 45.72z"/>
      </g>
      <g>
       <path class="fil3" d="M941.98 865.91c0,9.94 -8.03,18.08 -17.94,18.08l-45.84 0c-9.81,0 -17.84,-8.15 -17.84,-18.08l0 -45.72c0,-9.94 8.03,-17.94 17.84,-17.94l45.84 0c9.92,0 17.94,8.01 17.94,17.94l0 45.72z"/>
      </g>
      <g>
       <path class="fil3" d="M1054.73 865.91c0,9.94 -8.08,18.08 -17.84,18.08l-45.84 0c-9.94,0 -18.01,-8.15 -18.01,-18.08l0 -45.72c0,-9.94 8.08,-17.94 18.01,-17.94l45.84 0c9.76,0 17.84,8.01 17.84,17.94l0 45.72z"/>
      </g>
      <g>
       <path class="fil3" d="M1167.34 865.91c0,9.94 -8.01,18.08 -17.94,18.08l-45.84 0c-9.94,0 -17.96,-8.15 -17.96,-18.08l0 -45.72c0,-9.94 8.03,-17.94 17.96,-17.94l45.84 0c9.94,0 17.94,8.01 17.94,17.94l0 45.72z"/>
      </g>
      <g>
       <path class="fil3" d="M1280.14 865.91c0,9.94 -8.13,18.08 -18.01,18.08l-45.77 0c-9.94,0 -17.89,-8.15 -17.89,-18.08l0 -45.72c0,-9.94 7.96,-17.94 17.89,-17.94l45.77 0c9.88,0 18.01,8.01 18.01,17.94l0 45.72z"/>
      </g>
      <g>
       <path class="fil3" d="M1392.7 865.91c0,9.94 -8.01,18.08 -17.94,18.08l-45.84 0c-9.81,0 -17.84,-8.15 -17.84,-18.08l0 -45.72c0,-9.94 8.03,-17.94 17.84,-17.94l45.84 0c9.94,0 17.94,8.01 17.94,17.94l0 45.72z"/>
      </g>
      <g>
       <path class="fil3" d="M716.61 981.29c0,9.94 -8.03,17.96 -17.94,17.96l-45.86 0c-9.92,0 -17.89,-8.03 -17.89,-17.96l0 -45.6c0,-9.94 7.97,-17.94 17.89,-17.94l45.86 0c9.92,0 17.94,8.01 17.94,17.94l0 45.6z"/>
      </g>
      <g>
       <path class="fil3" d="M829.36 981.29c0,9.94 -8.03,17.96 -17.96,17.96l-45.72 0c-9.94,0 -17.94,-8.03 -17.94,-17.96l0 -45.6c0,-9.94 8.01,-17.94 17.94,-17.94l45.72 0c9.94,0 17.96,8.01 17.96,17.94l0 45.6z"/>
      </g>
      <g>
       <path class="fil3" d="M941.98 981.29c0,9.94 -8.03,17.96 -17.94,17.96l-45.84 0c-9.81,0 -17.84,-8.03 -17.84,-17.96l0 -45.6c0,-9.94 8.03,-17.94 17.84,-17.94l45.84 0c9.92,0 17.94,8.01 17.94,17.94l0 45.6z"/>
      </g>
      <g>
       <path class="fil3" d="M1054.73 981.29c0,9.94 -8.08,17.96 -17.84,17.96l-45.84 0c-9.94,0 -18.01,-8.03 -18.01,-17.96l0 -45.6c0,-9.94 8.08,-17.94 18.01,-17.94l45.84 0c9.76,0 17.84,8.01 17.84,17.94l0 45.6z"/>
      </g>
      <g>
       <path class="fil3" d="M1167.34 981.29c0,9.94 -8.01,17.96 -17.94,17.96l-45.84 0c-9.94,0 -17.96,-8.03 -17.96,-17.96l0 -45.6c0,-9.94 8.03,-17.94 17.96,-17.94l45.84 0c9.94,0 17.94,8.01 17.94,17.94l0 45.6z"/>
      </g>
      <g>
       <path class="fil3" d="M491.25 1092.13c0,9.94 -8.03,18.07 -17.89,18.07l-45.84 0c-9.88,0 -18.01,-8.13 -18.01,-18.07l0 -45.72c0,-9.81 8.13,-18.08 18.01,-18.08l45.84 0c9.87,0 17.89,8.27 17.89,18.08l0 45.72z"/>
      </g>
      <g>
       <path class="fil3" d="M603.98 1092.13c0,9.94 -8.01,18.07 -17.94,18.07l-45.72 0c-9.94,0 -17.96,-8.13 -17.96,-18.07l0 -45.72c0,-9.81 8.03,-18.08 17.96,-18.08l45.72 0c9.94,0 17.94,8.27 17.94,18.08l0 45.72z"/>
      </g>
      <g>
       <path class="fil3" d="M1149.4 1028.32l-496.58 0c-9.92,0 -17.89,8.27 -17.89,18.08l0 45.72c0,9.94 7.97,18.07 17.89,18.07l496.58 0c9.94,0 17.94,-8.13 17.94,-18.07l0 -45.72c0,-9.81 -8.01,-18.08 -17.94,-18.08z"/>
      </g>
      <g>
       <path class="fil3" d="M1280.14 1092.13c0,9.94 -8.13,18.07 -18.01,18.07l-45.77 0c-9.94,0 -17.89,-8.13 -17.89,-18.07l0 -45.72c0,-9.81 7.96,-18.08 17.89,-18.08l45.77 0c9.88,0 18.01,8.27 18.01,18.08l0 45.72z"/>
      </g>
      <g>
       <path class="fil3" d="M1374.76 917.74l-158.4 0c-9.94,0 -17.89,8.01 -17.89,17.94l0 45.6c0,9.94 7.96,17.96 17.89,17.96l158.4 0c9.94,0 17.94,-8.03 17.94,-17.96l0 -45.6c0,-9.94 -8.01,-17.94 -17.94,-17.94z"/>
      </g>
      <g>
       <path class="fil3" d="M586.04 917.74l-158.52 0c-9.88,0 -18.01,8.01 -18.01,17.94l0 45.6c0,9.94 8.13,17.96 18.01,17.96l158.52 0c9.94,0 17.94,-8.03 17.94,-17.96l0 -45.6c0,-9.94 -8.01,-17.94 -17.94,-17.94z"/>
      </g>
      <g>
       <path class="fil3" d="M1392.7 1092.13c0,9.94 -8.01,18.07 -17.94,18.07l-45.84 0c-9.81,0 -17.84,-8.13 -17.84,-18.07l0 -45.72c0,-9.81 8.03,-18.08 17.84,-18.08l45.84 0c9.94,0 17.94,8.27 17.94,18.08l0 45.72z"/>
      </g>
     </g>
    </g>
   </g>
  </g>
 </g>
</svg>
