<?xml version="1.0" encoding="UTF-8"?>
<!DOCTYPE svg PUBLIC "-//W3C//DTD SVG 1.1//EN" "http://www.w3.org/Graphics/SVG/1.1/DTD/svg11.dtd">
<!-- Creator: CorelDRAW 2020 (64-Bit) -->
<svg xmlns="http://www.w3.org/2000/svg" xml:space="preserve" width="0.408476in" height="0.408516in" version="1.1" style="shape-rendering:geometricPrecision; text-rendering:geometricPrecision; image-rendering:optimizeQuality; fill-rule:evenodd; clip-rule:evenodd"
viewBox="0 0 11.13 11.13"
 xmlns:xlink="http://www.w3.org/1999/xlink"
 xmlns:xodm="http://www.corel.com/coreldraw/odm/2003">
 <defs>
  <style type="text/css">
   <![CDATA[
    .fil1 {fill:#219C97;fill-rule:nonzero}
    .fil0 {fill:#3FBCBC;fill-rule:nonzero}
    .fil2 {fill:#E67264;fill-rule:nonzero}
    .fil4 {fill:#EBEFEF;fill-rule:nonzero}
    .fil3 {fill:#F0C30F;fill-rule:nonzero}
   ]]>
  </style>
 </defs>
 <g id="__x0023_Layer_x0020_1">
  <metadata id="CorelCorpID_0Corel-Layer"/>
  <g id="_2296530302720">
   <g>
    <path class="fil0" d="M5.57 0c-3.07,0 -5.57,2.49 -5.57,5.57 0,2.56 1.73,4.71 4.07,5.36l-2.41 -2.41c0.58,-0.44 1.06,-0.97 1.35,-1.6l-0.74 -0.74c-0.38,-0.37 -0.61,-0.82 -0.61,-1.31 0,-1.25 1.47,-2.26 3.29,-2.26 1.15,0 2.16,0.4 2.75,1.02 0.02,0.02 0.04,0.04 0.07,0.07l0.68 0.68c0.25,0.12 0.47,0.27 0.64,0.45l1.91 1.91c0.08,-0.38 0.12,-0.77 0.12,-1.18 0,-3.07 -2.49,-5.57 -5.56,-5.57z"/>
    <path class="fil1" d="M11.01 6.74l-1.91 -1.91c-0.17,-0.18 -0.38,-0.33 -0.64,-0.45l-0.68 -0.68c-0.02,-0.02 -0.04,-0.04 -0.07,-0.07 -0.59,-0.61 -1.6,-1.02 -2.75,-1.02 -1.82,0 -3.29,1.01 -3.29,2.26 0,0.49 0.22,0.94 0.61,1.31l0.74 0.74c-0.28,0.63 -0.76,1.16 -1.35,1.6l2.41 2.41c0.47,0.13 0.97,0.2 1.49,0.2 2.67,0 4.9,-1.88 5.44,-4.39z"/>
   </g>
   <g>
    <path class="fil2" d="M7.98 5.77c0.06,0.03 0.1,0.09 0.1,0.17 0,0.1 -0.08,0.19 -0.19,0.19 -0.06,0 -0.11,-0.02 -0.14,-0.06 -0.03,-0.03 -0.05,-0.08 -0.05,-0.12 0,-0.1 0.08,-0.19 0.19,-0.19 0.03,0 0.06,0.01 0.08,0.02z"/>
    <path class="fil2" d="M7.05 5.75c0.1,0 0.18,0.08 0.18,0.19 0,0.1 -0.08,0.19 -0.18,0.19 -0.1,0 -0.19,-0.08 -0.19,-0.19 0,-0.1 0.08,-0.19 0.19,-0.19z"/>
    <path class="fil2" d="M6.19 5.75c0.1,0 0.19,0.08 0.19,0.19 0,0.1 -0.08,0.19 -0.19,0.19 -0.1,0 -0.19,-0.08 -0.19,-0.19 0,-0.1 0.08,-0.19 0.19,-0.19z"/>
   </g>
   <path class="fil3" d="M9.46 5.67c0,0.51 -0.38,0.99 -1.01,1.3l-0.17 0.08 0.07 0.17c0.11,0.29 0.28,0.58 0.49,0.84 -0.38,-0.19 -0.7,-0.45 -0.98,-0.78l-0.07 -0.09 -0.11 0.02c-0.2,0.03 -0.41,0.05 -0.61,0.05 -0.44,0 -0.85,-0.08 -1.2,-0.21 -0.72,-0.28 -1.21,-0.79 -1.21,-1.38 0,-0.88 1.08,-1.59 2.41,-1.59 0.39,0 0.75,0.06 1.08,0.17 0.79,0.26 1.34,0.8 1.34,1.43zm-1.37 0.27l0 0c0,-0.07 -0.04,-0.14 -0.1,-0.17 -0.02,-0.01 -0.05,-0.02 -0.08,-0.02 -0.1,0 -0.19,0.08 -0.19,0.19 0,0.05 0.02,0.09 0.05,0.12 0.03,0.04 0.08,0.06 0.14,0.06 0.1,0 0.19,-0.08 0.19,-0.19zm-0.86 0l0 0c0,-0.1 -0.08,-0.19 -0.18,-0.19 -0.1,0 -0.19,0.08 -0.19,0.19 0,0.1 0.08,0.19 0.19,0.19 0.1,0 0.18,-0.08 0.18,-0.19zm-0.85 0l0 0c0,-0.1 -0.08,-0.19 -0.19,-0.19 -0.1,0 -0.19,0.08 -0.19,0.19 0,0.1 0.08,0.19 0.19,0.19 0.1,0 0.19,-0.08 0.19,-0.19z"/>
   <path class="fil4" d="M7.81 3.74c-0.25,-0.05 -0.5,-0.07 -0.77,-0.07 -0.74,0 -1.44,0.2 -1.97,0.56 -0.55,0.38 -0.85,0.89 -0.85,1.44 0,0.55 0.3,1.06 0.85,1.44 0.01,0.01 0.02,0.02 0.04,0.02 -0.05,0 -0.1,0 -0.16,0 -0.28,0 -0.56,-0.02 -0.82,-0.07 -0.62,0.73 -1.43,1.22 -2.47,1.45 0.64,-0.48 1.16,-1.08 1.42,-1.78 -0.86,-0.41 -1.42,-1.09 -1.42,-1.86 0,-1.25 1.47,-2.26 3.29,-2.26 1.22,0 2.28,0.46 2.85,1.13z"/>
  </g>
 </g>
</svg>
