<?xml version="1.0" encoding="UTF-8"?>
<!DOCTYPE svg PUBLIC "-//W3C//DTD SVG 1.1//EN" "http://www.w3.org/Graphics/SVG/1.1/DTD/svg11.dtd">
<!-- Creator: CorelDRAW 2020 (64-Bit) -->
<svg xmlns="http://www.w3.org/2000/svg" xml:space="preserve" width="0.408508in" height="0.40852in" version="1.1" style="shape-rendering:geometricPrecision; text-rendering:geometricPrecision; image-rendering:optimizeQuality; fill-rule:evenodd; clip-rule:evenodd"
viewBox="0 0 14.57 14.57"
 xmlns:xlink="http://www.w3.org/1999/xlink"
 xmlns:xodm="http://www.corel.com/coreldraw/odm/2003">
 <defs>
  <style type="text/css">
   <![CDATA[
    .fil2 {fill:#FEFEFE;fill-rule:nonzero}
    .fil1 {fill:#CB3438;fill-rule:nonzero}
    .fil0 {fill:#FB2340;fill-rule:nonzero}
   ]]>
  </style>
 </defs>
 <g id="_23Layer_x0020_1">
  <metadata id="CorelCorpID_0Corel-Layer"/>
  <g id="_2296515257056">
   <g>
    <path class="fil0" d="M14.57 7.29c0,4.02 -3.26,7.29 -7.29,7.29 -4.03,0 -7.29,-3.26 -7.29,-7.29 0,-4.02 3.26,-7.29 7.29,-7.29 4.02,0 7.29,3.26 7.29,7.29z"/>
    <path class="fil1" d="M14.37 8.98l-2.72 -2.72 -1.44 -0.2 -2.95 -2.95 -1.33 2.75 -3.02 0.46 2.19 2.19 -0.49 2.94 3.11 3.11c3.24,-0.19 5.92,-2.51 6.65,-5.58l-0 0z"/>
   </g>
   <polygon class="fil2" points="8.9,5.57 12.5,6.07 9.91,8.63 10.55,12.22 7.31,10.54 4.1,12.26 4.7,8.66 2.07,6.14 5.67,5.59 7.26,2.32 "/>
  </g>
 </g>
</svg>
