<?xml version="1.0" encoding="UTF-8"?>
<!DOCTYPE svg PUBLIC "-//W3C//DTD SVG 1.1//EN" "http://www.w3.org/Graphics/SVG/1.1/DTD/svg11.dtd">
<!-- Creator: CorelDRAW 2020 (64-Bit) -->
<svg xmlns="http://www.w3.org/2000/svg" xml:space="preserve" width="0.23948in" height="0.245083in" version="1.1" style="shape-rendering:geometricPrecision; text-rendering:geometricPrecision; image-rendering:optimizeQuality; fill-rule:evenodd; clip-rule:evenodd"
viewBox="0 0 5.01 5.12"
 xmlns:xlink="http://www.w3.org/1999/xlink"
 xmlns:xodm="http://www.corel.com/coreldraw/odm/2003">
 <defs>
  <style type="text/css">
   <![CDATA[
    .fil4 {fill:#F79633;fill-rule:nonzero}
    .fil3 {fill:#E67264;fill-rule:nonzero}
    .fil2 {fill:#EBEFEF;fill-rule:nonzero}
    .fil1 {fill:#F0C30F;fill-rule:nonzero}
    .fil0 {fill:#F29A11;fill-rule:nonzero}
   ]]>
  </style>
 </defs>
 <g id="_23Layer_x0020_1">
  <metadata id="CorelCorpID_0Corel-Layer"/>
  <g id="_2296515249088">
   <g>
    <path class="fil0" d="M2.41 1.32c-0.01,0 -0.01,-0 -0.02,-0l-0.95 -0.3c-0.02,-0.01 -0.04,-0.03 -0.03,-0.06 0,-0.03 0.02,-0.04 0.05,-0.04l1.91 0c0.02,0 0.05,0.02 0.05,0.04 0,0.03 -0.01,0.05 -0.03,0.06l-0.95 0.3c-0,0 -0.01,0 -0.01,0l-0 0zm-0.63 -0.3l0 0 0.63 0.2 0.63 -0.2 -1.26 0z"/>
    <path class="fil1" d="M2.57 1.37c0,0.04 -0.05,0.07 -0.12,0.07l-0.08 0c-0.07,0 -0.12,-0.03 -0.12,-0.07l0 -0.21c0,-0.04 0.05,-0.07 0.12,-0.07l0.08 0c0.07,0 0.12,0.03 0.12,0.07l0 0.21z"/>
   </g>
   <g>
    <path class="fil0" d="M4.32 3.23c0,1.05 -0.85,1.9 -1.9,1.9 -1.05,0 -1.9,-0.85 -1.9,-1.9 0,-1.05 0.85,-1.9 1.9,-1.9 1.05,0 1.9,0.85 1.9,1.9z"/>
    <path class="fil1" d="M4.1 3.23c0,0.92 -0.75,1.68 -1.67,1.68 -0.93,0 -1.68,-0.75 -1.68,-1.68 0,-0.92 0.75,-1.67 1.68,-1.67 0.92,0 1.67,0.75 1.67,1.67z"/>
    <g id="_1494215111440">
     <path class="fil2" d="M1.58 2.36c-0.21,0.16 -0.35,0.38 -0.4,0.61 -0.07,0.28 -0.06,0.43 0.03,0.7 0.08,0.22 0.21,0.43 0.41,0.57 0.12,0.09 0.18,0.12 0.33,0.16 0.07,0.02 0.11,0.03 0.19,0.04 0.07,0.01 0.14,0 0.21,0.03 0,0 0,0 0,0.01 -0.07,0.03 -0.15,0.02 -0.22,0.01 -0.08,-0.01 -0.12,-0.02 -0.2,-0.04 -0.15,-0.05 -0.22,-0.08 -0.34,-0.17 -0.2,-0.15 -0.34,-0.36 -0.42,-0.59 -0.09,-0.28 -0.1,-0.44 -0.02,-0.72 0.07,-0.23 0.2,-0.45 0.42,-0.61 0,0 0,0 0,0l0 0z"/>
     <path class="fil2" d="M1.67 4.24c0.04,0.06 0.09,0.08 0.14,0.07 0.05,-0.01 0.06,-0.03 0.02,-0.09 -0.04,-0.06 -0.18,-0.22 -0.18,-0.22 0,0 -0.02,0.17 0.02,0.24l0 0z"/>
     <path class="fil2" d="M1.42 4.01c0.01,0.07 0.06,0.1 0.1,0.1 0.04,0.01 0.07,-0.01 0.05,-0.07 -0.02,-0.06 -0.1,-0.25 -0.1,-0.25 0,0 -0.06,0.15 -0.05,0.22l-0 0z"/>
     <path class="fil2" d="M1.26 3.75c-0.01,0.06 0.02,0.1 0.06,0.12 0.04,0.02 0.06,0.01 0.06,-0.05 0,-0.06 -0.03,-0.25 -0.03,-0.25 0,0 -0.09,0.12 -0.09,0.19z"/>
     <path class="fil2" d="M1.18 3.47c-0.02,0.06 0,0.09 0.03,0.12 0.03,0.02 0.05,0.02 0.07,-0.03 0.01,-0.05 0.03,-0.23 0.03,-0.23 0,0 -0.11,0.09 -0.13,0.15l-0 0z"/>
     <path class="fil2" d="M1.16 3.19c-0.03,0.05 -0.02,0.09 0,0.11 0.02,0.03 0.04,0.03 0.07,-0.01 0.02,-0.05 0.07,-0.21 0.07,-0.21 0,0 -0.12,0.06 -0.14,0.11l0 0z"/>
     <path class="fil2" d="M1.2 2.95c-0.04,0.04 -0.03,0.07 -0.02,0.1 0.01,0.03 0.03,0.04 0.06,0 0.03,-0.04 0.11,-0.17 0.11,-0.17 0,0 -0.12,0.03 -0.15,0.07l0 0z"/>
     <path class="fil2" d="M1.29 2.73c-0.04,0.03 -0.05,0.06 -0.04,0.09 0.01,0.03 0.02,0.04 0.06,0.01 0.04,-0.03 0.13,-0.14 0.13,-0.14 0,0 -0.11,0.01 -0.15,0.04l-0 -0z"/>
     <path class="fil2" d="M1.41 2.55c-0.04,0.02 -0.05,0.05 -0.05,0.07 0,0.03 0.01,0.04 0.05,0.02 0.04,-0.02 0.15,-0.1 0.15,-0.1 0,0 -0.1,-0.01 -0.14,0.01l0 0z"/>
     <path class="fil2" d="M1.56 2.41c-0.04,0.01 -0.06,0.03 -0.06,0.06 -0.01,0.02 0,0.04 0.04,0.03 0.04,-0.01 0.15,-0.07 0.15,-0.07 0,0 -0.09,-0.02 -0.13,-0.01l-0 -0z"/>
     <path class="fil2" d="M2 4.38c0.06,0.05 0.12,0.05 0.17,0.02 0.04,-0.02 0.05,-0.05 -0.01,-0.09 -0.06,-0.04 -0.26,-0.15 -0.26,-0.15 0,0 0.04,0.17 0.1,0.22l0 0z"/>
     <path class="fil2" d="M1.61 4.32c0.08,0.01 0.12,0.04 0.14,0.09 0.03,0.04 0.03,0.08 -0.06,0.07 -0.09,-0.01 -0.35,-0.15 -0.35,-0.15 0,0 0.19,-0.02 0.27,-0.01l0 0z"/>
     <path class="fil2" d="M1.35 4.07c0.07,0.03 0.09,0.07 0.1,0.12 0.01,0.04 -0,0.08 -0.07,0.05 -0.07,-0.03 -0.26,-0.23 -0.26,-0.23 0,0 0.17,0.03 0.24,0.07l0 -0z"/>
     <path class="fil2" d="M1.18 3.78c0.05,0.04 0.06,0.09 0.06,0.13 -0,0.04 -0.02,0.07 -0.08,0.02 -0.06,-0.04 -0.18,-0.27 -0.18,-0.27 0,0 0.15,0.07 0.2,0.12l0 0z"/>
     <path class="fil2" d="M1.1 3.48c0.04,0.05 0.04,0.09 0.02,0.13 -0.01,0.04 -0.03,0.05 -0.08,0 -0.04,-0.05 -0.1,-0.28 -0.1,-0.28 0,0 0.12,0.1 0.16,0.15l-0 0z"/>
     <path class="fil2" d="M1.09 3.19c0.02,0.05 0.01,0.09 -0.01,0.12 -0.02,0.03 -0.04,0.04 -0.07,-0.01 -0.03,-0.05 -0.04,-0.27 -0.04,-0.27 0,0 0.09,0.11 0.11,0.17l-0 -0z"/>
     <path class="fil2" d="M1.14 2.93c0.01,0.05 -0.01,0.08 -0.03,0.11 -0.02,0.02 -0.05,0.03 -0.06,-0.03 -0.01,-0.06 0.02,-0.25 0.02,-0.25 0,0 0.06,0.12 0.07,0.17l0 0z"/>
     <path class="fil2" d="M1.23 2.7c-0,0.05 -0.02,0.07 -0.05,0.09 -0.02,0.02 -0.05,0.02 -0.05,-0.04 0,-0.05 0.07,-0.22 0.07,-0.22 0,0 0.03,0.12 0.03,0.17z"/>
     <path class="fil2" d="M1.36 2.51c-0.01,0.04 -0.03,0.06 -0.06,0.07 -0.03,0.01 -0.05,0.01 -0.04,-0.04 0.01,-0.05 0.1,-0.19 0.1,-0.19 0,0 0,0.11 -0.01,0.15z"/>
     <path class="fil2" d="M1.52 2.37c-0.02,0.04 -0.04,0.05 -0.07,0.06 -0.02,0 -0.04,-0 -0.02,-0.04 0.02,-0.04 0.13,-0.15 0.13,-0.15 0,0 -0.02,0.1 -0.04,0.14z"/>
     <path class="fil2" d="M1.97 4.49c0.09,-0.01 0.14,0.01 0.18,0.04 0.04,0.03 0.06,0.07 -0.04,0.09 -0.09,0.02 -0.41,-0.04 -0.41,-0.04 0,0 0.19,-0.08 0.27,-0.09l-0 0z"/>
     <path class="fil2" d="M1.66 2.26c-0.05,0.03 -0.05,0.05 -0.04,0.06 0.01,0.01 0.03,0.02 0.07,-0.01 0.04,-0.03 0.16,-0.12 0.16,-0.12 0,0 -0.15,0.03 -0.2,0.06z"/>
     <path class="fil2" d="M3.26 2.37c0.21,0.16 0.35,0.38 0.4,0.61 0.07,0.28 0.06,0.43 -0.03,0.7 -0.08,0.22 -0.21,0.43 -0.41,0.57 -0.12,0.08 -0.18,0.12 -0.33,0.16 -0.07,0.02 -0.11,0.03 -0.19,0.04 -0.07,0.01 -0.14,0 -0.21,0.03 0,0 0,0 0,0.01 0.07,0.03 0.15,0.02 0.22,0.01 0.08,-0.01 0.13,-0.02 0.2,-0.04 0.15,-0.05 0.22,-0.08 0.34,-0.17 0.2,-0.15 0.34,-0.36 0.42,-0.59 0.09,-0.28 0.1,-0.44 0.02,-0.72 -0.07,-0.23 -0.21,-0.45 -0.43,-0.61 -0,0 -0,0 -0,0l-0 0z"/>
     <path class="fil2" d="M3.17 4.25c-0.04,0.07 -0.09,0.08 -0.14,0.07 -0.05,-0.01 -0.06,-0.03 -0.02,-0.09 0.04,-0.06 0.18,-0.22 0.18,-0.22 0,0 0.02,0.17 -0.02,0.24l-0 -0z"/>
     <path class="fil2" d="M3.42 4.02c-0.01,0.07 -0.05,0.09 -0.1,0.1 -0.04,0.01 -0.07,-0.01 -0.05,-0.07 0.02,-0.06 0.1,-0.25 0.1,-0.25 0,0 0.06,0.15 0.05,0.22l0 0z"/>
     <path class="fil2" d="M3.58 3.76c0,0.06 -0.03,0.1 -0.06,0.11 -0.04,0.02 -0.06,0.01 -0.06,-0.05 -0,-0.06 0.03,-0.25 0.03,-0.25 0,0 0.09,0.12 0.1,0.19l0 0z"/>
     <path class="fil2" d="M3.67 3.48c0.02,0.06 -0,0.1 -0.03,0.12 -0.03,0.02 -0.05,0.02 -0.07,-0.03 -0.01,-0.05 -0.03,-0.23 -0.03,-0.23 0,0 0.11,0.09 0.13,0.15l0 -0z"/>
     <path class="fil2" d="M3.68 3.21c0.03,0.05 0.02,0.09 -0,0.11 -0.02,0.03 -0.04,0.03 -0.07,-0.02 -0.02,-0.05 -0.08,-0.21 -0.08,-0.21 0,0 0.12,0.06 0.15,0.11l0 0z"/>
     <path class="fil2" d="M3.64 2.96c0.04,0.04 0.03,0.07 0.02,0.1 -0.01,0.03 -0.03,0.04 -0.06,0 -0.03,-0.04 -0.11,-0.17 -0.11,-0.17 0,0 0.12,0.03 0.15,0.07l-0 0z"/>
     <path class="fil2" d="M3.55 2.74c0.04,0.03 0.05,0.06 0.04,0.09 -0.01,0.03 -0.02,0.04 -0.06,0.01 -0.04,-0.03 -0.13,-0.14 -0.13,-0.14 0,0 0.11,0.01 0.15,0.04l-0 -0z"/>
     <path class="fil2" d="M3.43 2.57c0.04,0.02 0.05,0.05 0.05,0.07 0,0.03 -0.01,0.04 -0.05,0.02 -0.04,-0.02 -0.15,-0.1 -0.15,-0.1 0,0 0.1,-0.01 0.14,0.01l-0 0z"/>
     <path class="fil2" d="M3.29 2.42c0.04,0.01 0.06,0.03 0.06,0.06 0.01,0.02 -0,0.04 -0.04,0.03 -0.04,-0.01 -0.15,-0.07 -0.15,-0.07 0,0 0.09,-0.02 0.13,-0.01l0 0z"/>
     <path class="fil2" d="M2.84 4.39c-0.06,0.05 -0.12,0.05 -0.16,0.03 -0.04,-0.02 -0.05,-0.05 0.01,-0.09 0.06,-0.04 0.26,-0.15 0.26,-0.15 0,0 -0.04,0.17 -0.1,0.22l0 0z"/>
     <path class="fil2" d="M3.23 4.33c-0.08,0.01 -0.12,0.04 -0.14,0.09 -0.03,0.04 -0.03,0.08 0.06,0.07 0.09,-0 0.35,-0.15 0.35,-0.15 0,0 -0.19,-0.02 -0.27,-0.01l0 0z"/>
     <path class="fil2" d="M3.49 4.08c-0.07,0.03 -0.09,0.07 -0.1,0.12 -0.01,0.04 0,0.08 0.07,0.05 0.07,-0.03 0.26,-0.23 0.26,-0.23 0,0 -0.17,0.03 -0.24,0.07l0 -0z"/>
     <path class="fil2" d="M3.66 3.79c-0.05,0.05 -0.06,0.09 -0.06,0.13 0,0.04 0.02,0.07 0.08,0.03 0.06,-0.04 0.18,-0.27 0.18,-0.27 0,0 -0.15,0.07 -0.2,0.12l-0 0z"/>
     <path class="fil2" d="M3.74 3.49c-0.04,0.05 -0.04,0.09 -0.02,0.13 0.01,0.04 0.03,0.05 0.08,0 0.04,-0.05 0.1,-0.28 0.1,-0.28 0,0 -0.12,0.1 -0.16,0.15l-0 0z"/>
     <path class="fil2" d="M3.75 3.2c-0.02,0.05 -0.01,0.09 0.01,0.12 0.02,0.03 0.04,0.04 0.07,-0.02 0.03,-0.06 0.04,-0.27 0.04,-0.27 0,0 -0.09,0.11 -0.11,0.17l0 0z"/>
     <path class="fil2" d="M3.7 2.94c-0.01,0.05 0.01,0.08 0.03,0.11 0.02,0.02 0.05,0.03 0.06,-0.03 0.01,-0.05 -0.02,-0.25 -0.02,-0.25 0,0 -0.06,0.12 -0.07,0.17l0 0z"/>
     <path class="fil2" d="M3.61 2.71c0,0.05 0.02,0.08 0.05,0.09 0.02,0.02 0.05,0.02 0.05,-0.04 0,-0.05 -0.07,-0.22 -0.07,-0.22 0,0 -0.03,0.12 -0.03,0.17l0 0z"/>
     <path class="fil2" d="M3.48 2.53c0.01,0.04 0.03,0.06 0.06,0.07 0.03,0.01 0.04,0.01 0.03,-0.04 -0.01,-0.05 -0.1,-0.19 -0.1,-0.19 0,0 -0,0.11 0.01,0.15l-0 0z"/>
     <path class="fil2" d="M3.33 2.38c0.02,0.04 0.04,0.05 0.07,0.06 0.03,0.01 0.04,-0 0.02,-0.04 -0.02,-0.04 -0.13,-0.15 -0.13,-0.15 0,0 0.02,0.1 0.04,0.14l0 -0z"/>
     <path class="fil2" d="M2.87 4.5c-0.09,-0.01 -0.14,0 -0.18,0.04 -0.04,0.03 -0.06,0.07 0.04,0.09 0.09,0.02 0.42,-0.03 0.42,-0.03 0,0 -0.19,-0.08 -0.27,-0.09l0 0z"/>
     <path class="fil2" d="M3.18 2.28c0.05,0.03 0.05,0.05 0.04,0.06 -0.01,0.02 -0.03,0.02 -0.07,-0.01 -0.04,-0.03 -0.16,-0.12 -0.16,-0.12 0,0 0.15,0.03 0.2,0.06l0 0z"/>
     <path class="fil2" d="M2.62 4.49c0,0.12 -0.09,0.21 -0.21,0.21 -0.12,0 -0.21,-0.09 -0.21,-0.21 0,-0.12 0.09,-0.21 0.21,-0.21 0.12,0 0.21,0.09 0.21,0.21z"/>
    </g>
    <path class="fil2" d="M3.34 3.22c0,0.51 -0.42,0.93 -0.93,0.93 -0.51,0 -0.93,-0.42 -0.93,-0.93 0,-0.51 0.42,-0.93 0.93,-0.93 0.51,0 0.93,0.42 0.93,0.93z"/>
   </g>
   <g>
    <polygon class="fil3" points="5.01,0.01 3.82,0.01 2.02,1 3.2,1 "/>
    <path class="fil2" d="M2.4 1.02c-0.01,0 -0.02,-0 -0.02,-0.01 -0.01,-0.01 -0,-0.03 0.01,-0.04l1.74 -0.96c0.01,-0.01 0.03,-0 0.04,0.01 0.01,0.01 0,0.03 -0.01,0.04l-1.74 0.96c-0,0 -0.01,0 -0.01,0l0 -0z"/>
    <path class="fil2" d="M2.79 1.02c-0.01,0 -0.02,-0 -0.02,-0.01 -0.01,-0.01 -0,-0.03 0.01,-0.03l1.73 -0.97c0.01,-0.01 0.03,-0 0.04,0.01 0.01,0.01 0,0.03 -0.01,0.04l-1.73 0.97c-0,0 -0.01,0 -0.01,0l0 -0z"/>
    <polygon class="fil3" points="2.99,1 1.8,1 -0,0.02 1.19,0.02 "/>
   </g>
  </g>
  <path class="fil4" d="M2.63 3.81l-0.24 0 0 -0.9c-0.09,0.08 -0.19,0.14 -0.31,0.18l0 -0.22c0.06,-0.02 0.13,-0.06 0.2,-0.12 0.07,-0.06 0.12,-0.12 0.15,-0.2l0.19 0 0 1.25z"/>
 </g>
</svg>
