<?xml version="1.0" encoding="UTF-8"?>
<!DOCTYPE svg PUBLIC "-//W3C//DTD SVG 1.1//EN" "http://www.w3.org/Graphics/SVG/1.1/DTD/svg11.dtd">
<!-- Creator: CorelDRAW 2020 (64-Bit) -->
<svg xmlns="http://www.w3.org/2000/svg" xml:space="preserve" width="0.23948in" height="0.245083in" version="1.1" style="shape-rendering:geometricPrecision; text-rendering:geometricPrecision; image-rendering:optimizeQuality; fill-rule:evenodd; clip-rule:evenodd"
viewBox="0 0 5.34 5.47"
 xmlns:xlink="http://www.w3.org/1999/xlink"
 xmlns:xodm="http://www.corel.com/coreldraw/odm/2003">
 <defs>
  <style type="text/css">
   <![CDATA[
    .fil4 {fill:#F79633;fill-rule:nonzero}
    .fil3 {fill:#E67264;fill-rule:nonzero}
    .fil2 {fill:#EBEFEF;fill-rule:nonzero}
    .fil1 {fill:#F0C30F;fill-rule:nonzero}
    .fil0 {fill:#F29A11;fill-rule:nonzero}
   ]]>
  </style>
 </defs>
 <g id="_23Layer_x0020_1">
  <metadata id="CorelCorpID_0Corel-Layer"/>
  <g id="_2296729036176">
   <g>
    <path class="fil0" d="M2.58 1.41c-0.01,0 -0.01,-0 -0.02,-0l-1.02 -0.32c-0.03,-0.01 -0.04,-0.03 -0.04,-0.06 0,-0.03 0.03,-0.05 0.05,-0.05l2.04 0c0.03,0 0.05,0.02 0.05,0.05 0,0.03 -0.01,0.05 -0.04,0.06l-1.02 0.32c-0,0 -0.01,0 -0.02,0l-0 0zm-0.67 -0.32l0 0 0.67 0.21 0.67 -0.21 -1.34 0z"/>
    <path class="fil1" d="M2.75 1.47c0,0.04 -0.06,0.08 -0.13,0.08l-0.08 0c-0.07,0 -0.13,-0.04 -0.13,-0.08l0 -0.22c0,-0.04 0.06,-0.08 0.13,-0.08l0.08 0c0.07,0 0.13,0.03 0.13,0.08l0 0.22z"/>
   </g>
   <g>
    <path class="fil0" d="M4.61 3.45c0,1.12 -0.91,2.02 -2.02,2.02 -1.12,0 -2.02,-0.91 -2.02,-2.02 0,-1.12 0.91,-2.02 2.02,-2.02 1.12,0 2.02,0.91 2.02,2.02z"/>
    <path class="fil1" d="M4.37 3.45c0,0.99 -0.8,1.79 -1.79,1.79 -0.99,0 -1.79,-0.8 -1.79,-1.79 0,-0.99 0.8,-1.79 1.79,-1.79 0.99,0 1.79,0.8 1.79,1.79z"/>
    <g id="_1494215111440">
     <path class="fil2" d="M1.69 2.52c-0.23,0.17 -0.37,0.4 -0.43,0.65 -0.08,0.29 -0.07,0.46 0.03,0.75 0.08,0.24 0.23,0.45 0.44,0.61 0.12,0.09 0.2,0.13 0.35,0.18 0.08,0.02 0.12,0.03 0.21,0.04 0.07,0.01 0.15,0 0.23,0.03 0,0 0,0 0,0.01 -0.08,0.03 -0.16,0.02 -0.24,0.01 -0.09,-0.01 -0.13,-0.02 -0.21,-0.05 -0.16,-0.05 -0.24,-0.09 -0.37,-0.18 -0.21,-0.16 -0.37,-0.38 -0.45,-0.63 -0.1,-0.3 -0.1,-0.47 -0.02,-0.76 0.07,-0.25 0.22,-0.48 0.45,-0.65 0,0 0,0 0,0l0 0z"/>
     <path class="fil2" d="M1.78 4.52c0.04,0.07 0.1,0.08 0.14,0.08 0.05,-0.01 0.07,-0.04 0.03,-0.1 -0.04,-0.06 -0.19,-0.24 -0.19,-0.24 0,0 -0.02,0.19 0.02,0.26l0 0z"/>
     <path class="fil2" d="M1.51 4.28c0.01,0.07 0.06,0.1 0.1,0.11 0.04,0.01 0.07,-0.01 0.05,-0.08 -0.02,-0.07 -0.1,-0.27 -0.1,-0.27 0,0 -0.06,0.16 -0.05,0.24l-0 0z"/>
     <path class="fil2" d="M1.34 4c-0.01,0.07 0.03,0.11 0.06,0.12 0.04,0.02 0.07,0.01 0.07,-0.06 0,-0.06 -0.03,-0.27 -0.03,-0.27 0,0 -0.1,0.13 -0.1,0.2z"/>
     <path class="fil2" d="M1.25 3.7c-0.02,0.06 0,0.1 0.03,0.13 0.03,0.02 0.06,0.02 0.07,-0.04 0.02,-0.06 0.03,-0.25 0.03,-0.25 0,0 -0.12,0.1 -0.14,0.16l-0 0z"/>
     <path class="fil2" d="M1.24 3.41c-0.03,0.05 -0.02,0.09 0,0.12 0.02,0.03 0.05,0.03 0.07,-0.01 0.03,-0.05 0.08,-0.22 0.08,-0.22 0,0 -0.12,0.06 -0.15,0.11l0 0z"/>
     <path class="fil2" d="M1.28 3.15c-0.04,0.04 -0.04,0.08 -0.02,0.11 0.01,0.03 0.03,0.04 0.07,0 0.03,-0.04 0.12,-0.18 0.12,-0.18 0,0 -0.13,0.04 -0.16,0.07l0 0z"/>
     <path class="fil2" d="M1.38 2.92c-0.04,0.03 -0.05,0.06 -0.04,0.09 0.01,0.03 0.02,0.04 0.06,0.01 0.04,-0.03 0.14,-0.15 0.14,-0.15 0,0 -0.12,0.01 -0.16,0.04l-0 -0z"/>
     <path class="fil2" d="M1.51 2.73c-0.04,0.02 -0.06,0.05 -0.06,0.08 0,0.03 0.01,0.04 0.05,0.02 0.04,-0.02 0.16,-0.11 0.16,-0.11 0,0 -0.11,-0.01 -0.15,0.01l0 0z"/>
     <path class="fil2" d="M1.66 2.58c-0.04,0.01 -0.06,0.04 -0.07,0.06 -0.01,0.03 0,0.04 0.04,0.03 0.04,-0.01 0.16,-0.08 0.16,-0.08 0,0 -0.1,-0.02 -0.14,-0.01l-0 -0z"/>
     <path class="fil2" d="M2.14 4.67c0.06,0.05 0.13,0.05 0.18,0.03 0.05,-0.02 0.06,-0.05 -0.01,-0.1 -0.07,-0.04 -0.28,-0.16 -0.28,-0.16 0,0 0.05,0.18 0.11,0.24l0 0z"/>
     <path class="fil2" d="M1.72 4.61c0.08,0.01 0.12,0.05 0.15,0.09 0.03,0.04 0.03,0.08 -0.07,0.08 -0.09,-0.01 -0.38,-0.16 -0.38,-0.16 0,0 0.2,-0.02 0.29,-0.01l0 0z"/>
     <path class="fil2" d="M1.44 4.34c0.07,0.03 0.09,0.08 0.1,0.12 0.01,0.05 -0,0.08 -0.08,0.05 -0.08,-0.03 -0.28,-0.24 -0.28,-0.24 0,0 0.19,0.04 0.26,0.07l0 -0z"/>
     <path class="fil2" d="M1.26 4.03c0.05,0.05 0.07,0.09 0.06,0.14 -0,0.04 -0.02,0.07 -0.08,0.02 -0.06,-0.05 -0.19,-0.29 -0.19,-0.29 0,0 0.16,0.08 0.21,0.12l0 0z"/>
     <path class="fil2" d="M1.18 3.71c0.04,0.06 0.04,0.1 0.03,0.14 -0.01,0.04 -0.04,0.06 -0.08,0 -0.04,-0.06 -0.11,-0.3 -0.11,-0.3 0,0 0.13,0.1 0.17,0.16l-0 0z"/>
     <path class="fil2" d="M1.16 3.4c0.02,0.06 0.01,0.1 -0.01,0.13 -0.02,0.03 -0.05,0.04 -0.07,-0.02 -0.03,-0.06 -0.04,-0.29 -0.04,-0.29 0,0 0.09,0.12 0.12,0.18l-0 -0z"/>
     <path class="fil2" d="M1.22 3.12c0.01,0.06 -0.01,0.09 -0.03,0.11 -0.02,0.02 -0.05,0.03 -0.06,-0.03 -0.01,-0.06 0.02,-0.27 0.02,-0.27 0,0 0.06,0.13 0.07,0.18l0 0z"/>
     <path class="fil2" d="M1.32 2.88c-0,0.05 -0.02,0.08 -0.05,0.1 -0.03,0.02 -0.05,0.02 -0.05,-0.04 0,-0.05 0.07,-0.23 0.07,-0.23 0,0 0.03,0.12 0.03,0.18z"/>
     <path class="fil2" d="M1.45 2.68c-0.01,0.05 -0.04,0.07 -0.06,0.08 -0.03,0.01 -0.05,0.01 -0.04,-0.04 0.01,-0.05 0.11,-0.2 0.11,-0.2 0,0 0,0.12 -0.01,0.16z"/>
     <path class="fil2" d="M1.62 2.52c-0.02,0.04 -0.05,0.05 -0.07,0.06 -0.03,0.01 -0.04,-0 -0.03,-0.04 0.02,-0.04 0.14,-0.16 0.14,-0.16 0,0 -0.02,0.1 -0.04,0.15z"/>
     <path class="fil2" d="M2.1 4.79c0.09,-0.01 0.15,0.01 0.19,0.04 0.05,0.03 0.06,0.07 -0.04,0.09 -0.1,0.02 -0.44,-0.04 -0.44,-0.04 0,0 0.2,-0.08 0.29,-0.1l-0 0z"/>
     <path class="fil2" d="M1.77 2.42c-0.05,0.03 -0.05,0.05 -0.04,0.07 0.01,0.01 0.03,0.02 0.08,-0.01 0.05,-0.03 0.18,-0.12 0.18,-0.12 0,0 -0.16,0.04 -0.21,0.07z"/>
     <path class="fil2" d="M3.48 2.53c0.23,0.17 0.37,0.4 0.43,0.65 0.08,0.29 0.07,0.46 -0.03,0.75 -0.08,0.24 -0.23,0.45 -0.44,0.61 -0.12,0.09 -0.2,0.13 -0.35,0.17 -0.08,0.02 -0.12,0.03 -0.21,0.04 -0.07,0.01 -0.15,0 -0.23,0.03 0,0 0,0 0,0.01 0.08,0.03 0.16,0.02 0.24,0.01 0.09,-0.01 0.13,-0.02 0.22,-0.05 0.16,-0.05 0.24,-0.09 0.37,-0.18 0.21,-0.16 0.37,-0.38 0.45,-0.63 0.1,-0.3 0.1,-0.47 0.02,-0.77 -0.07,-0.25 -0.22,-0.48 -0.45,-0.65 -0,0 -0,0 -0,0l-0 0z"/>
     <path class="fil2" d="M3.39 4.54c-0.04,0.07 -0.1,0.09 -0.14,0.08 -0.05,-0.01 -0.07,-0.03 -0.03,-0.1 0.04,-0.06 0.19,-0.24 0.19,-0.24 0,0 0.02,0.19 -0.02,0.26l-0 -0z"/>
     <path class="fil2" d="M3.65 4.3c-0.01,0.07 -0.06,0.1 -0.1,0.11 -0.04,0.01 -0.07,-0.01 -0.05,-0.08 0.02,-0.07 0.1,-0.26 0.1,-0.26 0,0 0.06,0.16 0.05,0.24l0 0z"/>
     <path class="fil2" d="M3.83 4.01c0,0.07 -0.03,0.11 -0.06,0.12 -0.04,0.02 -0.07,0.01 -0.07,-0.06 -0,-0.07 0.03,-0.27 0.03,-0.27 0,0 0.1,0.13 0.1,0.2l0 0z"/>
     <path class="fil2" d="M3.91 3.71c0.02,0.06 -0,0.1 -0.03,0.13 -0.03,0.02 -0.06,0.02 -0.07,-0.04 -0.02,-0.06 -0.03,-0.25 -0.03,-0.25 0,0 0.12,0.1 0.14,0.16l0 -0z"/>
     <path class="fil2" d="M3.93 3.42c0.03,0.05 0.02,0.09 -0,0.12 -0.02,0.03 -0.05,0.03 -0.07,-0.02 -0.03,-0.05 -0.08,-0.22 -0.08,-0.22 0,0 0.12,0.06 0.15,0.11l0 0z"/>
     <path class="fil2" d="M3.89 3.16c0.04,0.04 0.04,0.08 0.02,0.11 -0.01,0.03 -0.04,0.04 -0.07,0 -0.03,-0.04 -0.12,-0.18 -0.12,-0.18 0,0 0.12,0.03 0.16,0.07l-0 0z"/>
     <path class="fil2" d="M3.79 2.93c0.04,0.03 0.05,0.06 0.04,0.09 -0.01,0.03 -0.02,0.04 -0.06,0.02 -0.04,-0.03 -0.14,-0.15 -0.14,-0.15 0,0 0.12,0.01 0.16,0.04l-0 -0z"/>
     <path class="fil2" d="M3.66 2.74c0.04,0.02 0.06,0.05 0.06,0.08 0,0.03 -0.01,0.04 -0.05,0.02 -0.04,-0.02 -0.16,-0.11 -0.16,-0.11 0,0 0.11,-0.01 0.15,0.01l-0 0z"/>
     <path class="fil2" d="M3.51 2.59c0.04,0.01 0.06,0.04 0.07,0.06 0.01,0.02 -0,0.04 -0.04,0.03 -0.04,-0.01 -0.16,-0.08 -0.16,-0.08 0,0 0.1,-0.02 0.14,-0.01l0 0z"/>
     <path class="fil2" d="M3.03 4.68c-0.06,0.05 -0.13,0.05 -0.18,0.03 -0.05,-0.02 -0.06,-0.06 0.01,-0.1 0.07,-0.04 0.28,-0.16 0.28,-0.16 0,0 -0.05,0.18 -0.11,0.23l0 0z"/>
     <path class="fil2" d="M3.45 4.62c-0.08,0.01 -0.12,0.05 -0.15,0.09 -0.03,0.04 -0.03,0.08 0.06,0.08 0.09,-0.01 0.38,-0.16 0.38,-0.16 0,0 -0.2,-0.02 -0.29,-0.01l0 0z"/>
     <path class="fil2" d="M3.73 4.36c-0.07,0.03 -0.1,0.08 -0.1,0.12 -0.01,0.05 0,0.08 0.08,0.05 0.08,-0.03 0.28,-0.24 0.28,-0.24 0,0 -0.19,0.04 -0.26,0.07l0 -0z"/>
     <path class="fil2" d="M3.91 4.04c-0.05,0.05 -0.07,0.09 -0.06,0.14 0,0.04 0.02,0.07 0.08,0.03 0.06,-0.05 0.19,-0.29 0.19,-0.29 0,0 -0.16,0.08 -0.21,0.12l-0 0z"/>
     <path class="fil2" d="M3.99 3.72c-0.04,0.06 -0.04,0.1 -0.02,0.14 0.01,0.04 0.04,0.06 0.08,0 0.04,-0.06 0.11,-0.3 0.11,-0.3 0,0 -0.13,0.1 -0.17,0.16l-0 0z"/>
     <path class="fil2" d="M4.01 3.42c-0.02,0.06 -0.01,0.1 0.01,0.13 0.02,0.03 0.05,0.04 0.07,-0.02 0.03,-0.06 0.04,-0.29 0.04,-0.29 0,0 -0.1,0.12 -0.12,0.18l0 0z"/>
     <path class="fil2" d="M3.95 3.14c-0.01,0.06 0.01,0.09 0.03,0.11 0.02,0.02 0.05,0.03 0.06,-0.03 0.01,-0.06 -0.02,-0.27 -0.02,-0.27 0,0 -0.06,0.13 -0.07,0.18l0 0z"/>
     <path class="fil2" d="M3.85 2.9c0,0.05 0.02,0.08 0.05,0.1 0.03,0.02 0.05,0.02 0.05,-0.04 0,-0.05 -0.07,-0.23 -0.07,-0.23 0,0 -0.03,0.12 -0.03,0.18l0 0z"/>
     <path class="fil2" d="M3.71 2.7c0.01,0.05 0.04,0.07 0.06,0.08 0.03,0.01 0.05,0.01 0.04,-0.04 -0.01,-0.05 -0.11,-0.2 -0.11,-0.2 0,0 -0,0.12 0.01,0.16l-0 0z"/>
     <path class="fil2" d="M3.55 2.54c0.02,0.04 0.05,0.06 0.07,0.06 0.03,0.01 0.04,-0 0.03,-0.04 -0.02,-0.04 -0.14,-0.16 -0.14,-0.16 0,0 0.02,0.1 0.04,0.14l0 -0z"/>
     <path class="fil2" d="M3.07 4.8c-0.09,-0.01 -0.15,0.01 -0.19,0.04 -0.05,0.03 -0.06,0.07 0.04,0.09 0.1,0.02 0.44,-0.04 0.44,-0.04 0,0 -0.2,-0.08 -0.29,-0.09l0 0z"/>
     <path class="fil2" d="M3.4 2.43c0.05,0.03 0.05,0.05 0.04,0.07 -0.01,0.02 -0.03,0.02 -0.08,-0.01 -0.05,-0.03 -0.18,-0.12 -0.18,-0.12 0,0 0.16,0.04 0.21,0.07l0 0z"/>
     <path class="fil2" d="M2.8 4.79c0,0.12 -0.1,0.22 -0.22,0.22 -0.12,0 -0.22,-0.1 -0.22,-0.22 0,-0.12 0.1,-0.22 0.22,-0.22 0.12,0 0.22,0.1 0.22,0.22z"/>
    </g>
    <path class="fil2" d="M3.57 3.44c0,0.55 -0.44,0.99 -0.99,0.99 -0.55,0 -0.99,-0.44 -0.99,-0.99 0,-0.55 0.44,-0.99 0.99,-0.99 0.55,0 0.99,0.45 0.99,0.99z"/>
   </g>
   <g>
    <polygon class="fil3" points="5.34,0.01 4.08,0.01 2.15,1.06 3.42,1.06 "/>
    <path class="fil2" d="M2.56 1.09c-0.01,0 -0.02,-0.01 -0.02,-0.01 -0.01,-0.01 -0,-0.03 0.01,-0.04l1.85 -1.03c0.01,-0.01 0.03,-0 0.04,0.01 0.01,0.01 0,0.03 -0.01,0.04l-1.85 1.02c-0,0 -0.01,0 -0.01,0l0 -0z"/>
    <path class="fil2" d="M2.98 1.09c-0.01,0 -0.02,-0.01 -0.02,-0.01 -0.01,-0.01 -0,-0.03 0.01,-0.04l1.85 -1.03c0.01,-0.01 0.03,-0 0.04,0.01 0.01,0.01 0,0.03 -0.01,0.04l-1.85 1.03c-0,0 -0.01,0 -0.01,0l0 -0z"/>
    <polygon class="fil3" points="3.19,1.07 1.92,1.07 -0,0.02 1.27,0.02 "/>
   </g>
  </g>
  <path class="fil4" d="M3.02 3.83l0 0.24 -0.89 0c0.01,-0.09 0.04,-0.17 0.09,-0.25 0.05,-0.08 0.14,-0.19 0.29,-0.32 0.11,-0.11 0.19,-0.18 0.21,-0.22 0.03,-0.05 0.05,-0.1 0.05,-0.16 0,-0.06 -0.02,-0.1 -0.05,-0.13 -0.03,-0.03 -0.07,-0.05 -0.13,-0.05 -0.05,0 -0.1,0.02 -0.13,0.05 -0.03,0.03 -0.05,0.09 -0.05,0.16l-0.25 -0.03c0.02,-0.14 0.06,-0.24 0.14,-0.3 0.08,-0.06 0.18,-0.09 0.3,-0.09 0.13,0 0.23,0.04 0.31,0.11 0.07,0.07 0.11,0.16 0.11,0.26 0,0.06 -0.01,0.12 -0.03,0.17 -0.02,0.05 -0.06,0.11 -0.1,0.17 -0.03,0.04 -0.09,0.1 -0.17,0.17 -0.08,0.07 -0.13,0.12 -0.15,0.15 -0.02,0.02 -0.04,0.05 -0.05,0.07l0.51 0z"/>
 </g>
</svg>
