<?xml version="1.0" encoding="UTF-8"?>
<!DOCTYPE svg PUBLIC "-//W3C//DTD SVG 1.1//EN" "http://www.w3.org/Graphics/SVG/1.1/DTD/svg11.dtd">
<!-- Creator: CorelDRAW 2020 (64-Bit) -->
<svg xmlns="http://www.w3.org/2000/svg" xml:space="preserve" width="0.23948in" height="0.245083in" version="1.1" style="shape-rendering:geometricPrecision; text-rendering:geometricPrecision; image-rendering:optimizeQuality; fill-rule:evenodd; clip-rule:evenodd"
viewBox="0 0 5.68 5.82"
 xmlns:xlink="http://www.w3.org/1999/xlink"
 xmlns:xodm="http://www.corel.com/coreldraw/odm/2003">
 <defs>
  <style type="text/css">
   <![CDATA[
    .fil4 {fill:#F79633;fill-rule:nonzero}
    .fil3 {fill:#E67264;fill-rule:nonzero}
    .fil2 {fill:#EBEFEF;fill-rule:nonzero}
    .fil1 {fill:#F0C30F;fill-rule:nonzero}
    .fil0 {fill:#F29A11;fill-rule:nonzero}
   ]]>
  </style>
 </defs>
 <g id="_23Layer_x0020_1">
  <metadata id="CorelCorpID_0Corel-Layer"/>
  <g id="_2296593903264">
   <g>
    <path class="fil0" d="M2.74 1.5c-0.01,0 -0.01,-0 -0.02,-0l-1.08 -0.34c-0.03,-0.01 -0.04,-0.04 -0.04,-0.06 0,-0.03 0.03,-0.05 0.06,-0.05l2.17 0c0.03,0 0.05,0.02 0.06,0.05 0,0.03 -0.01,0.05 -0.04,0.06l-1.08 0.34c-0,0 -0.01,0 -0.02,0l-0 0zm-0.71 -0.35l0 0 0.71 0.23 0.71 -0.23 -1.43 0z"/>
    <path class="fil1" d="M2.92 1.56c0,0.05 -0.06,0.08 -0.14,0.08l-0.09 0c-0.08,0 -0.14,-0.04 -0.14,-0.08l0 -0.23c0,-0.05 0.06,-0.08 0.14,-0.08l0.09 0c0.08,0 0.14,0.04 0.14,0.08l0 0.23z"/>
   </g>
   <g>
    <path class="fil0" d="M4.9 3.66c0,1.19 -0.96,2.15 -2.15,2.15 -1.19,0 -2.15,-0.96 -2.15,-2.15 0,-1.19 0.96,-2.15 2.15,-2.15 1.19,0 2.15,0.96 2.15,2.15z"/>
    <path class="fil1" d="M4.65 3.66c0,1.05 -0.85,1.9 -1.9,1.9 -1.05,0 -1.9,-0.85 -1.9,-1.9 0,-1.05 0.85,-1.9 1.9,-1.9 1.05,0 1.9,0.85 1.9,1.9z"/>
    <g id="_1494215111440">
     <path class="fil2" d="M1.8 2.68c-0.24,0.19 -0.39,0.43 -0.46,0.69 -0.08,0.31 -0.07,0.49 0.03,0.79 0.09,0.25 0.24,0.48 0.46,0.64 0.13,0.1 0.21,0.14 0.38,0.19 0.08,0.02 0.13,0.04 0.22,0.05 0.08,0.01 0.16,0 0.24,0.03 0,0 0,0 0,0.01 -0.08,0.04 -0.17,0.02 -0.25,0.01 -0.1,-0.01 -0.14,-0.02 -0.23,-0.05 -0.17,-0.05 -0.25,-0.09 -0.39,-0.2 -0.23,-0.17 -0.39,-0.41 -0.47,-0.67 -0.1,-0.31 -0.11,-0.5 -0.02,-0.81 0.08,-0.27 0.23,-0.51 0.48,-0.69 0,0 0,0 0,0l0 0z"/>
     <path class="fil2" d="M1.89 4.81c0.04,0.07 0.1,0.09 0.15,0.08 0.05,-0.01 0.07,-0.04 0.03,-0.1 -0.05,-0.06 -0.21,-0.25 -0.21,-0.25 0,0 -0.02,0.2 0.02,0.27l0 0z"/>
     <path class="fil2" d="M1.61 4.56c0.02,0.08 0.06,0.11 0.11,0.11 0.05,0.01 0.07,-0.01 0.05,-0.08 -0.02,-0.07 -0.11,-0.28 -0.11,-0.28 0,0 -0.07,0.18 -0.05,0.25l-0 0z"/>
     <path class="fil2" d="M1.43 4.25c-0.01,0.07 0.03,0.11 0.07,0.13 0.04,0.02 0.07,0.01 0.07,-0.06 0,-0.07 -0.03,-0.28 -0.03,-0.28 0,0 -0.1,0.14 -0.11,0.21z"/>
     <path class="fil2" d="M1.33 3.93c-0.02,0.06 0,0.11 0.03,0.13 0.03,0.03 0.06,0.03 0.08,-0.04 0.02,-0.06 0.03,-0.26 0.03,-0.26 0,0 -0.12,0.1 -0.14,0.17l-0 0z"/>
     <path class="fil2" d="M1.32 3.63c-0.03,0.05 -0.02,0.1 0,0.13 0.02,0.03 0.05,0.04 0.08,-0.02 0.03,-0.05 0.08,-0.23 0.08,-0.23 0,0 -0.13,0.07 -0.16,0.12l0 0z"/>
     <path class="fil2" d="M1.37 3.35c-0.04,0.04 -0.04,0.08 -0.02,0.12 0.01,0.03 0.04,0.04 0.07,0 0.04,-0.04 0.12,-0.2 0.12,-0.2 0,0 -0.13,0.04 -0.17,0.08l0 0z"/>
     <path class="fil2" d="M1.46 3.1c-0.04,0.03 -0.05,0.07 -0.04,0.1 0.01,0.03 0.03,0.05 0.06,0.02 0.04,-0.03 0.15,-0.16 0.15,-0.16 0,0 -0.13,0.01 -0.17,0.04l-0 -0z"/>
     <path class="fil2" d="M1.6 2.9c-0.05,0.02 -0.06,0.05 -0.06,0.08 0,0.03 0.01,0.05 0.06,0.02 0.04,-0.02 0.17,-0.12 0.17,-0.12 0,0 -0.12,-0.01 -0.16,0.01l0 0z"/>
     <path class="fil2" d="M1.77 2.74c-0.05,0.01 -0.06,0.04 -0.07,0.06 -0.01,0.03 0,0.04 0.05,0.03 0.04,-0.01 0.18,-0.08 0.18,-0.08 0,0 -0.11,-0.02 -0.15,-0.01l-0 -0z"/>
     <path class="fil2" d="M2.27 4.97c0.07,0.06 0.14,0.05 0.19,0.03 0.05,-0.03 0.06,-0.06 -0.01,-0.11 -0.07,-0.05 -0.3,-0.17 -0.3,-0.17 0,0 0.05,0.19 0.12,0.25l0 0z"/>
     <path class="fil2" d="M1.83 4.9c0.09,0.01 0.13,0.05 0.16,0.1 0.03,0.05 0.03,0.09 -0.07,0.08 -0.1,-0.01 -0.4,-0.17 -0.4,-0.17 0,0 0.22,-0.02 0.31,-0.01l0 0z"/>
     <path class="fil2" d="M1.53 4.62c0.07,0.04 0.1,0.08 0.11,0.13 0.01,0.05 -0,0.09 -0.08,0.05 -0.08,-0.03 -0.3,-0.26 -0.3,-0.26 0,0 0.2,0.04 0.27,0.07l0 -0z"/>
     <path class="fil2" d="M1.34 4.29c0.06,0.05 0.07,0.1 0.06,0.15 -0,0.05 -0.02,0.08 -0.09,0.03 -0.06,-0.05 -0.2,-0.3 -0.2,-0.3 0,0 0.17,0.08 0.23,0.13l0 0z"/>
     <path class="fil2" d="M1.25 3.95c0.04,0.06 0.04,0.1 0.03,0.15 -0.01,0.04 -0.04,0.06 -0.09,0 -0.05,-0.06 -0.12,-0.32 -0.12,-0.32 0,0 0.14,0.11 0.18,0.17l-0 0z"/>
     <path class="fil2" d="M1.24 3.62c0.02,0.06 0.01,0.1 -0.01,0.14 -0.02,0.03 -0.05,0.05 -0.08,-0.02 -0.03,-0.06 -0.04,-0.31 -0.04,-0.31 0,0 0.1,0.13 0.13,0.19l-0 -0z"/>
     <path class="fil2" d="M1.29 3.32c0.01,0.06 -0.01,0.1 -0.03,0.12 -0.03,0.03 -0.05,0.03 -0.07,-0.03 -0.01,-0.06 0.02,-0.29 0.02,-0.29 0,0 0.07,0.14 0.08,0.2l0 0z"/>
     <path class="fil2" d="M1.4 3.07c-0,0.06 -0.02,0.08 -0.05,0.1 -0.03,0.02 -0.05,0.02 -0.05,-0.04 0,-0.06 0.08,-0.25 0.08,-0.25 0,0 0.03,0.13 0.03,0.19z"/>
     <path class="fil2" d="M1.55 2.85c-0.01,0.05 -0.04,0.07 -0.07,0.08 -0.03,0.01 -0.05,0.01 -0.04,-0.05 0.01,-0.05 0.12,-0.21 0.12,-0.21 0,0 0,0.12 -0.01,0.17z"/>
     <path class="fil2" d="M1.72 2.69c-0.02,0.04 -0.05,0.06 -0.08,0.06 -0.03,0.01 -0.05,-0 -0.03,-0.05 0.02,-0.04 0.15,-0.17 0.15,-0.17 0,0 -0.02,0.11 -0.04,0.15z"/>
     <path class="fil2" d="M2.24 5.09c0.1,-0.02 0.16,0.01 0.21,0.04 0.05,0.03 0.06,0.07 -0.04,0.1 -0.11,0.03 -0.47,-0.04 -0.47,-0.04 0,0 0.21,-0.09 0.31,-0.1l-0 0z"/>
     <path class="fil2" d="M1.89 2.57c-0.05,0.03 -0.06,0.05 -0.05,0.07 0.01,0.02 0.03,0.02 0.08,-0.01 0.05,-0.03 0.19,-0.13 0.19,-0.13 0,0 -0.17,0.04 -0.22,0.07z"/>
     <path class="fil2" d="M3.7 2.69c0.24,0.19 0.39,0.43 0.46,0.69 0.08,0.31 0.07,0.49 -0.03,0.79 -0.09,0.25 -0.24,0.48 -0.46,0.64 -0.13,0.1 -0.21,0.14 -0.38,0.19 -0.08,0.03 -0.13,0.03 -0.22,0.05 -0.08,0.01 -0.16,0 -0.24,0.03 0,0 0,0 0,0.01 0.08,0.04 0.17,0.02 0.25,0.01 0.1,-0.01 0.14,-0.02 0.23,-0.05 0.17,-0.05 0.25,-0.09 0.39,-0.2 0.23,-0.17 0.39,-0.41 0.47,-0.67 0.1,-0.32 0.11,-0.5 0.02,-0.81 -0.08,-0.26 -0.23,-0.51 -0.48,-0.69 -0,0 -0,0 -0,0l-0 0z"/>
     <path class="fil2" d="M3.6 4.82c-0.04,0.07 -0.1,0.09 -0.15,0.08 -0.05,-0.01 -0.07,-0.04 -0.03,-0.1 0.05,-0.07 0.21,-0.25 0.21,-0.25 0,0 0.02,0.2 -0.02,0.27l-0 -0z"/>
     <path class="fil2" d="M3.89 4.57c-0.01,0.08 -0.06,0.11 -0.11,0.11 -0.05,0.01 -0.07,-0.01 -0.05,-0.08 0.02,-0.07 0.11,-0.28 0.11,-0.28 0,0 0.07,0.17 0.05,0.25l0 0z"/>
     <path class="fil2" d="M4.07 4.27c0,0.07 -0.03,0.11 -0.07,0.13 -0.04,0.02 -0.07,0.01 -0.07,-0.06 -0,-0.07 0.03,-0.28 0.03,-0.28 0,0 0.1,0.14 0.11,0.21l0 0z"/>
     <path class="fil2" d="M4.16 3.95c0.02,0.06 -0,0.11 -0.03,0.13 -0.03,0.03 -0.06,0.02 -0.08,-0.04 -0.02,-0.06 -0.03,-0.26 -0.03,-0.26 0,0 0.12,0.1 0.14,0.17l0 -0z"/>
     <path class="fil2" d="M4.18 3.64c0.03,0.05 0.02,0.1 -0,0.13 -0.02,0.03 -0.05,0.04 -0.08,-0.02 -0.03,-0.05 -0.09,-0.23 -0.09,-0.23 0,0 0.13,0.07 0.16,0.12l0 0z"/>
     <path class="fil2" d="M4.13 3.36c0.04,0.04 0.04,0.08 0.02,0.12 -0.01,0.03 -0.04,0.04 -0.07,0 -0.04,-0.04 -0.12,-0.2 -0.12,-0.2 0,0 0.13,0.04 0.17,0.08l-0 0z"/>
     <path class="fil2" d="M4.03 3.12c0.04,0.03 0.05,0.07 0.04,0.1 -0.01,0.03 -0.02,0.05 -0.07,0.02 -0.04,-0.03 -0.15,-0.16 -0.15,-0.16 0,0 0.13,0.01 0.17,0.04l-0 -0z"/>
     <path class="fil2" d="M3.9 2.91c0.05,0.02 0.06,0.05 0.06,0.08 0,0.03 -0.01,0.05 -0.06,0.03 -0.04,-0.02 -0.17,-0.12 -0.17,-0.12 0,0 0.12,-0.01 0.16,0.01l-0 0z"/>
     <path class="fil2" d="M3.73 2.75c0.04,0.01 0.06,0.04 0.07,0.06 0.01,0.03 -0,0.04 -0.05,0.03 -0.04,-0.01 -0.18,-0.08 -0.18,-0.08 0,0 0.11,-0.02 0.15,-0.01l0 0z"/>
     <path class="fil2" d="M3.22 4.98c-0.07,0.06 -0.14,0.05 -0.19,0.03 -0.05,-0.03 -0.06,-0.06 0.01,-0.11 0.07,-0.05 0.3,-0.17 0.3,-0.17 0,0 -0.05,0.19 -0.12,0.25l0 0z"/>
     <path class="fil2" d="M3.66 4.92c-0.09,0.01 -0.13,0.05 -0.16,0.1 -0.03,0.05 -0.03,0.09 0.07,0.08 0.1,-0.01 0.4,-0.17 0.4,-0.17 0,0 -0.22,-0.02 -0.31,-0.01l0 0z"/>
     <path class="fil2" d="M3.96 4.63c-0.07,0.04 -0.1,0.08 -0.11,0.13 -0.01,0.05 0,0.09 0.08,0.05 0.08,-0.03 0.3,-0.26 0.3,-0.26 0,0 -0.2,0.04 -0.27,0.07l0 -0z"/>
     <path class="fil2" d="M4.15 4.3c-0.06,0.05 -0.07,0.1 -0.07,0.14 0,0.05 0.03,0.08 0.09,0.03 0.06,-0.05 0.2,-0.3 0.2,-0.3 0,0 -0.17,0.08 -0.23,0.13l-0 0z"/>
     <path class="fil2" d="M4.25 3.96c-0.04,0.06 -0.04,0.1 -0.03,0.15 0.01,0.04 0.04,0.06 0.09,0 0.05,-0.06 0.12,-0.32 0.12,-0.32 0,0 -0.14,0.11 -0.18,0.17l-0 0z"/>
     <path class="fil2" d="M4.26 3.63c-0.02,0.06 -0.02,0.1 0.01,0.14 0.02,0.03 0.05,0.05 0.08,-0.02 0.03,-0.06 0.04,-0.31 0.04,-0.31 0,0 -0.1,0.13 -0.13,0.19l0 0z"/>
     <path class="fil2" d="M4.21 3.34c-0.01,0.06 0.01,0.1 0.03,0.12 0.03,0.03 0.05,0.03 0.07,-0.03 0.01,-0.06 -0.02,-0.29 -0.02,-0.29 0,0 -0.07,0.14 -0.08,0.2l0 0z"/>
     <path class="fil2" d="M4.1 3.08c0,0.06 0.03,0.09 0.05,0.1 0.03,0.02 0.05,0.02 0.05,-0.04 0,-0.06 -0.08,-0.25 -0.08,-0.25 0,0 -0.03,0.13 -0.03,0.19l0 0z"/>
     <path class="fil2" d="M3.95 2.87c0.01,0.05 0.04,0.07 0.07,0.08 0.03,0.01 0.05,0.01 0.04,-0.05 -0.01,-0.05 -0.12,-0.21 -0.12,-0.21 0,0 -0,0.12 0.01,0.17l-0 0z"/>
     <path class="fil2" d="M3.78 2.7c0.02,0.04 0.05,0.06 0.08,0.06 0.03,0.01 0.05,-0 0.03,-0.05 -0.02,-0.04 -0.14,-0.17 -0.14,-0.17 0,0 0.02,0.11 0.04,0.15l0 -0z"/>
     <path class="fil2" d="M3.26 5.11c-0.1,-0.02 -0.16,0.01 -0.21,0.04 -0.05,0.04 -0.06,0.07 0.04,0.1 0.11,0.03 0.47,-0.04 0.47,-0.04 0,0 -0.21,-0.09 -0.31,-0.1l0 0z"/>
     <path class="fil2" d="M3.61 2.58c0.05,0.03 0.06,0.05 0.05,0.07 -0.01,0.02 -0.03,0.02 -0.08,-0.01 -0.05,-0.03 -0.19,-0.13 -0.19,-0.13 0,0 0.17,0.04 0.22,0.07l0 0z"/>
     <path class="fil2" d="M2.98 5.1c0,0.13 -0.11,0.24 -0.24,0.24 -0.13,0 -0.24,-0.11 -0.24,-0.24 0,-0.13 0.11,-0.24 0.24,-0.24 0.13,0 0.24,0.11 0.24,0.24z"/>
    </g>
    <path class="fil2" d="M3.8 3.66c0,0.58 -0.47,1.06 -1.06,1.06 -0.58,0 -1.06,-0.47 -1.06,-1.06 0,-0.58 0.47,-1.06 1.06,-1.06 0.58,0 1.06,0.47 1.06,1.06z"/>
   </g>
   <g>
    <polygon class="fil3" points="5.68,0.01 4.33,0.01 2.29,1.13 3.64,1.13 "/>
    <path class="fil2" d="M2.72 1.16c-0.01,0 -0.02,-0.01 -0.03,-0.01 -0.01,-0.01 -0,-0.03 0.01,-0.04l1.97 -1.09c0.01,-0.01 0.03,-0 0.04,0.01 0.01,0.02 0,0.03 -0.01,0.04l-1.97 1.09c-0,0 -0.01,0 -0.01,0l0 -0z"/>
    <path class="fil2" d="M3.17 1.16c-0.01,0 -0.02,-0.01 -0.03,-0.02 -0.01,-0.01 -0,-0.03 0.01,-0.04l1.97 -1.1c0.01,-0.01 0.03,-0 0.04,0.01 0.01,0.01 0,0.03 -0.01,0.04l-1.97 1.1c-0.01,0 -0.01,0 -0.02,0l0 -0z"/>
    <polygon class="fil3" points="3.39,1.14 2.04,1.14 -0,0.02 1.35,0.02 "/>
   </g>
  </g>
  <path class="fil4" d="M2.29 3.95l0.26 -0.03c0.01,0.07 0.03,0.12 0.07,0.15 0.04,0.04 0.08,0.05 0.13,0.05 0.06,0 0.1,-0.02 0.14,-0.06 0.04,-0.04 0.06,-0.1 0.06,-0.17 0,-0.07 -0.02,-0.12 -0.05,-0.16 -0.04,-0.04 -0.08,-0.06 -0.13,-0.06 -0.03,0 -0.08,0.01 -0.12,0.02l0.03 -0.22c0.07,0 0.13,-0.01 0.17,-0.05 0.04,-0.03 0.06,-0.08 0.06,-0.13 0,-0.05 -0.01,-0.09 -0.04,-0.11 -0.03,-0.03 -0.07,-0.04 -0.11,-0.04 -0.05,0 -0.09,0.02 -0.12,0.05 -0.03,0.03 -0.05,0.08 -0.06,0.14l-0.25 -0.04c0.02,-0.09 0.04,-0.15 0.08,-0.21 0.03,-0.05 0.08,-0.09 0.15,-0.12 0.06,-0.03 0.13,-0.04 0.21,-0.04 0.13,0 0.24,0.04 0.32,0.13 0.07,0.07 0.1,0.15 0.1,0.24 0,0.12 -0.07,0.22 -0.2,0.3 0.08,0.02 0.15,0.06 0.19,0.12 0.05,0.06 0.07,0.13 0.07,0.22 0,0.12 -0.05,0.23 -0.14,0.32 -0.09,0.09 -0.2,0.13 -0.34,0.13 -0.13,0 -0.23,-0.04 -0.32,-0.11 -0.08,-0.07 -0.13,-0.17 -0.15,-0.29z"/>
 </g>
</svg>
