<?xml version="1.0" encoding="UTF-8"?>
<!DOCTYPE svg PUBLIC "-//W3C//DTD SVG 1.1//EN" "http://www.w3.org/Graphics/SVG/1.1/DTD/svg11.dtd">
<!-- Creator: CorelDRAW 2020 (64-Bit) -->
<svg xmlns="http://www.w3.org/2000/svg" xml:space="preserve" width="9.63412in" height="3.94099in" version="1.1" style="shape-rendering:geometricPrecision; text-rendering:geometricPrecision; image-rendering:optimizeQuality; fill-rule:evenodd; clip-rule:evenodd"
viewBox="0 0 9617.58 3934.22"
 xmlns:xlink="http://www.w3.org/1999/xlink"
 xmlns:xodm="http://www.corel.com/coreldraw/odm/2003">
 <defs>
  <style type="text/css">
   <![CDATA[
    .fil0 {fill:url(#id0)}
   ]]>
  </style>
  <radialGradient id="id0" gradientUnits="userSpaceOnUse" gradientTransform="matrix(-1.3507 -0.355974 -0.948154 0.53895 10344 2153)" cx="3654.68" cy="1849.08" r="5407.37" fx="3654.68" fy="1849.08">
   <stop offset="0" style="stop-opacity:1; stop-color:#D9142E"/>
   <stop offset="0.619608" style="stop-opacity:1; stop-color:#AF0B1D"/>
   <stop offset="1" style="stop-opacity:1; stop-color:#85020D"/>
  </radialGradient>
 </defs>
 <g id="Layer_x0020_1">
  <metadata id="CorelCorpID_0Corel-Layer"/>
  <path class="fil0" d="M9458.38 2171.87l10.03 2.36c-9.07,14.94 -12.12,15.01 -14.48,14.1 2.43,-4.77 4.17,-10 4.46,-16.46zm-18.29 39.01c9.44,11.12 16.7,21 22.56,29.78 -9.49,-3.91 -18.48,-9.96 -26.56,-19.37 1.04,-3.85 2.42,-7.26 4,-10.4zm-1.56 -142.43c14.05,3.24 31.52,9.77 50.38,12.88 0,-1.21 -0.04,-2.39 -0.08,-3.57 4.78,1.38 9.72,2.63 14.77,3.57 0,-59.12 -54.52,-84.46 18.17,-143.58 -7.46,-152.62 15.69,-151.4 -36.21,-150.77 -4.89,-0.15 -10.8,-0.06 -17.95,0.01 -6.5,-0.1 -13.79,-0.35 -21.96,-0.87 3.67,-45.28 26.74,-41.83 26.74,-88.48 0,-59.13 -18.15,-8.45 -18.15,-50.68 -9.07,-25.34 9.07,-25.34 18.15,-50.68 -18.15,-25.34 -36.3,-33.78 -45.37,-59.12 18.15,-25.34 45.37,-16.89 45.37,-76.01 0,-16.89 -45.37,-59.12 -36.3,-84.46l18.15 -42.23c27.22,-160.47 45.37,-118.24 63.52,-194.26 9.07,-33.78 63.52,-92.9 36.3,-126.69 -27.22,-33.78 -18.15,16.89 -54.45,-33.78 0,-8.45 -45.37,-50.68 -18.15,-67.57 27.22,-8.45 81.67,16.89 117.97,-8.45 43.38,-64.59 -70.82,-52 -120.6,-50.76 31.06,-46.24 42.01,-63.35 46.55,-68.92 1.19,-0.27 2.57,-0.69 4.2,-1.33 2.1,2.36 6.8,6.12 37.6,-18.94 -5.8,-118.74 -48.72,-134 -105.02,-131.76 -5.58,-0.24 -11.31,-0.24 -17.18,-0.09 -7.04,-14.2 -12.24,-26.06 -8.91,-32.25l18.15 -42.23c0.62,-3.67 1.24,-7.23 1.86,-10.69 20.9,7.59 15.44,15.17 43.08,22.76 0.88,-1.45 1.74,-2.86 2.59,-4.22 2.86,1.41 6.39,2.81 10.93,4.22 14.9,-27.7 23.68,-38.37 21.36,-69.24l-10.76 0 -32.79 0 -16.37 0c-2.59,3.43 -5.24,6.95 -11.15,10.88 22.52,-106.25 38.66,-80.38 54.8,-147.97 9.07,-33.79 63.52,-92.91 36.3,-126.69 -27.22,-33.78 -9.08,16.89 -54.45,-33.78 -9.07,-25.34 0,-16.89 -18.15,-33.78 -9.07,-8.45 -9.07,0 -18.15,-8.45 -18.15,-16.89 0,8.45 -9.07,-16.89 81.67,-16.89 53.53,-31.74 89.83,-48.63 9.07,-76.01 -78.25,-18.94 -150.84,-18.94 -29.68,0 -51.98,-26.93 -73.8,-26.93 -24.88,0 -49.14,26.93 -82.99,26.93l-27.22 -42.23c-108.9,-8.45 -290.39,16.89 -408.36,16.89 -36.3,0 -72.6,-8.45 -108.9,0 -27.22,8.45 -36.3,16.89 -72.6,25.34 -63.52,8.45 -136.12,0 -208.72,8.45 -54.45,0 -117.97,8.44 -181.5,16.89 -81.67,8.44 -217.79,-8.45 -299.47,-16.89 -54.45,-16.89 -18.15,8.44 -63.52,8.44 -27.22,8.45 -27.22,-8.44 -90.75,-8.44 -45.37,0 -45.37,0 -72.6,-25.34l-81.67 16.89c-54.45,8.45 -18.15,-16.89 -81.67,-8.45 -36.3,8.45 -63.53,0 -90.75,8.45l-63.52 42.23 -9.07 -42.23c-9.07,-8.45 -9.07,-8.45 -27.22,-16.89 -36.3,-8.45 -45.37,8.45 -63.52,25.34 -90.75,-25.34 -108.9,8.44 -199.64,0 -27.22,-67.57 -36.3,-67.57 -127.05,-67.57 -190.57,0 -390.22,0 -571.71,16.89l-18.15 42.23c-27.22,0 -72.6,-16.89 -90.75,-16.89 -36.3,0 -27.22,25.34 -72.6,25.34 -36.3,8.44 -54.45,8.44 -81.67,8.44 -54.45,-8.44 -54.45,0 -81.67,0 -27.22,8.45 -45.37,-8.44 -90.75,-8.44l-263.17 0c-90.75,-8.45 -190.57,-8.45 -281.32,-25.34 -45.37,-8.45 -27.23,-25.34 -72.6,-8.45 -54.45,25.34 -45.37,59.12 -136.12,59.12 -317.62,-8.44 -145.2,-42.23 -254.09,-50.67 -99.82,-16.89 -217.79,0 -317.62,0l-36.3 -42.23c-136.12,0 -281.32,16.89 -408.36,16.89 -36.3,0 -72.6,-8.45 -108.9,0 -27.22,8.45 -27.22,16.89 -72.6,25.34 -63.52,0 -136.12,0 -199.64,8.45 -63.52,0 -127.05,8.45 -190.57,16.89 -90.75,0 -208.72,-8.45 -290.39,-25.34 -54.45,0 -27.22,25.34 -72.6,16.89 -36.3,0 -18.15,-8.45 -90.75,-8.45 -45.38,0 -45.38,-8.45 -72.6,-25.34 -81.67,42.23 -99.82,-8.45 -154.27,8.45 -36.3,8.45 -36.3,8.45 -63.52,0 -27.22,0 -72.6,33.78 -90.75,50.68 0,0 0,0 0,-8.45l-18.15 -42.23c-54.45,-16.89 -45.37,-16.89 -81.67,16.89 -108.9,-25.34 -108.9,8.45 -199.64,-8.45 -36.3,-59.12 -18.15,-59.12 -127.05,-59.12 -181.49,0 -408.36,0 -580.78,16.89 0,16.89 0,16.89 -9.07,25.34 0,16.89 0,8.45 -9.07,16.89 -9.07,0 -45.37,-8.45 -54.45,-16.89 -72.6,-8.45 -36.3,25.34 -117.97,25.34l-163.35 8.45c-45.37,0 -45.37,-8.45 -117.97,-8.45 -54.45,8.45 -72.6,8.45 -117.97,0 -27.22,-8.45 -54.45,8.45 -99.82,0 -81.67,-8.45 -163.35,-16.89 -245.02,-25.34 -63.52,-8.45 -72.6,-25.34 -117.97,-8.45 -27.22,16.89 -36.3,42.23 -81.67,50.68 -72.6,16.89 -208.72,-25.34 -263.17,8.44 -36.3,16.89 -81.67,109.8 -127.05,135.14 -36.3,25.34 -45.37,33.78 -72.6,59.12 -45.37,50.68 -63.52,16.89 -90.75,42.23 -45.37,33.79 18.15,160.47 54.45,185.81l28.52 -3.54c4.94,8.23 11.27,18.57 18.76,32.5l-18.17 50.67c-1.79,7.49 -3.49,14.16 -5.13,20.15 -13.83,-6.92 -7.03,-7.44 -23.98,-15.33 -18.15,-16.89 9.07,-8.45 -18.15,-16.89 -18.15,33.78 -27.22,76.01 -18.15,118.25 14.68,-5.46 23.65,-10.93 30,-16.39 -5.35,9.26 -11.52,20.47 -19.1,36.91 -18.17,33.78 0,16.89 -18.17,50.67 -99.94,152.03 -18.17,33.79 -90.86,92.91 4.88,99.77 35.96,126.48 79.17,131.14l0.81 0.37c13.89,2.59 15.87,2 13.49,0.44 1.83,0.02 3.69,0.01 5.55,-0.02 16.95,7.75 8.49,-0.13 26.32,16.48 18.15,16.89 0,8.45 27.22,16.89l19.84 12.31c-9.98,7.81 -19.92,15.15 -27.05,25.09 -27.26,16.89 -18.17,25.34 -45.43,16.89 -27.26,-8.45 -18.17,-16.89 -45.43,-25.34 -18.17,33.78 -27.26,42.23 -18.17,92.9 14.84,-3.94 24.24,-7.42 30.39,-10.66 0.44,11.04 2.87,23.02 6.35,35.31 -0.14,0.23 -0.28,0.46 -0.4,0.69l0.6 -0c10.03,35.01 28.49,72.43 33.92,97.73 2.99,25.04 2.04,48.26 -0.26,70.54 -24.71,-7.79 -16.81,-7.57 -43.35,0.65l18.17 -42.23 -54.52 -25.34c0,25.34 9.08,42.23 0,67.56 -9.09,25.34 0,8.45 -27.26,33.79 9.08,8.44 0,0 18.17,8.44 18.17,0 9.09,0 27.26,0 27.26,16.89 9.09,8.45 27.26,16.89 7.28,6.77 16.03,10.82 25.06,13.8 -1.45,15.5 -2.06,31.06 -0.83,47.01 -9.59,-3.53 -20.76,-7.8 -33.31,-10.14 9.08,50.68 27.26,8.45 18.17,59.12 0,42.23 -18.17,42.23 -36.35,59.12 0,33.78 -18.17,92.91 9.09,109.8 12.33,5.73 26.75,6.59 41.85,6.9 0.92,7.75 1.77,15.51 1.77,23.26 -9.07,42.23 -18.15,16.89 -36.3,50.68 9.07,8.45 0,0 18.15,8.45 54.45,8.45 45.37,33.78 81.67,42.23 3.9,0 7.8,0 12.42,0.67 6.14,14.41 14.48,27.96 23.72,39.85 -7.02,25.25 -36.96,8.32 -72.44,1.71 9.07,59.12 54.45,84.46 -18.15,143.58 0,67.57 -36.3,143.58 45.37,152.03 6.08,0 12.62,0.42 19.41,1.27 -4.09,43.53 -26.62,40.74 -26.62,86.82 0,59.12 18.17,8.45 18.17,50.67 9.09,25.34 -9.09,25.34 -18.17,50.68 18.17,33.78 27.26,33.78 45.43,59.12 -18.17,25.34 -45.43,16.89 -45.43,76.01 9.08,25.34 27.26,42.23 36.34,76.01l-18.17 50.68c-9.09,42.23 -18.17,109.8 -45.43,143.58 -18.17,25.34 -72.69,152.03 -54.51,177.37 9.08,16.89 18.17,-8.45 63.6,50.67 9.08,16.89 36.34,25.34 9.08,50.68 -27.25,8.45 -81.77,-16.89 -118.11,8.45 -45.43,67.56 81.77,50.68 127.2,50.68l0 8.45c36.34,109.8 109.03,84.46 90.86,126.69 -54.52,-16.89 0,-33.78 -54.52,-25.34 -27.26,0 -27.26,16.89 -36.34,33.78 0,42.23 18.17,59.12 36.34,101.35 -18.17,42.23 0,0 -18.17,16.89 -9.09,16.89 -9.09,59.12 -9.09,84.46 -9.08,33.79 58.77,29.1 40.6,54.44 -27.26,42.23 -72.69,143.58 -63.6,185.81 45.43,25.34 18.17,-25.34 63.6,33.78 9.09,16.89 0,8.45 18.17,25.34 27.26,25.33 0,-16.89 27.26,33.78 -54.51,8.45 14.95,31.68 -39.56,57.02 -4.58,38.3 30.23,23.21 61.41,39.77 30.69,16.31 19.04,5.4 55.09,5.4 37.16,5.92 66.11,-42.69 141.12,-34.63 54.51,59.12 27.26,33.78 172.62,25.34 90.86,0 268.32,38.47 331.92,13.13 45.43,-8.45 154.45,-8.45 208.97,-8.45 40.1,-2.48 96.11,32.04 145.54,28.35 118.6,-8.84 245.15,-54.68 354.16,-36.79 81.77,16.9 27.26,0 72.69,-8.45 27.26,-8.45 36.34,16.89 90.85,8.45 54.52,0 45.43,0 81.77,25.34l72.69 -16.9c54.52,-8.45 27.26,16.9 99.94,8.45l9.08 25.34 18.17 -33.79c45.43,8.45 54.51,16.9 118.11,-42.23l18.17 50.68c54.51,16.89 45.43,16.89 81.77,-16.9 45.43,16.9 18.17,16.9 81.77,8.45 36.34,0 72.69,-8.45 109.03,-8.45 9.08,8.45 0,8.45 9.08,25.34 9.09,0 9.09,8.44 9.09,16.89 18.17,16.89 0,8.45 27.26,16.89 63.6,33.78 608.74,0 672.34,-8.44l18.17 -42.23c99.94,33.79 90.86,16.9 118.12,0 36.34,-16.89 90.86,-8.45 136.29,-8.45 36.34,0 45.43,-8.45 63.6,-8.45 27.26,-8.45 27.26,0 54.51,8.45 63.6,8.45 127.2,-8.45 208.97,0 36.34,8.45 9.09,0 45.43,0 81.77,-8.45 381.6,42.23 381.6,42.23 54.51,-25.34 72.69,-59.13 145.37,-59.13 36.35,-8.44 154.46,0 199.89,8.45 27.26,16.89 9.08,33.79 54.51,33.79 81.77,16.89 245.31,0 327.08,8.44 63.6,59.12 18.17,33.78 172.63,25.34 81.77,0 354.34,0 408.85,-25.34 45.43,-16.89 145.37,-8.44 208.97,-8.44 163.54,-8.45 227.14,-25.34 399.77,-16.9 236.23,16.9 109.03,16.9 172.63,0 27.26,-8.45 36.34,16.9 90.86,8.45 54.51,0 45.43,0 81.77,25.34 154.45,-33.79 90.86,8.45 172.62,-8.45 45.43,-16.89 9.09,-8.44 45.43,-8.44 36.34,8.44 63.6,-8.45 99.94,-42.23l18.17 50.68c54.52,16.9 54.52,16.9 81.77,-16.89 99.94,33.78 63.6,0 190.8,8.45 18.17,16.89 18.17,42.23 45.43,50.67 13.93,7.4 110.47,2.73 162.34,-20.43 55.56,-24.8 68.38,-68.54 139.3,-70.51 37.32,-1.03 46.71,64.9 95.62,76.53 42.99,10.21 51.68,-52.87 97.41,-52.68 66.98,0.27 165.95,60.2 177.67,58.65l18.17 -42.23c27.26,8.44 81.77,25.34 109.03,8.44 27.26,-16.89 0,-16.89 54.51,-16.89l172.63 -8.45c63.6,8.45 54.51,8.45 127.2,8.45 72.69,0 45.43,-8.45 109.03,0 36.35,8.45 27.26,0 63.6,0 99.94,-8.45 145.16,-1.93 245.1,14.96 45.43,8.45 45.43,33.78 99.94,0 27.26,-16.89 45.43,-33.78 90.86,-42.23 63.6,-8.45 199.88,25.34 254.4,0 36.34,-25.34 72.68,-118.24 118.11,-143.58 36.34,-25.34 45.43,-25.34 72.69,-59.12 45.43,-50.68 27.26,-16.89 90.86,-33.78 27.26,-33.78 27.26,-25.34 9.09,-76.01 -63.6,-177.36 -27.26,-101.35 -190.8,-109.8 0,-33.78 72.89,-31.85 100.15,-57.19 18.17,-8.45 36.34,-42.23 54.52,-42.23 45.43,-8.45 0,25.33 54.51,33.78 18.17,-42.23 18.17,-50.68 27.26,-92.9 0,-25.34 36.34,-67.57 0,-84.46 -18.17,33.78 -9.09,84.46 -72.69,101.35 -27.26,-42.23 9.09,-42.23 27.26,-76.01 -54.51,8.45 -27.26,16.89 -81.77,-8.45 -9.09,-33.78 9.09,-67.57 18.17,-101.35 18.17,-76.01 9.09,-50.68 0,-118.25 -36.34,-25.34 -27.26,8.45 -36.34,-33.78 27.26,-16.89 54.51,-8.44 90.86,8.45 -18.17,25.34 0,0 -18.17,16.89l-9.08 16.89c9.08,16.89 18.17,16.89 27.26,33.78 9.08,25.34 9.08,59.12 45.43,67.57 9.09,-33.78 0,-59.12 9.09,-92.91 9.08,-33.78 27.26,-16.89 27.26,-50.68 -45.43,0 -27.26,16.89 -63.6,-16.89 0,0 -9.09,-8.45 -9.09,-8.45l-9.08 -8.44c-9.09,0 -18.17,-8.45 -27.26,-8.45l-9.09 -8.45c18.17,-25.34 9.09,-25.34 45.43,-42.23 45.43,-8.45 45.43,0 63.6,-25.34 18.17,-33.78 -27.26,-118.25 -36.35,-160.47 -2.83,-23.72 -2.13,-45.8 -0.09,-67 12.03,3.88 10.86,2.49 32.39,-4.19l-18.15 42.23 45.37 25.34c9.07,-25.34 0,-33.78 0,-59.12 9.07,-42.23 9.07,-16.89 36.3,-42.23 0,0 -9.07,0 -9.07,0l-78.09 -31.15c1.84,-16.59 2.9,-33.18 1.97,-50.18 6.66,1.93 13.9,3.87 21.67,5.32 -9.08,-59.12 -63.52,-42.23 18.15,-118.24 0,-50.68 9.08,-84.46 -9.07,-109.8 -9.19,-4.28 -19.54,-5.84 -30.46,-6.49 -0.94,-7.89 -1.82,-15.78 -1.82,-23.67 9.09,-42.23 18.17,-16.89 36.34,-50.68 -9.08,-8.45 0,0 -18.17,-8.45l-45.43 -25.34c-24.23,-15.02 -41.28,-16.68 -63.92,-22.8 -1.14,-2 -2.33,-4.04 -3.59,-6.16l-6.32 -8.82c-1.23,-20.61 2.1,-30.46 8.76,-34.22zm-9281.66 -1075.85c17.04,-1.42 34.57,-2.28 52.1,-0.8 -0.94,4.35 -2.17,8.34 -3.63,12.03 -16.15,-0.34 -33.14,-6.03 -48.46,-11.23zm-54.94 392.51c-24.85,-7.55 -5.89,-6.59 3.78,-28.32 -1.16,9.56 -2.49,18.98 -3.78,28.32zm33.23 65.64c-2.82,20.56 -10.97,23.52 -23.62,20.49 9.13,-5.86 16.93,-13.4 23.62,-20.49zm9.35 244.54c13.39,3.43 26.14,10.02 37.19,22.87 -5.32,34.61 -13.75,28.69 -18,28.01 1.76,-3.09 4.02,-7.76 7.02,-14.75 -11.87,-13.25 -20,-25.34 -26.21,-36.13zm16.55 54.84c-0.02,3.24 0.72,8.92 2.47,18.7l0.02 1.71 -20.06 -5.33c13.38,-24.9 11.97,-8.51 17.57,-15.08zm9350.31 721.75c-14.29,10.34 -23.38,23.4 -29.84,31.4 0.98,-32.28 11.57,-35.56 29.84,-31.4zm-9241.14 -1971.6l-15.46 0 15.78 -1.96c-0.1,0.66 -0.21,1.31 -0.32,1.96z"/>
 </g>
</svg>
